<?xml version="1.0" encoding="utf-8" standalone="no"?>
<!DOCTYPE svg PUBLIC "-//W3C//DTD SVG 1.1//EN"
  "http://www.w3.org/Graphics/SVG/1.1/DTD/svg11.dtd">
<!-- Created with matplotlib (https://matplotlib.org/) -->
<svg height="217.98924pt" version="1.1" viewBox="0 0 330.576 217.98924" width="330.576pt" xmlns="http://www.w3.org/2000/svg" xmlns:xlink="http://www.w3.org/1999/xlink">
 <defs>
  <style type="text/css">
*{stroke-linecap:butt;stroke-linejoin:round;}
  </style>
 </defs>
 <g id="figure_1">
  <g id="patch_1">
   <path d="M 0 217.98924 
L 330.576 217.98924 
L 330.576 0 
L 0 0 
z
" style="fill:none;"/>
  </g>
  <g id="axes_1">
   <g id="patch_2">
    <path d="M 44.41504 179.95598 
L 324.576 179.95598 
L 324.576 15.99998 
L 44.41504 15.99998 
z
" style="fill:none;"/>
   </g>
   <g id="matplotlib.axis_1">
    <g id="xtick_1">
     <g id="line2d_1">
      <defs>
       <path d="M 0 0 
L 0 6 
" id="mdd90222c3a" style="stroke:#262626;stroke-width:1.25;"/>
      </defs>
      <g>
       <use style="fill:#262626;stroke:#262626;stroke-width:1.25;" x="44.41504" xlink:href="#mdd90222c3a" y="179.95598"/>
      </g>
     </g>
     <g id="text_1">
      <!-- $0$ -->
      <defs>
       <path d="M 42 31.84375 
C 42 37.96875 41.90625 48.421875 37.703125 56.453125 
C 34 63.484375 28.09375 66 22.90625 66 
C 18.09375 66 12 63.78125 8.203125 56.5625 
C 4.203125 49.015625 3.796875 39.671875 3.796875 31.84375 
C 3.796875 26.109375 3.90625 17.375 7 9.734375 
C 11.296875 -0.609375 19 -2 22.90625 -2 
C 27.5 -2 34.5 -0.109375 38.59375 9.4375 
C 41.59375 16.375 42 24.5 42 31.84375 
z
M 22.90625 -0.40625 
C 16.5 -0.40625 12.703125 5.125 11.296875 12.75 
C 10.203125 18.6875 10.203125 27.328125 10.203125 32.953125 
C 10.203125 40.6875 10.203125 47.109375 11.5 53.234375 
C 13.40625 61.78125 19 64.390625 22.90625 64.390625 
C 27 64.390625 32.296875 61.671875 34.203125 53.4375 
C 35.5 47.71875 35.59375 40.984375 35.59375 32.953125 
C 35.59375 26.421875 35.59375 18.375 34.40625 12.453125 
C 32.296875 1.5 26.40625 -0.40625 22.90625 -0.40625 
z
" id="CMR17-48"/>
      </defs>
      <g style="fill:#262626;" transform="translate(41.18383 198.62262)scale(0.132 -0.132)">
       <use transform="scale(0.996264)" xlink:href="#CMR17-48"/>
      </g>
     </g>
    </g>
    <g id="xtick_2">
     <g id="line2d_2">
      <g>
       <use style="fill:#262626;stroke:#262626;stroke-width:1.25;" x="114.45528" xlink:href="#mdd90222c3a" y="179.95598"/>
      </g>
     </g>
     <g id="text_2">
      <!-- $1$ -->
      <defs>
       <path d="M 26.59375 63.796875 
C 26.59375 65.890625 26.5 66 25.09375 66 
C 21.203125 61.359375 15.296875 59.890625 9.703125 59.6875 
C 9.40625 59.6875 8.90625 59.6875 8.796875 59.5 
C 8.703125 59.296875 8.703125 59.09375 8.703125 57 
C 11.796875 57 17 57.59375 21 59.984375 
L 21 7.296875 
C 21 3.796875 20.796875 2.59375 12.203125 2.59375 
L 9.203125 2.59375 
L 9.203125 0 
C 14 0.09375 19 0.1875 23.796875 0.1875 
C 28.59375 0.1875 33.59375 0.09375 38.40625 0 
L 38.40625 2.59375 
L 35.40625 2.59375 
C 26.796875 2.59375 26.59375 3.6875 26.59375 7.296875 
z
" id="CMR17-49"/>
      </defs>
      <g style="fill:#262626;" transform="translate(111.22407 198.62262)scale(0.132 -0.132)">
       <use transform="scale(0.996264)" xlink:href="#CMR17-49"/>
      </g>
     </g>
    </g>
    <g id="xtick_3">
     <g id="line2d_3">
      <g>
       <use style="fill:#262626;stroke:#262626;stroke-width:1.25;" x="184.49552" xlink:href="#mdd90222c3a" y="179.95598"/>
      </g>
     </g>
     <g id="text_3">
      <!-- $2$ -->
      <defs>
       <path d="M 41.703125 15.46875 
L 39.90625 15.46875 
C 38.90625 8.390625 38.09375 7.1875 37.703125 6.59375 
C 37.203125 5.796875 30 5.796875 28.59375 5.796875 
L 9.40625 5.796875 
C 13 9.6875 20 16.765625 28.5 24.9375 
C 34.59375 30.71875 41.703125 37.5 41.703125 47.390625 
C 41.703125 59.1875 32.296875 66 21.796875 66 
C 10.796875 66 4.09375 56.296875 4.09375 47.296875 
C 4.09375 43.390625 7 42.890625 8.203125 42.890625 
C 9.203125 42.890625 12.203125 43.484375 12.203125 46.984375 
C 12.203125 50.09375 9.59375 51 8.203125 51 
C 7.59375 51 7 50.890625 6.59375 50.6875 
C 8.5 59.1875 14.296875 63.390625 20.40625 63.390625 
C 29.09375 63.390625 34.796875 56.5 34.796875 47.390625 
C 34.796875 38.703125 29.703125 31.21875 24 24.734375 
L 4.09375 2.296875 
L 4.09375 0 
L 39.296875 0 
z
" id="CMR17-50"/>
      </defs>
      <g style="fill:#262626;" transform="translate(181.26431 198.62262)scale(0.132 -0.132)">
       <use transform="scale(0.996264)" xlink:href="#CMR17-50"/>
      </g>
     </g>
    </g>
    <g id="xtick_4">
     <g id="line2d_4">
      <g>
       <use style="fill:#262626;stroke:#262626;stroke-width:1.25;" x="254.53576" xlink:href="#mdd90222c3a" y="179.95598"/>
      </g>
     </g>
     <g id="text_4">
      <!-- $3$ -->
      <defs>
       <path d="M 22.09375 34 
C 31 34 34.90625 26.140625 34.90625 17.09375 
C 34.90625 5.03125 28.5 0.390625 22.703125 0.390625 
C 17.40625 0.390625 8.796875 3.015625 6.09375 10.796875 
C 6.59375 10.59375 7.09375 10.59375 7.59375 10.59375 
C 10 10.59375 11.796875 12.1875 11.796875 14.796875 
C 11.796875 17.6875 9.59375 19 7.59375 19 
C 5.90625 19 3.296875 18.1875 3.296875 14.484375 
C 3.296875 5.234375 12.296875 -2 22.90625 -2 
C 34 -2 42.5 6.75 42.5 16.984375 
C 42.5 26.84375 34.5 34 25 35.09375 
C 32.59375 36.671875 39.90625 43.375 39.90625 52.390625 
C 39.90625 60.25 32 66 23 66 
C 13.90625 66 5.90625 60.34375 5.90625 52.296875 
C 5.90625 48.796875 8.5 48.1875 9.796875 48.1875 
C 11.90625 48.1875 13.703125 49.484375 13.703125 52.09375 
C 13.703125 54.6875 11.90625 56 9.796875 56 
C 9.40625 56 8.90625 56 8.5 55.796875 
C 11.40625 62.484375 19.296875 63.6875 22.796875 63.6875 
C 26.296875 63.6875 32.90625 61.96875 32.90625 52.296875 
C 32.90625 49.484375 32.5 44.546875 29.09375 40.21875 
C 26.09375 36.390625 22.703125 36.1875 19.40625 35.890625 
C 18.90625 35.890625 16.59375 35.6875 16.203125 35.6875 
C 15.5 35.59375 15.09375 35.5 15.09375 34.796875 
C 15.09375 34.09375 15.203125 34 17.203125 34 
z
" id="CMR17-51"/>
      </defs>
      <g style="fill:#262626;" transform="translate(251.30455 198.62262)scale(0.132 -0.132)">
       <use transform="scale(0.996264)" xlink:href="#CMR17-51"/>
      </g>
     </g>
    </g>
    <g id="xtick_5">
     <g id="line2d_5">
      <g>
       <use style="fill:#262626;stroke:#262626;stroke-width:1.25;" x="324.576" xlink:href="#mdd90222c3a" y="179.95598"/>
      </g>
     </g>
     <g id="text_5">
      <!-- $4$ -->
      <defs>
       <path d="M 33.59375 64.796875 
C 33.59375 66.890625 33.5 67 31.703125 67 
L 2 19.59375 
L 2 17 
L 27.796875 17 
L 27.796875 7.1875 
C 27.796875 3.59375 27.59375 2.59375 20.59375 2.59375 
L 18.703125 2.59375 
L 18.703125 0 
C 21.90625 0.1875 27.296875 0.1875 30.703125 0.1875 
C 34.09375 0.1875 39.5 0.1875 42.703125 0 
L 42.703125 2.59375 
L 40.796875 2.59375 
C 33.796875 2.59375 33.59375 3.59375 33.59375 7.1875 
L 33.59375 17 
L 43.796875 17 
L 43.796875 19.59375 
L 33.59375 19.59375 
z
M 28.09375 58.171875 
L 28.09375 19.59375 
L 4 19.59375 
z
" id="CMR17-52"/>
      </defs>
      <g style="fill:#262626;" transform="translate(321.34479 198.62262)scale(0.132 -0.132)">
       <use transform="scale(0.996264)" xlink:href="#CMR17-52"/>
      </g>
     </g>
    </g>
    <g id="text_6">
     <!-- $r$ -->
     <defs>
      <path d="M 38.90625 41.140625 
C 35.796875 40.59375 34.203125 38.390625 34.203125 36.1875 
C 34.203125 33.796875 36.09375 32.984375 37.5 32.984375 
C 40.296875 32.984375 42.59375 35.390625 42.59375 38.390625 
C 42.59375 41.421875 39.5 44 34.5 44 
C 30.5 44 25.90625 42.1875 21.703125 36.484375 
C 21 41.5625 17 44 13 44 
C 9.09375 44 7.09375 41.28125 5.90625 39.1875 
C 4.203125 35.59375 2.703125 29.5625 2.703125 29.0625 
C 2.703125 28.65625 3.09375 28.140625 3.796875 28.140625 
C 4.59375 28.140625 4.703125 28.25 5.296875 30.578125 
C 6.796875 36.59375 8.703125 41.984375 12.703125 41.984375 
C 15.09375 41.984375 15.796875 40.6875 15.796875 37.796875 
C 15.796875 35.59375 14.796875 31.6875 14.09375 28.546875 
L 11.296875 17.65625 
C 10.90625 15.734375 9.796875 11.1875 9.296875 9.375 
C 8.59375 6.75 7.5 2 7.5 1.5 
C 7.5 0.09375 8.59375 -1 10.09375 -1 
C 11.203125 -1 13.09375 -0.3125 13.703125 1.703125 
C 14 2.5 17.703125 17.75 18.296875 20.078125 
C 18.796875 22.296875 19.40625 24.40625 19.90625 26.640625 
C 20.296875 28.046875 20.703125 29.65625 21 30.96875 
C 21.296875 31.875 24 36.796875 26.5 38.984375 
C 27.703125 40.09375 30.296875 41.984375 34.40625 41.984375 
C 36 41.984375 37.59375 41.78125 38.90625 41.140625 
z
" id="CMMI12-114"/>
     </defs>
     <g style="fill:#262626;" transform="translate(181.12265 215.18925)scale(0.144 -0.144)">
      <use transform="scale(0.996264)" xlink:href="#CMMI12-114"/>
     </g>
    </g>
   </g>
   <g id="matplotlib.axis_2">
    <g id="ytick_1">
     <g id="line2d_6">
      <defs>
       <path d="M 0 0 
L -6 0 
" id="m6c95199476" style="stroke:#262626;stroke-width:1.25;"/>
      </defs>
      <g>
       <use style="fill:#262626;stroke:#262626;stroke-width:1.25;" x="44.41504" xlink:href="#m6c95199476" y="179.95598"/>
      </g>
     </g>
     <g id="text_7">
      <!-- $0.0$ -->
      <defs>
       <path d="M 18.40625 4.796875 
C 18.40625 7.6875 16 9.6875 13.59375 9.6875 
C 10.703125 9.6875 8.703125 7.296875 8.703125 4.890625 
C 8.703125 2 11.09375 0 13.5 0 
C 16.40625 0 18.40625 2.390625 18.40625 4.796875 
z
" id="CMMI12-58"/>
      </defs>
      <g style="fill:#262626;" transform="translate(18.39998 184.5393)scale(0.132 -0.132)">
       <use transform="scale(0.996264)" xlink:href="#CMR17-48"/>
       <use transform="translate(45.690477 0)scale(0.996264)" xlink:href="#CMMI12-58"/>
       <use transform="translate(72.787654 0)scale(0.996264)" xlink:href="#CMR17-48"/>
      </g>
     </g>
    </g>
    <g id="ytick_2">
     <g id="line2d_7">
      <g>
       <use style="fill:#262626;stroke:#262626;stroke-width:1.25;" x="44.41504" xlink:href="#m6c95199476" y="97.97798"/>
      </g>
     </g>
     <g id="text_8">
      <!-- $0.5$ -->
      <defs>
       <path d="M 11.40625 58.59375 
C 12.40625 58.1875 16.5 56.890625 20.703125 56.890625 
C 30 56.890625 35.09375 61.890625 38 64.6875 
C 38 65.484375 38 66 37.40625 66 
C 37.296875 66 37.09375 66 36.296875 65.59375 
C 32.796875 64.09375 28.703125 63 23.703125 63 
C 20.703125 63 16.203125 63.359375 11.296875 65.484375 
C 10.203125 66 10 66 9.90625 66 
C 9.40625 66 9.296875 65.890625 9.296875 63.90625 
L 9.296875 34.859375 
C 9.296875 33.015625 9.296875 32.5 10.296875 32.5 
C 10.796875 32.5 11 32.703125 11.5 33.421875 
C 14.703125 38.046875 19.09375 40 24.09375 40 
C 27.59375 40 35.09375 37.734375 35.09375 20.203125 
C 35.09375 16.984375 35.09375 11.1875 32.09375 6.59375 
C 29.59375 2.484375 25.703125 0.390625 21.40625 0.390625 
C 14.796875 0.390625 8.09375 4.984375 6.296875 12.6875 
C 6.703125 12.59375 7.5 12.390625 7.90625 12.390625 
C 9.203125 12.390625 11.703125 13.09375 11.703125 16.1875 
C 11.703125 18.890625 9.796875 20 7.90625 20 
C 5.59375 20 4.09375 18.59375 4.09375 15.796875 
C 4.09375 7.09375 11 -2 21.59375 -2 
C 31.90625 -2 41.703125 6.890625 41.703125 19.796875 
C 41.703125 32.09375 33.90625 41.59375 24.203125 41.59375 
C 19.09375 41.59375 14.796875 39.6875 11.40625 36 
z
" id="CMR17-53"/>
      </defs>
      <g style="fill:#262626;" transform="translate(18.39998 102.5613)scale(0.132 -0.132)">
       <use transform="scale(0.996264)" xlink:href="#CMR17-48"/>
       <use transform="translate(45.690477 0)scale(0.996264)" xlink:href="#CMMI12-58"/>
       <use transform="translate(72.787654 0)scale(0.996264)" xlink:href="#CMR17-53"/>
      </g>
     </g>
    </g>
    <g id="ytick_3">
     <g id="line2d_8">
      <g>
       <use style="fill:#262626;stroke:#262626;stroke-width:1.25;" x="44.41504" xlink:href="#m6c95199476" y="15.99998"/>
      </g>
     </g>
     <g id="text_9">
      <!-- $1.0$ -->
      <g style="fill:#262626;" transform="translate(18.39998 20.5833)scale(0.132 -0.132)">
       <use transform="scale(0.996264)" xlink:href="#CMR17-49"/>
       <use transform="translate(45.690477 0)scale(0.996264)" xlink:href="#CMMI12-58"/>
       <use transform="translate(72.787654 0)scale(0.996264)" xlink:href="#CMR17-48"/>
      </g>
     </g>
    </g>
    <g id="text_10">
     <!-- $K(r|\nu)$ -->
     <defs>
      <path d="M 50 40.21875 
C 49.90625 40.515625 49.5 41.3125 49.5 41.609375 
C 49.5 41.703125 49.59375 41.796875 51.296875 43.09375 
L 61 50.65625 
C 74.40625 61.015625 78.796875 64.5 85.703125 65.09375 
C 86.40625 65.1875 87.40625 65.1875 87.40625 66.890625 
C 87.40625 67.484375 87.09375 68 86.296875 68 
C 85.203125 68 84 67.796875 82.90625 67.796875 
L 79.09375 67.796875 
C 76 67.796875 72.703125 68 69.703125 68 
C 69 68 67.796875 68 67.796875 66.1875 
C 67.796875 65.1875 68.5 65.09375 69.09375 65.09375 
C 70.203125 64.984375 71.5 64.59375 71.5 63.203125 
C 71.5 61.203125 68.5 58.828125 67.703125 58.21875 
L 28.5 27.875 
L 36.796875 60.71875 
C 37.703125 64.09375 37.90625 65.09375 45 65.09375 
C 46.90625 65.09375 47.796875 65.09375 47.796875 66.984375 
C 47.796875 68 46.796875 68 46.296875 68 
C 44.5 68 42.40625 67.796875 40.5 67.796875 
L 28.703125 67.796875 
C 26.90625 67.796875 24.703125 68 22.90625 68 
C 22.09375 68 21 68 21 66.09375 
C 21 65.09375 21.90625 65.09375 23.40625 65.09375 
C 29.5 65.09375 29.5 64.296875 29.5 63.203125 
C 29.5 63 29.5 62.40625 29.09375 60.90625 
L 15.59375 7.375 
C 14.703125 3.890625 14.5 2.890625 7.5 2.890625 
C 5.59375 2.890625 4.59375 2.890625 4.59375 1.09375 
C 4.59375 0 5.5 0 6.09375 0 
C 8 0 10 0.1875 11.90625 0.1875 
L 23.59375 0.1875 
C 25.5 0.1875 27.59375 0 29.5 0 
C 30.296875 0 31.40625 0 31.40625 1.890625 
C 31.40625 2.890625 30.5 2.890625 29 2.890625 
C 22.90625 2.890625 22.90625 3.6875 22.90625 4.6875 
C 22.90625 5.375 23.5 7.875 23.90625 9.453125 
L 27.796875 24.890625 
L 43 36.734375 
C 45.90625 30.359375 51.203125 17.625 55.296875 7.875 
C 55.59375 7.265625 55.796875 6.671875 55.796875 5.984375 
C 55.796875 2.984375 51.796875 2.890625 50.90625 2.890625 
C 50 2.890625 49 2.890625 49 1 
C 49 0 50.09375 0 50.40625 0 
C 53.90625 0 57.59375 0.1875 61.09375 0.1875 
L 65.90625 0.1875 
C 67.40625 0.1875 69.09375 0 70.59375 0 
C 71.203125 0 72.296875 0 72.296875 1.890625 
C 72.296875 2.890625 71.40625 2.890625 70.40625 2.890625 
C 66.703125 2.984375 65.40625 3.78125 63.90625 7.375 
z
" id="CMMI12-75"/>
      <path d="M 30.59375 -24.40625 
C 30.59375 -24.3125 30.59375 -24.109375 30.296875 -23.8125 
C 25.703125 -19.109375 13.40625 -6.296875 13.40625 24.9375 
C 13.40625 56.171875 25.5 68.875 30.40625 73.890625 
C 30.40625 73.984375 30.59375 74.1875 30.59375 74.484375 
C 30.59375 74.796875 30.296875 75 29.90625 75 
C 28.796875 75 20.296875 67.578125 15.40625 56.5625 
C 10.40625 45.453125 9 34.65625 9 25.046875 
C 9 17.828125 9.703125 5.625 15.703125 -7.296875 
C 20.5 -17.703125 28.703125 -25 29.90625 -25 
C 30.40625 -25 30.59375 -24.8125 30.59375 -24.40625 
z
" id="CMR17-40"/>
      <path d="M 15.90625 71.390625 
C 15.90625 73.1875 15.90625 75 13.90625 75 
C 11.90625 75 11.90625 73.1875 11.90625 71.390625 
L 11.90625 -21.40625 
C 11.90625 -23.203125 11.90625 -25 13.90625 -25 
C 15.90625 -25 15.90625 -23.203125 15.90625 -21.40625 
z
" id="CMSY10-106"/>
      <path d="M 22 42.984375 
C 22 43.390625 21.703125 44 20.90625 44 
C 20.203125 44 10.796875 43.09375 9.296875 42.984375 
C 8.203125 42.890625 7.203125 42.796875 7.203125 40.984375 
C 7.203125 39.984375 8 39.984375 9.40625 39.984375 
C 14.09375 39.984375 14.40625 39.296875 14.40625 38.203125 
C 14.40625 37.796875 14.203125 36.609375 14.09375 36.203125 
L 5.296875 1 
C 5.296875 0.59375 5.59375 0 6.296875 0 
L 8.40625 0 
C 9.796875 0 25 3.59375 36.703125 15.5625 
C 49.59375 28.828125 51.40625 41.09375 51.40625 41.484375 
C 51.40625 43.09375 50.09375 44 48.796875 44 
C 45.90625 44 45.203125 41.296875 45 40.59375 
C 39.09375 19.75 25.40625 7.375 12.09375 3 
z
" id="CMMI12-23"/>
      <path d="M 26.296875 24.9375 
C 26.296875 32.140625 25.59375 44.359375 19.59375 57.265625 
C 14.796875 67.6875 6.59375 75 5.40625 75 
C 5.09375 75 4.703125 74.890625 4.703125 74.390625 
C 4.703125 74.1875 4.796875 74.09375 4.90625 73.890625 
C 9.703125 68.875 21.90625 56.171875 21.90625 25.046875 
C 21.90625 -6.1875 9.796875 -18.90625 4.90625 -23.90625 
C 4.796875 -24.109375 4.703125 -24.203125 4.703125 -24.40625 
C 4.703125 -24.90625 5.09375 -25 5.40625 -25 
C 6.5 -25 15 -17.609375 19.90625 -6.59375 
C 24.90625 4.515625 26.296875 15.328125 26.296875 24.9375 
z
" id="CMR17-41"/>
     </defs>
     <g style="fill:#262626;" transform="translate(10.79999 119.28652)rotate(-90)scale(0.144 -0.144)">
      <use transform="translate(0 -0.0934)scale(0.996264)" xlink:href="#CMMI12-75"/>
      <use transform="translate(90.147421 -0.0934)scale(0.996264)" xlink:href="#CMR17-40"/>
      <use transform="translate(125.428189 -0.0934)scale(0.996264)" xlink:href="#CMMI12-114"/>
      <use transform="translate(172.098801 -0.0934)scale(0.996264)" xlink:href="#CMSY10-106"/>
      <use transform="translate(199.772885 -0.0934)scale(0.996264)" xlink:href="#CMMI12-23"/>
      <use transform="translate(254.255678 -0.0934)scale(0.996264)" xlink:href="#CMR17-41"/>
     </g>
    </g>
   </g>
   <g id="line2d_9">
    <path clip-path="url(#pa49d06c0d8)" d="M 44.41504 15.99998 
L 44.695481 61.248908 
L 45.256364 72.367165 
L 45.817247 78.42891 
L 46.658571 84.578553 
L 47.499895 89.083796 
L 48.621661 93.752655 
L 49.743427 97.506719 
L 51.145634 101.389831 
L 52.547841 104.665315 
L 54.230489 108.037962 
L 56.193579 111.421443 
L 58.156669 114.369866 
L 60.4002 117.340261 
L 62.924172 120.292332 
L 65.728587 123.198887 
L 68.813442 126.041906 
L 72.178739 128.809669 
L 75.824477 131.494743 
L 79.750657 134.092597 
L 83.957278 136.600665 
L 88.44434 139.017716 
L 93.492285 141.473355 
L 98.820672 143.813561 
L 104.709941 146.149004 
L 110.879652 148.358186 
L 117.610246 150.534629 
L 124.901722 152.659705 
L 132.754081 154.718769 
L 141.447765 156.763012 
L 150.702331 158.708355 
L 160.798222 160.600201 
L 171.735436 162.419481 
L 183.513975 164.151678 
L 196.41428 165.820254 
L 210.43635 167.405203 
L 225.580185 168.891966 
L 242.126228 170.292822 
L 260.354919 171.61124 
L 280.5467 172.844554 
L 302.982012 173.986374 
L 324.576 174.900407 
L 324.576 174.900407 
" style="fill:none;stroke:#f69e72;stroke-linecap:round;stroke-width:1.5;"/>
   </g>
   <g id="line2d_10">
    <path clip-path="url(#pa49d06c0d8)" d="M 44.41504 15.99998 
L 48.621661 25.557308 
L 52.828282 34.557519 
L 57.034903 43.03309 
L 61.241524 51.014603 
L 65.448145 58.530857 
L 69.654766 65.608974 
L 73.861387 72.274493 
L 78.34845 78.956677 
L 82.835512 85.224198 
L 87.322574 91.102787 
L 91.809637 96.61658 
L 96.296699 101.788214 
L 100.783762 106.638922 
L 105.551266 111.463413 
L 110.318769 115.970438 
L 115.086273 120.180886 
L 120.134218 124.337417 
L 125.182164 128.204918 
L 130.230109 131.803489 
L 135.558495 135.330866 
L 140.886882 138.599847 
L 146.49571 141.782515 
L 152.38498 144.861054 
L 158.274249 147.691321 
L 164.44396 150.41187 
L 170.894112 153.011127 
L 177.624706 155.479903 
L 184.635741 157.811326 
L 191.927217 160.000735 
L 199.499135 162.045538 
L 207.631936 164.009027 
L 216.045178 165.814 
L 225.019303 167.514706 
L 234.55431 169.098184 
L 244.930642 170.593266 
L 256.148298 171.978879 
L 268.207278 173.240583 
L 281.388024 174.392551 
L 295.970977 175.438264 
L 312.236578 176.374507 
L 324.576 176.953021 
L 324.576 176.953021 
" style="fill:none;stroke:#ee7956;stroke-linecap:round;stroke-width:1.5;"/>
   </g>
   <g id="line2d_11">
    <path clip-path="url(#pa49d06c0d8)" d="M 44.41504 15.99998 
L 45.256364 16.110964 
L 46.37813 16.495188 
L 47.780337 17.251812 
L 49.462985 18.473333 
L 51.426075 20.237317 
L 53.669606 22.602649 
L 56.193579 25.607418 
L 59.278434 29.649166 
L 63.204614 35.203027 
L 68.533001 43.178709 
L 89.005223 74.248428 
L 94.894492 82.593173 
L 100.222879 89.778168 
L 105.551266 96.588856 
L 110.599211 102.683853 
L 115.647156 108.428058 
L 120.695101 113.824204 
L 125.743046 118.879294 
L 130.790992 123.603428 
L 135.838937 128.008897 
L 140.886882 132.109474 
L 145.934827 135.919868 
L 150.982773 139.455299 
L 156.030718 142.73117 
L 161.359104 145.924386 
L 166.687491 148.863204 
L 172.296319 151.700782 
L 177.905147 154.294871 
L 183.794416 156.776762 
L 189.964127 159.132679 
L 196.41428 161.351803 
L 203.144873 163.426259 
L 210.155908 165.351025 
L 217.447385 167.123773 
L 225.299744 168.80072 
L 233.712986 170.362116 
L 242.687111 171.793844 
L 252.222118 173.087285 
L 262.59845 174.268073 
L 274.096548 175.345476 
L 286.716411 176.298557 
L 300.738481 177.131745 
L 316.723641 177.855606 
L 324.576 178.140867 
L 324.576 178.140867 
" style="fill:none;stroke:#e7543b;stroke-linecap:round;stroke-width:1.5;"/>
   </g>
   <g id="line2d_12">
    <path clip-path="url(#pa49d06c0d8)" d="M 44.41504 15.99998 
L 46.658571 16.122244 
L 48.902102 16.488039 
L 51.145634 17.094428 
L 53.389165 17.936644 
L 55.632696 19.008257 
L 58.156669 20.478118 
L 60.680641 22.215062 
L 63.485055 24.44007 
L 66.289469 26.953991 
L 69.374325 30.024432 
L 72.739622 33.700654 
L 76.38536 38.018108 
L 80.591981 43.36112 
L 85.359485 49.782977 
L 91.529195 58.489909 
L 103.868617 76.41419 
L 112.562301 88.81882 
L 119.012453 97.645725 
L 124.621281 104.966937 
L 129.949667 111.569579 
L 134.997613 117.481482 
L 140.045558 123.044171 
L 144.813062 127.970557 
L 149.580566 132.57808 
L 154.348069 136.870085 
L 159.115573 140.853338 
L 163.883077 144.537315 
L 168.650581 147.933578 
L 173.418085 151.055232 
L 178.185588 153.916453 
L 183.233534 156.678626 
L 188.281479 159.183506 
L 193.609866 161.5684 
L 198.938252 163.707761 
L 204.54708 165.716883 
L 210.43635 167.582948 
L 216.60606 169.297103 
L 223.056213 170.854411 
L 229.786806 172.253652 
L 237.078283 173.542614 
L 244.930642 174.703888 
L 253.624325 175.758091 
L 263.159333 176.683375 
L 273.816106 177.487709 
L 285.875087 178.170178 
L 299.897157 178.73698 
L 317.004082 179.196497 
L 324.576 179.341459 
L 324.576 179.341459 
" style="fill:none;stroke:#ab4938;stroke-linecap:round;stroke-width:1.5;"/>
   </g>
   <g id="line2d_13">
    <path clip-path="url(#pa49d06c0d8)" d="M 44.41504 15.99998 
L 46.939013 16.110833 
L 49.462985 16.442922 
L 51.986958 16.994845 
L 54.51093 17.764273 
L 57.034903 18.747972 
L 59.839317 20.087237 
L 62.643731 21.679047 
L 65.448145 23.515279 
L 68.533001 25.806325 
L 71.617856 28.367988 
L 74.983153 31.453133 
L 78.628891 35.113095 
L 82.555071 39.391013 
L 86.761692 44.318161 
L 91.529195 50.269803 
L 96.857582 57.294599 
L 103.307734 66.178336 
L 113.964508 81.303739 
L 125.182164 97.106244 
L 132.193199 106.592303 
L 138.082468 114.198049 
L 143.410855 120.734535 
L 148.4588 126.589197 
L 153.226304 131.795305 
L 157.993808 136.673966 
L 162.48087 140.959999 
L 166.967932 144.947825 
L 171.454995 148.639422 
L 175.942057 152.04 
L 180.42912 155.157529 
L 184.916182 158.002272 
L 189.403245 160.586326 
L 193.890307 162.923203 
L 198.657811 165.15156 
L 203.425315 167.135499 
L 208.47326 168.990427 
L 213.521205 170.614335 
L 218.849592 172.101846 
L 224.45842 173.442859 
L 230.628131 174.683688 
L 237.078283 175.753979 
L 244.089318 176.694511 
L 251.941677 177.520279 
L 260.63536 178.210174 
L 270.731251 178.784883 
L 282.790231 179.241391 
L 297.934067 179.581296 
L 318.686731 179.80786 
L 324.576 179.843143 
L 324.576 179.843143 
" style="fill:none;stroke:#6e3e35;stroke-linecap:round;stroke-width:1.5;"/>
   </g>
   <g id="line2d_14">
    <path clip-path="url(#pa49d06c0d8)" d="M 44.41504 15.99998 
L 46.939013 16.106402 
L 49.462985 16.425253 
L 51.986958 16.955293 
L 54.51093 17.694464 
L 57.315344 18.757534 
L 60.119758 20.070174 
L 62.924172 21.626164 
L 66.009028 23.610044 
L 69.093883 25.868266 
L 72.45918 28.629767 
L 75.824477 31.684474 
L 79.470215 35.30154 
L 83.396395 39.524385 
L 87.603016 44.385714 
L 92.37052 50.258905 
L 97.698906 57.197404 
L 104.149058 65.987821 
L 113.684066 79.416701 
L 127.145253 98.341752 
L 134.156288 107.805262 
L 140.045558 115.402966 
L 145.654386 122.274172 
L 150.702331 128.115651 
L 155.469835 133.311375 
L 160.237339 138.180361 
L 164.724401 142.456727 
L 169.211464 146.433209 
L 173.698526 150.110761 
L 178.185588 153.493704 
L 182.672651 156.589291 
L 187.159713 159.407262 
L 191.646776 161.959405 
L 196.133838 164.259128 
L 200.901342 166.442377 
L 205.668846 168.375741 
L 210.716791 170.171756 
L 215.764736 171.732052 
L 221.093123 173.14839 
L 226.701951 174.411361 
L 232.871662 175.564396 
L 239.321814 176.542753 
L 246.61329 177.415025 
L 254.746091 178.150937 
L 264.000657 178.752687 
L 274.937872 179.227432 
L 288.399059 179.576036 
L 306.62775 179.807634 
L 324.576 179.900979 
L 324.576 179.900979 
" style="fill:none;stroke:#000000;stroke-linecap:round;stroke-width:1.5;"/>
   </g>
   <g id="patch_3">
    <path d="M 44.41504 179.95598 
L 44.41504 15.99998 
" style="fill:none;stroke:#262626;stroke-linecap:square;stroke-linejoin:miter;stroke-width:1.25;"/>
   </g>
   <g id="patch_4">
    <path d="M 324.576 179.95598 
L 324.576 15.99998 
" style="fill:none;stroke:#262626;stroke-linecap:square;stroke-linejoin:miter;stroke-width:1.25;"/>
   </g>
   <g id="patch_5">
    <path d="M 44.41504 179.95598 
L 324.576 179.95598 
" style="fill:none;stroke:#262626;stroke-linecap:square;stroke-linejoin:miter;stroke-width:1.25;"/>
   </g>
   <g id="patch_6">
    <path d="M 44.41504 15.99998 
L 324.576 15.99998 
" style="fill:none;stroke:#262626;stroke-linecap:square;stroke-linejoin:miter;stroke-width:1.25;"/>
   </g>
   <g id="text_11">
    <!-- Mat\'{e}rn Correlation Kernel -->
    <defs>
     <path d="M 20.90625 66.390625 
C 20.296875 67.890625 20.203125 68 18.09375 68 
L 5.296875 68 
L 5.296875 65.390625 
C 12.203125 65.390625 13.296875 65.390625 13.296875 60.90625 
L 13.296875 9.75 
C 13.296875 7.265625 13.296875 2.59375 5.296875 2.59375 
L 5.296875 0 
C 7.59375 0.1875 11.796875 0.1875 14.296875 0.1875 
C 16.796875 0.1875 21 0.1875 23.296875 0 
L 23.296875 2.59375 
C 15.296875 2.59375 15.296875 7.265625 15.296875 9.75 
L 15.296875 64.984375 
L 15.40625 64.984375 
L 38.90625 1.59375 
C 39.296875 0.59375 39.5 0 40.296875 0 
C 41.09375 0 41.296875 0.59375 41.703125 1.59375 
L 65.40625 65.484375 
L 65.5 65.484375 
L 65.5 7.078125 
C 65.5 2.59375 64.40625 2.59375 57.5 2.59375 
L 57.5 0 
C 60.203125 0.1875 65.59375 0.1875 68.5 0.1875 
C 71.40625 0.1875 76.90625 0.1875 79.59375 0 
L 79.59375 2.59375 
C 72.703125 2.59375 71.59375 2.59375 71.59375 7.078125 
L 71.59375 60.90625 
C 71.59375 65.390625 72.703125 65.390625 79.59375 65.390625 
L 79.59375 68 
L 66.90625 68 
C 64.796875 68 64.703125 67.890625 64.09375 66.390625 
L 42.5 8.0625 
z
" id="CMR17-77"/>
     <path d="M 36 25.875 
C 36 32 36 35.546875 31.796875 39.59375 
C 28.09375 42.984375 23.796875 44 20.40625 44 
C 12.5 44 6.796875 37.625 6.796875 30.890625 
C 6.796875 27.1875 9.796875 27 10.40625 27 
C 11.703125 27 14 27.796875 14 30.59375 
C 14 33.09375 12.09375 34.1875 10.40625 34.1875 
C 10 34.1875 9.5 34.09375 9.203125 34 
C 11.296875 40.53125 16.703125 42.390625 20.203125 42.390625 
C 25.203125 42.390625 30.703125 37.828125 30.703125 29.296875 
L 30.703125 25.5 
C 24.796875 25.296875 17.703125 24.5 12.09375 21.453125 
C 5.796875 17.921875 4 12.84375 4 9 
C 4 1.203125 13 -1 18.296875 -1 
C 23.796875 -1 28.90625 2.109375 31.09375 7.890625 
C 31.296875 3.421875 34.09375 -0.609375 38.5 -0.609375 
C 40.59375 -0.609375 45.90625 0.796875 45.90625 8.796875 
L 45.90625 14.46875 
L 44.09375 14.46875 
L 44.09375 8.703125 
C 44.09375 2.515625 41.40625 1.703125 40.09375 1.703125 
C 36 1.703125 36 6.96875 36 11.4375 
z
M 30.703125 13.859375 
C 30.703125 5.046875 24.5 0.59375 19 0.59375 
C 14 0.59375 10.09375 4.34375 10.09375 9 
C 10.09375 12.046875 11.40625 17.40625 17.203125 20.65625 
C 22 23.390625 27.5 23.796875 30.703125 24 
z
" id="CMR17-97"/>
     <path d="M 15.09375 40.390625 
L 29.09375 40.390625 
L 29.09375 43 
L 15.09375 43 
L 15.09375 62 
L 13.296875 62 
C 13.09375 51.4375 9.59375 42.1875 1.09375 41.984375 
L 1.09375 40.390625 
L 9.796875 40.390625 
L 9.796875 12.15625 
C 9.796875 10.234375 9.796875 -1 21.40625 -1 
C 27.296875 -1 30.703125 4.8125 30.703125 12.25 
L 30.703125 17.984375 
L 28.90625 17.984375 
L 28.90625 12.34375 
C 28.90625 5.421875 26.203125 0.796875 22 0.796875 
C 19.09375 0.796875 15.09375 2.796875 15.09375 11.953125 
z
" id="CMR17-116"/>
     <path d="M 34.703125 64.953125 
C 35.90625 66.03125 36.203125 66.234375 36.203125 67.3125 
C 36.203125 68.796875 34.90625 70 33.5 70 
C 32.296875 70 31.90625 69.484375 30.90625 68.296875 
L 19.59375 54.1875 
C 18.90625 53.296875 18.90625 53.1875 18.90625 53.09375 
C 18.90625 52.984375 19.796875 52.09375 20 51.890625 
z
" id="CMR17-19"/>
     <path d="M 38.09375 23.484375 
C 38.5 23.890625 38.5 24.09375 38.5 25.09375 
C 38.5 35.171875 33.09375 44 21.703125 44 
C 11.09375 44 2.703125 33.984375 2.703125 21.78125 
C 2.703125 8.65625 12.203125 -1 22.796875 -1 
C 34 -1 38.40625 9.671875 38.40625 11.796875 
C 38.40625 12.5 37.796875 12.5 37.59375 12.5 
C 36.90625 12.5 36.796875 12.296875 36.40625 11.078125 
C 34.203125 4.21875 28.703125 0.796875 23.5 0.796875 
C 19.203125 0.796875 14.90625 3.21875 12.203125 7.65625 
C 9.09375 12.796875 9.09375 18.75 9.09375 23.484375 
z
M 9.203125 25 
C 9.90625 39.234375 17.59375 42.390625 21.59375 42.390625 
C 28.40625 42.390625 33 36.0625 33.09375 25 
z
" id="CMR17-101"/>
     <path d="M 15 23.703125 
C 15 33.34375 19.09375 42.390625 26.59375 42.390625 
C 27.296875 42.390625 28 42.296875 28.703125 41.984375 
C 28.703125 41.984375 26.5 41.28125 26.5 38.671875 
C 26.5 36.265625 28.40625 35.265625 29.90625 35.265625 
C 31.09375 35.265625 33.296875 35.96875 33.296875 38.78125 
C 33.296875 41.984375 30.09375 44 26.703125 44 
C 19.09375 44 15.796875 36.5625 14.796875 33.046875 
L 14.703125 33.046875 
L 14.703125 44 
L 3.09375 42.890625 
L 3.09375 40.28125 
C 9 40.28125 9.90625 39.6875 9.90625 34.859375 
L 9.90625 6.921875 
C 9.90625 3.09375 9.5 2.59375 3.09375 2.59375 
L 3.09375 0 
C 5.5 0.1875 10.09375 0.1875 12.703125 0.1875 
C 15.59375 0.1875 20.703125 0.1875 23.40625 0 
L 23.40625 2.59375 
C 16.203125 2.59375 15 2.59375 15 7.109375 
z
" id="CMR17-114"/>
     <path d="M 41.5 30.53125 
C 41.5 35.65625 40.5 44 28.703125 44 
C 20.796875 44 16.703125 37.875 15.203125 33.84375 
L 15.09375 33.84375 
L 15.09375 44 
L 3.296875 42.890625 
L 3.296875 40.28125 
C 9.203125 40.28125 10.09375 39.6875 10.09375 34.859375 
L 10.09375 6.921875 
C 10.09375 3.09375 9.703125 2.59375 3.296875 2.59375 
L 3.296875 0 
C 5.703125 0.1875 10.09375 0.1875 12.703125 0.1875 
C 15.296875 0.1875 19.796875 0.1875 22.203125 0 
L 22.203125 2.59375 
C 15.796875 2.59375 15.40625 3 15.40625 6.921875 
L 15.40625 26.21875 
C 15.40625 35.453125 21 42.390625 28 42.390625 
C 35.40625 42.390625 36.203125 35.765625 36.203125 30.9375 
L 36.203125 6.921875 
C 36.203125 3.09375 35.796875 2.59375 29.40625 2.59375 
L 29.40625 0 
C 31.796875 0.1875 36.203125 0.1875 38.796875 0.1875 
C 41.40625 0.1875 45.90625 0.1875 48.296875 0 
L 48.296875 2.59375 
C 41.90625 2.59375 41.5 3 41.5 6.921875 
z
" id="CMR17-110"/>
     <path d="M 62.09375 67.984375 
C 62.09375 69.796875 62 69.890625 61.40625 69.890625 
C 61 69.890625 60.90625 69.796875 60.203125 68.59375 
L 55.796875 60.140625 
C 50.90625 66.390625 44.90625 70 37.203125 70 
C 20.09375 70 4.59375 54.796875 4.59375 34.046875 
C 4.59375 13.078125 20.09375 -2 37.296875 -2 
C 52.59375 -2 62.09375 11.578125 62.09375 23.15625 
C 62.09375 24.171875 62.09375 24.578125 61.203125 24.578125 
C 60.40625 24.578125 60.40625 24.265625 60.296875 23.359375 
C 59.5 9.25 49.5 0.59375 38.703125 0.59375 
C 28.5 0.59375 12.203125 7.84375 12.203125 34.046875 
C 12.203125 60.34375 28.796875 67.390625 38.5 67.390625 
C 49.796875 67.390625 58 57.515625 59.90625 43.515625 
C 60.09375 42.296875 60.09375 42.109375 61 42.109375 
C 62.09375 42.109375 62.09375 42.296875 62.09375 44.125 
z
" id="CMR17-67"/>
     <path d="M 43.09375 21.1875 
C 43.09375 34 33.796875 44 22.90625 44 
C 12 44 2.703125 34 2.703125 21.1875 
C 2.703125 8.59375 12 -1 22.90625 -1 
C 33.796875 -1 43.09375 8.59375 43.09375 21.1875 
z
M 22.90625 0.796875 
C 18.203125 0.796875 14.203125 3.59375 11.90625 7.5 
C 9.40625 12 9.09375 17.59375 9.09375 22 
C 9.09375 26.1875 9.296875 31.390625 11.90625 35.890625 
C 13.90625 39.1875 17.796875 42.390625 22.90625 42.390625 
C 27.40625 42.390625 31.203125 39.890625 33.59375 36.390625 
C 36.703125 31.6875 36.703125 25.09375 36.703125 22 
C 36.703125 18.09375 36.5 12.09375 33.796875 7.296875 
C 31 2.6875 26.703125 0.796875 22.90625 0.796875 
z
" id="CMR17-111"/>
     <path d="M 15.296875 69 
L 3.40625 67.890625 
L 3.40625 65.296875 
C 9.296875 65.296875 10.203125 64.703125 10.203125 59.921875 
L 10.203125 6.859375 
C 10.203125 3.09375 9.796875 2.59375 3.40625 2.59375 
L 3.40625 0 
C 5.796875 0.1875 10.203125 0.1875 12.703125 0.1875 
C 15.296875 0.1875 19.703125 0.1875 22.09375 0 
L 22.09375 2.59375 
C 15.703125 2.59375 15.296875 2.984375 15.296875 6.859375 
z
" id="CMR17-108"/>
     <path d="M 15.5 61.890625 
C 15.5 64.09375 13.703125 66 11.40625 66 
C 9.203125 66 7.296875 64.1875 7.296875 61.890625 
C 7.296875 59.6875 9.09375 57.796875 11.40625 57.796875 
C 13.59375 57.796875 15.5 59.59375 15.5 61.890625 
z
M 3.796875 42.890625 
L 3.796875 40.296875 
C 9.40625 40.296875 10.203125 39.6875 10.203125 34.859375 
L 10.203125 6.921875 
C 10.203125 3.09375 9.796875 2.59375 3.40625 2.59375 
L 3.40625 0 
C 5.796875 0.1875 10.09375 0.1875 12.59375 0.1875 
C 15 0.1875 19.09375 0.1875 21.40625 0 
L 21.40625 2.59375 
C 15.5 2.59375 15.296875 3.203125 15.296875 6.8125 
L 15.296875 44 
z
" id="CMR17-105"/>
     <path d="M 36.90625 41.703125 
L 54.203125 58.921875 
C 57.796875 62.40625 61.59375 65.1875 67.203125 65.390625 
L 67.203125 68 
C 65.203125 67.890625 62.703125 67.796875 60.703125 67.796875 
C 58 67.796875 53.296875 67.796875 50.703125 68 
L 50.703125 65.390625 
C 53.296875 65.1875 53.703125 63.390625 53.703125 62.703125 
C 53.703125 62 53.296875 60.90625 52.90625 60.3125 
L 19.703125 27.171875 
L 19.703125 60.90625 
C 19.703125 65.390625 20.796875 65.390625 27.703125 65.390625 
L 27.703125 68 
C 24.796875 67.796875 19.5 67.796875 16.40625 67.796875 
C 13.296875 67.796875 8 67.796875 5.09375 68 
L 5.09375 65.390625 
C 12 65.390625 13.09375 65.390625 13.09375 60.90625 
L 13.09375 7.078125 
C 13.09375 2.59375 12 2.59375 5.09375 2.59375 
L 5.09375 0 
C 8 0.1875 13.296875 0.1875 16.40625 0.1875 
C 19.5 0.1875 24.796875 0.1875 27.703125 0 
L 27.703125 2.59375 
C 20.796875 2.59375 19.703125 2.59375 19.703125 7.078125 
L 19.703125 24.6875 
L 32.5 37.328125 
L 51.40625 8.46875 
C 52 7.46875 52.703125 6.171875 52.703125 5.1875 
C 52.703125 2.59375 49.90625 2.59375 48.59375 2.59375 
L 48.59375 0 
C 51.796875 0.1875 56.40625 0.1875 59.703125 0.1875 
C 62.09375 0.1875 66.203125 0.1875 68.5 0 
L 68.5 2.59375 
C 63.703125 2.59375 62.203125 3.1875 59.203125 7.765625 
z
" id="CMR17-75"/>
    </defs>
    <g style="fill:#262626;" transform="translate(102.05572 9.99998)scale(0.144 -0.144)">
     <use transform="scale(0.996264)" xlink:href="#CMR17-77"/>
     <use transform="translate(84.686941 0)scale(0.996264)" xlink:href="#CMR17-97"/>
     <use transform="translate(130.377418 0)scale(0.996264)" xlink:href="#CMR17-116"/>
     <use transform="translate(163.055777 0)scale(0.996264)" xlink:href="#CMR17-19"/>
     <use transform="translate(165.658185 0)scale(0.996264)" xlink:href="#CMR17-101"/>
     <use transform="translate(206.143846 0)scale(0.996264)" xlink:href="#CMR17-114"/>
     <use transform="translate(241.424614 0)scale(0.996264)" xlink:href="#CMR17-110"/>
     <use transform="translate(322.39595 0)scale(0.996264)" xlink:href="#CMR17-67"/>
     <use transform="translate(388.90583 0)scale(0.996264)" xlink:href="#CMR17-111"/>
     <use transform="translate(434.596308 0)scale(0.996264)" xlink:href="#CMR17-114"/>
     <use transform="translate(469.877075 0)scale(0.996264)" xlink:href="#CMR17-114"/>
     <use transform="translate(505.157843 0)scale(0.996264)" xlink:href="#CMR17-101"/>
     <use transform="translate(545.643504 0)scale(0.996264)" xlink:href="#CMR17-108"/>
     <use transform="translate(570.514562 0)scale(0.996264)" xlink:href="#CMR17-97"/>
     <use transform="translate(616.205039 0)scale(0.996264)" xlink:href="#CMR17-116"/>
     <use transform="translate(651.485807 0)scale(0.996264)" xlink:href="#CMR17-105"/>
     <use transform="translate(676.356865 0)scale(0.996264)" xlink:href="#CMR17-111"/>
     <use transform="translate(722.047343 0)scale(0.996264)" xlink:href="#CMR17-110"/>
     <use transform="translate(803.018679 0)scale(0.996264)" xlink:href="#CMR17-75"/>
     <use transform="translate(874.693456 0)scale(0.996264)" xlink:href="#CMR17-101"/>
     <use transform="translate(915.179117 0)scale(0.996264)" xlink:href="#CMR17-114"/>
     <use transform="translate(950.459884 0)scale(0.996264)" xlink:href="#CMR17-110"/>
     <use transform="translate(1001.355254 0)scale(0.996264)" xlink:href="#CMR17-101"/>
     <use transform="translate(1041.840915 0)scale(0.996264)" xlink:href="#CMR17-108"/>
    </g>
   </g>
   <g id="legend_1">
    <g id="line2d_15">
     <path d="M 234.61639 32.49998 
L 261.01639 32.49998 
" style="fill:none;stroke:#f69e72;stroke-linecap:round;stroke-width:1.5;"/>
    </g>
    <g id="line2d_16"/>
    <g id="text_12">
     <!-- $\nu = 0.1$ -->
     <defs>
      <path d="M 64.296875 32 
C 65.796875 32 67.296875 32 67.296875 33.6875 
C 67.296875 35.5 65.59375 35.5 63.90625 35.5 
L 8 35.5 
C 6.296875 35.5 4.59375 35.5 4.59375 33.6875 
C 4.59375 32 6.09375 32 7.59375 32 
z
M 63.90625 14.484375 
C 65.59375 14.484375 67.296875 14.484375 67.296875 16.296875 
C 67.296875 18 65.796875 18 64.296875 18 
L 7.59375 18 
C 6.09375 18 4.59375 18 4.59375 16.296875 
C 4.59375 14.484375 6.296875 14.484375 8 14.484375 
z
" id="CMR17-61"/>
     </defs>
     <g style="fill:#262626;" transform="translate(271.57639 37.11998)scale(0.132 -0.132)">
      <use transform="scale(0.996264)" xlink:href="#CMMI12-23"/>
      <use transform="translate(82.156802 0)scale(0.996264)" xlink:href="#CMR17-61"/>
      <use transform="translate(181.545599 0)scale(0.996264)" xlink:href="#CMR17-48"/>
      <use transform="translate(227.236076 0)scale(0.996264)" xlink:href="#CMMI12-58"/>
      <use transform="translate(254.333253 0)scale(0.996264)" xlink:href="#CMR17-49"/>
     </g>
    </g>
    <g id="line2d_17">
     <path d="M 234.61639 50.90663 
L 261.01639 50.90663 
" style="fill:none;stroke:#ee7956;stroke-linecap:round;stroke-width:1.5;"/>
    </g>
    <g id="line2d_18"/>
    <g id="text_13">
     <!-- $\nu = 0.5$ -->
     <g style="fill:#262626;" transform="translate(271.57639 55.52663)scale(0.132 -0.132)">
      <use transform="scale(0.996264)" xlink:href="#CMMI12-23"/>
      <use transform="translate(82.156802 0)scale(0.996264)" xlink:href="#CMR17-61"/>
      <use transform="translate(181.545599 0)scale(0.996264)" xlink:href="#CMR17-48"/>
      <use transform="translate(227.236076 0)scale(0.996264)" xlink:href="#CMMI12-58"/>
      <use transform="translate(254.333253 0)scale(0.996264)" xlink:href="#CMR17-53"/>
     </g>
    </g>
    <g id="line2d_19">
     <path d="M 234.61639 69.31328 
L 261.01639 69.31328 
" style="fill:none;stroke:#e7543b;stroke-linecap:round;stroke-width:1.5;"/>
    </g>
    <g id="line2d_20"/>
    <g id="text_14">
     <!-- $\nu = 1.0$ -->
     <g style="fill:#262626;" transform="translate(271.57639 73.93328)scale(0.132 -0.132)">
      <use transform="scale(0.996264)" xlink:href="#CMMI12-23"/>
      <use transform="translate(82.156802 0)scale(0.996264)" xlink:href="#CMR17-61"/>
      <use transform="translate(181.545599 0)scale(0.996264)" xlink:href="#CMR17-49"/>
      <use transform="translate(227.236076 0)scale(0.996264)" xlink:href="#CMMI12-58"/>
      <use transform="translate(254.333253 0)scale(0.996264)" xlink:href="#CMR17-48"/>
     </g>
    </g>
    <g id="line2d_21">
     <path d="M 234.61639 87.71993 
L 261.01639 87.71993 
" style="fill:none;stroke:#ab4938;stroke-linecap:round;stroke-width:1.5;"/>
    </g>
    <g id="line2d_22"/>
    <g id="text_15">
     <!-- $\nu = 3.2$ -->
     <g style="fill:#262626;" transform="translate(271.57639 92.33993)scale(0.132 -0.132)">
      <use transform="scale(0.996264)" xlink:href="#CMMI12-23"/>
      <use transform="translate(82.156802 0)scale(0.996264)" xlink:href="#CMR17-61"/>
      <use transform="translate(181.545599 0)scale(0.996264)" xlink:href="#CMR17-51"/>
      <use transform="translate(227.236076 0)scale(0.996264)" xlink:href="#CMMI12-58"/>
      <use transform="translate(254.333253 0)scale(0.996264)" xlink:href="#CMR17-50"/>
     </g>
    </g>
    <g id="line2d_23">
     <path d="M 234.61639 106.12658 
L 261.01639 106.12658 
" style="fill:none;stroke:#6e3e35;stroke-linecap:round;stroke-width:1.5;"/>
    </g>
    <g id="line2d_24"/>
    <g id="text_16">
     <!-- $\nu = 25$ -->
     <g style="fill:#262626;" transform="translate(271.57639 110.74658)scale(0.132 -0.132)">
      <use transform="scale(0.996264)" xlink:href="#CMMI12-23"/>
      <use transform="translate(82.156802 0)scale(0.996264)" xlink:href="#CMR17-61"/>
      <use transform="translate(181.545599 0)scale(0.996264)" xlink:href="#CMR17-50"/>
      <use transform="translate(227.236076 0)scale(0.996264)" xlink:href="#CMR17-53"/>
     </g>
    </g>
    <g id="line2d_25">
     <path d="M 234.61639 124.53323 
L 261.01639 124.53323 
" style="fill:none;stroke:#000000;stroke-linecap:round;stroke-width:1.5;"/>
    </g>
    <g id="line2d_26"/>
    <g id="text_17">
     <!-- $\nu = \infty$ -->
     <defs>
      <path d="M 50.796875 27.125 
C 45.40625 33.90625 44.203125 35.40625 41.09375 37.90625 
C 35.5 42.390625 29.90625 44.1875 24.796875 44.1875 
C 13.09375 44.1875 5.5 33.21875 5.5 21.546875 
C 5.5 10.078125 12.90625 -1 24.40625 -1 
C 35.90625 -1 44.203125 8.078125 49.09375 16.0625 
C 54.5 9.28125 55.703125 7.78125 58.796875 5.28125 
C 64.40625 0.796875 70 -1 75.09375 -1 
C 86.796875 -1 94.40625 9.96875 94.40625 21.640625 
C 94.40625 33.109375 87 44.1875 75.5 44.1875 
C 64 44.1875 55.703125 35.109375 50.796875 27.125 
z
M 53.40625 23.734375 
C 57.5 30.921875 64.90625 41 76.203125 41 
C 86.796875 41 92.203125 30.625 92.203125 21.640625 
C 92.203125 11.875 85.5 3.78125 76.703125 3.78125 
C 70.90625 3.78125 66.40625 7.984375 64.296875 10.078125 
C 61.796875 12.765625 59.5 15.859375 53.40625 23.734375 
z
M 46.5 19.453125 
C 42.40625 12.265625 35 2.1875 23.703125 2.1875 
C 13.09375 2.1875 7.703125 12.5625 7.703125 21.546875 
C 7.703125 31.3125 14.40625 39.390625 23.203125 39.390625 
C 29 39.390625 33.5 35.203125 35.59375 33.109375 
C 38.09375 30.421875 40.40625 27.328125 46.5 19.453125 
z
" id="CMSY10-49"/>
     </defs>
     <g style="fill:#262626;" transform="translate(271.57639 129.15323)scale(0.132 -0.132)">
      <use transform="scale(0.996264)" xlink:href="#CMMI12-23"/>
      <use transform="translate(82.156802 0)scale(0.996264)" xlink:href="#CMR17-61"/>
      <use transform="translate(181.545599 0)scale(0.996264)" xlink:href="#CMSY10-49"/>
     </g>
    </g>
   </g>
  </g>
 </g>
 <defs>
  <clipPath id="pa49d06c0d8">
   <rect height="163.956" width="280.16096" x="44.41504" y="15.99998"/>
  </clipPath>
 </defs>
</svg>
