<?xml version="1.0" encoding="utf-8" standalone="no"?>
<!DOCTYPE svg PUBLIC "-//W3C//DTD SVG 1.1//EN"
  "http://www.w3.org/Graphics/SVG/1.1/DTD/svg11.dtd">
<!-- Created with matplotlib (https://matplotlib.org/) -->
<svg height="325.98924pt" version="1.1" viewBox="0 0 487.296 325.98924" width="487.296pt" xmlns="http://www.w3.org/2000/svg" xmlns:xlink="http://www.w3.org/1999/xlink">
 <defs>
  <style type="text/css">
*{stroke-linecap:butt;stroke-linejoin:round;}
  </style>
 </defs>
 <g id="figure_1">
  <g id="patch_1">
   <path d="M 0 325.98924 
L 487.296 325.98924 
L 487.296 0 
L 0 0 
z
" style="fill:none;"/>
  </g>
  <g id="axes_1">
   <g id="patch_2">
    <path d="M 71.00229 280.75598 
L 471.00945 280.75598 
L 471.00945 23.19998 
L 71.00229 23.19998 
z
" style="fill:none;"/>
   </g>
   <g id="matplotlib.axis_1">
    <g id="xtick_1">
     <g id="line2d_1">
      <defs>
       <path d="M 0 0 
L 0 6 
" id="m88534df5d4" style="stroke:#262626;stroke-width:1.25;"/>
      </defs>
      <g>
       <use style="fill:#262626;stroke:#262626;stroke-width:1.25;" x="71.00229" xlink:href="#m88534df5d4" y="280.75598"/>
      </g>
     </g>
     <g id="text_1">
      <!-- $10^{-7}$ -->
      <defs>
       <path d="M 26.59375 63.796875 
C 26.59375 65.890625 26.5 66 25.09375 66 
C 21.203125 61.359375 15.296875 59.890625 9.703125 59.6875 
C 9.40625 59.6875 8.90625 59.6875 8.796875 59.5 
C 8.703125 59.296875 8.703125 59.09375 8.703125 57 
C 11.796875 57 17 57.59375 21 59.984375 
L 21 7.296875 
C 21 3.796875 20.796875 2.59375 12.203125 2.59375 
L 9.203125 2.59375 
L 9.203125 0 
C 14 0.09375 19 0.1875 23.796875 0.1875 
C 28.59375 0.1875 33.59375 0.09375 38.40625 0 
L 38.40625 2.59375 
L 35.40625 2.59375 
C 26.796875 2.59375 26.59375 3.6875 26.59375 7.296875 
z
" id="CMR17-49"/>
       <path d="M 42 31.84375 
C 42 37.96875 41.90625 48.421875 37.703125 56.453125 
C 34 63.484375 28.09375 66 22.90625 66 
C 18.09375 66 12 63.78125 8.203125 56.5625 
C 4.203125 49.015625 3.796875 39.671875 3.796875 31.84375 
C 3.796875 26.109375 3.90625 17.375 7 9.734375 
C 11.296875 -0.609375 19 -2 22.90625 -2 
C 27.5 -2 34.5 -0.109375 38.59375 9.4375 
C 41.59375 16.375 42 24.5 42 31.84375 
z
M 22.90625 -0.40625 
C 16.5 -0.40625 12.703125 5.125 11.296875 12.75 
C 10.203125 18.6875 10.203125 27.328125 10.203125 32.953125 
C 10.203125 40.6875 10.203125 47.109375 11.5 53.234375 
C 13.40625 61.78125 19 64.390625 22.90625 64.390625 
C 27 64.390625 32.296875 61.671875 34.203125 53.4375 
C 35.5 47.71875 35.59375 40.984375 35.59375 32.953125 
C 35.59375 26.421875 35.59375 18.375 34.40625 12.453125 
C 32.296875 1.5 26.40625 -0.40625 22.90625 -0.40625 
z
" id="CMR17-48"/>
       <path d="M 65.90625 23 
C 67.59375 23 69.40625 23 69.40625 25 
C 69.40625 27 67.59375 27 65.90625 27 
L 11.796875 27 
C 10.09375 27 8.296875 27 8.296875 25 
C 8.296875 23 10.09375 23 11.796875 23 
z
" id="CMSY10-0"/>
       <path d="M 45.09375 61.796875 
L 45.09375 64 
L 21.59375 64 
C 9.90625 64 9.703125 65.09375 9.296875 67 
L 7.5 67 
L 4.59375 48.5 
L 6.40625 48.5 
C 6.703125 50.40625 7.40625 55.5 8.59375 57.390625 
C 9.203125 58.1875 16.59375 58.1875 18.296875 58.1875 
L 40.296875 58.1875 
L 29.203125 41.71875 
C 21.796875 30.640625 16.703125 15.671875 16.703125 2.59375 
C 16.703125 1.390625 16.703125 -2 20.296875 -2 
C 23.90625 -2 23.90625 1.390625 23.90625 2.6875 
L 23.90625 7.28125 
C 23.90625 23.65625 26.703125 34.4375 31.296875 41.3125 
z
" id="CMR17-55"/>
      </defs>
      <g style="fill:#262626;" transform="translate(58.22264 299.42262)scale(0.132 -0.132)">
       <use transform="scale(0.996264)" xlink:href="#CMR17-49"/>
       <use transform="translate(45.690477 0)scale(0.996264)" xlink:href="#CMR17-48"/>
       <use transform="translate(91.380954 36.153639)scale(0.697382)" xlink:href="#CMSY10-0"/>
       <use transform="translate(145.621947 36.153639)scale(0.697382)" xlink:href="#CMR17-55"/>
      </g>
     </g>
    </g>
    <g id="xtick_2">
     <g id="line2d_2">
      <g>
       <use style="fill:#262626;stroke:#262626;stroke-width:1.25;" x="121.003185" xlink:href="#m88534df5d4" y="280.75598"/>
      </g>
     </g>
     <g id="text_2">
      <!-- $10^{-6}$ -->
      <defs>
       <path d="M 10.59375 34.34375 
C 10.59375 58 21.796875 63.6875 28.296875 63.6875 
C 30.40625 63.6875 35.5 63.265625 37.5 59.09375 
C 35.90625 59.09375 32.90625 59.09375 32.90625 55.59375 
C 32.90625 52.890625 35.09375 52 36.5 52 
C 37.40625 52 40.09375 52.390625 40.09375 55.796875 
C 40.09375 62.296875 35.09375 66 28.203125 66 
C 16.296875 66 3.796875 53.296875 3.796875 31.421875 
C 3.796875 4.015625 15.09375 -2 23.09375 -2 
C 32.796875 -2 42 6.734375 42 20.234375 
C 42 32.828125 33.90625 42 23.703125 42 
C 17.59375 42 13.09375 37.96875 10.59375 30.921875 
z
M 23.09375 0.390625 
C 10.796875 0.390625 10.796875 18.9375 10.796875 22.65625 
C 10.796875 29.90625 14.203125 40.390625 23.5 40.390625 
C 25.203125 40.390625 30.09375 40.390625 33.40625 33.4375 
C 35.203125 29.515625 35.203125 25.375 35.203125 20.34375 
C 35.203125 14.90625 35.203125 10.875 33.09375 6.84375 
C 30.90625 2.703125 27.703125 0.390625 23.09375 0.390625 
z
" id="CMR17-54"/>
      </defs>
      <g style="fill:#262626;" transform="translate(108.223535 299.42262)scale(0.132 -0.132)">
       <use transform="scale(0.996264)" xlink:href="#CMR17-49"/>
       <use transform="translate(45.690477 0)scale(0.996264)" xlink:href="#CMR17-48"/>
       <use transform="translate(91.380954 36.153639)scale(0.697382)" xlink:href="#CMSY10-0"/>
       <use transform="translate(145.621947 36.153639)scale(0.697382)" xlink:href="#CMR17-54"/>
      </g>
     </g>
    </g>
    <g id="xtick_3">
     <g id="line2d_3">
      <g>
       <use style="fill:#262626;stroke:#262626;stroke-width:1.25;" x="171.00408" xlink:href="#m88534df5d4" y="280.75598"/>
      </g>
     </g>
     <g id="text_3">
      <!-- $10^{-5}$ -->
      <defs>
       <path d="M 11.40625 58.59375 
C 12.40625 58.1875 16.5 56.890625 20.703125 56.890625 
C 30 56.890625 35.09375 61.890625 38 64.6875 
C 38 65.484375 38 66 37.40625 66 
C 37.296875 66 37.09375 66 36.296875 65.59375 
C 32.796875 64.09375 28.703125 63 23.703125 63 
C 20.703125 63 16.203125 63.359375 11.296875 65.484375 
C 10.203125 66 10 66 9.90625 66 
C 9.40625 66 9.296875 65.890625 9.296875 63.90625 
L 9.296875 34.859375 
C 9.296875 33.015625 9.296875 32.5 10.296875 32.5 
C 10.796875 32.5 11 32.703125 11.5 33.421875 
C 14.703125 38.046875 19.09375 40 24.09375 40 
C 27.59375 40 35.09375 37.734375 35.09375 20.203125 
C 35.09375 16.984375 35.09375 11.1875 32.09375 6.59375 
C 29.59375 2.484375 25.703125 0.390625 21.40625 0.390625 
C 14.796875 0.390625 8.09375 4.984375 6.296875 12.6875 
C 6.703125 12.59375 7.5 12.390625 7.90625 12.390625 
C 9.203125 12.390625 11.703125 13.09375 11.703125 16.1875 
C 11.703125 18.890625 9.796875 20 7.90625 20 
C 5.59375 20 4.09375 18.59375 4.09375 15.796875 
C 4.09375 7.09375 11 -2 21.59375 -2 
C 31.90625 -2 41.703125 6.890625 41.703125 19.796875 
C 41.703125 32.09375 33.90625 41.59375 24.203125 41.59375 
C 19.09375 41.59375 14.796875 39.6875 11.40625 36 
z
" id="CMR17-53"/>
      </defs>
      <g style="fill:#262626;" transform="translate(158.22443 299.42262)scale(0.132 -0.132)">
       <use transform="scale(0.996264)" xlink:href="#CMR17-49"/>
       <use transform="translate(45.690477 0)scale(0.996264)" xlink:href="#CMR17-48"/>
       <use transform="translate(91.380954 36.153639)scale(0.697382)" xlink:href="#CMSY10-0"/>
       <use transform="translate(145.621947 36.153639)scale(0.697382)" xlink:href="#CMR17-53"/>
      </g>
     </g>
    </g>
    <g id="xtick_4">
     <g id="line2d_4">
      <g>
       <use style="fill:#262626;stroke:#262626;stroke-width:1.25;" x="221.004975" xlink:href="#m88534df5d4" y="280.75598"/>
      </g>
     </g>
     <g id="text_4">
      <!-- $10^{-4}$ -->
      <defs>
       <path d="M 33.59375 64.796875 
C 33.59375 66.890625 33.5 67 31.703125 67 
L 2 19.59375 
L 2 17 
L 27.796875 17 
L 27.796875 7.1875 
C 27.796875 3.59375 27.59375 2.59375 20.59375 2.59375 
L 18.703125 2.59375 
L 18.703125 0 
C 21.90625 0.1875 27.296875 0.1875 30.703125 0.1875 
C 34.09375 0.1875 39.5 0.1875 42.703125 0 
L 42.703125 2.59375 
L 40.796875 2.59375 
C 33.796875 2.59375 33.59375 3.59375 33.59375 7.1875 
L 33.59375 17 
L 43.796875 17 
L 43.796875 19.59375 
L 33.59375 19.59375 
z
M 28.09375 58.171875 
L 28.09375 19.59375 
L 4 19.59375 
z
" id="CMR17-52"/>
      </defs>
      <g style="fill:#262626;" transform="translate(208.225325 299.42262)scale(0.132 -0.132)">
       <use transform="scale(0.996264)" xlink:href="#CMR17-49"/>
       <use transform="translate(45.690477 0)scale(0.996264)" xlink:href="#CMR17-48"/>
       <use transform="translate(91.380954 36.153639)scale(0.697382)" xlink:href="#CMSY10-0"/>
       <use transform="translate(145.621947 36.153639)scale(0.697382)" xlink:href="#CMR17-52"/>
      </g>
     </g>
    </g>
    <g id="xtick_5">
     <g id="line2d_5">
      <g>
       <use style="fill:#262626;stroke:#262626;stroke-width:1.25;" x="271.00587" xlink:href="#m88534df5d4" y="280.75598"/>
      </g>
     </g>
     <g id="text_5">
      <!-- $10^{-3}$ -->
      <defs>
       <path d="M 22.09375 34 
C 31 34 34.90625 26.140625 34.90625 17.09375 
C 34.90625 5.03125 28.5 0.390625 22.703125 0.390625 
C 17.40625 0.390625 8.796875 3.015625 6.09375 10.796875 
C 6.59375 10.59375 7.09375 10.59375 7.59375 10.59375 
C 10 10.59375 11.796875 12.1875 11.796875 14.796875 
C 11.796875 17.6875 9.59375 19 7.59375 19 
C 5.90625 19 3.296875 18.1875 3.296875 14.484375 
C 3.296875 5.234375 12.296875 -2 22.90625 -2 
C 34 -2 42.5 6.75 42.5 16.984375 
C 42.5 26.84375 34.5 34 25 35.09375 
C 32.59375 36.671875 39.90625 43.375 39.90625 52.390625 
C 39.90625 60.25 32 66 23 66 
C 13.90625 66 5.90625 60.34375 5.90625 52.296875 
C 5.90625 48.796875 8.5 48.1875 9.796875 48.1875 
C 11.90625 48.1875 13.703125 49.484375 13.703125 52.09375 
C 13.703125 54.6875 11.90625 56 9.796875 56 
C 9.40625 56 8.90625 56 8.5 55.796875 
C 11.40625 62.484375 19.296875 63.6875 22.796875 63.6875 
C 26.296875 63.6875 32.90625 61.96875 32.90625 52.296875 
C 32.90625 49.484375 32.5 44.546875 29.09375 40.21875 
C 26.09375 36.390625 22.703125 36.1875 19.40625 35.890625 
C 18.90625 35.890625 16.59375 35.6875 16.203125 35.6875 
C 15.5 35.59375 15.09375 35.5 15.09375 34.796875 
C 15.09375 34.09375 15.203125 34 17.203125 34 
z
" id="CMR17-51"/>
      </defs>
      <g style="fill:#262626;" transform="translate(258.22622 299.42262)scale(0.132 -0.132)">
       <use transform="scale(0.996264)" xlink:href="#CMR17-49"/>
       <use transform="translate(45.690477 0)scale(0.996264)" xlink:href="#CMR17-48"/>
       <use transform="translate(91.380954 36.153639)scale(0.697382)" xlink:href="#CMSY10-0"/>
       <use transform="translate(145.621947 36.153639)scale(0.697382)" xlink:href="#CMR17-51"/>
      </g>
     </g>
    </g>
    <g id="xtick_6">
     <g id="line2d_6">
      <g>
       <use style="fill:#262626;stroke:#262626;stroke-width:1.25;" x="321.006765" xlink:href="#m88534df5d4" y="280.75598"/>
      </g>
     </g>
     <g id="text_6">
      <!-- $10^{-2}$ -->
      <defs>
       <path d="M 41.703125 15.46875 
L 39.90625 15.46875 
C 38.90625 8.390625 38.09375 7.1875 37.703125 6.59375 
C 37.203125 5.796875 30 5.796875 28.59375 5.796875 
L 9.40625 5.796875 
C 13 9.6875 20 16.765625 28.5 24.9375 
C 34.59375 30.71875 41.703125 37.5 41.703125 47.390625 
C 41.703125 59.1875 32.296875 66 21.796875 66 
C 10.796875 66 4.09375 56.296875 4.09375 47.296875 
C 4.09375 43.390625 7 42.890625 8.203125 42.890625 
C 9.203125 42.890625 12.203125 43.484375 12.203125 46.984375 
C 12.203125 50.09375 9.59375 51 8.203125 51 
C 7.59375 51 7 50.890625 6.59375 50.6875 
C 8.5 59.1875 14.296875 63.390625 20.40625 63.390625 
C 29.09375 63.390625 34.796875 56.5 34.796875 47.390625 
C 34.796875 38.703125 29.703125 31.21875 24 24.734375 
L 4.09375 2.296875 
L 4.09375 0 
L 39.296875 0 
z
" id="CMR17-50"/>
      </defs>
      <g style="fill:#262626;" transform="translate(308.227115 299.42262)scale(0.132 -0.132)">
       <use transform="scale(0.996264)" xlink:href="#CMR17-49"/>
       <use transform="translate(45.690477 0)scale(0.996264)" xlink:href="#CMR17-48"/>
       <use transform="translate(91.380954 36.153639)scale(0.697382)" xlink:href="#CMSY10-0"/>
       <use transform="translate(145.621947 36.153639)scale(0.697382)" xlink:href="#CMR17-50"/>
      </g>
     </g>
    </g>
    <g id="xtick_7">
     <g id="line2d_7">
      <g>
       <use style="fill:#262626;stroke:#262626;stroke-width:1.25;" x="371.00766" xlink:href="#m88534df5d4" y="280.75598"/>
      </g>
     </g>
     <g id="text_7">
      <!-- $10^{-1}$ -->
      <g style="fill:#262626;" transform="translate(358.22801 299.42262)scale(0.132 -0.132)">
       <use transform="scale(0.996264)" xlink:href="#CMR17-49"/>
       <use transform="translate(45.690477 0)scale(0.996264)" xlink:href="#CMR17-48"/>
       <use transform="translate(91.380954 36.153639)scale(0.697382)" xlink:href="#CMSY10-0"/>
       <use transform="translate(145.621947 36.153639)scale(0.697382)" xlink:href="#CMR17-49"/>
      </g>
     </g>
    </g>
    <g id="xtick_8">
     <g id="line2d_8">
      <g>
       <use style="fill:#262626;stroke:#262626;stroke-width:1.25;" x="421.008555" xlink:href="#m88534df5d4" y="280.75598"/>
      </g>
     </g>
     <g id="text_8">
      <!-- $10^{0}$ -->
      <g style="fill:#262626;" transform="translate(411.922005 299.42262)scale(0.132 -0.132)">
       <use transform="scale(0.996264)" xlink:href="#CMR17-49"/>
       <use transform="translate(45.690477 0)scale(0.996264)" xlink:href="#CMR17-48"/>
       <use transform="translate(91.380954 36.153639)scale(0.697382)" xlink:href="#CMR17-48"/>
      </g>
     </g>
    </g>
    <g id="xtick_9">
     <g id="line2d_9">
      <g>
       <use style="fill:#262626;stroke:#262626;stroke-width:1.25;" x="471.00945" xlink:href="#m88534df5d4" y="280.75598"/>
      </g>
     </g>
     <g id="text_9">
      <!-- $10^{1}$ -->
      <g style="fill:#262626;" transform="translate(461.9229 299.42262)scale(0.132 -0.132)">
       <use transform="scale(0.996264)" xlink:href="#CMR17-49"/>
       <use transform="translate(45.690477 0)scale(0.996264)" xlink:href="#CMR17-48"/>
       <use transform="translate(91.380954 36.153639)scale(0.697382)" xlink:href="#CMR17-49"/>
      </g>
     </g>
    </g>
    <g id="xtick_10">
     <g id="line2d_10">
      <defs>
       <path d="M 0 0 
L 0 4 
" id="md8e02e32f3" style="stroke:#262626;"/>
      </defs>
      <g>
       <use style="fill:#262626;stroke:#262626;" x="86.054059" xlink:href="#md8e02e32f3" y="280.75598"/>
      </g>
     </g>
    </g>
    <g id="xtick_11">
     <g id="line2d_11">
      <g>
       <use style="fill:#262626;stroke:#262626;" x="94.85878" xlink:href="#md8e02e32f3" y="280.75598"/>
      </g>
     </g>
    </g>
    <g id="xtick_12">
     <g id="line2d_12">
      <g>
       <use style="fill:#262626;stroke:#262626;" x="101.105828" xlink:href="#md8e02e32f3" y="280.75598"/>
      </g>
     </g>
    </g>
    <g id="xtick_13">
     <g id="line2d_13">
      <g>
       <use style="fill:#262626;stroke:#262626;" x="105.951416" xlink:href="#md8e02e32f3" y="280.75598"/>
      </g>
     </g>
    </g>
    <g id="xtick_14">
     <g id="line2d_14">
      <g>
       <use style="fill:#262626;stroke:#262626;" x="109.910549" xlink:href="#md8e02e32f3" y="280.75598"/>
      </g>
     </g>
    </g>
    <g id="xtick_15">
     <g id="line2d_15">
      <g>
       <use style="fill:#262626;stroke:#262626;" x="113.257948" xlink:href="#md8e02e32f3" y="280.75598"/>
      </g>
     </g>
    </g>
    <g id="xtick_16">
     <g id="line2d_16">
      <g>
       <use style="fill:#262626;stroke:#262626;" x="116.157598" xlink:href="#md8e02e32f3" y="280.75598"/>
      </g>
     </g>
    </g>
    <g id="xtick_17">
     <g id="line2d_17">
      <g>
       <use style="fill:#262626;stroke:#262626;" x="118.71527" xlink:href="#md8e02e32f3" y="280.75598"/>
      </g>
     </g>
    </g>
    <g id="xtick_18">
     <g id="line2d_18">
      <g>
       <use style="fill:#262626;stroke:#262626;" x="136.054954" xlink:href="#md8e02e32f3" y="280.75598"/>
      </g>
     </g>
    </g>
    <g id="xtick_19">
     <g id="line2d_19">
      <g>
       <use style="fill:#262626;stroke:#262626;" x="144.859675" xlink:href="#md8e02e32f3" y="280.75598"/>
      </g>
     </g>
    </g>
    <g id="xtick_20">
     <g id="line2d_20">
      <g>
       <use style="fill:#262626;stroke:#262626;" x="151.106723" xlink:href="#md8e02e32f3" y="280.75598"/>
      </g>
     </g>
    </g>
    <g id="xtick_21">
     <g id="line2d_21">
      <g>
       <use style="fill:#262626;stroke:#262626;" x="155.952311" xlink:href="#md8e02e32f3" y="280.75598"/>
      </g>
     </g>
    </g>
    <g id="xtick_22">
     <g id="line2d_22">
      <g>
       <use style="fill:#262626;stroke:#262626;" x="159.911444" xlink:href="#md8e02e32f3" y="280.75598"/>
      </g>
     </g>
    </g>
    <g id="xtick_23">
     <g id="line2d_23">
      <g>
       <use style="fill:#262626;stroke:#262626;" x="163.258843" xlink:href="#md8e02e32f3" y="280.75598"/>
      </g>
     </g>
    </g>
    <g id="xtick_24">
     <g id="line2d_24">
      <g>
       <use style="fill:#262626;stroke:#262626;" x="166.158493" xlink:href="#md8e02e32f3" y="280.75598"/>
      </g>
     </g>
    </g>
    <g id="xtick_25">
     <g id="line2d_25">
      <g>
       <use style="fill:#262626;stroke:#262626;" x="168.716165" xlink:href="#md8e02e32f3" y="280.75598"/>
      </g>
     </g>
    </g>
    <g id="xtick_26">
     <g id="line2d_26">
      <g>
       <use style="fill:#262626;stroke:#262626;" x="186.055849" xlink:href="#md8e02e32f3" y="280.75598"/>
      </g>
     </g>
    </g>
    <g id="xtick_27">
     <g id="line2d_27">
      <g>
       <use style="fill:#262626;stroke:#262626;" x="194.86057" xlink:href="#md8e02e32f3" y="280.75598"/>
      </g>
     </g>
    </g>
    <g id="xtick_28">
     <g id="line2d_28">
      <g>
       <use style="fill:#262626;stroke:#262626;" x="201.107618" xlink:href="#md8e02e32f3" y="280.75598"/>
      </g>
     </g>
    </g>
    <g id="xtick_29">
     <g id="line2d_29">
      <g>
       <use style="fill:#262626;stroke:#262626;" x="205.953206" xlink:href="#md8e02e32f3" y="280.75598"/>
      </g>
     </g>
    </g>
    <g id="xtick_30">
     <g id="line2d_30">
      <g>
       <use style="fill:#262626;stroke:#262626;" x="209.912339" xlink:href="#md8e02e32f3" y="280.75598"/>
      </g>
     </g>
    </g>
    <g id="xtick_31">
     <g id="line2d_31">
      <g>
       <use style="fill:#262626;stroke:#262626;" x="213.259738" xlink:href="#md8e02e32f3" y="280.75598"/>
      </g>
     </g>
    </g>
    <g id="xtick_32">
     <g id="line2d_32">
      <g>
       <use style="fill:#262626;stroke:#262626;" x="216.159388" xlink:href="#md8e02e32f3" y="280.75598"/>
      </g>
     </g>
    </g>
    <g id="xtick_33">
     <g id="line2d_33">
      <g>
       <use style="fill:#262626;stroke:#262626;" x="218.71706" xlink:href="#md8e02e32f3" y="280.75598"/>
      </g>
     </g>
    </g>
    <g id="xtick_34">
     <g id="line2d_34">
      <g>
       <use style="fill:#262626;stroke:#262626;" x="236.056744" xlink:href="#md8e02e32f3" y="280.75598"/>
      </g>
     </g>
    </g>
    <g id="xtick_35">
     <g id="line2d_35">
      <g>
       <use style="fill:#262626;stroke:#262626;" x="244.861465" xlink:href="#md8e02e32f3" y="280.75598"/>
      </g>
     </g>
    </g>
    <g id="xtick_36">
     <g id="line2d_36">
      <g>
       <use style="fill:#262626;stroke:#262626;" x="251.108513" xlink:href="#md8e02e32f3" y="280.75598"/>
      </g>
     </g>
    </g>
    <g id="xtick_37">
     <g id="line2d_37">
      <g>
       <use style="fill:#262626;stroke:#262626;" x="255.954101" xlink:href="#md8e02e32f3" y="280.75598"/>
      </g>
     </g>
    </g>
    <g id="xtick_38">
     <g id="line2d_38">
      <g>
       <use style="fill:#262626;stroke:#262626;" x="259.913234" xlink:href="#md8e02e32f3" y="280.75598"/>
      </g>
     </g>
    </g>
    <g id="xtick_39">
     <g id="line2d_39">
      <g>
       <use style="fill:#262626;stroke:#262626;" x="263.260633" xlink:href="#md8e02e32f3" y="280.75598"/>
      </g>
     </g>
    </g>
    <g id="xtick_40">
     <g id="line2d_40">
      <g>
       <use style="fill:#262626;stroke:#262626;" x="266.160283" xlink:href="#md8e02e32f3" y="280.75598"/>
      </g>
     </g>
    </g>
    <g id="xtick_41">
     <g id="line2d_41">
      <g>
       <use style="fill:#262626;stroke:#262626;" x="268.717955" xlink:href="#md8e02e32f3" y="280.75598"/>
      </g>
     </g>
    </g>
    <g id="xtick_42">
     <g id="line2d_42">
      <g>
       <use style="fill:#262626;stroke:#262626;" x="286.057639" xlink:href="#md8e02e32f3" y="280.75598"/>
      </g>
     </g>
    </g>
    <g id="xtick_43">
     <g id="line2d_43">
      <g>
       <use style="fill:#262626;stroke:#262626;" x="294.86236" xlink:href="#md8e02e32f3" y="280.75598"/>
      </g>
     </g>
    </g>
    <g id="xtick_44">
     <g id="line2d_44">
      <g>
       <use style="fill:#262626;stroke:#262626;" x="301.109408" xlink:href="#md8e02e32f3" y="280.75598"/>
      </g>
     </g>
    </g>
    <g id="xtick_45">
     <g id="line2d_45">
      <g>
       <use style="fill:#262626;stroke:#262626;" x="305.954996" xlink:href="#md8e02e32f3" y="280.75598"/>
      </g>
     </g>
    </g>
    <g id="xtick_46">
     <g id="line2d_46">
      <g>
       <use style="fill:#262626;stroke:#262626;" x="309.914129" xlink:href="#md8e02e32f3" y="280.75598"/>
      </g>
     </g>
    </g>
    <g id="xtick_47">
     <g id="line2d_47">
      <g>
       <use style="fill:#262626;stroke:#262626;" x="313.261528" xlink:href="#md8e02e32f3" y="280.75598"/>
      </g>
     </g>
    </g>
    <g id="xtick_48">
     <g id="line2d_48">
      <g>
       <use style="fill:#262626;stroke:#262626;" x="316.161178" xlink:href="#md8e02e32f3" y="280.75598"/>
      </g>
     </g>
    </g>
    <g id="xtick_49">
     <g id="line2d_49">
      <g>
       <use style="fill:#262626;stroke:#262626;" x="318.71885" xlink:href="#md8e02e32f3" y="280.75598"/>
      </g>
     </g>
    </g>
    <g id="xtick_50">
     <g id="line2d_50">
      <g>
       <use style="fill:#262626;stroke:#262626;" x="336.058534" xlink:href="#md8e02e32f3" y="280.75598"/>
      </g>
     </g>
    </g>
    <g id="xtick_51">
     <g id="line2d_51">
      <g>
       <use style="fill:#262626;stroke:#262626;" x="344.863255" xlink:href="#md8e02e32f3" y="280.75598"/>
      </g>
     </g>
    </g>
    <g id="xtick_52">
     <g id="line2d_52">
      <g>
       <use style="fill:#262626;stroke:#262626;" x="351.110303" xlink:href="#md8e02e32f3" y="280.75598"/>
      </g>
     </g>
    </g>
    <g id="xtick_53">
     <g id="line2d_53">
      <g>
       <use style="fill:#262626;stroke:#262626;" x="355.955891" xlink:href="#md8e02e32f3" y="280.75598"/>
      </g>
     </g>
    </g>
    <g id="xtick_54">
     <g id="line2d_54">
      <g>
       <use style="fill:#262626;stroke:#262626;" x="359.915024" xlink:href="#md8e02e32f3" y="280.75598"/>
      </g>
     </g>
    </g>
    <g id="xtick_55">
     <g id="line2d_55">
      <g>
       <use style="fill:#262626;stroke:#262626;" x="363.262423" xlink:href="#md8e02e32f3" y="280.75598"/>
      </g>
     </g>
    </g>
    <g id="xtick_56">
     <g id="line2d_56">
      <g>
       <use style="fill:#262626;stroke:#262626;" x="366.162073" xlink:href="#md8e02e32f3" y="280.75598"/>
      </g>
     </g>
    </g>
    <g id="xtick_57">
     <g id="line2d_57">
      <g>
       <use style="fill:#262626;stroke:#262626;" x="368.719745" xlink:href="#md8e02e32f3" y="280.75598"/>
      </g>
     </g>
    </g>
    <g id="xtick_58">
     <g id="line2d_58">
      <g>
       <use style="fill:#262626;stroke:#262626;" x="386.059429" xlink:href="#md8e02e32f3" y="280.75598"/>
      </g>
     </g>
    </g>
    <g id="xtick_59">
     <g id="line2d_59">
      <g>
       <use style="fill:#262626;stroke:#262626;" x="394.86415" xlink:href="#md8e02e32f3" y="280.75598"/>
      </g>
     </g>
    </g>
    <g id="xtick_60">
     <g id="line2d_60">
      <g>
       <use style="fill:#262626;stroke:#262626;" x="401.111198" xlink:href="#md8e02e32f3" y="280.75598"/>
      </g>
     </g>
    </g>
    <g id="xtick_61">
     <g id="line2d_61">
      <g>
       <use style="fill:#262626;stroke:#262626;" x="405.956786" xlink:href="#md8e02e32f3" y="280.75598"/>
      </g>
     </g>
    </g>
    <g id="xtick_62">
     <g id="line2d_62">
      <g>
       <use style="fill:#262626;stroke:#262626;" x="409.915919" xlink:href="#md8e02e32f3" y="280.75598"/>
      </g>
     </g>
    </g>
    <g id="xtick_63">
     <g id="line2d_63">
      <g>
       <use style="fill:#262626;stroke:#262626;" x="413.263318" xlink:href="#md8e02e32f3" y="280.75598"/>
      </g>
     </g>
    </g>
    <g id="xtick_64">
     <g id="line2d_64">
      <g>
       <use style="fill:#262626;stroke:#262626;" x="416.162968" xlink:href="#md8e02e32f3" y="280.75598"/>
      </g>
     </g>
    </g>
    <g id="xtick_65">
     <g id="line2d_65">
      <g>
       <use style="fill:#262626;stroke:#262626;" x="418.72064" xlink:href="#md8e02e32f3" y="280.75598"/>
      </g>
     </g>
    </g>
    <g id="xtick_66">
     <g id="line2d_66">
      <g>
       <use style="fill:#262626;stroke:#262626;" x="436.060324" xlink:href="#md8e02e32f3" y="280.75598"/>
      </g>
     </g>
    </g>
    <g id="xtick_67">
     <g id="line2d_67">
      <g>
       <use style="fill:#262626;stroke:#262626;" x="444.865045" xlink:href="#md8e02e32f3" y="280.75598"/>
      </g>
     </g>
    </g>
    <g id="xtick_68">
     <g id="line2d_68">
      <g>
       <use style="fill:#262626;stroke:#262626;" x="451.112093" xlink:href="#md8e02e32f3" y="280.75598"/>
      </g>
     </g>
    </g>
    <g id="xtick_69">
     <g id="line2d_69">
      <g>
       <use style="fill:#262626;stroke:#262626;" x="455.957681" xlink:href="#md8e02e32f3" y="280.75598"/>
      </g>
     </g>
    </g>
    <g id="xtick_70">
     <g id="line2d_70">
      <g>
       <use style="fill:#262626;stroke:#262626;" x="459.916814" xlink:href="#md8e02e32f3" y="280.75598"/>
      </g>
     </g>
    </g>
    <g id="xtick_71">
     <g id="line2d_71">
      <g>
       <use style="fill:#262626;stroke:#262626;" x="463.264213" xlink:href="#md8e02e32f3" y="280.75598"/>
      </g>
     </g>
    </g>
    <g id="xtick_72">
     <g id="line2d_72">
      <g>
       <use style="fill:#262626;stroke:#262626;" x="466.163863" xlink:href="#md8e02e32f3" y="280.75598"/>
      </g>
     </g>
    </g>
    <g id="xtick_73">
     <g id="line2d_73">
      <g>
       <use style="fill:#262626;stroke:#262626;" x="468.721535" xlink:href="#md8e02e32f3" y="280.75598"/>
      </g>
     </g>
    </g>
    <g id="text_10">
     <!-- $\theta$ -->
     <defs>
      <path d="M 44.296875 50 
C 44.296875 60.140625 41.09375 70 32.90625 70 
C 18.90625 70 4 40.859375 4 18.984375 
C 4 14.40625 5 -1 15.5 -1 
C 29.09375 -1 44.296875 27.421875 44.296875 50 
z
M 14 36 
C 15.5 41.859375 17.59375 50.203125 21.59375 57.265625 
C 24.90625 63.21875 28.40625 67.984375 32.796875 67.984375 
C 36.09375 67.984375 38.296875 65.203125 38.296875 55.671875 
C 38.296875 52.09375 38 47.125 35.09375 36 
z
M 34.40625 33 
C 31.90625 23.25 29.796875 17 26.203125 10.734375 
C 23.296875 5.65625 19.796875 1 15.59375 1 
C 12.5 1 10 3.375 10 13.21875 
C 10 19.671875 11.59375 26.4375 13.203125 33 
z
" id="CMMI12-18"/>
     </defs>
     <g style="fill:#262626;" transform="translate(267.52467 315.98925)scale(0.144 -0.144)">
      <use transform="scale(0.996264)" xlink:href="#CMMI12-18"/>
     </g>
    </g>
   </g>
   <g id="matplotlib.axis_2">
    <g id="ytick_1">
     <g id="line2d_74">
      <path clip-path="url(#pf1e773076d)" d="M 71.00229 226.249167 
L 471.00945 226.249167 
" style="fill:none;stroke:#cccccc;stroke-linecap:round;"/>
     </g>
     <g id="line2d_75">
      <defs>
       <path d="M 0 0 
L -6 0 
" id="m02d1f16cef" style="stroke:#262626;stroke-width:1.25;"/>
      </defs>
      <g>
       <use style="fill:#262626;stroke:#262626;stroke-width:1.25;" x="71.00229" xlink:href="#m02d1f16cef" y="226.249167"/>
      </g>
     </g>
     <g id="text_11">
      <!-- 0.1638 -->
      <defs>
       <path d="M 16.59375 4.09375 
C 16.59375 6.59375 14.59375 8.1875 12.5 8.1875 
C 10.5 8.1875 8.40625 6.59375 8.40625 4.09375 
C 8.40625 1.59375 10.40625 0 12.5 0 
C 14.5 0 16.59375 1.59375 16.59375 4.09375 
z
" id="CMR17-46"/>
       <path d="M 27.203125 35.765625 
C 33.5 38.96875 39.90625 43.796875 39.90625 51.53125 
C 39.90625 60.6875 31.09375 66 23 66 
C 13.90625 66 5.90625 59.375 5.90625 50.234375 
C 5.90625 47.71875 6.5 43.390625 10.40625 39.578125 
C 11.40625 38.578125 15.59375 35.5625 18.296875 33.65625 
C 13.796875 31.34375 3.296875 25.8125 3.296875 14.765625 
C 3.296875 4.40625 13.09375 -2 22.796875 -2 
C 33.5 -2 42.5 5.71875 42.5 15.96875 
C 42.5 25.109375 36.40625 29.328125 32.40625 32.046875 
z
M 14.09375 44.609375 
C 13.296875 45.109375 9.296875 48.21875 9.296875 52.9375 
C 9.296875 59.078125 15.59375 63.6875 22.796875 63.6875 
C 30.703125 63.6875 36.5 58.0625 36.5 51.53125 
C 36.5 42.1875 26.09375 36.859375 25.59375 36.859375 
C 25.5 36.859375 25.40625 36.859375 24.59375 37.46875 
z
M 32.5 24 
C 34 22.90625 38.796875 19.578125 38.796875 13.453125 
C 38.796875 6.015625 31.40625 0.390625 23 0.390625 
C 13.90625 0.390625 7 6.921875 7 14.859375 
C 7 22.796875 13.09375 29.4375 20 32.546875 
z
" id="CMR17-56"/>
      </defs>
      <g style="fill:#262626;" transform="translate(25.59998 230.832487)scale(0.132 -0.132)">
       <use transform="scale(0.996264)" xlink:href="#CMR17-48"/>
       <use transform="translate(45.690477 0)scale(0.996264)" xlink:href="#CMR17-46"/>
       <use transform="translate(70.561536 0)scale(0.996264)" xlink:href="#CMR17-49"/>
       <use transform="translate(116.252013 0)scale(0.996264)" xlink:href="#CMR17-54"/>
       <use transform="translate(161.94249 0)scale(0.996264)" xlink:href="#CMR17-51"/>
       <use transform="translate(207.632967 0)scale(0.996264)" xlink:href="#CMR17-56"/>
      </g>
     </g>
    </g>
    <g id="ytick_2">
     <g id="line2d_76">
      <path clip-path="url(#pf1e773076d)" d="M 71.00229 116.0702 
L 471.00945 116.0702 
" style="fill:none;stroke:#cccccc;stroke-linecap:round;"/>
     </g>
     <g id="line2d_77">
      <g>
       <use style="fill:#262626;stroke:#262626;stroke-width:1.25;" x="71.00229" xlink:href="#m02d1f16cef" y="116.0702"/>
      </g>
     </g>
     <g id="text_12">
      <!-- 0.1645 -->
      <g style="fill:#262626;" transform="translate(25.59998 120.65352)scale(0.132 -0.132)">
       <use transform="scale(0.996264)" xlink:href="#CMR17-48"/>
       <use transform="translate(45.690477 0)scale(0.996264)" xlink:href="#CMR17-46"/>
       <use transform="translate(70.561536 0)scale(0.996264)" xlink:href="#CMR17-49"/>
       <use transform="translate(116.252013 0)scale(0.996264)" xlink:href="#CMR17-54"/>
       <use transform="translate(161.94249 0)scale(0.996264)" xlink:href="#CMR17-52"/>
       <use transform="translate(207.632967 0)scale(0.996264)" xlink:href="#CMR17-53"/>
      </g>
     </g>
    </g>
    <g id="text_13">
     <!-- $V(\theta)$ -->
     <defs>
      <path d="M 61.90625 56.9375 
C 65.296875 62.296875 68.40625 64.6875 73.5 65.09375 
C 74.5 65.1875 75.296875 65.1875 75.296875 66.984375 
C 75.296875 67.390625 75.09375 68 74.203125 68 
C 72.40625 68 68.09375 67.796875 66.296875 67.796875 
C 63.40625 67.796875 60.40625 68 57.59375 68 
C 56.796875 68 55.796875 68 55.796875 66.09375 
C 55.796875 65.1875 56.703125 65.09375 57.09375 65.09375 
C 60.796875 64.78125 61.203125 63 61.203125 61.8125 
C 61.203125 60.3125 59.796875 58.03125 59.703125 57.9375 
L 28.296875 8.4375 
L 21.296875 62 
C 21.296875 64.890625 26.5 65.09375 27.59375 65.09375 
C 29.09375 65.09375 30 65.09375 30 66.984375 
C 30 68 28.90625 68 28.59375 68 
C 26.90625 68 24.90625 67.796875 23.203125 67.796875 
L 17.59375 67.796875 
C 10.296875 67.796875 7.296875 68 7.203125 68 
C 6.59375 68 5.40625 68 5.40625 66.1875 
C 5.40625 65.09375 6.09375 65.09375 7.703125 65.09375 
C 12.796875 65.09375 13.09375 64.1875 13.40625 61.703125 
L 21.40625 0.390625 
C 21.703125 -1.703125 21.703125 -2 23.09375 -2 
C 24.296875 -2 24.796875 -1.703125 25.796875 -0.109375 
z
" id="CMMI12-86"/>
      <path d="M 30.59375 -24.40625 
C 30.59375 -24.3125 30.59375 -24.109375 30.296875 -23.8125 
C 25.703125 -19.109375 13.40625 -6.296875 13.40625 24.9375 
C 13.40625 56.171875 25.5 68.875 30.40625 73.890625 
C 30.40625 73.984375 30.59375 74.1875 30.59375 74.484375 
C 30.59375 74.796875 30.296875 75 29.90625 75 
C 28.796875 75 20.296875 67.578125 15.40625 56.5625 
C 10.40625 45.453125 9 34.65625 9 25.046875 
C 9 17.828125 9.703125 5.625 15.703125 -7.296875 
C 20.5 -17.703125 28.703125 -25 29.90625 -25 
C 30.40625 -25 30.59375 -24.8125 30.59375 -24.40625 
z
" id="CMR17-40"/>
      <path d="M 26.296875 24.9375 
C 26.296875 32.140625 25.59375 44.359375 19.59375 57.265625 
C 14.796875 67.6875 6.59375 75 5.40625 75 
C 5.09375 75 4.703125 74.890625 4.703125 74.390625 
C 4.703125 74.1875 4.796875 74.09375 4.90625 73.890625 
C 9.703125 68.875 21.90625 56.171875 21.90625 25.046875 
C 21.90625 -6.1875 9.796875 -18.90625 4.90625 -23.90625 
C 4.796875 -24.109375 4.703125 -24.203125 4.703125 -24.40625 
C 4.703125 -24.90625 5.09375 -25 5.40625 -25 
C 6.5 -25 15 -17.609375 19.90625 -6.59375 
C 24.90625 4.515625 26.296875 15.328125 26.296875 24.9375 
z
" id="CMR17-41"/>
     </defs>
     <g style="fill:#262626;" transform="translate(17.99999 166.61905)rotate(-90)scale(0.144 -0.144)">
      <use transform="translate(0 -0.093086)scale(0.996264)" xlink:href="#CMMI12-86"/>
      <use transform="translate(78.547321 -0.093086)scale(0.996264)" xlink:href="#CMR17-40"/>
      <use transform="translate(113.828089 -0.093086)scale(0.996264)" xlink:href="#CMMI12-18"/>
      <use transform="translate(161.997596 -0.093086)scale(0.996264)" xlink:href="#CMR17-41"/>
     </g>
    </g>
   </g>
   <g id="line2d_78">
    <path clip-path="url(#pf1e773076d)" d="M 71.00229 38.238754 
L 79.018466 61.773177 
L 83.026553 72.937747 
L 86.233024 81.323249 
L 89.439494 89.057648 
L 91.844346 94.342913 
L 94.249199 99.124165 
L 96.654052 103.35404 
L 99.058904 106.995408 
L 100.66214 109.083103 
L 102.265375 110.893621 
L 103.86861 112.425526 
L 105.471845 113.680183 
L 107.07508 114.66176 
L 108.678315 115.377178 
L 110.28155 115.836006 
L 111.884785 116.050321 
L 113.48802 116.034522 
L 115.091256 115.80512 
L 116.694491 115.380501 
L 118.297726 114.780674 
L 120.702578 113.599458 
L 123.107431 112.148781 
L 126.313901 109.933816 
L 134.330077 104.182053 
L 136.73493 102.71421 
L 139.139782 101.49068 
L 141.544635 100.572513 
L 143.14787 100.156924 
L 144.751105 99.915124 
L 146.35434 99.859506 
L 147.957575 100.000802 
L 149.56081 100.348056 
L 151.164046 100.908612 
L 152.767281 101.688111 
L 154.370516 102.690502 
L 155.973751 103.918056 
L 157.576986 105.371399 
L 159.180221 107.049538 
L 161.585074 109.982196 
L 163.989926 113.399388 
L 166.394779 117.27857 
L 168.799632 121.590155 
L 171.204484 126.297946 
L 174.410955 133.117359 
L 177.617425 140.449851 
L 182.42713 152.122772 
L 194.451393 181.851331 
L 198.459481 190.951283 
L 201.665951 197.653703 
L 204.872422 203.739274 
L 207.277274 207.855262 
L 209.682127 211.563306 
L 212.08698 214.850172 
L 214.491832 217.709589 
L 216.896685 220.141403 
L 219.301538 222.150518 
L 221.70639 223.7457 
L 223.309625 224.58475 
L 224.912861 225.248645 
L 226.516096 225.7413 
L 228.119331 226.066632 
L 229.722566 226.228446 
L 231.325801 226.230334 
L 232.929036 226.075597 
L 234.532271 225.767184 
L 236.937124 225.021904 
L 239.341977 223.943399 
L 241.746829 222.536503 
L 244.151682 220.804213 
L 246.556535 218.748079 
L 248.961387 216.368759 
L 251.36624 213.666694 
L 253.771093 210.642895 
L 256.175945 207.299777 
L 258.580798 203.642018 
L 261.787268 198.289494 
L 264.993738 192.420938 
L 268.200209 186.079584 
L 272.208296 177.578279 
L 277.018002 166.730207 
L 285.034177 147.889311 
L 291.447118 133.015605 
L 296.256823 122.445765 
L 300.264911 114.209161 
L 303.471381 108.061946 
L 306.677851 102.340803 
L 309.884321 97.061554 
L 313.090792 92.227834 
L 316.297262 87.83308 
L 319.503732 83.862623 
L 322.710202 80.295742 
L 325.916673 77.10752 
L 329.123143 74.270468 
L 332.329613 71.755858 
L 335.536083 69.534785 
L 338.742553 67.578973 
L 341.949024 65.861353 
L 345.155494 64.356447 
L 349.163582 62.738605 
L 353.171669 61.374421 
L 357.179757 60.226776 
L 361.989463 59.089976 
L 366.799168 58.170355 
L 372.410491 57.318839 
L 378.823431 56.575007 
L 386.037989 55.959184 
L 394.855782 55.434967 
L 406.078428 55.010789 
L 420.507544 54.705477 
L 441.3496 54.505349 
L 471.00945 54.412707 
L 471.00945 54.412707 
" style="fill:none;stroke:#000000;stroke-linecap:round;stroke-width:1.5;"/>
   </g>
   <g id="line2d_79">
    <defs>
     <path d="M 0 1.5 
C 0.397805 1.5 0.77937 1.341951 1.06066 1.06066 
C 1.341951 0.77937 1.5 0.397805 1.5 0 
C 1.5 -0.397805 1.341951 -0.77937 1.06066 -1.06066 
C 0.77937 -1.341951 0.397805 -1.5 0 -1.5 
C -0.397805 -1.5 -0.77937 -1.341951 -1.06066 -1.06066 
C -1.341951 -0.77937 -1.5 -0.397805 -1.5 0 
C -1.5 0.397805 -1.341951 0.77937 -1.06066 1.06066 
C -0.77937 1.341951 -0.397805 1.5 0 1.5 
z
" id="mac4970d0ed" style="stroke:#000000;"/>
    </defs>
    <g clip-path="url(#pf1e773076d)">
     <use style="stroke:#000000;" x="230.182554" xlink:href="#mac4970d0ed" y="226.245196"/>
    </g>
   </g>
   <g id="line2d_80">
    <path clip-path="url(#pf1e773076d)" d="M 104.657514 -1 
L 105.471845 9.858658 
L 107.07508 29.296791 
L 108.678315 46.322248 
L 110.28155 61.103126 
L 111.884785 73.799566 
L 113.48802 84.564289 
L 115.091256 93.543067 
L 116.694491 100.875127 
L 118.297726 106.693497 
L 119.900961 111.125315 
L 120.702578 112.859452 
L 121.504196 114.292092 
L 122.305814 115.437581 
L 123.107431 116.309943 
L 123.909049 116.922886 
L 124.710666 117.289801 
L 125.512284 117.423777 
L 126.313901 117.337596 
L 127.115519 117.043747 
L 127.917136 116.554426 
L 128.718754 115.881539 
L 130.321989 114.031288 
L 131.925224 111.582662 
L 133.528459 108.620991 
L 135.131694 105.227388 
L 137.536547 99.494486 
L 140.743017 91.024526 
L 151.164046 62.590359 
L 153.568898 56.853953 
L 155.973751 51.726276 
L 157.576986 48.703066 
L 159.180221 46.031904 
L 160.783456 43.740422 
L 162.386691 41.853528 
L 163.989926 40.393411 
L 165.593162 39.379534 
L 167.196397 38.828613 
L 167.998014 38.731225 
L 168.799632 38.75458 
L 169.601249 38.899977 
L 170.402867 39.168533 
L 171.204484 39.561183 
L 172.807719 40.721577 
L 174.410955 42.384902 
L 176.01419 44.551833 
L 177.617425 47.219913 
L 179.22066 50.38349 
L 180.823895 54.033669 
L 182.42713 58.158276 
L 184.030365 62.741849 
L 186.435218 70.435914 
L 188.840071 79.043045 
L 191.244923 88.471002 
L 194.451393 102.132397 
L 197.657864 116.775531 
L 202.467569 139.88216 
L 210.483745 178.623507 
L 214.491832 196.760655 
L 217.698303 210.16403 
L 220.103155 219.416024 
L 222.508008 227.89101 
L 224.912861 235.523585 
L 227.317713 242.263403 
L 228.920948 246.242386 
L 230.524183 249.801211 
L 232.127419 252.935255 
L 233.730654 255.642289 
L 235.333889 257.922302 
L 236.937124 259.777315 
L 238.540359 261.211192 
L 240.143594 262.229457 
L 241.746829 262.839111 
L 243.350064 263.048469 
L 244.953299 262.866998 
L 246.556535 262.305183 
L 248.15977 261.374402 
L 249.763005 260.086825 
L 251.36624 258.455327 
L 252.969475 256.493426 
L 254.57271 254.215229 
L 256.175945 251.635399 
L 258.580798 247.233474 
L 260.985651 242.240646 
L 263.390503 236.712928 
L 265.795356 230.708794 
L 269.001826 222.067551 
L 273.009914 210.455431 
L 277.819619 195.729716 
L 290.6455 155.944445 
L 294.653588 144.318011 
L 298.661676 133.406175 
L 301.868146 125.270757 
L 305.074616 117.704846 
L 308.281086 110.727437 
L 311.487557 104.341766 
L 314.694027 98.537954 
L 317.900497 93.295746 
L 321.106967 88.587162 
L 324.313437 84.378894 
L 327.519908 80.634386 
L 330.726378 77.315558 
L 333.932848 74.384169 
L 337.139318 71.802853 
L 340.345789 69.535863 
L 343.552259 67.549574 
L 346.758729 65.812781 
L 349.965199 64.296851 
L 353.973287 62.67311 
L 357.981375 61.308702 
L 361.989463 60.164206 
L 366.799168 59.033509 
L 371.608873 58.120985 
L 377.220196 57.27775 
L 383.633136 56.542493 
L 390.847694 55.93471 
L 399.665488 55.418006 
L 410.888133 55.000357 
L 425.317249 54.699992 
L 446.960923 54.498789 
L 471.00945 54.419897 
L 471.00945 54.419897 
" style="fill:none;stroke:#2ca02c;stroke-linecap:round;stroke-width:1.5;"/>
   </g>
   <g id="line2d_81">
    <defs>
     <path d="M 0 1.5 
C 0.397805 1.5 0.77937 1.341951 1.06066 1.06066 
C 1.341951 0.77937 1.5 0.397805 1.5 0 
C 1.5 -0.397805 1.341951 -0.77937 1.06066 -1.06066 
C 0.77937 -1.341951 0.397805 -1.5 0 -1.5 
C -0.397805 -1.5 -0.77937 -1.341951 -1.06066 -1.06066 
C -1.341951 -0.77937 -1.5 -0.397805 -1.5 0 
C -1.5 0.397805 -1.341951 0.77937 -1.06066 1.06066 
C -0.77937 1.341951 -0.397805 1.5 0 1.5 
z
" id="m3fad473f5e" style="stroke:#2ca02c;"/>
    </defs>
    <g clip-path="url(#pf1e773076d)">
     <use style="fill:#2ca02c;stroke:#2ca02c;" x="242.866771" xlink:href="#m3fad473f5e" y="263.026962"/>
    </g>
   </g>
   <g id="line2d_82">
    <path clip-path="url(#pf1e773076d)" d="M 99.938838 -1 
L 101.463757 17.086346 
L 103.066992 33.928502 
L 104.670227 48.72079 
L 106.273462 61.608875 
L 107.876698 72.732251 
L 109.479933 82.224781 
L 111.083168 90.215153 
L 112.686403 96.827257 
L 114.289638 102.180484 
L 115.892873 106.389966 
L 117.496108 109.566752 
L 118.297726 110.801503 
L 119.099343 111.817939 
L 119.900961 112.628843 
L 120.702578 113.246761 
L 121.504196 113.684003 
L 122.305814 113.95264 
L 123.107431 114.064508 
L 123.909049 114.031206 
L 124.710666 113.864093 
L 126.313901 113.172682 
L 127.917136 112.076356 
L 129.520372 110.657291 
L 131.925224 108.093529 
L 135.933312 103.256332 
L 139.139782 99.455393 
L 141.544635 96.937362 
L 143.14787 95.506334 
L 144.751105 94.321253 
L 146.35434 93.417575 
L 147.957575 92.825766 
L 149.56081 92.571257 
L 151.164046 92.674422 
L 152.767281 93.150592 
L 154.370516 94.010094 
L 155.973751 95.258322 
L 157.576986 96.895852 
L 159.180221 98.918587 
L 160.783456 101.317952 
L 162.386691 104.081114 
L 163.989926 107.191258 
L 166.394779 112.461295 
L 168.799632 118.382236 
L 171.204484 124.857163 
L 174.410955 134.164676 
L 179.22066 149.007364 
L 186.435218 171.377446 
L 189.641688 180.690715 
L 192.848158 189.307917 
L 195.253011 195.213155 
L 197.657864 200.580909 
L 200.062716 205.37435 
L 202.467569 209.572125 
L 204.872422 213.167882 
L 206.475657 215.233856 
L 208.078892 217.040887 
L 209.682127 218.596707 
L 211.285362 219.91105 
L 212.888597 220.995358 
L 214.491832 221.862471 
L 216.095067 222.526289 
L 217.698303 223.00144 
L 219.301538 223.302935 
L 221.70639 223.462449 
L 224.111243 223.314409 
L 226.516096 222.904551 
L 228.920948 222.273067 
L 232.127419 221.142394 
L 235.333889 219.731234 
L 238.540359 218.067426 
L 241.746829 216.151613 
L 244.953299 213.960372 
L 248.15977 211.45154 
L 250.564622 209.329276 
L 252.969475 206.973582 
L 255.374328 204.360695 
L 257.77918 201.469539 
L 260.184033 198.283477 
L 262.588886 194.791808 
L 264.993738 190.990928 
L 268.200209 185.450636 
L 271.406679 179.401858 
L 274.613149 172.902206 
L 278.621237 164.266292 
L 284.23256 151.570336 
L 293.85197 129.708323 
L 298.661676 119.426264 
L 302.669763 111.435601 
L 305.876234 105.488353 
L 309.082704 99.9679 
L 312.289174 94.887502 
L 315.495644 90.248131 
L 318.702115 86.040768 
L 321.908585 82.248694 
L 325.115055 78.849622 
L 328.321525 75.817581 
L 331.527995 73.124501 
L 334.734466 70.741483 
L 337.940936 68.639787 
L 341.147406 66.79156 
L 344.353876 65.170339 
L 348.361964 63.425516 
L 352.370052 61.95272 
L 356.37814 60.712626 
L 361.187845 59.483289 
L 365.99755 58.488117 
L 371.608873 57.566095 
L 378.021814 56.760245 
L 385.236372 56.092776 
L 394.054165 55.524382 
L 404.475193 55.089932 
L 418.102691 54.760028 
L 437.341513 54.537407 
L 470.207832 54.415413 
L 471.00945 54.414164 
L 471.00945 54.414164 
" style="fill:none;stroke:#d62728;stroke-linecap:round;stroke-width:1.5;"/>
   </g>
   <g id="line2d_83">
    <defs>
     <path d="M 0 1.5 
C 0.397805 1.5 0.77937 1.341951 1.06066 1.06066 
C 1.341951 0.77937 1.5 0.397805 1.5 0 
C 1.5 -0.397805 1.341951 -0.77937 1.06066 -1.06066 
C 0.77937 -1.341951 0.397805 -1.5 0 -1.5 
C -0.397805 -1.5 -0.77937 -1.341951 -1.06066 -1.06066 
C -1.341951 -0.77937 -1.5 -0.397805 -1.5 0 
C -1.5 0.397805 -1.341951 0.77937 -1.06066 1.06066 
C -0.77937 1.341951 -0.397805 1.5 0 1.5 
z
" id="mf15a12816e" style="stroke:#d62728;"/>
    </defs>
    <g clip-path="url(#pf1e773076d)">
     <use style="fill:#d62728;stroke:#d62728;" x="221.969722" xlink:href="#mf15a12816e" y="223.46037"/>
    </g>
   </g>
   <g id="patch_3">
    <path d="M 71.00229 280.75598 
L 71.00229 23.19998 
" style="fill:none;stroke:#262626;stroke-linecap:square;stroke-linejoin:miter;stroke-width:1.25;"/>
   </g>
   <g id="patch_4">
    <path d="M 471.00945 280.75598 
L 471.00945 23.19998 
" style="fill:none;stroke:#262626;stroke-linecap:square;stroke-linejoin:miter;stroke-width:1.25;"/>
   </g>
   <g id="patch_5">
    <path d="M 71.00229 280.75598 
L 471.00945 280.75598 
" style="fill:none;stroke:#262626;stroke-linecap:square;stroke-linejoin:miter;stroke-width:1.25;"/>
   </g>
   <g id="patch_6">
    <path d="M 71.00229 23.19998 
L 471.00945 23.19998 
" style="fill:none;stroke:#262626;stroke-linecap:square;stroke-linejoin:miter;stroke-width:1.25;"/>
   </g>
   <g id="text_14">
    <!-- Generalized Cross Validation -->
    <defs>
     <path d="M 62.09375 19.65625 
C 62.09375 23.484375 62.40625 24 68.59375 24 
L 68.59375 26.59375 
C 66.203125 26.390625 60.796875 26.390625 58.09375 26.390625 
C 55.296875 26.390625 47.5 26.5 43.703125 26.59375 
L 43.703125 24 
L 46.703125 24 
C 55.296875 24 55.5 22.875 55.5 19.25 
L 55.5 12.59375 
C 55.5 1.5 42.5 0.59375 39.40625 0.59375 
C 29.09375 0.59375 12.203125 7.75 12.203125 34.046875 
C 12.203125 60.34375 28.796875 67.390625 38.5 67.390625 
C 49.796875 67.390625 58 57.515625 59.90625 43.515625 
C 60.09375 42.3125 60.09375 42.109375 61 42.109375 
C 62.09375 42.109375 62.09375 42.3125 62.09375 44.125 
L 62.09375 67.984375 
C 62.09375 69.796875 62 69.890625 61.40625 69.890625 
C 61 69.890625 60.90625 69.796875 60.203125 68.59375 
L 55.796875 60.140625 
C 50.90625 66.390625 44.90625 70 37.203125 70 
C 20.09375 70 4.59375 54.796875 4.59375 34.046875 
C 4.59375 13.40625 19.796875 -2 37.40625 -2 
C 45.5 -2 53.40625 0.890625 56.5 6.640625 
C 58.203125 2.515625 61 -0.3125 61.5 -0.3125 
C 62 -0.3125 62.09375 -0.203125 62.09375 1.59375 
z
" id="CMR17-71"/>
     <path d="M 38.09375 23.484375 
C 38.5 23.890625 38.5 24.09375 38.5 25.09375 
C 38.5 35.171875 33.09375 44 21.703125 44 
C 11.09375 44 2.703125 33.984375 2.703125 21.78125 
C 2.703125 8.65625 12.203125 -1 22.796875 -1 
C 34 -1 38.40625 9.671875 38.40625 11.796875 
C 38.40625 12.5 37.796875 12.5 37.59375 12.5 
C 36.90625 12.5 36.796875 12.296875 36.40625 11.078125 
C 34.203125 4.21875 28.703125 0.796875 23.5 0.796875 
C 19.203125 0.796875 14.90625 3.21875 12.203125 7.65625 
C 9.09375 12.796875 9.09375 18.75 9.09375 23.484375 
z
M 9.203125 25 
C 9.90625 39.234375 17.59375 42.390625 21.59375 42.390625 
C 28.40625 42.390625 33 36.0625 33.09375 25 
z
" id="CMR17-101"/>
     <path d="M 41.5 30.53125 
C 41.5 35.65625 40.5 44 28.703125 44 
C 20.796875 44 16.703125 37.875 15.203125 33.84375 
L 15.09375 33.84375 
L 15.09375 44 
L 3.296875 42.890625 
L 3.296875 40.28125 
C 9.203125 40.28125 10.09375 39.6875 10.09375 34.859375 
L 10.09375 6.921875 
C 10.09375 3.09375 9.703125 2.59375 3.296875 2.59375 
L 3.296875 0 
C 5.703125 0.1875 10.09375 0.1875 12.703125 0.1875 
C 15.296875 0.1875 19.796875 0.1875 22.203125 0 
L 22.203125 2.59375 
C 15.796875 2.59375 15.40625 3 15.40625 6.921875 
L 15.40625 26.21875 
C 15.40625 35.453125 21 42.390625 28 42.390625 
C 35.40625 42.390625 36.203125 35.765625 36.203125 30.9375 
L 36.203125 6.921875 
C 36.203125 3.09375 35.796875 2.59375 29.40625 2.59375 
L 29.40625 0 
C 31.796875 0.1875 36.203125 0.1875 38.796875 0.1875 
C 41.40625 0.1875 45.90625 0.1875 48.296875 0 
L 48.296875 2.59375 
C 41.90625 2.59375 41.5 3 41.5 6.921875 
z
" id="CMR17-110"/>
     <path d="M 15 23.703125 
C 15 33.34375 19.09375 42.390625 26.59375 42.390625 
C 27.296875 42.390625 28 42.296875 28.703125 41.984375 
C 28.703125 41.984375 26.5 41.28125 26.5 38.671875 
C 26.5 36.265625 28.40625 35.265625 29.90625 35.265625 
C 31.09375 35.265625 33.296875 35.96875 33.296875 38.78125 
C 33.296875 41.984375 30.09375 44 26.703125 44 
C 19.09375 44 15.796875 36.5625 14.796875 33.046875 
L 14.703125 33.046875 
L 14.703125 44 
L 3.09375 42.890625 
L 3.09375 40.28125 
C 9 40.28125 9.90625 39.6875 9.90625 34.859375 
L 9.90625 6.921875 
C 9.90625 3.09375 9.5 2.59375 3.09375 2.59375 
L 3.09375 0 
C 5.5 0.1875 10.09375 0.1875 12.703125 0.1875 
C 15.59375 0.1875 20.703125 0.1875 23.40625 0 
L 23.40625 2.59375 
C 16.203125 2.59375 15 2.59375 15 7.109375 
z
" id="CMR17-114"/>
     <path d="M 36 25.875 
C 36 32 36 35.546875 31.796875 39.59375 
C 28.09375 42.984375 23.796875 44 20.40625 44 
C 12.5 44 6.796875 37.625 6.796875 30.890625 
C 6.796875 27.1875 9.796875 27 10.40625 27 
C 11.703125 27 14 27.796875 14 30.59375 
C 14 33.09375 12.09375 34.1875 10.40625 34.1875 
C 10 34.1875 9.5 34.09375 9.203125 34 
C 11.296875 40.53125 16.703125 42.390625 20.203125 42.390625 
C 25.203125 42.390625 30.703125 37.828125 30.703125 29.296875 
L 30.703125 25.5 
C 24.796875 25.296875 17.703125 24.5 12.09375 21.453125 
C 5.796875 17.921875 4 12.84375 4 9 
C 4 1.203125 13 -1 18.296875 -1 
C 23.796875 -1 28.90625 2.109375 31.09375 7.890625 
C 31.296875 3.421875 34.09375 -0.609375 38.5 -0.609375 
C 40.59375 -0.609375 45.90625 0.796875 45.90625 8.796875 
L 45.90625 14.46875 
L 44.09375 14.46875 
L 44.09375 8.703125 
C 44.09375 2.515625 41.40625 1.703125 40.09375 1.703125 
C 36 1.703125 36 6.96875 36 11.4375 
z
M 30.703125 13.859375 
C 30.703125 5.046875 24.5 0.59375 19 0.59375 
C 14 0.59375 10.09375 4.34375 10.09375 9 
C 10.09375 12.046875 11.40625 17.40625 17.203125 20.65625 
C 22 23.390625 27.5 23.796875 30.703125 24 
z
" id="CMR17-97"/>
     <path d="M 15.296875 69 
L 3.40625 67.890625 
L 3.40625 65.296875 
C 9.296875 65.296875 10.203125 64.703125 10.203125 59.921875 
L 10.203125 6.859375 
C 10.203125 3.09375 9.796875 2.59375 3.40625 2.59375 
L 3.40625 0 
C 5.796875 0.1875 10.203125 0.1875 12.703125 0.1875 
C 15.296875 0.1875 19.703125 0.1875 22.09375 0 
L 22.09375 2.59375 
C 15.703125 2.59375 15.296875 2.984375 15.296875 6.859375 
z
" id="CMR17-108"/>
     <path d="M 15.5 61.890625 
C 15.5 64.09375 13.703125 66 11.40625 66 
C 9.203125 66 7.296875 64.1875 7.296875 61.890625 
C 7.296875 59.6875 9.09375 57.796875 11.40625 57.796875 
C 13.59375 57.796875 15.5 59.59375 15.5 61.890625 
z
M 3.796875 42.890625 
L 3.796875 40.296875 
C 9.40625 40.296875 10.203125 39.6875 10.203125 34.859375 
L 10.203125 6.921875 
C 10.203125 3.09375 9.796875 2.59375 3.40625 2.59375 
L 3.40625 0 
C 5.796875 0.1875 10.09375 0.1875 12.59375 0.1875 
C 15 0.1875 19.09375 0.1875 21.40625 0 
L 21.40625 2.59375 
C 15.5 2.59375 15.296875 3.203125 15.296875 6.8125 
L 15.296875 44 
z
" id="CMR17-105"/>
     <path d="M 36.09375 40.6875 
C 36.90625 41.6875 36.90625 41.890625 36.90625 42.09375 
C 36.90625 43 36.5 43 34.703125 43 
L 4.296875 43 
L 3.296875 27.5 
L 5.09375 27.5 
C 5.796875 37.1875 6.90625 41.390625 18.40625 41.390625 
L 30.59375 41.390625 
L 2 1.5 
C 2 0.09375 2.09375 0 4.203125 0 
L 35.796875 0 
L 37.203125 18 
L 35.40625 18 
C 34.59375 6.890625 33.296875 1.796875 21.09375 1.796875 
L 8.296875 1.796875 
z
" id="CMR17-122"/>
     <path d="M 29.203125 67.890625 
L 29.203125 65.296875 
C 35.09375 65.296875 36 64.703125 36 60.046875 
L 36 37.046875 
C 35.59375 37.546875 31.5 44 23.40625 44 
C 13.203125 44 3.296875 34.8125 3.296875 21.5 
C 3.296875 8.265625 12.59375 -1 22.40625 -1 
C 30.90625 -1 35.296875 5.640625 35.796875 6.34375 
L 35.796875 -1 
L 47.90625 -0.203125 
L 47.90625 2.40625 
C 42 2.40625 41.09375 3.015625 41.09375 7.859375 
L 41.09375 69 
z
M 35.796875 11.90625 
C 35.796875 8.875 34 6.140625 31.703125 4.125 
C 28.296875 1.09375 24.90625 0.59375 23 0.59375 
C 20.09375 0.59375 9.703125 2.109375 9.703125 21.390625 
C 9.703125 41.1875 21.296875 42.390625 23.90625 42.390625 
C 28.5 42.390625 32.203125 39.765625 34.5 36.140625 
C 35.796875 34.015625 35.796875 33.703125 35.796875 31.890625 
z
" id="CMR17-100"/>
     <path d="M 62.09375 67.984375 
C 62.09375 69.796875 62 69.890625 61.40625 69.890625 
C 61 69.890625 60.90625 69.796875 60.203125 68.59375 
L 55.796875 60.140625 
C 50.90625 66.390625 44.90625 70 37.203125 70 
C 20.09375 70 4.59375 54.796875 4.59375 34.046875 
C 4.59375 13.078125 20.09375 -2 37.296875 -2 
C 52.59375 -2 62.09375 11.578125 62.09375 23.15625 
C 62.09375 24.171875 62.09375 24.578125 61.203125 24.578125 
C 60.40625 24.578125 60.40625 24.265625 60.296875 23.359375 
C 59.5 9.25 49.5 0.59375 38.703125 0.59375 
C 28.5 0.59375 12.203125 7.84375 12.203125 34.046875 
C 12.203125 60.34375 28.796875 67.390625 38.5 67.390625 
C 49.796875 67.390625 58 57.515625 59.90625 43.515625 
C 60.09375 42.296875 60.09375 42.109375 61 42.109375 
C 62.09375 42.109375 62.09375 42.296875 62.09375 44.125 
z
" id="CMR17-67"/>
     <path d="M 43.09375 21.1875 
C 43.09375 34 33.796875 44 22.90625 44 
C 12 44 2.703125 34 2.703125 21.1875 
C 2.703125 8.59375 12 -1 22.90625 -1 
C 33.796875 -1 43.09375 8.59375 43.09375 21.1875 
z
M 22.90625 0.796875 
C 18.203125 0.796875 14.203125 3.59375 11.90625 7.5 
C 9.40625 12 9.09375 17.59375 9.09375 22 
C 9.09375 26.1875 9.296875 31.390625 11.90625 35.890625 
C 13.90625 39.1875 17.796875 42.390625 22.90625 42.390625 
C 27.40625 42.390625 31.203125 39.890625 33.59375 36.390625 
C 36.703125 31.6875 36.703125 25.09375 36.703125 22 
C 36.703125 18.09375 36.5 12.09375 33.796875 7.296875 
C 31 2.6875 26.703125 0.796875 22.90625 0.796875 
z
" id="CMR17-111"/>
     <path d="M 30.90625 42 
C 30.90625 43.796875 30.796875 43.890625 30.203125 43.890625 
C 29.796875 43.890625 29.703125 43.796875 28.5 42.296875 
C 28.203125 41.890625 27.296875 40.890625 27 40.5 
C 23.796875 43.890625 19.296875 44 17.59375 44 
C 6.5 44 2.5 38.1875 2.5 32.390625 
C 2.5 23.390625 12.703125 21.296875 15.59375 20.6875 
C 21.90625 19.390625 24.09375 19 26.203125 17.1875 
C 27.5 16 29.703125 13.796875 29.703125 10.1875 
C 29.703125 6 27.296875 0.59375 18.09375 0.59375 
C 9.40625 0.59375 6.296875 7.1875 4.5 16 
C 4.203125 17.390625 4.203125 17.5 3.40625 17.5 
C 2.59375 17.5 2.5 17.390625 2.5 15.390625 
L 2.5 1 
C 2.5 -0.8125 2.59375 -0.90625 3.203125 -0.90625 
C 3.703125 -0.90625 3.796875 -0.8125 4.296875 0 
C 4.90625 0.890625 6.40625 3.296875 7 4.296875 
C 9 1.59375 12.5 -1 18.09375 -1 
C 28 -1 33.296875 4.390625 33.296875 12.1875 
C 33.296875 17.296875 30.59375 20 29.296875 21.1875 
C 26.296875 24.296875 22.796875 25 18.59375 25.796875 
C 13.09375 27 6.09375 28.390625 6.09375 34.5 
C 6.09375 37.09375 7.5 42.59375 17.59375 42.59375 
C 28.296875 42.59375 28.90625 32.59375 29.09375 29.390625 
C 29.203125 28.890625 29.703125 28.796875 30 28.796875 
C 30.90625 28.796875 30.90625 29.09375 30.90625 30.796875 
z
" id="CMR17-115"/>
     <path d="M 59 58.78125 
C 59.90625 60.984375 61.5 65.296875 68.203125 65.390625 
L 68.203125 68 
C 65.90625 67.796875 63.296875 67.796875 60.796875 67.796875 
C 58.40625 67.796875 54.296875 67.796875 52 68 
L 52 65.390625 
C 57 65.09375 57.203125 61.59375 57.203125 60.984375 
C 57.203125 59.890625 56.90625 59.1875 56.59375 58.390625 
L 36.90625 7 
L 16.296875 60.984375 
C 16 61.6875 15.796875 62.1875 15.796875 62.6875 
C 15.796875 65.390625 19.796875 65.390625 21.90625 65.390625 
L 21.90625 68 
C 18.703125 67.796875 14 67.796875 10.703125 67.796875 
C 8.09375 67.796875 3.40625 67.796875 1 68 
L 1 65.390625 
C 6.796875 65.390625 7.90625 65 9.09375 61.796875 
L 32.90625 -0.40625 
C 33.40625 -1.8125 33.5 -2 34.59375 -2 
C 35.703125 -2 35.796875 -1.8125 36.296875 -0.40625 
z
" id="CMR17-86"/>
     <path d="M 15.09375 40.390625 
L 29.09375 40.390625 
L 29.09375 43 
L 15.09375 43 
L 15.09375 62 
L 13.296875 62 
C 13.09375 51.4375 9.59375 42.1875 1.09375 41.984375 
L 1.09375 40.390625 
L 9.796875 40.390625 
L 9.796875 12.15625 
C 9.796875 10.234375 9.796875 -1 21.40625 -1 
C 27.296875 -1 30.703125 4.8125 30.703125 12.25 
L 30.703125 17.984375 
L 28.90625 17.984375 
L 28.90625 12.34375 
C 28.90625 5.421875 26.203125 0.796875 22 0.796875 
C 19.09375 0.796875 15.09375 2.796875 15.09375 11.953125 
z
" id="CMR17-116"/>
    </defs>
    <g style="fill:#262626;" transform="translate(181.58282 17.19998)scale(0.144 -0.144)">
     <use transform="scale(0.996264)" xlink:href="#CMR17-71"/>
     <use transform="translate(72.355346 0)scale(0.996264)" xlink:href="#CMR17-101"/>
     <use transform="translate(112.841006 0)scale(0.996264)" xlink:href="#CMR17-110"/>
     <use transform="translate(163.736376 0)scale(0.996264)" xlink:href="#CMR17-101"/>
     <use transform="translate(204.222037 0)scale(0.996264)" xlink:href="#CMR17-114"/>
     <use transform="translate(239.502804 0)scale(0.996264)" xlink:href="#CMR17-97"/>
     <use transform="translate(285.193282 0)scale(0.996264)" xlink:href="#CMR17-108"/>
     <use transform="translate(310.06434 0)scale(0.996264)" xlink:href="#CMR17-105"/>
     <use transform="translate(334.935399 0)scale(0.996264)" xlink:href="#CMR17-122"/>
     <use transform="translate(375.421059 0)scale(0.996264)" xlink:href="#CMR17-101"/>
     <use transform="translate(415.906719 0)scale(0.996264)" xlink:href="#CMR17-100"/>
     <use transform="translate(496.878056 0)scale(0.996264)" xlink:href="#CMR17-67"/>
     <use transform="translate(563.387936 0)scale(0.996264)" xlink:href="#CMR17-114"/>
     <use transform="translate(598.668704 0)scale(0.996264)" xlink:href="#CMR17-111"/>
     <use transform="translate(644.359181 0)scale(0.996264)" xlink:href="#CMR17-115"/>
     <use transform="translate(680.160519 0)scale(0.996264)" xlink:href="#CMR17-115"/>
     <use transform="translate(746.037823 0)scale(0.996264)" xlink:href="#CMR17-86"/>
     <use transform="translate(807.302997 0)scale(0.996264)" xlink:href="#CMR17-97"/>
     <use transform="translate(852.993474 0)scale(0.996264)" xlink:href="#CMR17-108"/>
     <use transform="translate(877.864533 0)scale(0.996264)" xlink:href="#CMR17-105"/>
     <use transform="translate(902.735591 0)scale(0.996264)" xlink:href="#CMR17-100"/>
     <use transform="translate(953.630961 0)scale(0.996264)" xlink:href="#CMR17-97"/>
     <use transform="translate(999.321438 0)scale(0.996264)" xlink:href="#CMR17-116"/>
     <use transform="translate(1034.602206 0)scale(0.996264)" xlink:href="#CMR17-105"/>
     <use transform="translate(1059.473264 0)scale(0.996264)" xlink:href="#CMR17-111"/>
     <use transform="translate(1105.163741 0)scale(0.996264)" xlink:href="#CMR17-110"/>
    </g>
   </g>
   <g id="legend_1">
    <g id="line2d_84">
     <path d="M 317.802194 175.88954 
L 341.792594 175.88954 
" style="fill:none;stroke:#000000;stroke-linecap:round;stroke-width:1.5;"/>
    </g>
    <g id="line2d_85"/>
    <g id="text_15">
     <!-- Exact -->
     <defs>
      <path d="M 60.703125 25.21875 
L 58.90625 25.21875 
C 56.703125 10.5625 55.40625 2.59375 37.796875 2.59375 
L 23.90625 2.59375 
C 19.90625 2.59375 19.703125 3.09375 19.703125 6.484375 
L 19.703125 34 
L 29.09375 34 
C 38.5 34 39.40625 30.609375 39.40625 22.328125 
L 41.203125 22.328125 
L 41.203125 48.21875 
L 39.40625 48.21875 
C 39.40625 39.96875 38.5 36.59375 29.09375 36.59375 
L 19.703125 36.59375 
L 19.703125 61.3125 
C 19.703125 64.703125 19.90625 65.1875 23.90625 65.1875 
L 37.59375 65.1875 
C 53.09375 65.1875 54.90625 59.03125 56.296875 45.828125 
L 58.09375 45.828125 
L 55.703125 67.796875 
L 5.09375 67.796875 
L 5.09375 65.1875 
C 12 65.1875 13.09375 65.1875 13.09375 60.71875 
L 13.09375 7.078125 
C 13.09375 2.59375 12 2.59375 5.09375 2.59375 
L 5.09375 0 
L 57.09375 0 
z
" id="CMR17-69"/>
      <path d="M 26 23.296875 
C 29 27.1875 32.40625 31.59375 35.203125 34.890625 
C 38.5 38.6875 42.296875 40.296875 46.703125 40.390625 
L 46.703125 43 
C 45 42.890625 41.5 42.796875 39.703125 42.796875 
C 37 42.796875 33.90625 42.796875 31.59375 43 
L 31.59375 40.390625 
C 33 40.1875 33.796875 39.1875 33.796875 37.796875 
C 33.796875 36 32.796875 34.890625 32.296875 34.1875 
L 24.90625 24.796875 
L 16.09375 36.296875 
C 15.203125 37.390625 15.203125 37.59375 15.203125 38.09375 
C 15.203125 39.296875 16.203125 40.296875 17.90625 40.390625 
L 17.90625 43 
C 15.5 42.796875 11.203125 42.796875 8.703125 42.796875 
C 6 42.796875 2.796875 42.796875 0.59375 43 
L 0.59375 40.390625 
C 6 40.390625 7.203125 40 9.59375 37 
L 21.09375 22.09375 
C 21.296875 21.890625 21.796875 21.296875 21.796875 21 
C 21.796875 20.59375 13.09375 9.890625 12 8.5 
C 7.5 3.09375 2.796875 2.6875 0.09375 2.59375 
L 0.09375 0 
C 1.796875 0.09375 5.296875 0.1875 7.09375 0.1875 
C 9.09375 0.1875 13.5 0.1875 15.296875 0 
L 15.296875 2.59375 
C 14.703125 2.6875 13.09375 2.890625 13.09375 5.1875 
C 13.09375 7 13.90625 8.09375 14.796875 9.296875 
L 23.09375 19.5 
L 31.796875 8.1875 
C 32.59375 7.09375 33.796875 5.59375 33.796875 4.890625 
C 33.796875 3.5 32.59375 2.6875 31 2.59375 
L 31 0 
C 33.40625 0.1875 37.703125 0.1875 40.203125 0.1875 
C 42.90625 0.1875 46.09375 0.1875 48.296875 0 
L 48.296875 2.59375 
C 43.296875 2.59375 41.796875 2.796875 39.40625 5.890625 
z
" id="CMR17-120"/>
      <path d="M 34.90625 35 
C 33 35 30.203125 35 30.203125 31.484375 
C 30.203125 28.6875 32.5 27.890625 33.796875 27.890625 
C 34.5 27.890625 37.40625 28.1875 37.40625 31.6875 
C 37.40625 38.6875 30.59375 44 22.90625 44 
C 12.296875 44 3.296875 34.390625 3.296875 21.546875 
C 3.296875 8.140625 12.703125 -1 22.90625 -1 
C 35.296875 -1 38.40625 10.5625 38.40625 11.671875 
C 38.40625 12.078125 38.296875 12.375 37.59375 12.375 
C 36.90625 12.375 36.796875 12.28125 36.40625 10.96875 
C 33.796875 2.8125 28.09375 0.796875 23.796875 0.796875 
C 17.40625 0.796875 9.703125 6.734375 9.703125 21.640625 
C 9.703125 36.84375 17.09375 42.1875 23 42.1875 
C 26.90625 42.1875 32.703125 40.34375 34.90625 35 
z
" id="CMR17-99"/>
     </defs>
     <g style="fill:#262626;" transform="translate(351.388754 180.08786)scale(0.119952 -0.119952)">
      <use transform="scale(0.996264)" xlink:href="#CMR17-69"/>
      <use transform="translate(62.586301 0)scale(0.996264)" xlink:href="#CMR17-120"/>
      <use transform="translate(110.879216 0)scale(0.996264)" xlink:href="#CMR17-97"/>
      <use transform="translate(156.569693 0)scale(0.996264)" xlink:href="#CMR17-99"/>
      <use transform="translate(197.055354 0)scale(0.996264)" xlink:href="#CMR17-116"/>
     </g>
    </g>
    <g id="line2d_86">
     <path d="M 317.802194 192.61618 
L 341.792594 192.61618 
" style="fill:none;stroke:#2ca02c;stroke-linecap:round;stroke-width:1.5;"/>
    </g>
    <g id="line2d_87"/>
    <g id="text_16">
     <!-- Interpolation, $p = 1$ -->
     <defs>
      <path d="M 19.703125 60.90625 
C 19.703125 65.390625 20.90625 65.390625 28.09375 65.390625 
L 28.09375 68 
C 24.90625 67.796875 19.796875 67.796875 16.40625 67.796875 
C 13 67.796875 7.90625 67.796875 4.703125 68 
L 4.703125 65.390625 
C 11.90625 65.390625 13.09375 65.390625 13.09375 60.90625 
L 13.09375 7.078125 
C 13.09375 2.59375 11.90625 2.59375 4.703125 2.59375 
L 4.703125 0 
C 7.90625 0.1875 13 0.1875 16.40625 0.1875 
C 19.796875 0.1875 24.90625 0.1875 28.09375 0 
L 28.09375 2.59375 
C 20.90625 2.59375 19.703125 2.59375 19.703125 7.078125 
z
" id="CMR17-73"/>
      <path d="M 22 -17.40625 
C 15.59375 -17.40625 15.203125 -17 15.203125 -13.03125 
L 15.203125 5.9375 
C 18.09375 1.703125 22.296875 -1 27.59375 -1 
C 37.59375 -1 47.703125 7.859375 47.703125 21.59375 
C 47.703125 34.3125 39 44 28.703125 44 
C 22.703125 44 17.796875 40.671875 15 36.640625 
L 15 44 
L 3.09375 42.890625 
L 3.09375 40.265625 
C 9 40.265625 9.90625 39.671875 9.90625 34.8125 
L 9.90625 -13.03125 
C 9.90625 -16.890625 9.5 -17.40625 3.09375 -17.40625 
L 3.09375 -20 
C 5.5 -19.8125 9.90625 -19.8125 12.5 -19.8125 
C 15.09375 -19.8125 19.59375 -19.8125 22 -20 
z
M 15.203125 31.484375 
C 15.203125 32.90625 15.203125 35.015625 19.09375 38.765625 
C 19.59375 39.15625 23 42.1875 28 42.1875 
C 35.296875 42.1875 41.296875 33 41.296875 21.5 
C 41.296875 9.984375 34.90625 0.59375 27 0.59375 
C 23.40625 0.59375 19.5 2.3125 16.5 7.046875 
C 15.203125 9.28125 15.203125 9.875 15.203125 11.5 
z
" id="CMR17-112"/>
      <path d="M 15.796875 1.59375 
C 16 0.6875 16 0.390625 16 -1.1875 
C 16 -7.046875 14 -12.421875 9.796875 -17.3125 
C 9.296875 -17.8125 9.296875 -18 9.296875 -18.203125 
C 9.296875 -18.609375 9.703125 -19 10.09375 -19 
C 10.703125 -19 17.59375 -12.125 17.59375 -1.28125 
C 17.59375 2 17.203125 8.1875 12.5 8.1875 
C 10.296875 8.1875 8.40625 6.6875 8.40625 4.09375 
C 8.40625 1.5 10.296875 0 12.5 0 
C 13.703125 0 15 0.5 15.796875 1.59375 
z
" id="CMR17-44"/>
      <path d="M 4.296875 -12.40625 
C 3.59375 -15.328125 3.203125 -16.109375 -0.90625 -16.109375 
C -2.109375 -16.109375 -3.109375 -16.109375 -3.109375 -18 
C -3.109375 -18.203125 -3 -19 -1.90625 -19 
C -0.609375 -19 0.796875 -18.8125 2.09375 -18.8125 
L 6.40625 -18.8125 
C 8.5 -18.8125 13.59375 -19 15.703125 -19 
C 16.296875 -19 17.5 -19 17.5 -17.203125 
C 17.5 -16.109375 16.796875 -16.109375 15.09375 -16.109375 
C 10.5 -16.109375 10.203125 -15.421875 10.203125 -14.640625 
C 10.203125 -13.484375 14.703125 3.390625 15.296875 5.6875 
C 16.40625 2.890625 19.09375 -1 24.296875 -1 
C 35.59375 -1 47.796875 13.65625 47.796875 28.328125 
C 47.796875 37.5 42.59375 44 35.09375 44 
C 28.703125 44 23.296875 37.796875 22.203125 36.40625 
C 21.40625 41.390625 17.5 44 13.5 44 
C 10.59375 44 8.296875 42.59375 6.40625 38.796875 
C 4.59375 35.203125 3.203125 29.125 3.203125 28.71875 
C 3.203125 28.328125 3.59375 27.828125 4.296875 27.828125 
C 5.09375 27.828125 5.203125 27.921875 5.796875 30.21875 
C 7.296875 36.109375 9.203125 41.984375 13.203125 41.984375 
C 15.5 41.984375 16.296875 40.390625 16.296875 37.40625 
C 16.296875 35.015625 16 34.015625 15.59375 32.21875 
z
M 21.59375 31.125 
C 22.296875 33.90625 25.09375 36.8125 26.703125 38.203125 
C 27.796875 39.203125 31.09375 41.984375 34.90625 41.984375 
C 39.296875 41.984375 41.296875 37.609375 41.296875 32.421875 
C 41.296875 27.625 38.5 16.359375 36 11.171875 
C 33.5 5.78125 28.90625 1 24.296875 1 
C 17.5 1 16.40625 9.578125 16.40625 9.96875 
C 16.40625 10.265625 16.59375 11.0625 16.703125 11.5625 
z
" id="CMMI12-112"/>
      <path d="M 64.296875 32 
C 65.796875 32 67.296875 32 67.296875 33.6875 
C 67.296875 35.5 65.59375 35.5 63.90625 35.5 
L 8 35.5 
C 6.296875 35.5 4.59375 35.5 4.59375 33.6875 
C 4.59375 32 6.09375 32 7.59375 32 
z
M 63.90625 14.484375 
C 65.59375 14.484375 67.296875 14.484375 67.296875 16.296875 
C 67.296875 18 65.796875 18 64.296875 18 
L 7.59375 18 
C 6.09375 18 4.59375 18 4.59375 16.296875 
C 4.59375 14.484375 6.296875 14.484375 8 14.484375 
z
" id="CMR17-61"/>
     </defs>
     <g style="fill:#262626;" transform="translate(351.388754 196.8145)scale(0.119952 -0.119952)">
      <use transform="translate(0 -0.072667)scale(0.996264)" xlink:href="#CMR17-73"/>
      <use transform="translate(32.638409 -0.072667)scale(0.996264)" xlink:href="#CMR17-110"/>
      <use transform="translate(80.931325 -0.072667)scale(0.996264)" xlink:href="#CMR17-116"/>
      <use transform="translate(116.212093 -0.072667)scale(0.996264)" xlink:href="#CMR17-101"/>
      <use transform="translate(156.697753 -0.072667)scale(0.996264)" xlink:href="#CMR17-114"/>
      <use transform="translate(191.978521 -0.072667)scale(0.996264)" xlink:href="#CMR17-112"/>
      <use transform="translate(245.47633 -0.072667)scale(0.996264)" xlink:href="#CMR17-111"/>
      <use transform="translate(291.166807 -0.072667)scale(0.996264)" xlink:href="#CMR17-108"/>
      <use transform="translate(316.037865 -0.072667)scale(0.996264)" xlink:href="#CMR17-97"/>
      <use transform="translate(361.728342 -0.072667)scale(0.996264)" xlink:href="#CMR17-116"/>
      <use transform="translate(397.00911 -0.072667)scale(0.996264)" xlink:href="#CMR17-105"/>
      <use transform="translate(421.880169 -0.072667)scale(0.996264)" xlink:href="#CMR17-111"/>
      <use transform="translate(467.570646 -0.072667)scale(0.996264)" xlink:href="#CMR17-110"/>
      <use transform="translate(518.466016 -0.072667)scale(0.996264)" xlink:href="#CMR17-44"/>
      <use transform="translate(573.41304 -0.072667)scale(0.996264)" xlink:href="#CMMI12-112"/>
      <use transform="translate(650.046563 -0.072667)scale(0.996264)" xlink:href="#CMR17-61"/>
      <use transform="translate(749.43536 -0.072667)scale(0.996264)" xlink:href="#CMR17-49"/>
     </g>
    </g>
    <g id="line2d_88">
     <path d="M 317.802194 209.34282 
L 341.792594 209.34282 
" style="fill:none;stroke:#d62728;stroke-linecap:round;stroke-width:1.5;"/>
    </g>
    <g id="line2d_89"/>
    <g id="text_17">
     <!-- Interpolation, $p = 2$ -->
     <g style="fill:#262626;" transform="translate(351.388754 213.54114)scale(0.119952 -0.119952)">
      <use transform="translate(0 -0.072667)scale(0.996264)" xlink:href="#CMR17-73"/>
      <use transform="translate(32.638409 -0.072667)scale(0.996264)" xlink:href="#CMR17-110"/>
      <use transform="translate(80.931325 -0.072667)scale(0.996264)" xlink:href="#CMR17-116"/>
      <use transform="translate(116.212093 -0.072667)scale(0.996264)" xlink:href="#CMR17-101"/>
      <use transform="translate(156.697753 -0.072667)scale(0.996264)" xlink:href="#CMR17-114"/>
      <use transform="translate(191.978521 -0.072667)scale(0.996264)" xlink:href="#CMR17-112"/>
      <use transform="translate(245.47633 -0.072667)scale(0.996264)" xlink:href="#CMR17-111"/>
      <use transform="translate(291.166807 -0.072667)scale(0.996264)" xlink:href="#CMR17-108"/>
      <use transform="translate(316.037865 -0.072667)scale(0.996264)" xlink:href="#CMR17-97"/>
      <use transform="translate(361.728342 -0.072667)scale(0.996264)" xlink:href="#CMR17-116"/>
      <use transform="translate(397.00911 -0.072667)scale(0.996264)" xlink:href="#CMR17-105"/>
      <use transform="translate(421.880169 -0.072667)scale(0.996264)" xlink:href="#CMR17-111"/>
      <use transform="translate(467.570646 -0.072667)scale(0.996264)" xlink:href="#CMR17-110"/>
      <use transform="translate(518.466016 -0.072667)scale(0.996264)" xlink:href="#CMR17-44"/>
      <use transform="translate(573.41304 -0.072667)scale(0.996264)" xlink:href="#CMMI12-112"/>
      <use transform="translate(650.046563 -0.072667)scale(0.996264)" xlink:href="#CMR17-61"/>
      <use transform="translate(749.43536 -0.072667)scale(0.996264)" xlink:href="#CMR17-50"/>
     </g>
    </g>
   </g>
  </g>
 </g>
 <defs>
  <clipPath id="pf1e773076d">
   <rect height="257.556" width="400.00716" x="71.00229" y="23.19998"/>
  </clipPath>
 </defs>
</svg>
