<?xml version="1.0" encoding="utf-8" standalone="no"?>
<!DOCTYPE svg PUBLIC "-//W3C//DTD SVG 1.1//EN"
  "http://www.w3.org/Graphics/SVG/1.1/DTD/svg11.dtd">
<!-- Created with matplotlib (https://matplotlib.org/) -->
<svg height="282.78924pt" version="1.1" viewBox="0 0 570.090442 282.78924" width="570.090442pt" xmlns="http://www.w3.org/2000/svg" xmlns:xlink="http://www.w3.org/1999/xlink">
 <defs>
  <style type="text/css">
*{stroke-linecap:butt;stroke-linejoin:round;}
  </style>
 </defs>
 <g id="figure_1">
  <g id="patch_1">
   <path d="M 0 282.78924 
L 570.090442 282.78924 
L 570.090442 0 
L 0 0 
z
" style="fill:none;"/>
  </g>
  <g id="axes_1">
   <g id="patch_2">
    <path d="M 51.61504 237.55598 
L 308.62725 237.55598 
L 308.62725 23.19998 
L 51.61504 23.19998 
z
" style="fill:none;"/>
   </g>
   <g id="matplotlib.axis_1">
    <g id="xtick_1">
     <g id="line2d_1">
      <path clip-path="url(#p75c36063b3)" d="M 51.61504 237.55598 
L 51.61504 23.19998 
" style="fill:none;stroke:#cccccc;stroke-linecap:round;"/>
     </g>
     <g id="line2d_2">
      <defs>
       <path d="M 0 0 
L 0 6 
" id="m366929cb12" style="stroke:#262626;stroke-width:1.25;"/>
      </defs>
      <g>
       <use style="fill:#262626;stroke:#262626;stroke-width:1.25;" x="51.61504" xlink:href="#m366929cb12" y="237.55598"/>
      </g>
     </g>
     <g id="text_1">
      <!-- $10^{-2}$ -->
      <defs>
       <path d="M 26.59375 63.796875 
C 26.59375 65.890625 26.5 66 25.09375 66 
C 21.203125 61.359375 15.296875 59.890625 9.703125 59.6875 
C 9.40625 59.6875 8.90625 59.6875 8.796875 59.5 
C 8.703125 59.296875 8.703125 59.09375 8.703125 57 
C 11.796875 57 17 57.59375 21 59.984375 
L 21 7.296875 
C 21 3.796875 20.796875 2.59375 12.203125 2.59375 
L 9.203125 2.59375 
L 9.203125 0 
C 14 0.09375 19 0.1875 23.796875 0.1875 
C 28.59375 0.1875 33.59375 0.09375 38.40625 0 
L 38.40625 2.59375 
L 35.40625 2.59375 
C 26.796875 2.59375 26.59375 3.6875 26.59375 7.296875 
z
" id="CMR17-49"/>
       <path d="M 42 31.84375 
C 42 37.96875 41.90625 48.421875 37.703125 56.453125 
C 34 63.484375 28.09375 66 22.90625 66 
C 18.09375 66 12 63.78125 8.203125 56.5625 
C 4.203125 49.015625 3.796875 39.671875 3.796875 31.84375 
C 3.796875 26.109375 3.90625 17.375 7 9.734375 
C 11.296875 -0.609375 19 -2 22.90625 -2 
C 27.5 -2 34.5 -0.109375 38.59375 9.4375 
C 41.59375 16.375 42 24.5 42 31.84375 
z
M 22.90625 -0.40625 
C 16.5 -0.40625 12.703125 5.125 11.296875 12.75 
C 10.203125 18.6875 10.203125 27.328125 10.203125 32.953125 
C 10.203125 40.6875 10.203125 47.109375 11.5 53.234375 
C 13.40625 61.78125 19 64.390625 22.90625 64.390625 
C 27 64.390625 32.296875 61.671875 34.203125 53.4375 
C 35.5 47.71875 35.59375 40.984375 35.59375 32.953125 
C 35.59375 26.421875 35.59375 18.375 34.40625 12.453125 
C 32.296875 1.5 26.40625 -0.40625 22.90625 -0.40625 
z
" id="CMR17-48"/>
       <path d="M 65.90625 23 
C 67.59375 23 69.40625 23 69.40625 25 
C 69.40625 27 67.59375 27 65.90625 27 
L 11.796875 27 
C 10.09375 27 8.296875 27 8.296875 25 
C 8.296875 23 10.09375 23 11.796875 23 
z
" id="CMSY10-0"/>
       <path d="M 41.703125 15.46875 
L 39.90625 15.46875 
C 38.90625 8.390625 38.09375 7.1875 37.703125 6.59375 
C 37.203125 5.796875 30 5.796875 28.59375 5.796875 
L 9.40625 5.796875 
C 13 9.6875 20 16.765625 28.5 24.9375 
C 34.59375 30.71875 41.703125 37.5 41.703125 47.390625 
C 41.703125 59.1875 32.296875 66 21.796875 66 
C 10.796875 66 4.09375 56.296875 4.09375 47.296875 
C 4.09375 43.390625 7 42.890625 8.203125 42.890625 
C 9.203125 42.890625 12.203125 43.484375 12.203125 46.984375 
C 12.203125 50.09375 9.59375 51 8.203125 51 
C 7.59375 51 7 50.890625 6.59375 50.6875 
C 8.5 59.1875 14.296875 63.390625 20.40625 63.390625 
C 29.09375 63.390625 34.796875 56.5 34.796875 47.390625 
C 34.796875 38.703125 29.703125 31.21875 24 24.734375 
L 4.09375 2.296875 
L 4.09375 0 
L 39.296875 0 
z
" id="CMR17-50"/>
      </defs>
      <g style="fill:#262626;" transform="translate(38.83539 256.22262)scale(0.132 -0.132)">
       <use transform="scale(0.996264)" xlink:href="#CMR17-49"/>
       <use transform="translate(45.690477 0)scale(0.996264)" xlink:href="#CMR17-48"/>
       <use transform="translate(91.380954 36.153639)scale(0.697382)" xlink:href="#CMSY10-0"/>
       <use transform="translate(145.621947 36.153639)scale(0.697382)" xlink:href="#CMR17-50"/>
      </g>
     </g>
    </g>
    <g id="xtick_2">
     <g id="line2d_3">
      <path clip-path="url(#p75c36063b3)" d="M 137.285777 237.55598 
L 137.285777 23.19998 
" style="fill:none;stroke:#cccccc;stroke-linecap:round;"/>
     </g>
     <g id="line2d_4">
      <g>
       <use style="fill:#262626;stroke:#262626;stroke-width:1.25;" x="137.285777" xlink:href="#m366929cb12" y="237.55598"/>
      </g>
     </g>
     <g id="text_2">
      <!-- $10^{-1}$ -->
      <g style="fill:#262626;" transform="translate(124.506127 256.22262)scale(0.132 -0.132)">
       <use transform="scale(0.996264)" xlink:href="#CMR17-49"/>
       <use transform="translate(45.690477 0)scale(0.996264)" xlink:href="#CMR17-48"/>
       <use transform="translate(91.380954 36.153639)scale(0.697382)" xlink:href="#CMSY10-0"/>
       <use transform="translate(145.621947 36.153639)scale(0.697382)" xlink:href="#CMR17-49"/>
      </g>
     </g>
    </g>
    <g id="xtick_3">
     <g id="line2d_5">
      <path clip-path="url(#p75c36063b3)" d="M 222.956513 237.55598 
L 222.956513 23.19998 
" style="fill:none;stroke:#cccccc;stroke-linecap:round;"/>
     </g>
     <g id="line2d_6">
      <g>
       <use style="fill:#262626;stroke:#262626;stroke-width:1.25;" x="222.956513" xlink:href="#m366929cb12" y="237.55598"/>
      </g>
     </g>
     <g id="text_3">
      <!-- $10^{0}$ -->
      <g style="fill:#262626;" transform="translate(213.869963 256.22262)scale(0.132 -0.132)">
       <use transform="scale(0.996264)" xlink:href="#CMR17-49"/>
       <use transform="translate(45.690477 0)scale(0.996264)" xlink:href="#CMR17-48"/>
       <use transform="translate(91.380954 36.153639)scale(0.697382)" xlink:href="#CMR17-48"/>
      </g>
     </g>
    </g>
    <g id="xtick_4">
     <g id="line2d_7">
      <path clip-path="url(#p75c36063b3)" d="M 308.62725 237.55598 
L 308.62725 23.19998 
" style="fill:none;stroke:#cccccc;stroke-linecap:round;"/>
     </g>
     <g id="line2d_8">
      <g>
       <use style="fill:#262626;stroke:#262626;stroke-width:1.25;" x="308.62725" xlink:href="#m366929cb12" y="237.55598"/>
      </g>
     </g>
     <g id="text_4">
      <!-- $10^{1}$ -->
      <g style="fill:#262626;" transform="translate(299.5407 256.22262)scale(0.132 -0.132)">
       <use transform="scale(0.996264)" xlink:href="#CMR17-49"/>
       <use transform="translate(45.690477 0)scale(0.996264)" xlink:href="#CMR17-48"/>
       <use transform="translate(91.380954 36.153639)scale(0.697382)" xlink:href="#CMR17-49"/>
      </g>
     </g>
    </g>
    <g id="xtick_5">
     <g id="line2d_9">
      <defs>
       <path d="M 0 0 
L 0 4 
" id="m4a64dddea3" style="stroke:#262626;"/>
      </defs>
      <g>
       <use style="fill:#262626;stroke:#262626;" x="77.404501" xlink:href="#m4a64dddea3" y="237.55598"/>
      </g>
     </g>
    </g>
    <g id="xtick_6">
     <g id="line2d_10">
      <g>
       <use style="fill:#262626;stroke:#262626;" x="92.490369" xlink:href="#m4a64dddea3" y="237.55598"/>
      </g>
     </g>
    </g>
    <g id="xtick_7">
     <g id="line2d_11">
      <g>
       <use style="fill:#262626;stroke:#262626;" x="103.193963" xlink:href="#m4a64dddea3" y="237.55598"/>
      </g>
     </g>
    </g>
    <g id="xtick_8">
     <g id="line2d_12">
      <g>
       <use style="fill:#262626;stroke:#262626;" x="111.496315" xlink:href="#m4a64dddea3" y="237.55598"/>
      </g>
     </g>
    </g>
    <g id="xtick_9">
     <g id="line2d_13">
      <g>
       <use style="fill:#262626;stroke:#262626;" x="118.279831" xlink:href="#m4a64dddea3" y="237.55598"/>
      </g>
     </g>
    </g>
    <g id="xtick_10">
     <g id="line2d_14">
      <g>
       <use style="fill:#262626;stroke:#262626;" x="124.015212" xlink:href="#m4a64dddea3" y="237.55598"/>
      </g>
     </g>
    </g>
    <g id="xtick_11">
     <g id="line2d_15">
      <g>
       <use style="fill:#262626;stroke:#262626;" x="128.983424" xlink:href="#m4a64dddea3" y="237.55598"/>
      </g>
     </g>
    </g>
    <g id="xtick_12">
     <g id="line2d_16">
      <g>
       <use style="fill:#262626;stroke:#262626;" x="133.365699" xlink:href="#m4a64dddea3" y="237.55598"/>
      </g>
     </g>
    </g>
    <g id="xtick_13">
     <g id="line2d_17">
      <g>
       <use style="fill:#262626;stroke:#262626;" x="163.075238" xlink:href="#m4a64dddea3" y="237.55598"/>
      </g>
     </g>
    </g>
    <g id="xtick_14">
     <g id="line2d_18">
      <g>
       <use style="fill:#262626;stroke:#262626;" x="178.161106" xlink:href="#m4a64dddea3" y="237.55598"/>
      </g>
     </g>
    </g>
    <g id="xtick_15">
     <g id="line2d_19">
      <g>
       <use style="fill:#262626;stroke:#262626;" x="188.8647" xlink:href="#m4a64dddea3" y="237.55598"/>
      </g>
     </g>
    </g>
    <g id="xtick_16">
     <g id="line2d_20">
      <g>
       <use style="fill:#262626;stroke:#262626;" x="197.167052" xlink:href="#m4a64dddea3" y="237.55598"/>
      </g>
     </g>
    </g>
    <g id="xtick_17">
     <g id="line2d_21">
      <g>
       <use style="fill:#262626;stroke:#262626;" x="203.950568" xlink:href="#m4a64dddea3" y="237.55598"/>
      </g>
     </g>
    </g>
    <g id="xtick_18">
     <g id="line2d_22">
      <g>
       <use style="fill:#262626;stroke:#262626;" x="209.685948" xlink:href="#m4a64dddea3" y="237.55598"/>
      </g>
     </g>
    </g>
    <g id="xtick_19">
     <g id="line2d_23">
      <g>
       <use style="fill:#262626;stroke:#262626;" x="214.654161" xlink:href="#m4a64dddea3" y="237.55598"/>
      </g>
     </g>
    </g>
    <g id="xtick_20">
     <g id="line2d_24">
      <g>
       <use style="fill:#262626;stroke:#262626;" x="219.036435" xlink:href="#m4a64dddea3" y="237.55598"/>
      </g>
     </g>
    </g>
    <g id="xtick_21">
     <g id="line2d_25">
      <g>
       <use style="fill:#262626;stroke:#262626;" x="248.745975" xlink:href="#m4a64dddea3" y="237.55598"/>
      </g>
     </g>
    </g>
    <g id="xtick_22">
     <g id="line2d_26">
      <g>
       <use style="fill:#262626;stroke:#262626;" x="263.831843" xlink:href="#m4a64dddea3" y="237.55598"/>
      </g>
     </g>
    </g>
    <g id="xtick_23">
     <g id="line2d_27">
      <g>
       <use style="fill:#262626;stroke:#262626;" x="274.535436" xlink:href="#m4a64dddea3" y="237.55598"/>
      </g>
     </g>
    </g>
    <g id="xtick_24">
     <g id="line2d_28">
      <g>
       <use style="fill:#262626;stroke:#262626;" x="282.837789" xlink:href="#m4a64dddea3" y="237.55598"/>
      </g>
     </g>
    </g>
    <g id="xtick_25">
     <g id="line2d_29">
      <g>
       <use style="fill:#262626;stroke:#262626;" x="289.621304" xlink:href="#m4a64dddea3" y="237.55598"/>
      </g>
     </g>
    </g>
    <g id="xtick_26">
     <g id="line2d_30">
      <g>
       <use style="fill:#262626;stroke:#262626;" x="295.356685" xlink:href="#m4a64dddea3" y="237.55598"/>
      </g>
     </g>
    </g>
    <g id="xtick_27">
     <g id="line2d_31">
      <g>
       <use style="fill:#262626;stroke:#262626;" x="300.324898" xlink:href="#m4a64dddea3" y="237.55598"/>
      </g>
     </g>
    </g>
    <g id="xtick_28">
     <g id="line2d_32">
      <g>
       <use style="fill:#262626;stroke:#262626;" x="304.707172" xlink:href="#m4a64dddea3" y="237.55598"/>
      </g>
     </g>
    </g>
    <g id="text_5">
     <!-- Data noise level, $\sigma_0$ -->
     <defs>
      <path d="M 5.203125 68 
L 5.203125 65.390625 
C 12.09375 65.390625 13.203125 65.390625 13.203125 60.90625 
L 13.203125 7.078125 
C 13.203125 2.59375 12.09375 2.59375 5.203125 2.59375 
L 5.203125 0 
L 37 0 
C 53.09375 0 66 14.734375 66 33.4375 
C 66 52.25 53.296875 68 37 68 
z
M 23.796875 2.59375 
C 19.796875 2.59375 19.59375 3.09375 19.59375 6.46875 
L 19.59375 61.5 
C 19.59375 64.890625 19.796875 65.390625 23.796875 65.390625 
L 35 65.390625 
C 43.296875 65.390625 58.59375 60.515625 58.59375 33.4375 
C 58.59375 19.40625 54.5 13.734375 52.59375 11.046875 
C 50.203125 7.96875 44.5 2.59375 35 2.59375 
z
" id="CMR17-68"/>
      <path d="M 36 25.875 
C 36 32 36 35.546875 31.796875 39.59375 
C 28.09375 42.984375 23.796875 44 20.40625 44 
C 12.5 44 6.796875 37.625 6.796875 30.890625 
C 6.796875 27.1875 9.796875 27 10.40625 27 
C 11.703125 27 14 27.796875 14 30.59375 
C 14 33.09375 12.09375 34.1875 10.40625 34.1875 
C 10 34.1875 9.5 34.09375 9.203125 34 
C 11.296875 40.53125 16.703125 42.390625 20.203125 42.390625 
C 25.203125 42.390625 30.703125 37.828125 30.703125 29.296875 
L 30.703125 25.5 
C 24.796875 25.296875 17.703125 24.5 12.09375 21.453125 
C 5.796875 17.921875 4 12.84375 4 9 
C 4 1.203125 13 -1 18.296875 -1 
C 23.796875 -1 28.90625 2.109375 31.09375 7.890625 
C 31.296875 3.421875 34.09375 -0.609375 38.5 -0.609375 
C 40.59375 -0.609375 45.90625 0.796875 45.90625 8.796875 
L 45.90625 14.46875 
L 44.09375 14.46875 
L 44.09375 8.703125 
C 44.09375 2.515625 41.40625 1.703125 40.09375 1.703125 
C 36 1.703125 36 6.96875 36 11.4375 
z
M 30.703125 13.859375 
C 30.703125 5.046875 24.5 0.59375 19 0.59375 
C 14 0.59375 10.09375 4.34375 10.09375 9 
C 10.09375 12.046875 11.40625 17.40625 17.203125 20.65625 
C 22 23.390625 27.5 23.796875 30.703125 24 
z
" id="CMR17-97"/>
      <path d="M 15.09375 40.390625 
L 29.09375 40.390625 
L 29.09375 43 
L 15.09375 43 
L 15.09375 62 
L 13.296875 62 
C 13.09375 51.4375 9.59375 42.1875 1.09375 41.984375 
L 1.09375 40.390625 
L 9.796875 40.390625 
L 9.796875 12.15625 
C 9.796875 10.234375 9.796875 -1 21.40625 -1 
C 27.296875 -1 30.703125 4.8125 30.703125 12.25 
L 30.703125 17.984375 
L 28.90625 17.984375 
L 28.90625 12.34375 
C 28.90625 5.421875 26.203125 0.796875 22 0.796875 
C 19.09375 0.796875 15.09375 2.796875 15.09375 11.953125 
z
" id="CMR17-116"/>
      <path d="M 41.5 30.53125 
C 41.5 35.65625 40.5 44 28.703125 44 
C 20.796875 44 16.703125 37.875 15.203125 33.84375 
L 15.09375 33.84375 
L 15.09375 44 
L 3.296875 42.890625 
L 3.296875 40.28125 
C 9.203125 40.28125 10.09375 39.6875 10.09375 34.859375 
L 10.09375 6.921875 
C 10.09375 3.09375 9.703125 2.59375 3.296875 2.59375 
L 3.296875 0 
C 5.703125 0.1875 10.09375 0.1875 12.703125 0.1875 
C 15.296875 0.1875 19.796875 0.1875 22.203125 0 
L 22.203125 2.59375 
C 15.796875 2.59375 15.40625 3 15.40625 6.921875 
L 15.40625 26.21875 
C 15.40625 35.453125 21 42.390625 28 42.390625 
C 35.40625 42.390625 36.203125 35.765625 36.203125 30.9375 
L 36.203125 6.921875 
C 36.203125 3.09375 35.796875 2.59375 29.40625 2.59375 
L 29.40625 0 
C 31.796875 0.1875 36.203125 0.1875 38.796875 0.1875 
C 41.40625 0.1875 45.90625 0.1875 48.296875 0 
L 48.296875 2.59375 
C 41.90625 2.59375 41.5 3 41.5 6.921875 
z
" id="CMR17-110"/>
      <path d="M 43.09375 21.1875 
C 43.09375 34 33.796875 44 22.90625 44 
C 12 44 2.703125 34 2.703125 21.1875 
C 2.703125 8.59375 12 -1 22.90625 -1 
C 33.796875 -1 43.09375 8.59375 43.09375 21.1875 
z
M 22.90625 0.796875 
C 18.203125 0.796875 14.203125 3.59375 11.90625 7.5 
C 9.40625 12 9.09375 17.59375 9.09375 22 
C 9.09375 26.1875 9.296875 31.390625 11.90625 35.890625 
C 13.90625 39.1875 17.796875 42.390625 22.90625 42.390625 
C 27.40625 42.390625 31.203125 39.890625 33.59375 36.390625 
C 36.703125 31.6875 36.703125 25.09375 36.703125 22 
C 36.703125 18.09375 36.5 12.09375 33.796875 7.296875 
C 31 2.6875 26.703125 0.796875 22.90625 0.796875 
z
" id="CMR17-111"/>
      <path d="M 15.5 61.890625 
C 15.5 64.09375 13.703125 66 11.40625 66 
C 9.203125 66 7.296875 64.1875 7.296875 61.890625 
C 7.296875 59.6875 9.09375 57.796875 11.40625 57.796875 
C 13.59375 57.796875 15.5 59.59375 15.5 61.890625 
z
M 3.796875 42.890625 
L 3.796875 40.296875 
C 9.40625 40.296875 10.203125 39.6875 10.203125 34.859375 
L 10.203125 6.921875 
C 10.203125 3.09375 9.796875 2.59375 3.40625 2.59375 
L 3.40625 0 
C 5.796875 0.1875 10.09375 0.1875 12.59375 0.1875 
C 15 0.1875 19.09375 0.1875 21.40625 0 
L 21.40625 2.59375 
C 15.5 2.59375 15.296875 3.203125 15.296875 6.8125 
L 15.296875 44 
z
" id="CMR17-105"/>
      <path d="M 30.90625 42 
C 30.90625 43.796875 30.796875 43.890625 30.203125 43.890625 
C 29.796875 43.890625 29.703125 43.796875 28.5 42.296875 
C 28.203125 41.890625 27.296875 40.890625 27 40.5 
C 23.796875 43.890625 19.296875 44 17.59375 44 
C 6.5 44 2.5 38.1875 2.5 32.390625 
C 2.5 23.390625 12.703125 21.296875 15.59375 20.6875 
C 21.90625 19.390625 24.09375 19 26.203125 17.1875 
C 27.5 16 29.703125 13.796875 29.703125 10.1875 
C 29.703125 6 27.296875 0.59375 18.09375 0.59375 
C 9.40625 0.59375 6.296875 7.1875 4.5 16 
C 4.203125 17.390625 4.203125 17.5 3.40625 17.5 
C 2.59375 17.5 2.5 17.390625 2.5 15.390625 
L 2.5 1 
C 2.5 -0.8125 2.59375 -0.90625 3.203125 -0.90625 
C 3.703125 -0.90625 3.796875 -0.8125 4.296875 0 
C 4.90625 0.890625 6.40625 3.296875 7 4.296875 
C 9 1.59375 12.5 -1 18.09375 -1 
C 28 -1 33.296875 4.390625 33.296875 12.1875 
C 33.296875 17.296875 30.59375 20 29.296875 21.1875 
C 26.296875 24.296875 22.796875 25 18.59375 25.796875 
C 13.09375 27 6.09375 28.390625 6.09375 34.5 
C 6.09375 37.09375 7.5 42.59375 17.59375 42.59375 
C 28.296875 42.59375 28.90625 32.59375 29.09375 29.390625 
C 29.203125 28.890625 29.703125 28.796875 30 28.796875 
C 30.90625 28.796875 30.90625 29.09375 30.90625 30.796875 
z
" id="CMR17-115"/>
      <path d="M 38.09375 23.484375 
C 38.5 23.890625 38.5 24.09375 38.5 25.09375 
C 38.5 35.171875 33.09375 44 21.703125 44 
C 11.09375 44 2.703125 33.984375 2.703125 21.78125 
C 2.703125 8.65625 12.203125 -1 22.796875 -1 
C 34 -1 38.40625 9.671875 38.40625 11.796875 
C 38.40625 12.5 37.796875 12.5 37.59375 12.5 
C 36.90625 12.5 36.796875 12.296875 36.40625 11.078125 
C 34.203125 4.21875 28.703125 0.796875 23.5 0.796875 
C 19.203125 0.796875 14.90625 3.21875 12.203125 7.65625 
C 9.09375 12.796875 9.09375 18.75 9.09375 23.484375 
z
M 9.203125 25 
C 9.90625 39.234375 17.59375 42.390625 21.59375 42.390625 
C 28.40625 42.390625 33 36.0625 33.09375 25 
z
" id="CMR17-101"/>
      <path d="M 15.296875 69 
L 3.40625 67.890625 
L 3.40625 65.296875 
C 9.296875 65.296875 10.203125 64.703125 10.203125 59.921875 
L 10.203125 6.859375 
C 10.203125 3.09375 9.796875 2.59375 3.40625 2.59375 
L 3.40625 0 
C 5.796875 0.1875 10.203125 0.1875 12.703125 0.1875 
C 15.296875 0.1875 19.703125 0.1875 22.09375 0 
L 22.09375 2.59375 
C 15.703125 2.59375 15.296875 2.984375 15.296875 6.859375 
z
" id="CMR17-108"/>
      <path d="M 39.09375 33.953125 
C 40 36.171875 41.59375 40.1875 47.40625 40.390625 
L 47.40625 43 
C 45.5 42.890625 43 42.796875 41.09375 42.796875 
C 39 42.796875 35.703125 42.796875 33.703125 43 
L 33.703125 40.390625 
C 36.203125 40.1875 37.59375 38.984375 37.59375 36.375 
C 37.59375 35.46875 37.59375 35.265625 37 33.859375 
L 26 5.921875 
L 14.09375 36.0625 
C 13.5 37.375 13.5 37.578125 13.5 37.984375 
C 13.5 40.390625 16.796875 40.390625 18.296875 40.390625 
L 18.296875 43 
C 15.90625 42.796875 11.5 42.796875 9 42.796875 
C 6.296875 42.796875 3.203125 42.796875 1 43 
L 1 40.390625 
C 4.796875 40.390625 6.90625 40.390625 8.09375 37.28125 
L 22.59375 0.6875 
C 23.203125 -0.8125 23.296875 -1 24.203125 -1 
C 25.09375 -1 25.203125 -0.8125 25.796875 0.6875 
z
" id="CMR17-118"/>
      <path d="M 15.796875 1.59375 
C 16 0.6875 16 0.390625 16 -1.1875 
C 16 -7.046875 14 -12.421875 9.796875 -17.3125 
C 9.296875 -17.8125 9.296875 -18 9.296875 -18.203125 
C 9.296875 -18.609375 9.703125 -19 10.09375 -19 
C 10.703125 -19 17.59375 -12.125 17.59375 -1.28125 
C 17.59375 2 17.203125 8.1875 12.5 8.1875 
C 10.296875 8.1875 8.40625 6.6875 8.40625 4.09375 
C 8.40625 1.5 10.296875 0 12.5 0 
C 13.703125 0 15 0.5 15.796875 1.59375 
z
" id="CMR17-44"/>
      <path d="M 50.796875 37.59375 
C 52.09375 37.59375 55.40625 37.59375 55.40625 40.796875 
C 55.40625 43 53.5 43 51.703125 43 
L 29.59375 43 
C 14.59375 43 3.796875 26.328125 3.796875 14.5625 
C 3.796875 6.078125 9.296875 -1 18.296875 -1 
C 30.09375 -1 43 11.65625 43 26.625 
C 43 30.515625 42.09375 34.296875 39.703125 37.59375 
z
M 18.40625 1 
C 13.296875 1 9.59375 4.875 9.59375 11.765625 
C 9.59375 17.75 13.203125 37.59375 27.90625 37.59375 
C 32.203125 37.59375 37 35.5 37 27.8125 
C 37 24.328125 35.40625 15.953125 31.90625 10.171875 
C 28.296875 4.28125 22.90625 1 18.40625 1 
z
" id="CMMI12-27"/>
     </defs>
     <g style="fill:#262626;" transform="translate(120.158115 272.78925)scale(0.144 -0.144)">
      <use transform="translate(0 -0.072667)scale(0.996264)" xlink:href="#CMR17-68"/>
      <use transform="translate(70.393556 -0.072667)scale(0.996264)" xlink:href="#CMR17-97"/>
      <use transform="translate(116.084033 -0.072667)scale(0.996264)" xlink:href="#CMR17-116"/>
      <use transform="translate(151.364801 -0.072667)scale(0.996264)" xlink:href="#CMR17-97"/>
      <use transform="translate(227.131244 -0.072667)scale(0.996264)" xlink:href="#CMR17-110"/>
      <use transform="translate(278.026614 -0.072667)scale(0.996264)" xlink:href="#CMR17-111"/>
      <use transform="translate(323.717091 -0.072667)scale(0.996264)" xlink:href="#CMR17-105"/>
      <use transform="translate(348.58815 -0.072667)scale(0.996264)" xlink:href="#CMR17-115"/>
      <use transform="translate(384.389487 -0.072667)scale(0.996264)" xlink:href="#CMR17-101"/>
      <use transform="translate(454.951114 -0.072667)scale(0.996264)" xlink:href="#CMR17-108"/>
      <use transform="translate(479.822173 -0.072667)scale(0.996264)" xlink:href="#CMR17-101"/>
      <use transform="translate(520.307833 -0.072667)scale(0.996264)" xlink:href="#CMR17-118"/>
      <use transform="translate(565.998295 -0.072667)scale(0.996264)" xlink:href="#CMR17-101"/>
      <use transform="translate(606.483955 -0.072667)scale(0.996264)" xlink:href="#CMR17-108"/>
      <use transform="translate(631.355014 -0.072667)scale(0.996264)" xlink:href="#CMR17-44"/>
      <use transform="translate(686.302039 -0.072667)scale(0.996264)" xlink:href="#CMMI12-27"/>
      <use transform="translate(741.7475 -15.016581)scale(0.697382)" xlink:href="#CMR17-48"/>
     </g>
    </g>
   </g>
   <g id="matplotlib.axis_2">
    <g id="ytick_1">
     <g id="line2d_33">
      <path clip-path="url(#p75c36063b3)" d="M 51.61504 237.55598 
L 308.62725 237.55598 
" style="fill:none;stroke:#cccccc;stroke-linecap:round;"/>
     </g>
     <g id="line2d_34">
      <defs>
       <path d="M 0 0 
L -6 0 
" id="md5e64c07d4" style="stroke:#262626;stroke-width:1.25;"/>
      </defs>
      <g>
       <use style="fill:#262626;stroke:#262626;stroke-width:1.25;" x="51.61504" xlink:href="#md5e64c07d4" y="237.55598"/>
      </g>
     </g>
     <g id="text_6">
      <!-- $0.0$ -->
      <defs>
       <path d="M 18.40625 4.796875 
C 18.40625 7.6875 16 9.6875 13.59375 9.6875 
C 10.703125 9.6875 8.703125 7.296875 8.703125 4.890625 
C 8.703125 2 11.09375 0 13.5 0 
C 16.40625 0 18.40625 2.390625 18.40625 4.796875 
z
" id="CMMI12-58"/>
      </defs>
      <g style="fill:#800000;" transform="translate(25.59998 242.1393)scale(0.132 -0.132)">
       <use transform="scale(0.996264)" xlink:href="#CMR17-48"/>
       <use transform="translate(45.690477 0)scale(0.996264)" xlink:href="#CMMI12-58"/>
       <use transform="translate(72.787654 0)scale(0.996264)" xlink:href="#CMR17-48"/>
      </g>
     </g>
    </g>
    <g id="ytick_2">
     <g id="line2d_35">
      <path clip-path="url(#p75c36063b3)" d="M 51.61504 58.92598 
L 308.62725 58.92598 
" style="fill:none;stroke:#cccccc;stroke-linecap:round;"/>
     </g>
     <g id="line2d_36">
      <g>
       <use style="fill:#262626;stroke:#262626;stroke-width:1.25;" x="51.61504" xlink:href="#md5e64c07d4" y="58.92598"/>
      </g>
     </g>
     <g id="text_7">
      <!-- $1.0$ -->
      <g style="fill:#800000;" transform="translate(25.59998 63.5093)scale(0.132 -0.132)">
       <use transform="scale(0.996264)" xlink:href="#CMR17-49"/>
       <use transform="translate(45.690477 0)scale(0.996264)" xlink:href="#CMMI12-58"/>
       <use transform="translate(72.787654 0)scale(0.996264)" xlink:href="#CMR17-48"/>
      </g>
     </g>
    </g>
    <g id="ytick_3">
     <g id="line2d_37">
      <path clip-path="url(#p75c36063b3)" d="M 51.61504 23.19998 
L 308.62725 23.19998 
" style="fill:none;stroke:#cccccc;stroke-linecap:round;"/>
     </g>
     <g id="line2d_38">
      <g>
       <use style="fill:#262626;stroke:#262626;stroke-width:1.25;" x="51.61504" xlink:href="#md5e64c07d4" y="23.19998"/>
      </g>
     </g>
     <g id="text_8">
      <!-- $1.2$ -->
      <g style="fill:#800000;" transform="translate(25.59998 27.7833)scale(0.132 -0.132)">
       <use transform="scale(0.996264)" xlink:href="#CMR17-49"/>
       <use transform="translate(45.690477 0)scale(0.996264)" xlink:href="#CMMI12-58"/>
       <use transform="translate(72.787654 0)scale(0.996264)" xlink:href="#CMR17-50"/>
      </g>
     </g>
    </g>
    <g id="text_9">
     <!-- $\hat{\sigma}_0/\sigma_0$ -->
     <defs>
      <path d="M 22.90625 69 
L 10.59375 55.1875 
L 11.796875 54 
L 22.90625 64.984375 
L 34 54 
L 35.203125 55.1875 
z
" id="CMR17-94"/>
      <path d="M 42.90625 71.296875 
C 42.90625 71.390625 43.5 72.890625 43.5 73.09375 
C 43.5 74.296875 42.5 75 41.703125 75 
C 41.203125 75 40.296875 75 39.5 72.796875 
L 6 -21.3125 
C 6 -21.40625 5.40625 -22.90625 5.40625 -23.109375 
C 5.40625 -24.3125 6.40625 -25 7.203125 -25 
C 7.796875 -25 8.703125 -24.90625 9.40625 -22.8125 
z
" id="CMMI12-61"/>
     </defs>
     <g style="fill:#800000;" transform="translate(17.99999 147.41702)rotate(-90)scale(0.144 -0.144)">
      <use transform="translate(6.664796 -0.086939)scale(0.996264)" xlink:href="#CMR17-94"/>
      <use transform="translate(0 -0.0934)scale(0.996264)" xlink:href="#CMMI12-27"/>
      <use transform="translate(55.445461 -15.037314)scale(0.697382)" xlink:href="#CMR17-48"/>
      <use transform="translate(87.926775 -0.0934)scale(0.996264)" xlink:href="#CMMI12-61"/>
      <use transform="translate(136.701694 -0.0934)scale(0.996264)" xlink:href="#CMMI12-27"/>
      <use transform="translate(192.147154 -15.037314)scale(0.697382)" xlink:href="#CMR17-48"/>
     </g>
    </g>
   </g>
   <g id="line2d_39">
    <path clip-path="url(#p75c36063b3)" d="M 51.61504 237.55598 
L 109.733379 237.55598 
L 111.024898 222.985864 
L 112.316416 200.463743 
L 113.607935 187.638922 
L 114.899454 177.873817 
L 116.190972 169.817329 
L 117.482491 162.901654 
L 118.774009 156.822009 
L 120.065528 151.391326 
L 122.648565 142.01247 
L 125.231603 134.124059 
L 127.81464 127.35444 
L 130.397677 121.463282 
L 132.980715 116.2835 
L 135.563752 111.692791 
L 138.146789 107.598133 
L 140.729826 103.926662 
L 143.312864 100.619965 
L 145.895901 97.630335 
L 148.478938 94.918223 
L 151.061976 92.450436 
L 153.645013 90.198827 
L 157.519569 87.175045 
L 161.394125 84.516605 
L 165.268681 82.16876 
L 169.143237 80.086794 
L 173.017792 78.233884 
L 176.892348 76.579493 
L 182.058423 74.639014 
L 187.224498 72.957188 
L 192.390572 71.494431 
L 198.848165 69.925779 
L 205.305759 68.599444 
L 213.05487 67.271935 
L 220.803982 66.181152 
L 229.844613 65.150224 
L 240.176762 64.225324 
L 251.80043 63.435466 
L 264.715616 62.795255 
L 280.21384 62.271627 
L 298.295101 61.895382 
L 308.62725 61.757317 
L 308.62725 61.757317 
" style="fill:none;stroke:#f4976c;stroke-linecap:round;stroke-width:1.5;"/>
   </g>
   <g id="line2d_40">
    <path clip-path="url(#p75c36063b3)" d="M 51.61504 102.913648 
L 54.198077 99.54514 
L 56.781115 96.500124 
L 59.364152 93.739134 
L 61.947189 91.229019 
L 64.530226 88.941623 
L 68.404782 85.876244 
L 72.279338 83.190222 
L 76.153894 80.827959 
L 80.02845 78.743593 
L 83.903006 76.898907 
L 87.777562 75.261798 
L 92.943637 73.355554 
L 98.109711 71.717103 
L 103.275786 70.303134 
L 109.733379 68.79826 
L 116.190972 67.534505 
L 123.940084 66.276626 
L 131.689196 65.247861 
L 140.729826 64.280195 
L 151.061976 63.418297 
L 162.685643 62.69165 
L 175.60083 62.117635 
L 189.807535 61.704093 
L 207.888796 61.412216 
L 233.719169 61.241491 
L 285.379914 61.16813 
L 308.62725 61.179563 
L 308.62725 61.179563 
" style="fill:none;stroke:#eb6a4b;stroke-linecap:round;stroke-width:1.5;"/>
   </g>
   <g id="line2d_41">
    <path clip-path="url(#p75c36063b3)" d="M 51.61504 61.675587 
L 70.98782 61.462479 
L 105.858823 61.342582 
L 207.888796 61.298547 
L 308.62725 61.296393 
L 308.62725 61.296393 
" style="fill:none;stroke:#c34d39;stroke-linecap:round;stroke-width:1.5;"/>
   </g>
   <g id="line2d_42">
    <path clip-path="url(#p75c36063b3)" d="M 51.61504 61.219145 
L 308.62725 61.219145 
L 308.62725 61.219145 
" style="fill:none;stroke:#7b4036;stroke-linecap:round;stroke-width:1.5;"/>
   </g>
   <g id="patch_3">
    <path d="M 51.61504 237.55598 
L 51.61504 23.19998 
" style="fill:none;stroke:#262626;stroke-linecap:square;stroke-linejoin:miter;stroke-width:1.25;"/>
   </g>
   <g id="patch_4">
    <path d="M 308.62725 237.55598 
L 308.62725 23.19998 
" style="fill:none;stroke:#262626;stroke-linecap:square;stroke-linejoin:miter;stroke-width:1.25;"/>
   </g>
   <g id="patch_5">
    <path d="M 51.61504 237.55598 
L 308.62725 237.55598 
" style="fill:none;stroke:#262626;stroke-linecap:square;stroke-linejoin:miter;stroke-width:1.25;"/>
   </g>
   <g id="patch_6">
    <path d="M 51.61504 23.19998 
L 308.62725 23.19998 
" style="fill:none;stroke:#262626;stroke-linecap:square;stroke-linejoin:miter;stroke-width:1.25;"/>
   </g>
   <g id="text_10">
    <!-- Estimates $\hat{\sigma}_0$, $\hat{\sigma}$ versus data noise level -->
    <defs>
     <path d="M 60.703125 25.21875 
L 58.90625 25.21875 
C 56.703125 10.5625 55.40625 2.59375 37.796875 2.59375 
L 23.90625 2.59375 
C 19.90625 2.59375 19.703125 3.09375 19.703125 6.484375 
L 19.703125 34 
L 29.09375 34 
C 38.5 34 39.40625 30.609375 39.40625 22.328125 
L 41.203125 22.328125 
L 41.203125 48.21875 
L 39.40625 48.21875 
C 39.40625 39.96875 38.5 36.59375 29.09375 36.59375 
L 19.703125 36.59375 
L 19.703125 61.3125 
C 19.703125 64.703125 19.90625 65.1875 23.90625 65.1875 
L 37.59375 65.1875 
C 53.09375 65.1875 54.90625 59.03125 56.296875 45.828125 
L 58.09375 45.828125 
L 55.703125 67.796875 
L 5.09375 67.796875 
L 5.09375 65.1875 
C 12 65.1875 13.09375 65.1875 13.09375 60.71875 
L 13.09375 7.078125 
C 13.09375 2.59375 12 2.59375 5.09375 2.59375 
L 5.09375 0 
L 57.09375 0 
z
" id="CMR17-69"/>
     <path d="M 67.59375 30.53125 
C 67.59375 35.5625 66.703125 44 54.796875 44 
C 48 44 43.296875 39.375 41.5 33.953125 
L 41.40625 33.953125 
C 40.203125 42.1875 34.296875 44 28.703125 44 
C 20.796875 44 16.703125 37.875 15.203125 33.84375 
L 15.09375 33.84375 
L 15.09375 44 
L 3.296875 42.890625 
L 3.296875 40.28125 
C 9.203125 40.28125 10.09375 39.6875 10.09375 34.859375 
L 10.09375 6.921875 
C 10.09375 3.09375 9.703125 2.59375 3.296875 2.59375 
L 3.296875 0 
C 5.703125 0.1875 10.09375 0.1875 12.703125 0.1875 
C 15.296875 0.1875 19.796875 0.1875 22.203125 0 
L 22.203125 2.59375 
C 15.796875 2.59375 15.40625 3 15.40625 6.921875 
L 15.40625 26.21875 
C 15.40625 35.453125 21 42.390625 28 42.390625 
C 35.40625 42.390625 36.203125 35.765625 36.203125 30.9375 
L 36.203125 6.921875 
C 36.203125 3.09375 35.796875 2.59375 29.40625 2.59375 
L 29.40625 0 
C 31.796875 0.1875 36.203125 0.1875 38.796875 0.1875 
C 41.40625 0.1875 45.90625 0.1875 48.296875 0 
L 48.296875 2.59375 
C 41.90625 2.59375 41.5 3 41.5 6.921875 
L 41.5 26.21875 
C 41.5 35.453125 47.09375 42.390625 54.09375 42.390625 
C 61.5 42.390625 62.296875 35.765625 62.296875 30.9375 
L 62.296875 6.921875 
C 62.296875 3.09375 61.90625 2.59375 55.5 2.59375 
L 55.5 0 
C 57.90625 0.1875 62.296875 0.1875 64.90625 0.1875 
C 67.5 0.1875 72 0.1875 74.40625 0 
L 74.40625 2.59375 
C 68 2.59375 67.59375 3 67.59375 6.921875 
z
" id="CMR17-109"/>
     <path d="M 15 23.703125 
C 15 33.34375 19.09375 42.390625 26.59375 42.390625 
C 27.296875 42.390625 28 42.296875 28.703125 41.984375 
C 28.703125 41.984375 26.5 41.28125 26.5 38.671875 
C 26.5 36.265625 28.40625 35.265625 29.90625 35.265625 
C 31.09375 35.265625 33.296875 35.96875 33.296875 38.78125 
C 33.296875 41.984375 30.09375 44 26.703125 44 
C 19.09375 44 15.796875 36.5625 14.796875 33.046875 
L 14.703125 33.046875 
L 14.703125 44 
L 3.09375 42.890625 
L 3.09375 40.28125 
C 9 40.28125 9.90625 39.6875 9.90625 34.859375 
L 9.90625 6.921875 
C 9.90625 3.09375 9.5 2.59375 3.09375 2.59375 
L 3.09375 0 
C 5.5 0.1875 10.09375 0.1875 12.703125 0.1875 
C 15.59375 0.1875 20.703125 0.1875 23.40625 0 
L 23.40625 2.59375 
C 16.203125 2.59375 15 2.59375 15 7.109375 
z
" id="CMR17-114"/>
     <path d="M 29.40625 42.890625 
L 29.40625 40.296875 
C 35.296875 40.296875 36.203125 39.6875 36.203125 34.828125 
L 36.203125 16.453125 
C 36.203125 7.96875 31.703125 0.59375 24.296875 0.59375 
C 16.09375 0.59375 15.40625 5.546875 15.40625 10.796875 
L 15.40625 44 
L 3.296875 42.890625 
L 3.296875 40.296875 
C 7.296875 40.296875 10 40.296875 10.09375 36.25 
L 10.09375 16.859375 
C 10.09375 10.09375 10.09375 5.75 12.703125 2.921875 
C 14 1.609375 16.5 -1 23.703125 -1 
C 32.203125 -1 35.5 6.25 36.296875 8.375 
L 36.40625 8.375 
L 36.40625 -1 
L 48.296875 -0.203125 
L 48.296875 2.40625 
C 42.40625 2.40625 41.5 3.015625 41.5 7.859375 
L 41.5 44 
z
" id="CMR17-117"/>
     <path d="M 29.203125 67.890625 
L 29.203125 65.296875 
C 35.09375 65.296875 36 64.703125 36 60.046875 
L 36 37.046875 
C 35.59375 37.546875 31.5 44 23.40625 44 
C 13.203125 44 3.296875 34.8125 3.296875 21.5 
C 3.296875 8.265625 12.59375 -1 22.40625 -1 
C 30.90625 -1 35.296875 5.640625 35.796875 6.34375 
L 35.796875 -1 
L 47.90625 -0.203125 
L 47.90625 2.40625 
C 42 2.40625 41.09375 3.015625 41.09375 7.859375 
L 41.09375 69 
z
M 35.796875 11.90625 
C 35.796875 8.875 34 6.140625 31.703125 4.125 
C 28.296875 1.09375 24.90625 0.59375 23 0.59375 
C 20.09375 0.59375 9.703125 2.109375 9.703125 21.390625 
C 9.703125 41.1875 21.296875 42.390625 23.90625 42.390625 
C 28.5 42.390625 32.203125 39.765625 34.5 36.140625 
C 35.796875 34.015625 35.796875 33.703125 35.796875 31.890625 
z
" id="CMR17-100"/>
    </defs>
    <g style="fill:#262626;" transform="translate(61.09928 17.19998)scale(0.144 -0.144)">
     <use transform="translate(0 -0.072667)scale(0.996264)" xlink:href="#CMR17-69"/>
     <use transform="translate(62.586301 -0.072667)scale(0.996264)" xlink:href="#CMR17-115"/>
     <use transform="translate(98.387638 -0.072667)scale(0.996264)" xlink:href="#CMR17-116"/>
     <use transform="translate(133.668406 -0.072667)scale(0.996264)" xlink:href="#CMR17-105"/>
     <use transform="translate(158.539464 -0.072667)scale(0.996264)" xlink:href="#CMR17-109"/>
     <use transform="translate(235.459054 -0.072667)scale(0.996264)" xlink:href="#CMR17-97"/>
     <use transform="translate(281.149531 -0.072667)scale(0.996264)" xlink:href="#CMR17-116"/>
     <use transform="translate(316.430299 -0.072667)scale(0.996264)" xlink:href="#CMR17-101"/>
     <use transform="translate(356.91596 -0.072667)scale(0.996264)" xlink:href="#CMR17-115"/>
     <use transform="translate(429.458059 -0.066206)scale(0.996264)" xlink:href="#CMR17-94"/>
     <use transform="translate(422.793264 -0.072667)scale(0.996264)" xlink:href="#CMMI12-27"/>
     <use transform="translate(478.238725 -15.016581)scale(0.697382)" xlink:href="#CMR17-48"/>
     <use transform="translate(510.720039 -0.072667)scale(0.996264)" xlink:href="#CMR17-44"/>
     <use transform="translate(572.331859 -0.066206)scale(0.996264)" xlink:href="#CMR17-94"/>
     <use transform="translate(565.667063 -0.072667)scale(0.996264)" xlink:href="#CMMI12-27"/>
     <use transform="translate(654.763083 -0.072667)scale(0.996264)" xlink:href="#CMR17-118"/>
     <use transform="translate(700.453545 -0.072667)scale(0.996264)" xlink:href="#CMR17-101"/>
     <use transform="translate(740.939206 -0.072667)scale(0.996264)" xlink:href="#CMR17-114"/>
     <use transform="translate(776.219973 -0.072667)scale(0.996264)" xlink:href="#CMR17-115"/>
     <use transform="translate(812.021311 -0.072667)scale(0.996264)" xlink:href="#CMR17-117"/>
     <use transform="translate(862.916681 -0.072667)scale(0.996264)" xlink:href="#CMR17-115"/>
     <use transform="translate(928.793985 -0.072667)scale(0.996264)" xlink:href="#CMR17-100"/>
     <use transform="translate(979.689355 -0.072667)scale(0.996264)" xlink:href="#CMR17-97"/>
     <use transform="translate(1025.379832 -0.072667)scale(0.996264)" xlink:href="#CMR17-116"/>
     <use transform="translate(1060.6606 -0.072667)scale(0.996264)" xlink:href="#CMR17-97"/>
     <use transform="translate(1136.427043 -0.072667)scale(0.996264)" xlink:href="#CMR17-110"/>
     <use transform="translate(1187.322413 -0.072667)scale(0.996264)" xlink:href="#CMR17-111"/>
     <use transform="translate(1233.01289 -0.072667)scale(0.996264)" xlink:href="#CMR17-105"/>
     <use transform="translate(1257.883948 -0.072667)scale(0.996264)" xlink:href="#CMR17-115"/>
     <use transform="translate(1293.685286 -0.072667)scale(0.996264)" xlink:href="#CMR17-101"/>
     <use transform="translate(1364.246913 -0.072667)scale(0.996264)" xlink:href="#CMR17-108"/>
     <use transform="translate(1389.117971 -0.072667)scale(0.996264)" xlink:href="#CMR17-101"/>
     <use transform="translate(1429.603632 -0.072667)scale(0.996264)" xlink:href="#CMR17-118"/>
     <use transform="translate(1475.294094 -0.072667)scale(0.996264)" xlink:href="#CMR17-101"/>
     <use transform="translate(1515.779754 -0.072667)scale(0.996264)" xlink:href="#CMR17-108"/>
    </g>
   </g>
   <g id="legend_1">
    <g id="patch_7">
     <path d="M 369.023932 31.11518 
L 389.011132 31.11518 
L 389.011132 24.11966 
L 369.023932 24.11966 
z
" style="fill:none;"/>
    </g>
    <g id="patch_8">
     <path d="M 369.023932 52.15533 
L 389.011132 52.15533 
L 389.011132 45.15981 
L 369.023932 45.15981 
z
" style="fill:none;"/>
    </g>
    <g id="text_11">
     <!-- Polynomial, $0^{\mathrm{th}}$ order: -->
     <defs>
      <path d="M 19.796875 32 
L 35.796875 32 
C 48.703125 32 58.09375 40.359375 58.09375 49.796875 
C 58.09375 59.234375 48.90625 68 35.796875 68 
L 5.203125 68 
L 5.203125 65.390625 
C 12.09375 65.390625 13.203125 65.390625 13.203125 60.921875 
L 13.203125 7.078125 
C 13.203125 2.59375 12.09375 2.59375 5.203125 2.59375 
L 5.203125 0 
C 8.09375 0.1875 13.40625 0.1875 16.5 0.1875 
C 19.59375 0.1875 24.90625 0.1875 27.796875 0 
L 27.796875 2.59375 
C 20.90625 2.59375 19.796875 2.59375 19.796875 7.078125 
z
M 19.59375 34.09375 
L 19.59375 61.515625 
C 19.59375 64.890625 19.796875 65.390625 23.796875 65.390625 
L 33.90625 65.390625 
C 46.796875 65.390625 50.5 58.046875 50.5 49.796875 
C 50.5 40.75 46.09375 34.09375 33.90625 34.09375 
z
" id="CMR17-80"/>
      <path d="M 39 34.109375 
C 41.5 40.296875 46 40.390625 47.40625 40.390625 
L 47.40625 43 
C 45.5 42.890625 43 42.796875 41.09375 42.796875 
C 39 42.796875 35.703125 42.796875 33.703125 43 
L 33.703125 40.390625 
C 37.5 40.09375 37.59375 37.25 37.59375 36.4375 
C 37.59375 35.4375 37.40625 34.921875 36.90625 33.71875 
L 26 6.390625 
L 14.09375 35.9375 
C 13.59375 37.15625 13.59375 37.859375 13.59375 37.96875 
C 13.59375 40.1875 15.90625 40.390625 18.296875 40.390625 
L 18.296875 43 
C 15.90625 42.796875 11.59375 42.796875 9.09375 42.796875 
C 6.40625 42.796875 3.203125 42.796875 1 43 
L 1 40.390625 
C 6.40625 40.390625 7 39.890625 8.296875 36.640625 
L 23.203125 -0.484375 
C 18.703125 -12.421875 16.09375 -19.40625 9.796875 -19.40625 
C 8.703125 -19.40625 6.203125 -19.109375 4.40625 -17.28125 
C 6.703125 -17.078125 7.703125 -15.65625 7.703125 -13.9375 
C 7.703125 -12.21875 6.5 -10.703125 4.5 -10.703125 
C 2.296875 -10.703125 1.203125 -12.21875 1.203125 -14.046875 
C 1.203125 -18.09375 5.296875 -21 9.796875 -21 
C 15.59375 -21 19.203125 -15.359375 21.203125 -10.296875 
z
" id="CMR17-121"/>
      <path d="M 41.5 30.53125 
C 41.5 35.65625 40.5 44 28.703125 44 
C 20.5 44 16.5 37.375 15.296875 34.046875 
L 15.203125 34.046875 
L 15.203125 69 
L 3.296875 67.890625 
L 3.296875 65.296875 
C 9.203125 65.296875 10.09375 64.703125 10.09375 60.046875 
L 10.09375 6.921875 
C 10.09375 3.09375 9.703125 2.59375 3.296875 2.59375 
L 3.296875 0 
C 5.703125 0.1875 10.09375 0.1875 12.703125 0.1875 
C 15.296875 0.1875 19.796875 0.1875 22.203125 0 
L 22.203125 2.59375 
C 15.796875 2.59375 15.40625 3 15.40625 6.921875 
L 15.40625 26.21875 
C 15.40625 35.453125 21 42.390625 28 42.390625 
C 35.40625 42.390625 36.203125 35.765625 36.203125 30.9375 
L 36.203125 6.921875 
C 36.203125 3.09375 35.796875 2.59375 29.40625 2.59375 
L 29.40625 0 
C 31.796875 0.1875 36.203125 0.1875 38.796875 0.1875 
C 41.40625 0.1875 45.90625 0.1875 48.296875 0 
L 48.296875 2.59375 
C 41.90625 2.59375 41.5 3 41.5 6.921875 
z
" id="CMR17-104"/>
      <path d="M 16.59375 38.890625 
C 16.59375 41.390625 14.59375 43 12.5 43 
C 10.5 43 8.40625 41.390625 8.40625 38.890625 
C 8.40625 36.390625 10.40625 34.796875 12.5 34.796875 
C 14.5 34.796875 16.59375 36.390625 16.59375 38.890625 
z
M 16.59375 4.09375 
C 16.59375 6.59375 14.59375 8.1875 12.5 8.1875 
C 10.5 8.1875 8.40625 6.59375 8.40625 4.09375 
C 8.40625 1.59375 10.40625 0 12.5 0 
C 14.5 0 16.59375 1.59375 16.59375 4.09375 
z
" id="CMR17-58"/>
     </defs>
     <g style="fill:#262626;" transform="translate(369.023932 50.15533)scale(0.099936 -0.099936)">
      <use transform="translate(0 -0.072667)scale(0.996264)" xlink:href="#CMR17-80"/>
      <use transform="translate(59.983847 -0.072667)scale(0.996264)" xlink:href="#CMR17-111"/>
      <use transform="translate(105.674324 -0.072667)scale(0.996264)" xlink:href="#CMR17-108"/>
      <use transform="translate(130.545382 -0.072667)scale(0.996264)" xlink:href="#CMR17-121"/>
      <use transform="translate(178.838298 -0.072667)scale(0.996264)" xlink:href="#CMR17-110"/>
      <use transform="translate(229.733668 -0.072667)scale(0.996264)" xlink:href="#CMR17-111"/>
      <use transform="translate(275.424145 -0.072667)scale(0.996264)" xlink:href="#CMR17-109"/>
      <use transform="translate(352.343735 -0.072667)scale(0.996264)" xlink:href="#CMR17-105"/>
      <use transform="translate(377.214793 -0.072667)scale(0.996264)" xlink:href="#CMR17-97"/>
      <use transform="translate(422.90527 -0.072667)scale(0.996264)" xlink:href="#CMR17-108"/>
      <use transform="translate(447.776329 -0.072667)scale(0.996264)" xlink:href="#CMR17-44"/>
      <use transform="translate(502.723354 -0.072667)scale(0.996264)" xlink:href="#CMR17-48"/>
      <use transform="translate(548.413831 36.080972)scale(0.697382)" xlink:href="#CMR17-116"/>
      <use transform="translate(573.110251 36.080972)scale(0.697382)" xlink:href="#CMR17-104"/>
      <use transform="translate(639.310958 -0.072667)scale(0.996264)" xlink:href="#CMR17-111"/>
      <use transform="translate(685.001435 -0.072667)scale(0.996264)" xlink:href="#CMR17-114"/>
      <use transform="translate(720.282203 -0.072667)scale(0.996264)" xlink:href="#CMR17-100"/>
      <use transform="translate(771.177573 -0.072667)scale(0.996264)" xlink:href="#CMR17-101"/>
      <use transform="translate(811.663233 -0.072667)scale(0.996264)" xlink:href="#CMR17-114"/>
      <use transform="translate(846.944001 -0.072667)scale(0.996264)" xlink:href="#CMR17-58"/>
     </g>
    </g>
    <g id="patch_9">
     <path d="M 369.023932 73.19548 
L 389.011132 73.19548 
L 389.011132 66.19996 
L 369.023932 66.19996 
z
" style="fill:none;"/>
    </g>
    <g id="text_12">
     <!-- Polynomial, $2^{\mathrm{nd}}$ order: -->
     <g style="fill:#262626;" transform="translate(369.023932 69.69548)scale(0.099936 -0.099936)">
      <use transform="translate(0 -0.072667)scale(0.996264)" xlink:href="#CMR17-80"/>
      <use transform="translate(59.983847 -0.072667)scale(0.996264)" xlink:href="#CMR17-111"/>
      <use transform="translate(105.674324 -0.072667)scale(0.996264)" xlink:href="#CMR17-108"/>
      <use transform="translate(130.545382 -0.072667)scale(0.996264)" xlink:href="#CMR17-121"/>
      <use transform="translate(178.838298 -0.072667)scale(0.996264)" xlink:href="#CMR17-110"/>
      <use transform="translate(229.733668 -0.072667)scale(0.996264)" xlink:href="#CMR17-111"/>
      <use transform="translate(275.424145 -0.072667)scale(0.996264)" xlink:href="#CMR17-109"/>
      <use transform="translate(352.343735 -0.072667)scale(0.996264)" xlink:href="#CMR17-105"/>
      <use transform="translate(377.214793 -0.072667)scale(0.996264)" xlink:href="#CMR17-97"/>
      <use transform="translate(422.90527 -0.072667)scale(0.996264)" xlink:href="#CMR17-108"/>
      <use transform="translate(447.776329 -0.072667)scale(0.996264)" xlink:href="#CMR17-44"/>
      <use transform="translate(502.723354 -0.072667)scale(0.996264)" xlink:href="#CMR17-50"/>
      <use transform="translate(548.413831 36.080972)scale(0.697382)" xlink:href="#CMR17-110"/>
      <use transform="translate(584.040439 36.080972)scale(0.697382)" xlink:href="#CMR17-100"/>
      <use transform="translate(650.241146 -0.072667)scale(0.996264)" xlink:href="#CMR17-111"/>
      <use transform="translate(695.931623 -0.072667)scale(0.996264)" xlink:href="#CMR17-114"/>
      <use transform="translate(731.212391 -0.072667)scale(0.996264)" xlink:href="#CMR17-100"/>
      <use transform="translate(782.107761 -0.072667)scale(0.996264)" xlink:href="#CMR17-101"/>
      <use transform="translate(822.593421 -0.072667)scale(0.996264)" xlink:href="#CMR17-114"/>
      <use transform="translate(857.874189 -0.072667)scale(0.996264)" xlink:href="#CMR17-58"/>
     </g>
    </g>
    <g id="patch_10">
     <path d="M 369.023932 94.23563 
L 389.011132 94.23563 
L 389.011132 87.24011 
L 369.023932 87.24011 
z
" style="fill:none;"/>
    </g>
    <g id="text_13">
     <!-- Polynomial, $4^{\mathrm{th}}$ order: -->
     <defs>
      <path d="M 33.59375 64.796875 
C 33.59375 66.890625 33.5 67 31.703125 67 
L 2 19.59375 
L 2 17 
L 27.796875 17 
L 27.796875 7.1875 
C 27.796875 3.59375 27.59375 2.59375 20.59375 2.59375 
L 18.703125 2.59375 
L 18.703125 0 
C 21.90625 0.1875 27.296875 0.1875 30.703125 0.1875 
C 34.09375 0.1875 39.5 0.1875 42.703125 0 
L 42.703125 2.59375 
L 40.796875 2.59375 
C 33.796875 2.59375 33.59375 3.59375 33.59375 7.1875 
L 33.59375 17 
L 43.796875 17 
L 43.796875 19.59375 
L 33.59375 19.59375 
z
M 28.09375 58.171875 
L 28.09375 19.59375 
L 4 19.59375 
z
" id="CMR17-52"/>
     </defs>
     <g style="fill:#262626;" transform="translate(369.023932 89.23563)scale(0.099936 -0.099936)">
      <use transform="translate(0 -0.072667)scale(0.996264)" xlink:href="#CMR17-80"/>
      <use transform="translate(59.983847 -0.072667)scale(0.996264)" xlink:href="#CMR17-111"/>
      <use transform="translate(105.674324 -0.072667)scale(0.996264)" xlink:href="#CMR17-108"/>
      <use transform="translate(130.545382 -0.072667)scale(0.996264)" xlink:href="#CMR17-121"/>
      <use transform="translate(178.838298 -0.072667)scale(0.996264)" xlink:href="#CMR17-110"/>
      <use transform="translate(229.733668 -0.072667)scale(0.996264)" xlink:href="#CMR17-111"/>
      <use transform="translate(275.424145 -0.072667)scale(0.996264)" xlink:href="#CMR17-109"/>
      <use transform="translate(352.343735 -0.072667)scale(0.996264)" xlink:href="#CMR17-105"/>
      <use transform="translate(377.214793 -0.072667)scale(0.996264)" xlink:href="#CMR17-97"/>
      <use transform="translate(422.90527 -0.072667)scale(0.996264)" xlink:href="#CMR17-108"/>
      <use transform="translate(447.776329 -0.072667)scale(0.996264)" xlink:href="#CMR17-44"/>
      <use transform="translate(502.723354 -0.072667)scale(0.996264)" xlink:href="#CMR17-52"/>
      <use transform="translate(548.413831 36.080972)scale(0.697382)" xlink:href="#CMR17-116"/>
      <use transform="translate(573.110251 36.080972)scale(0.697382)" xlink:href="#CMR17-104"/>
      <use transform="translate(639.310958 -0.072667)scale(0.996264)" xlink:href="#CMR17-111"/>
      <use transform="translate(685.001435 -0.072667)scale(0.996264)" xlink:href="#CMR17-114"/>
      <use transform="translate(720.282203 -0.072667)scale(0.996264)" xlink:href="#CMR17-100"/>
      <use transform="translate(771.177573 -0.072667)scale(0.996264)" xlink:href="#CMR17-101"/>
      <use transform="translate(811.663233 -0.072667)scale(0.996264)" xlink:href="#CMR17-114"/>
      <use transform="translate(846.944001 -0.072667)scale(0.996264)" xlink:href="#CMR17-58"/>
     </g>
    </g>
    <g id="patch_11">
     <path d="M 369.023932 113.16794 
L 389.011132 113.16794 
L 389.011132 106.17242 
L 369.023932 106.17242 
z
" style="fill:none;"/>
    </g>
    <g id="text_14">
     <!-- Trigonometric: -->
     <defs>
      <path d="M 62.203125 67.6875 
L 4.5 67.6875 
L 2.796875 45.6875 
L 4.59375 45.6875 
C 5.90625 62.203125 7.296875 65.09375 22.703125 65.09375 
C 24.5 65.09375 27.40625 65.09375 28.203125 64.984375 
C 30.09375 64.6875 30.09375 63.5 30.09375 61.203125 
L 30.09375 7.265625 
C 30.09375 3.6875 29.796875 2.59375 21.5 2.59375 
L 18.703125 2.59375 
L 18.703125 0 
C 23.5 0.09375 28.5 0.1875 33.40625 0.1875 
C 38.296875 0.1875 43.296875 0.09375 48.09375 0 
L 48.09375 2.59375 
L 45.296875 2.59375 
C 37 2.59375 36.703125 3.6875 36.703125 7.265625 
L 36.703125 61.203125 
C 36.703125 63.390625 36.703125 64.59375 38.5 64.984375 
C 39.296875 65.09375 42.203125 65.09375 44 65.09375 
C 59.296875 65.09375 60.796875 62.203125 62.09375 45.6875 
L 63.90625 45.6875 
z
" id="CMR17-84"/>
      <path d="M 11.09375 18.203125 
C 13 16.6875 16.296875 15 20.296875 15 
C 28.203125 15 35 21.234375 35 29.609375 
C 35 32.234375 34.203125 36.265625 31.203125 39.390625 
C 34 42.390625 38.09375 43.390625 40.40625 43.390625 
C 40.796875 43.390625 41.40625 43.390625 41.90625 43.09375 
C 41.5 42.984375 40.59375 42.59375 40.59375 40.984375 
C 40.59375 39.6875 41.5 38.796875 42.796875 38.796875 
C 44.296875 38.796875 45.09375 39.796875 45.09375 41.09375 
C 45.09375 42.984375 43.59375 45 40.40625 45 
C 36.40625 45 32.90625 43.09375 30.09375 40.484375 
C 27.09375 43.1875 23.5 44.1875 20.296875 44.1875 
C 12.40625 44.1875 5.59375 37.984375 5.59375 29.609375 
C 5.59375 23.859375 8.90625 20.21875 9.90625 19.21875 
C 6.90625 15.6875 6.90625 11.59375 6.90625 11.09375 
C 6.90625 8.5 7.90625 4.6875 11.296875 2.59375 
C 6.09375 1.28125 2 -2.875 2 -8.078125 
C 2 -15.5625 11.5 -21 22.90625 -21 
C 33.90625 -21 43.796875 -15.765625 43.796875 -7.96875 
C 43.796875 6 29 6 21.296875 6 
C 19 6 14.90625 6 14.40625 6.09375 
C 11.296875 6.59375 9.203125 9.390625 9.203125 12.890625 
C 9.203125 13.796875 9.203125 16 11.09375 18.203125 
z
M 20.296875 16.6875 
C 11.5 16.6875 11.5 27.59375 11.5 29.609375 
C 11.5 31.625 11.5 42.484375 20.296875 42.484375 
C 29.09375 42.484375 29.09375 31.625 29.09375 29.609375 
C 29.09375 27.59375 29.09375 16.6875 20.296875 16.6875 
z
M 22.90625 -19.3125 
C 12.90625 -19.3125 6 -13.796875 6 -8.078125 
C 6 -4.859375 7.703125 -1.84375 9.90625 -0.171875 
C 12.40625 1.59375 13.40625 1.59375 20.203125 1.59375 
C 28.40625 1.59375 39.796875 1.59375 39.796875 -8.078125 
C 39.796875 -13.796875 32.90625 -19.3125 22.90625 -19.3125 
z
" id="CMR17-103"/>
      <path d="M 34.90625 35 
C 33 35 30.203125 35 30.203125 31.484375 
C 30.203125 28.6875 32.5 27.890625 33.796875 27.890625 
C 34.5 27.890625 37.40625 28.1875 37.40625 31.6875 
C 37.40625 38.6875 30.59375 44 22.90625 44 
C 12.296875 44 3.296875 34.390625 3.296875 21.546875 
C 3.296875 8.140625 12.703125 -1 22.90625 -1 
C 35.296875 -1 38.40625 10.5625 38.40625 11.671875 
C 38.40625 12.078125 38.296875 12.375 37.59375 12.375 
C 36.90625 12.375 36.796875 12.28125 36.40625 10.96875 
C 33.796875 2.8125 28.09375 0.796875 23.796875 0.796875 
C 17.40625 0.796875 9.703125 6.734375 9.703125 21.640625 
C 9.703125 36.84375 17.09375 42.1875 23 42.1875 
C 26.90625 42.1875 32.703125 40.34375 34.90625 35 
z
" id="CMR17-99"/>
     </defs>
     <g style="fill:#262626;" transform="translate(369.023932 108.16794)scale(0.099936 -0.099936)">
      <use transform="translate(0 -0.072667)scale(0.996264)" xlink:href="#CMR17-84"/>
      <use transform="translate(58.702625 -0.072667)scale(0.996264)" xlink:href="#CMR17-114"/>
      <use transform="translate(93.983393 -0.072667)scale(0.996264)" xlink:href="#CMR17-105"/>
      <use transform="translate(118.854451 -0.072667)scale(0.996264)" xlink:href="#CMR17-103"/>
      <use transform="translate(164.544929 -0.072667)scale(0.996264)" xlink:href="#CMR17-111"/>
      <use transform="translate(210.235406 -0.072667)scale(0.996264)" xlink:href="#CMR17-110"/>
      <use transform="translate(261.130775 -0.072667)scale(0.996264)" xlink:href="#CMR17-111"/>
      <use transform="translate(306.821253 -0.072667)scale(0.996264)" xlink:href="#CMR17-109"/>
      <use transform="translate(383.740842 -0.072667)scale(0.996264)" xlink:href="#CMR17-101"/>
      <use transform="translate(424.226503 -0.072667)scale(0.996264)" xlink:href="#CMR17-116"/>
      <use transform="translate(459.507271 -0.072667)scale(0.996264)" xlink:href="#CMR17-114"/>
      <use transform="translate(494.788039 -0.072667)scale(0.996264)" xlink:href="#CMR17-105"/>
      <use transform="translate(519.659097 -0.072667)scale(0.996264)" xlink:href="#CMR17-99"/>
      <use transform="translate(560.144757 -0.072667)scale(0.996264)" xlink:href="#CMR17-58"/>
     </g>
    </g>
    <g id="patch_12">
     <path d="M 490.458732 31.11518 
L 510.445932 31.11518 
L 510.445932 24.11966 
L 490.458732 24.11966 
z
" style="fill:none;"/>
    </g>
    <g id="text_15">
     <!-- $\hat{\sigma}_0/\sigma_0$ -->
     <g style="fill:#262626;" transform="translate(490.458732 31.11518)scale(0.099936 -0.099936)">
      <use transform="translate(6.664796 -0.086939)scale(0.996264)" xlink:href="#CMR17-94"/>
      <use transform="translate(0 -0.0934)scale(0.996264)" xlink:href="#CMMI12-27"/>
      <use transform="translate(55.445461 -15.037314)scale(0.697382)" xlink:href="#CMR17-48"/>
      <use transform="translate(87.926775 -0.0934)scale(0.996264)" xlink:href="#CMMI12-61"/>
      <use transform="translate(136.701694 -0.0934)scale(0.996264)" xlink:href="#CMMI12-27"/>
      <use transform="translate(192.147154 -15.037314)scale(0.697382)" xlink:href="#CMR17-48"/>
     </g>
    </g>
    <g id="line2d_43">
     <path d="M 490.458732 47.10494 
L 510.445932 47.10494 
" style="fill:none;stroke:#f4976c;stroke-linecap:round;stroke-width:1.5;"/>
    </g>
    <g id="line2d_44"/>
    <g id="line2d_45">
     <path d="M 490.458732 66.03725 
L 510.445932 66.03725 
" style="fill:none;stroke:#eb6a4b;stroke-linecap:round;stroke-width:1.5;"/>
    </g>
    <g id="line2d_46"/>
    <g id="line2d_47">
     <path d="M 490.458732 84.96956 
L 510.445932 84.96956 
" style="fill:none;stroke:#c34d39;stroke-linecap:round;stroke-width:1.5;"/>
    </g>
    <g id="line2d_48"/>
    <g id="line2d_49">
     <path d="M 490.458732 103.90187 
L 510.445932 103.90187 
" style="fill:none;stroke:#7b4036;stroke-linecap:round;stroke-width:1.5;"/>
    </g>
    <g id="line2d_50"/>
    <g id="patch_13">
     <path d="M 536.877662 31.11518 
L 556.864862 31.11518 
L 556.864862 24.11966 
L 536.877662 24.11966 
z
" style="fill:none;"/>
    </g>
    <g id="text_16">
     <!-- $\hat{\sigma}/\sigma_0$ -->
     <g style="fill:#262626;" transform="translate(536.877662 31.11518)scale(0.099936 -0.099936)">
      <use transform="translate(6.664796 -0.086939)scale(0.996264)" xlink:href="#CMR17-94"/>
      <use transform="translate(0 -0.0934)scale(0.996264)" xlink:href="#CMMI12-27"/>
      <use transform="translate(59.020054 -0.0934)scale(0.996264)" xlink:href="#CMMI12-61"/>
      <use transform="translate(107.794972 -0.0934)scale(0.996264)" xlink:href="#CMMI12-27"/>
      <use transform="translate(163.240433 -15.037314)scale(0.697382)" xlink:href="#CMR17-48"/>
     </g>
    </g>
    <g id="line2d_51">
     <path d="M 536.877662 47.10494 
L 556.864862 47.10494 
" style="fill:none;stroke:#7badcb;stroke-linecap:round;stroke-width:1.5;"/>
    </g>
    <g id="line2d_52"/>
    <g id="line2d_53">
     <path d="M 536.877662 66.03725 
L 556.864862 66.03725 
" style="fill:none;stroke:#4196b8;stroke-linecap:round;stroke-width:1.5;"/>
    </g>
    <g id="line2d_54"/>
    <g id="line2d_55">
     <path d="M 536.877662 84.96956 
L 556.864862 84.96956 
" style="fill:none;stroke:#287995;stroke-linecap:round;stroke-width:1.5;"/>
    </g>
    <g id="line2d_56"/>
    <g id="line2d_57">
     <path d="M 536.877662 103.90187 
L 556.864862 103.90187 
" style="fill:none;stroke:#2d5664;stroke-linecap:round;stroke-width:1.5;"/>
    </g>
    <g id="line2d_58"/>
   </g>
  </g>
  <g id="axes_2">
   <g id="matplotlib.axis_3">
    <g id="ytick_4">
     <g id="line2d_59">
      <defs>
       <path d="M 0 0 
L 6 0 
" id="m9937d11dc1" style="stroke:#262626;stroke-width:1.25;"/>
      </defs>
      <g>
       <use style="fill:#262626;stroke:#262626;stroke-width:1.25;" x="308.62725" xlink:href="#m9937d11dc1" y="237.55598"/>
      </g>
     </g>
     <g id="text_17">
      <!-- $0$ -->
      <g style="fill:#20647b;" transform="translate(318.12725 242.1393)scale(0.132 -0.132)">
       <use transform="scale(0.996264)" xlink:href="#CMR17-48"/>
      </g>
     </g>
    </g>
    <g id="ytick_5">
     <g id="line2d_60">
      <g>
       <use style="fill:#262626;stroke:#262626;stroke-width:1.25;" x="308.62725" xlink:href="#m9937d11dc1" y="166.10398"/>
      </g>
     </g>
     <g id="text_18">
      <!-- $5$ -->
      <defs>
       <path d="M 11.40625 58.59375 
C 12.40625 58.1875 16.5 56.890625 20.703125 56.890625 
C 30 56.890625 35.09375 61.890625 38 64.6875 
C 38 65.484375 38 66 37.40625 66 
C 37.296875 66 37.09375 66 36.296875 65.59375 
C 32.796875 64.09375 28.703125 63 23.703125 63 
C 20.703125 63 16.203125 63.359375 11.296875 65.484375 
C 10.203125 66 10 66 9.90625 66 
C 9.40625 66 9.296875 65.890625 9.296875 63.90625 
L 9.296875 34.859375 
C 9.296875 33.015625 9.296875 32.5 10.296875 32.5 
C 10.796875 32.5 11 32.703125 11.5 33.421875 
C 14.703125 38.046875 19.09375 40 24.09375 40 
C 27.59375 40 35.09375 37.734375 35.09375 20.203125 
C 35.09375 16.984375 35.09375 11.1875 32.09375 6.59375 
C 29.59375 2.484375 25.703125 0.390625 21.40625 0.390625 
C 14.796875 0.390625 8.09375 4.984375 6.296875 12.6875 
C 6.703125 12.59375 7.5 12.390625 7.90625 12.390625 
C 9.203125 12.390625 11.703125 13.09375 11.703125 16.1875 
C 11.703125 18.890625 9.796875 20 7.90625 20 
C 5.59375 20 4.09375 18.59375 4.09375 15.796875 
C 4.09375 7.09375 11 -2 21.59375 -2 
C 31.90625 -2 41.703125 6.890625 41.703125 19.796875 
C 41.703125 32.09375 33.90625 41.59375 24.203125 41.59375 
C 19.09375 41.59375 14.796875 39.6875 11.40625 36 
z
" id="CMR17-53"/>
      </defs>
      <g style="fill:#20647b;" transform="translate(318.12725 170.6873)scale(0.132 -0.132)">
       <use transform="scale(0.996264)" xlink:href="#CMR17-53"/>
      </g>
     </g>
    </g>
    <g id="ytick_6">
     <g id="line2d_61">
      <g>
       <use style="fill:#262626;stroke:#262626;stroke-width:1.25;" x="308.62725" xlink:href="#m9937d11dc1" y="94.65198"/>
      </g>
     </g>
     <g id="text_19">
      <!-- $10$ -->
      <g style="fill:#20647b;" transform="translate(318.12725 99.2353)scale(0.132 -0.132)">
       <use transform="scale(0.996264)" xlink:href="#CMR17-49"/>
       <use transform="translate(45.690477 0)scale(0.996264)" xlink:href="#CMR17-48"/>
      </g>
     </g>
    </g>
    <g id="ytick_7">
     <g id="line2d_62">
      <g>
       <use style="fill:#262626;stroke:#262626;stroke-width:1.25;" x="308.62725" xlink:href="#m9937d11dc1" y="23.19998"/>
      </g>
     </g>
     <g id="text_20">
      <!-- $15$ -->
      <g style="fill:#20647b;" transform="translate(318.12725 27.7833)scale(0.132 -0.132)">
       <use transform="scale(0.996264)" xlink:href="#CMR17-49"/>
       <use transform="translate(45.690477 0)scale(0.996264)" xlink:href="#CMR17-53"/>
      </g>
     </g>
    </g>
    <g id="text_21">
     <!-- $\hat{\sigma}/\sigma_0$ -->
     <g style="fill:#20647b;" transform="translate(345.85208 144.925345)rotate(-90)scale(0.144 -0.144)">
      <use transform="translate(6.664796 -0.086939)scale(0.996264)" xlink:href="#CMR17-94"/>
      <use transform="translate(0 -0.0934)scale(0.996264)" xlink:href="#CMMI12-27"/>
      <use transform="translate(59.020054 -0.0934)scale(0.996264)" xlink:href="#CMMI12-61"/>
      <use transform="translate(107.794972 -0.0934)scale(0.996264)" xlink:href="#CMMI12-27"/>
      <use transform="translate(163.240433 -15.037314)scale(0.697382)" xlink:href="#CMR17-48"/>
     </g>
    </g>
   </g>
   <g id="line2d_63">
    <path clip-path="url(#p75c36063b3)" d="M 51.61504 136.367054 
L 54.198077 142.305428 
L 56.781115 147.792916 
L 59.364152 152.85766 
L 61.947189 157.52605 
L 64.530226 161.822873 
L 67.113264 165.771475 
L 69.696301 169.393892 
L 72.279338 172.710987 
L 74.862376 175.742563 
L 77.445413 178.507471 
L 80.02845 181.0237 
L 82.611487 183.308449 
L 85.194525 185.378185 
L 87.777562 187.248682 
L 91.652118 189.713731 
L 95.526674 191.812574 
L 99.40123 193.590114 
L 103.275786 195.087834 
L 107.150342 196.343692 
L 111.024898 197.499389 
L 116.190972 201.012611 
L 121.357047 204.20412 
L 126.523121 207.103753 
L 131.689196 209.738673 
L 136.85527 212.133714 
L 142.021345 214.311618 
L 148.478938 216.760201 
L 154.936531 218.938676 
L 161.394125 220.879674 
L 167.851718 222.611888 
L 175.60083 224.449855 
L 183.349942 226.059597 
L 192.390572 227.689503 
L 201.431203 229.089675 
L 211.763352 230.449951 
L 222.095501 231.592533 
L 233.719169 232.659316 
L 246.634355 233.619267 
L 260.84106 234.450516 
L 276.339284 235.13757 
L 294.420545 235.705783 
L 308.62725 236.013978 
L 308.62725 236.013978 
" style="fill:none;stroke:#7badcb;stroke-linecap:round;stroke-width:1.5;"/>
   </g>
   <g id="line2d_64">
    <path clip-path="url(#p75c36063b3)" d="M 51.61504 213.856231 
L 58.072633 216.41738 
L 64.530226 218.699778 
L 70.98782 220.734227 
L 77.445413 222.54819 
L 85.194525 224.468291 
L 92.943637 226.14373 
L 100.692748 227.607454 
L 109.733379 229.085629 
L 120.065528 230.519252 
L 130.397677 231.725136 
L 142.021345 232.856356 
L 154.936531 233.883284 
L 169.143237 234.785906 
L 184.64146 235.548474 
L 201.431203 236.156124 
L 222.095501 236.662911 
L 250.508911 237.10312 
L 294.420545 237.55598 
L 308.62725 237.55598 
L 308.62725 237.55598 
" style="fill:none;stroke:#4196b8;stroke-linecap:round;stroke-width:1.5;"/>
   </g>
   <g id="line2d_65">
    <path clip-path="url(#p75c36063b3)" d="M 51.61504 235.85944 
L 67.113264 236.253942 
L 87.777562 236.529732 
L 118.774009 236.685616 
L 188.516016 236.749139 
L 308.62725 236.756439 
L 308.62725 236.756439 
" style="fill:none;stroke:#287995;stroke-linecap:round;stroke-width:1.5;"/>
   </g>
   <g id="line2d_66">
    <path clip-path="url(#p75c36063b3)" d="M 51.61504 237.55598 
L 308.62725 237.55598 
L 308.62725 237.55598 
" style="fill:none;stroke:#2d5664;stroke-linecap:round;stroke-width:1.5;"/>
   </g>
   <g id="patch_14">
    <path d="M 51.61504 237.55598 
L 51.61504 23.19998 
" style="fill:none;stroke:#262626;stroke-linecap:square;stroke-linejoin:miter;stroke-width:1.25;"/>
   </g>
   <g id="patch_15">
    <path d="M 308.62725 237.55598 
L 308.62725 23.19998 
" style="fill:none;stroke:#262626;stroke-linecap:square;stroke-linejoin:miter;stroke-width:1.25;"/>
   </g>
   <g id="patch_16">
    <path d="M 51.61504 237.55598 
L 308.62725 237.55598 
" style="fill:none;stroke:#262626;stroke-linecap:square;stroke-linejoin:miter;stroke-width:1.25;"/>
   </g>
   <g id="patch_17">
    <path d="M 51.61504 23.19998 
L 308.62725 23.19998 
" style="fill:none;stroke:#262626;stroke-linecap:square;stroke-linejoin:miter;stroke-width:1.25;"/>
   </g>
  </g>
 </g>
 <defs>
  <clipPath id="p75c36063b3">
   <rect height="214.356" width="257.01221" x="51.61504" y="23.19998"/>
  </clipPath>
 </defs>
</svg>
