<?xml version="1.0" encoding="utf-8" standalone="no"?>
<!DOCTYPE svg PUBLIC "-//W3C//DTD SVG 1.1//EN"
  "http://www.w3.org/Graphics/SVG/1.1/DTD/svg11.dtd">
<svg height="398.49418pt" version="1.1" viewBox="0 0 599.053564 398.49418" width="599.053564pt" xmlns="http://www.w3.org/2000/svg" xmlns:xlink="http://www.w3.org/1999/xlink">
 <metadata>
  <rdf:RDF xmlns:cc="http://creativecommons.org/ns#" xmlns:dc="http://purl.org/dc/elements/1.1/" xmlns:rdf="http://www.w3.org/1999/02/22-rdf-syntax-ns#">
   <cc:Work>
    <dc:type rdf:resource="http://purl.org/dc/dcmitype/StillImage"/>
    <dc:date>2021-09-27T18:58:23.196398</dc:date>
    <dc:format>image/svg+xml</dc:format>
    <dc:creator>
     <cc:Agent>
      <dc:title>Matplotlib v3.4.2, https://matplotlib.org/</dc:title>
     </cc:Agent>
    </dc:creator>
   </cc:Work>
  </rdf:RDF>
 </metadata>
 <defs>
  <style type="text/css">*{stroke-linecap:butt;stroke-linejoin:round;}</style>
 </defs>
 <g id="figure_1">
  <g id="patch_1">
   <path d="M 0 398.49418 
L 599.053564 398.49418 
L 599.053564 0 
L 0 0 
z
" style="fill:#ffffff;"/>
  </g>
  <g id="axes_1">
   <g id="patch_2">
    <path d="M 51.907018 287.61418 
L 409.027018 287.61418 
L 409.027018 21.50218 
L 51.907018 21.50218 
z
" style="fill:none;"/>
   </g>
   <g id="matplotlib.axis_1">
    <g id="xtick_1">
     <g id="line2d_1">
      <path clip-path="url(#p493deb6819)" d="M 51.907018 287.61418 
L 51.907018 21.50218 
" style="fill:none;stroke:#cccccc;stroke-linecap:round;stroke-width:0.8;"/>
     </g>
     <g id="line2d_2">
      <defs>
       <path d="M 0 0 
L 0 3.5 
" id="m04f5f27699" style="stroke:#262626;stroke-width:0.8;"/>
      </defs>
      <g>
       <use style="fill:#262626;stroke:#262626;stroke-width:0.8;" x="51.907018" xlink:href="#m04f5f27699" y="287.61418"/>
      </g>
     </g>
     <g id="text_1">
      <!-- $\mathdefault{10^{-3}}$ -->
      <g style="fill:#262626;" transform="translate(41.826732 301.532678)scale(0.1 -0.1)">
       <defs>
        <path d="M 1702 4058 
C 1702 4192 1696 4192 1606 4192 
C 1357 3916 979 3827 621 3827 
C 602 3827 570 3827 563 3808 
C 557 3795 557 3782 557 3648 
C 755 3648 1088 3686 1344 3839 
L 1344 461 
C 1344 236 1331 160 781 160 
L 589 160 
L 589 0 
C 896 0 1216 0 1523 0 
C 1830 0 2150 0 2458 0 
L 2458 160 
L 2266 160 
C 1715 160 1702 230 1702 458 
L 1702 4058 
z
" id="CMR17-31" transform="scale(0.015625)"/>
        <path d="M 2688 2025 
C 2688 2416 2682 3080 2413 3591 
C 2176 4039 1798 4198 1466 4198 
C 1158 4198 768 4058 525 3597 
C 269 3118 243 2524 243 2025 
C 243 1661 250 1106 448 619 
C 723 -39 1216 -128 1466 -128 
C 1760 -128 2208 -7 2470 600 
C 2662 1042 2688 1559 2688 2025 
z
M 1466 -26 
C 1056 -26 813 325 723 812 
C 653 1188 653 1738 653 2096 
C 653 2588 653 2997 736 3387 
C 858 3929 1216 4096 1466 4096 
C 1728 4096 2067 3923 2189 3400 
C 2272 3036 2278 2607 2278 2096 
C 2278 1680 2278 1169 2202 792 
C 2067 95 1690 -26 1466 -26 
z
" id="CMR17-30" transform="scale(0.015625)"/>
        <path d="M 4218 1472 
C 4326 1472 4442 1472 4442 1600 
C 4442 1728 4326 1728 4218 1728 
L 755 1728 
C 646 1728 531 1728 531 1600 
C 531 1472 646 1472 755 1472 
L 4218 1472 
z
" id="CMSY10-0" transform="scale(0.015625)"/>
        <path d="M 1414 2157 
C 1984 2157 2234 1662 2234 1090 
C 2234 320 1824 25 1453 25 
C 1114 25 563 194 390 693 
C 422 680 454 680 486 680 
C 640 680 755 782 755 948 
C 755 1133 614 1216 486 1216 
C 378 1216 211 1165 211 926 
C 211 335 787 -128 1466 -128 
C 2176 -128 2720 430 2720 1085 
C 2720 1707 2208 2157 1600 2227 
C 2086 2328 2554 2756 2554 3329 
C 2554 3820 2048 4179 1472 4179 
C 890 4179 378 3829 378 3329 
C 378 3110 544 3072 627 3072 
C 762 3072 877 3155 877 3321 
C 877 3486 762 3569 627 3569 
C 602 3569 570 3569 544 3557 
C 730 3959 1235 4032 1459 4032 
C 1683 4032 2106 3925 2106 3320 
C 2106 3143 2080 2828 1862 2550 
C 1670 2304 1453 2304 1242 2284 
C 1210 2284 1062 2269 1037 2269 
C 992 2263 966 2257 966 2208 
C 966 2163 973 2157 1101 2157 
L 1414 2157 
z
" id="CMR17-33" transform="scale(0.015625)"/>
       </defs>
       <use transform="scale(0.996264)" xlink:href="#CMR17-31"/>
       <use transform="translate(45.690477 0)scale(0.996264)" xlink:href="#CMR17-30"/>
       <use transform="translate(91.380954 36.153639)scale(0.697382)" xlink:href="#CMSY10-0"/>
       <use transform="translate(145.621947 36.153639)scale(0.697382)" xlink:href="#CMR17-33"/>
      </g>
     </g>
    </g>
    <g id="xtick_2">
     <g id="line2d_3">
      <path clip-path="url(#p493deb6819)" d="M 111.427018 287.61418 
L 111.427018 21.50218 
" style="fill:none;stroke:#cccccc;stroke-linecap:round;stroke-width:0.8;"/>
     </g>
     <g id="line2d_4">
      <g>
       <use style="fill:#262626;stroke:#262626;stroke-width:0.8;" x="111.427018" xlink:href="#m04f5f27699" y="287.61418"/>
      </g>
     </g>
     <g id="text_2">
      <!-- $\mathdefault{10^{-2}}$ -->
      <g style="fill:#262626;" transform="translate(101.346732 301.532678)scale(0.1 -0.1)">
       <defs>
        <path d="M 2669 989 
L 2554 989 
C 2490 536 2438 459 2413 420 
C 2381 369 1920 369 1830 369 
L 602 369 
C 832 619 1280 1072 1824 1597 
C 2214 1967 2669 2402 2669 3035 
C 2669 3790 2067 4224 1395 4224 
C 691 4224 262 3604 262 3030 
C 262 2780 448 2748 525 2748 
C 589 2748 781 2787 781 3010 
C 781 3207 614 3264 525 3264 
C 486 3264 448 3258 422 3245 
C 544 3790 915 4058 1306 4058 
C 1862 4058 2227 3617 2227 3035 
C 2227 2479 1901 2000 1536 1584 
L 262 146 
L 262 0 
L 2515 0 
L 2669 989 
z
" id="CMR17-32" transform="scale(0.015625)"/>
       </defs>
       <use transform="scale(0.996264)" xlink:href="#CMR17-31"/>
       <use transform="translate(45.690477 0)scale(0.996264)" xlink:href="#CMR17-30"/>
       <use transform="translate(91.380954 36.153639)scale(0.697382)" xlink:href="#CMSY10-0"/>
       <use transform="translate(145.621947 36.153639)scale(0.697382)" xlink:href="#CMR17-32"/>
      </g>
     </g>
    </g>
    <g id="xtick_3">
     <g id="line2d_5">
      <path clip-path="url(#p493deb6819)" d="M 170.947018 287.61418 
L 170.947018 21.50218 
" style="fill:none;stroke:#cccccc;stroke-linecap:round;stroke-width:0.8;"/>
     </g>
     <g id="line2d_6">
      <g>
       <use style="fill:#262626;stroke:#262626;stroke-width:0.8;" x="170.947018" xlink:href="#m04f5f27699" y="287.61418"/>
      </g>
     </g>
     <g id="text_3">
      <!-- $\mathdefault{10^{-1}}$ -->
      <g style="fill:#262626;" transform="translate(160.866732 301.532678)scale(0.1 -0.1)">
       <use transform="scale(0.996264)" xlink:href="#CMR17-31"/>
       <use transform="translate(45.690477 0)scale(0.996264)" xlink:href="#CMR17-30"/>
       <use transform="translate(91.380954 36.153639)scale(0.697382)" xlink:href="#CMSY10-0"/>
       <use transform="translate(145.621947 36.153639)scale(0.697382)" xlink:href="#CMR17-31"/>
      </g>
     </g>
    </g>
    <g id="xtick_4">
     <g id="line2d_7">
      <path clip-path="url(#p493deb6819)" d="M 230.467018 287.61418 
L 230.467018 21.50218 
" style="fill:none;stroke:#cccccc;stroke-linecap:round;stroke-width:0.8;"/>
     </g>
     <g id="line2d_8">
      <g>
       <use style="fill:#262626;stroke:#262626;stroke-width:0.8;" x="230.467018" xlink:href="#m04f5f27699" y="287.61418"/>
      </g>
     </g>
     <g id="text_4">
      <!-- $\mathdefault{10^{0}}$ -->
      <g style="fill:#262626;" transform="translate(223.500064 301.532678)scale(0.1 -0.1)">
       <use transform="scale(0.996264)" xlink:href="#CMR17-31"/>
       <use transform="translate(45.690477 0)scale(0.996264)" xlink:href="#CMR17-30"/>
       <use transform="translate(91.380954 36.153639)scale(0.697382)" xlink:href="#CMR17-30"/>
      </g>
     </g>
    </g>
    <g id="xtick_5">
     <g id="line2d_9">
      <path clip-path="url(#p493deb6819)" d="M 289.987018 287.61418 
L 289.987018 21.50218 
" style="fill:none;stroke:#cccccc;stroke-linecap:round;stroke-width:0.8;"/>
     </g>
     <g id="line2d_10">
      <g>
       <use style="fill:#262626;stroke:#262626;stroke-width:0.8;" x="289.987018" xlink:href="#m04f5f27699" y="287.61418"/>
      </g>
     </g>
     <g id="text_5">
      <!-- $\mathdefault{10^{1}}$ -->
      <g style="fill:#262626;" transform="translate(283.020064 301.532678)scale(0.1 -0.1)">
       <use transform="scale(0.996264)" xlink:href="#CMR17-31"/>
       <use transform="translate(45.690477 0)scale(0.996264)" xlink:href="#CMR17-30"/>
       <use transform="translate(91.380954 36.153639)scale(0.697382)" xlink:href="#CMR17-31"/>
      </g>
     </g>
    </g>
    <g id="xtick_6">
     <g id="line2d_11">
      <path clip-path="url(#p493deb6819)" d="M 349.507018 287.61418 
L 349.507018 21.50218 
" style="fill:none;stroke:#cccccc;stroke-linecap:round;stroke-width:0.8;"/>
     </g>
     <g id="line2d_12">
      <g>
       <use style="fill:#262626;stroke:#262626;stroke-width:0.8;" x="349.507018" xlink:href="#m04f5f27699" y="287.61418"/>
      </g>
     </g>
     <g id="text_6">
      <!-- $\mathdefault{10^{2}}$ -->
      <g style="fill:#262626;" transform="translate(342.540064 301.532678)scale(0.1 -0.1)">
       <use transform="scale(0.996264)" xlink:href="#CMR17-31"/>
       <use transform="translate(45.690477 0)scale(0.996264)" xlink:href="#CMR17-30"/>
       <use transform="translate(91.380954 36.153639)scale(0.697382)" xlink:href="#CMR17-32"/>
      </g>
     </g>
    </g>
    <g id="xtick_7">
     <g id="line2d_13">
      <path clip-path="url(#p493deb6819)" d="M 409.027018 287.61418 
L 409.027018 21.50218 
" style="fill:none;stroke:#cccccc;stroke-linecap:round;stroke-width:0.8;"/>
     </g>
     <g id="line2d_14">
      <g>
       <use style="fill:#262626;stroke:#262626;stroke-width:0.8;" x="409.027018" xlink:href="#m04f5f27699" y="287.61418"/>
      </g>
     </g>
     <g id="text_7">
      <!-- $\mathdefault{10^{3}}$ -->
      <g style="fill:#262626;" transform="translate(402.060064 301.532678)scale(0.1 -0.1)">
       <use transform="scale(0.996264)" xlink:href="#CMR17-31"/>
       <use transform="translate(45.690477 0)scale(0.996264)" xlink:href="#CMR17-30"/>
       <use transform="translate(91.380954 36.153639)scale(0.697382)" xlink:href="#CMR17-33"/>
      </g>
     </g>
    </g>
    <g id="xtick_8">
     <g id="line2d_15">
      <defs>
       <path d="M 0 0 
L 0 2 
" id="m9a9250c2cf" style="stroke:#262626;stroke-width:0.6;"/>
      </defs>
      <g>
       <use style="fill:#262626;stroke:#262626;stroke-width:0.6;" x="69.824324" xlink:href="#m9a9250c2cf" y="287.61418"/>
      </g>
     </g>
    </g>
    <g id="xtick_9">
     <g id="line2d_16">
      <g>
       <use style="fill:#262626;stroke:#262626;stroke-width:0.6;" x="80.305276" xlink:href="#m9a9250c2cf" y="287.61418"/>
      </g>
     </g>
    </g>
    <g id="xtick_10">
     <g id="line2d_17">
      <g>
       <use style="fill:#262626;stroke:#262626;stroke-width:0.6;" x="87.741629" xlink:href="#m9a9250c2cf" y="287.61418"/>
      </g>
     </g>
    </g>
    <g id="xtick_11">
     <g id="line2d_18">
      <g>
       <use style="fill:#262626;stroke:#262626;stroke-width:0.6;" x="93.509713" xlink:href="#m9a9250c2cf" y="287.61418"/>
      </g>
     </g>
    </g>
    <g id="xtick_12">
     <g id="line2d_19">
      <g>
       <use style="fill:#262626;stroke:#262626;stroke-width:0.6;" x="98.222581" xlink:href="#m9a9250c2cf" y="287.61418"/>
      </g>
     </g>
    </g>
    <g id="xtick_13">
     <g id="line2d_20">
      <g>
       <use style="fill:#262626;stroke:#262626;stroke-width:0.6;" x="102.207254" xlink:href="#m9a9250c2cf" y="287.61418"/>
      </g>
     </g>
    </g>
    <g id="xtick_14">
     <g id="line2d_21">
      <g>
       <use style="fill:#262626;stroke:#262626;stroke-width:0.6;" x="105.658935" xlink:href="#m9a9250c2cf" y="287.61418"/>
      </g>
     </g>
    </g>
    <g id="xtick_15">
     <g id="line2d_22">
      <g>
       <use style="fill:#262626;stroke:#262626;stroke-width:0.6;" x="108.703533" xlink:href="#m9a9250c2cf" y="287.61418"/>
      </g>
     </g>
    </g>
    <g id="xtick_16">
     <g id="line2d_23">
      <g>
       <use style="fill:#262626;stroke:#262626;stroke-width:0.6;" x="129.344324" xlink:href="#m9a9250c2cf" y="287.61418"/>
      </g>
     </g>
    </g>
    <g id="xtick_17">
     <g id="line2d_24">
      <g>
       <use style="fill:#262626;stroke:#262626;stroke-width:0.6;" x="139.825276" xlink:href="#m9a9250c2cf" y="287.61418"/>
      </g>
     </g>
    </g>
    <g id="xtick_18">
     <g id="line2d_25">
      <g>
       <use style="fill:#262626;stroke:#262626;stroke-width:0.6;" x="147.261629" xlink:href="#m9a9250c2cf" y="287.61418"/>
      </g>
     </g>
    </g>
    <g id="xtick_19">
     <g id="line2d_26">
      <g>
       <use style="fill:#262626;stroke:#262626;stroke-width:0.6;" x="153.029713" xlink:href="#m9a9250c2cf" y="287.61418"/>
      </g>
     </g>
    </g>
    <g id="xtick_20">
     <g id="line2d_27">
      <g>
       <use style="fill:#262626;stroke:#262626;stroke-width:0.6;" x="157.742581" xlink:href="#m9a9250c2cf" y="287.61418"/>
      </g>
     </g>
    </g>
    <g id="xtick_21">
     <g id="line2d_28">
      <g>
       <use style="fill:#262626;stroke:#262626;stroke-width:0.6;" x="161.727254" xlink:href="#m9a9250c2cf" y="287.61418"/>
      </g>
     </g>
    </g>
    <g id="xtick_22">
     <g id="line2d_29">
      <g>
       <use style="fill:#262626;stroke:#262626;stroke-width:0.6;" x="165.178935" xlink:href="#m9a9250c2cf" y="287.61418"/>
      </g>
     </g>
    </g>
    <g id="xtick_23">
     <g id="line2d_30">
      <g>
       <use style="fill:#262626;stroke:#262626;stroke-width:0.6;" x="168.223533" xlink:href="#m9a9250c2cf" y="287.61418"/>
      </g>
     </g>
    </g>
    <g id="xtick_24">
     <g id="line2d_31">
      <g>
       <use style="fill:#262626;stroke:#262626;stroke-width:0.6;" x="188.864324" xlink:href="#m9a9250c2cf" y="287.61418"/>
      </g>
     </g>
    </g>
    <g id="xtick_25">
     <g id="line2d_32">
      <g>
       <use style="fill:#262626;stroke:#262626;stroke-width:0.6;" x="199.345276" xlink:href="#m9a9250c2cf" y="287.61418"/>
      </g>
     </g>
    </g>
    <g id="xtick_26">
     <g id="line2d_33">
      <g>
       <use style="fill:#262626;stroke:#262626;stroke-width:0.6;" x="206.781629" xlink:href="#m9a9250c2cf" y="287.61418"/>
      </g>
     </g>
    </g>
    <g id="xtick_27">
     <g id="line2d_34">
      <g>
       <use style="fill:#262626;stroke:#262626;stroke-width:0.6;" x="212.549713" xlink:href="#m9a9250c2cf" y="287.61418"/>
      </g>
     </g>
    </g>
    <g id="xtick_28">
     <g id="line2d_35">
      <g>
       <use style="fill:#262626;stroke:#262626;stroke-width:0.6;" x="217.262581" xlink:href="#m9a9250c2cf" y="287.61418"/>
      </g>
     </g>
    </g>
    <g id="xtick_29">
     <g id="line2d_36">
      <g>
       <use style="fill:#262626;stroke:#262626;stroke-width:0.6;" x="221.247254" xlink:href="#m9a9250c2cf" y="287.61418"/>
      </g>
     </g>
    </g>
    <g id="xtick_30">
     <g id="line2d_37">
      <g>
       <use style="fill:#262626;stroke:#262626;stroke-width:0.6;" x="224.698935" xlink:href="#m9a9250c2cf" y="287.61418"/>
      </g>
     </g>
    </g>
    <g id="xtick_31">
     <g id="line2d_38">
      <g>
       <use style="fill:#262626;stroke:#262626;stroke-width:0.6;" x="227.743533" xlink:href="#m9a9250c2cf" y="287.61418"/>
      </g>
     </g>
    </g>
    <g id="xtick_32">
     <g id="line2d_39">
      <g>
       <use style="fill:#262626;stroke:#262626;stroke-width:0.6;" x="248.384324" xlink:href="#m9a9250c2cf" y="287.61418"/>
      </g>
     </g>
    </g>
    <g id="xtick_33">
     <g id="line2d_40">
      <g>
       <use style="fill:#262626;stroke:#262626;stroke-width:0.6;" x="258.865276" xlink:href="#m9a9250c2cf" y="287.61418"/>
      </g>
     </g>
    </g>
    <g id="xtick_34">
     <g id="line2d_41">
      <g>
       <use style="fill:#262626;stroke:#262626;stroke-width:0.6;" x="266.301629" xlink:href="#m9a9250c2cf" y="287.61418"/>
      </g>
     </g>
    </g>
    <g id="xtick_35">
     <g id="line2d_42">
      <g>
       <use style="fill:#262626;stroke:#262626;stroke-width:0.6;" x="272.069713" xlink:href="#m9a9250c2cf" y="287.61418"/>
      </g>
     </g>
    </g>
    <g id="xtick_36">
     <g id="line2d_43">
      <g>
       <use style="fill:#262626;stroke:#262626;stroke-width:0.6;" x="276.782581" xlink:href="#m9a9250c2cf" y="287.61418"/>
      </g>
     </g>
    </g>
    <g id="xtick_37">
     <g id="line2d_44">
      <g>
       <use style="fill:#262626;stroke:#262626;stroke-width:0.6;" x="280.767254" xlink:href="#m9a9250c2cf" y="287.61418"/>
      </g>
     </g>
    </g>
    <g id="xtick_38">
     <g id="line2d_45">
      <g>
       <use style="fill:#262626;stroke:#262626;stroke-width:0.6;" x="284.218935" xlink:href="#m9a9250c2cf" y="287.61418"/>
      </g>
     </g>
    </g>
    <g id="xtick_39">
     <g id="line2d_46">
      <g>
       <use style="fill:#262626;stroke:#262626;stroke-width:0.6;" x="287.263533" xlink:href="#m9a9250c2cf" y="287.61418"/>
      </g>
     </g>
    </g>
    <g id="xtick_40">
     <g id="line2d_47">
      <g>
       <use style="fill:#262626;stroke:#262626;stroke-width:0.6;" x="307.904324" xlink:href="#m9a9250c2cf" y="287.61418"/>
      </g>
     </g>
    </g>
    <g id="xtick_41">
     <g id="line2d_48">
      <g>
       <use style="fill:#262626;stroke:#262626;stroke-width:0.6;" x="318.385276" xlink:href="#m9a9250c2cf" y="287.61418"/>
      </g>
     </g>
    </g>
    <g id="xtick_42">
     <g id="line2d_49">
      <g>
       <use style="fill:#262626;stroke:#262626;stroke-width:0.6;" x="325.821629" xlink:href="#m9a9250c2cf" y="287.61418"/>
      </g>
     </g>
    </g>
    <g id="xtick_43">
     <g id="line2d_50">
      <g>
       <use style="fill:#262626;stroke:#262626;stroke-width:0.6;" x="331.589713" xlink:href="#m9a9250c2cf" y="287.61418"/>
      </g>
     </g>
    </g>
    <g id="xtick_44">
     <g id="line2d_51">
      <g>
       <use style="fill:#262626;stroke:#262626;stroke-width:0.6;" x="336.302581" xlink:href="#m9a9250c2cf" y="287.61418"/>
      </g>
     </g>
    </g>
    <g id="xtick_45">
     <g id="line2d_52">
      <g>
       <use style="fill:#262626;stroke:#262626;stroke-width:0.6;" x="340.287254" xlink:href="#m9a9250c2cf" y="287.61418"/>
      </g>
     </g>
    </g>
    <g id="xtick_46">
     <g id="line2d_53">
      <g>
       <use style="fill:#262626;stroke:#262626;stroke-width:0.6;" x="343.738935" xlink:href="#m9a9250c2cf" y="287.61418"/>
      </g>
     </g>
    </g>
    <g id="xtick_47">
     <g id="line2d_54">
      <g>
       <use style="fill:#262626;stroke:#262626;stroke-width:0.6;" x="346.783533" xlink:href="#m9a9250c2cf" y="287.61418"/>
      </g>
     </g>
    </g>
    <g id="xtick_48">
     <g id="line2d_55">
      <g>
       <use style="fill:#262626;stroke:#262626;stroke-width:0.6;" x="367.424324" xlink:href="#m9a9250c2cf" y="287.61418"/>
      </g>
     </g>
    </g>
    <g id="xtick_49">
     <g id="line2d_56">
      <g>
       <use style="fill:#262626;stroke:#262626;stroke-width:0.6;" x="377.905276" xlink:href="#m9a9250c2cf" y="287.61418"/>
      </g>
     </g>
    </g>
    <g id="xtick_50">
     <g id="line2d_57">
      <g>
       <use style="fill:#262626;stroke:#262626;stroke-width:0.6;" x="385.341629" xlink:href="#m9a9250c2cf" y="287.61418"/>
      </g>
     </g>
    </g>
    <g id="xtick_51">
     <g id="line2d_58">
      <g>
       <use style="fill:#262626;stroke:#262626;stroke-width:0.6;" x="391.109713" xlink:href="#m9a9250c2cf" y="287.61418"/>
      </g>
     </g>
    </g>
    <g id="xtick_52">
     <g id="line2d_59">
      <g>
       <use style="fill:#262626;stroke:#262626;stroke-width:0.6;" x="395.822581" xlink:href="#m9a9250c2cf" y="287.61418"/>
      </g>
     </g>
    </g>
    <g id="xtick_53">
     <g id="line2d_60">
      <g>
       <use style="fill:#262626;stroke:#262626;stroke-width:0.6;" x="399.807254" xlink:href="#m9a9250c2cf" y="287.61418"/>
      </g>
     </g>
    </g>
    <g id="xtick_54">
     <g id="line2d_61">
      <g>
       <use style="fill:#262626;stroke:#262626;stroke-width:0.6;" x="403.258935" xlink:href="#m9a9250c2cf" y="287.61418"/>
      </g>
     </g>
    </g>
    <g id="xtick_55">
     <g id="line2d_62">
      <g>
       <use style="fill:#262626;stroke:#262626;stroke-width:0.6;" x="406.303533" xlink:href="#m9a9250c2cf" y="287.61418"/>
      </g>
     </g>
    </g>
    <g id="text_8">
     <!-- $\eta$ -->
     <g style="fill:#262626;" transform="translate(227.993643 314.388355)scale(0.1 -0.1)">
      <defs>
       <path d="M 3040 1768 
C 3072 1895 3091 1973 3091 2145 
C 3091 2528 2867 2815 2381 2815 
C 1811 2815 1510 2413 1395 2254 
C 1376 2618 1114 2815 832 2815 
C 646 2815 499 2726 378 2483 
C 262 2254 173 1864 173 1839 
C 173 1813 198 1781 243 1781 
C 294 1781 301 1788 339 1934 
C 435 2311 557 2688 813 2688 
C 960 2688 1011 2586 1011 2394 
C 1011 2254 947 2005 902 1807 
L 723 1118 
C 698 996 627 709 595 593 
C 550 428 480 127 480 96 
C 480 6 550 -64 646 -64 
C 723 -64 813 -25 864 70 
C 877 102 934 326 966 453 
L 1107 1028 
L 1318 1871 
C 1331 1909 1491 2228 1728 2432 
C 1894 2586 2112 2688 2362 2688 
C 2618 2688 2707 2496 2707 2241 
C 2707 2055 2682 1953 2650 1831 
L 1907 -1107 
C 1901 -1139 1888 -1177 1888 -1216 
C 1888 -1312 1965 -1376 2061 -1376 
C 2118 -1376 2253 -1350 2304 -1158 
L 3040 1768 
z
" id="CMMI12-11" transform="scale(0.015625)"/>
      </defs>
      <use transform="scale(0.996264)" xlink:href="#CMMI12-11"/>
     </g>
    </g>
   </g>
   <g id="matplotlib.axis_2">
    <g id="ytick_1">
     <g id="line2d_63">
      <path clip-path="url(#p493deb6819)" d="M 51.907018 287.61418 
L 409.027018 287.61418 
" style="fill:none;stroke:#cccccc;stroke-linecap:round;stroke-width:0.8;"/>
     </g>
     <g id="line2d_64">
      <defs>
       <path d="M 0 0 
L -3.5 0 
" id="m41292d8760" style="stroke:#262626;stroke-width:0.8;"/>
      </defs>
      <g>
       <use style="fill:#262626;stroke:#262626;stroke-width:0.8;" x="51.907018" xlink:href="#m41292d8760" y="287.61418"/>
      </g>
     </g>
     <g id="text_9">
      <!-- $\mathdefault{−100}$ -->
      <g style="fill:#262626;" transform="translate(22.214269 291.073429)scale(0.1 -0.1)">
       <use transform="scale(0.996264)" xlink:href="#CMSY10-0"/>
       <use transform="translate(77.487468 0)scale(0.996264)" xlink:href="#CMR17-31"/>
       <use transform="translate(123.177945 0)scale(0.996264)" xlink:href="#CMR17-30"/>
       <use transform="translate(168.868422 0)scale(0.996264)" xlink:href="#CMR17-30"/>
      </g>
     </g>
    </g>
    <g id="ytick_2">
     <g id="line2d_65">
      <path clip-path="url(#p493deb6819)" d="M 51.907018 253.05418 
L 409.027018 253.05418 
" style="fill:none;stroke:#cccccc;stroke-linecap:round;stroke-width:0.8;"/>
     </g>
     <g id="line2d_66">
      <g>
       <use style="fill:#262626;stroke:#262626;stroke-width:0.8;" x="51.907018" xlink:href="#m41292d8760" y="253.05418"/>
      </g>
     </g>
     <g id="text_10">
      <!-- $\mathdefault{0}$ -->
      <g style="fill:#262626;" transform="translate(39.925683 256.513429)scale(0.1 -0.1)">
       <use transform="scale(0.996264)" xlink:href="#CMR17-30"/>
      </g>
     </g>
    </g>
    <g id="ytick_3">
     <g id="line2d_67">
      <path clip-path="url(#p493deb6819)" d="M 51.907018 21.50218 
L 409.027018 21.50218 
" style="fill:none;stroke:#cccccc;stroke-linecap:round;stroke-width:0.8;"/>
     </g>
     <g id="line2d_68">
      <g>
       <use style="fill:#262626;stroke:#262626;stroke-width:0.8;" x="51.907018" xlink:href="#m41292d8760" y="21.50218"/>
      </g>
     </g>
     <g id="text_11">
      <!-- $\mathdefault{670}$ -->
      <g style="fill:#262626;" transform="translate(29.963013 24.961429)scale(0.1 -0.1)">
       <defs>
        <path d="M 678 2176 
C 678 3690 1395 4032 1811 4032 
C 1946 4032 2272 4009 2400 3776 
C 2298 3776 2106 3776 2106 3553 
C 2106 3381 2246 3323 2336 3323 
C 2394 3323 2566 3348 2566 3560 
C 2566 3954 2246 4179 1805 4179 
C 1043 4179 243 3390 243 1984 
C 243 253 966 -128 1478 -128 
C 2099 -128 2688 427 2688 1283 
C 2688 2081 2170 2662 1517 2662 
C 1126 2662 838 2407 678 1960 
L 678 2176 
z
M 1478 25 
C 691 25 691 1200 691 1436 
C 691 1896 909 2560 1504 2560 
C 1613 2560 1926 2560 2138 2120 
C 2253 1870 2253 1609 2253 1289 
C 2253 944 2253 690 2118 434 
C 1978 171 1773 25 1478 25 
z
" id="CMR17-36" transform="scale(0.015625)"/>
        <path d="M 2886 3941 
L 2886 4081 
L 1382 4081 
C 634 4081 621 4165 595 4288 
L 480 4288 
L 294 3094 
L 410 3094 
C 429 3215 474 3540 550 3661 
C 589 3712 1062 3712 1171 3712 
L 2579 3712 
L 1869 2661 
C 1395 1954 1069 999 1069 165 
C 1069 89 1069 -128 1299 -128 
C 1530 -128 1530 89 1530 171 
L 1530 465 
C 1530 1508 1709 2196 2003 2636 
L 2886 3941 
z
" id="CMR17-37" transform="scale(0.015625)"/>
       </defs>
       <use transform="scale(0.996264)" xlink:href="#CMR17-36"/>
       <use transform="translate(45.690477 0)scale(0.996264)" xlink:href="#CMR17-37"/>
       <use transform="translate(91.380954 0)scale(0.996264)" xlink:href="#CMR17-30"/>
      </g>
     </g>
    </g>
    <g id="text_12">
     <!-- $\mathrm{d} \ell_{\hat{\sigma}^2(\eta)}(\eta)/\mathrm{d} \eta$ -->
     <g style="fill:#262626;" transform="translate(14.67198 183.576528)rotate(-90)scale(0.1 -0.1)">
      <defs>
       <path d="M 1869 4326 
L 1869 4160 
C 2246 4160 2304 4122 2304 3820 
L 2304 2345 
C 2278 2377 2016 2790 1498 2790 
C 845 2790 211 2208 211 1364 
C 211 525 806 -64 1434 -64 
C 1978 -64 2259 337 2291 380 
L 2291 -63 
L 3066 -63 
L 3066 128 
C 2688 128 2630 166 2630 473 
L 2630 4396 
L 1869 4326 
z
M 2291 755 
C 2291 563 2176 390 2029 262 
C 1811 70 1594 38 1472 38 
C 1286 38 621 134 621 1356 
C 621 2612 1363 2688 1530 2688 
C 1824 2688 2061 2522 2208 2291 
C 2291 2157 2291 2138 2291 2023 
L 2291 755 
z
" id="CMR17-64" transform="scale(0.015625)"/>
       <path d="M 589 1088 
C 186 692 83 597 83 572 
C 83 546 109 501 154 501 
C 186 501 550 851 602 909 
C 640 482 800 -73 1299 -73 
C 1555 -73 1786 86 1888 163 
C 1971 227 2278 488 2278 546 
C 2278 578 2246 616 2214 616 
C 2189 616 2093 520 2067 495 
C 1843 278 1562 55 1306 55 
C 960 55 915 552 915 897 
C 915 960 915 1228 960 1279 
C 1338 1667 2522 2886 2522 4014 
C 2522 4269 2426 4492 2150 4492 
C 1555 4492 1037 3178 947 2936 
C 922 2873 550 1891 589 1088 
z
M 973 1471 
C 979 1509 1267 3186 1805 4082 
C 1914 4255 2022 4364 2150 4364 
C 2368 4364 2381 4159 2381 4018 
C 2381 3794 2317 3218 1760 2412 
C 1594 2175 1338 1855 973 1471 
z
" id="CMMI12-60" transform="scale(0.015625)"/>
       <path d="M 1466 4421 
L 678 3555 
L 755 3478 
L 1466 4166 
L 2176 3478 
L 2253 3555 
L 1466 4421 
z
" id="CMR17-5e" transform="scale(0.015625)"/>
       <path d="M 3251 2408 
C 3334 2408 3546 2408 3546 2612 
C 3546 2752 3424 2752 3309 2752 
L 1894 2752 
C 934 2752 243 1686 243 932 
C 243 390 595 -64 1171 -64 
C 1926 -64 2752 747 2752 1705 
C 2752 1954 2694 2196 2541 2408 
L 3251 2408 
z
M 1178 64 
C 851 64 614 313 614 754 
C 614 1137 845 2408 1786 2408 
C 2061 2408 2368 2274 2368 1781 
C 2368 1558 2266 1021 2042 652 
C 1811 275 1466 64 1178 64 
z
" id="CMMI12-1b" transform="scale(0.015625)"/>
       <path d="M 1958 -1561 
C 1958 -1555 1958 -1542 1939 -1523 
C 1645 -1224 858 -407 858 1581 
C 858 3569 1632 4379 1946 4697 
C 1946 4704 1958 4717 1958 4736 
C 1958 4755 1939 4768 1914 4768 
C 1843 4768 1299 4296 986 3594 
C 666 2887 576 2199 576 1588 
C 576 1128 621 351 1005 -471 
C 1312 -1135 1837 -1600 1914 -1600 
C 1946 -1600 1958 -1587 1958 -1561 
z
" id="CMR17-28" transform="scale(0.015625)"/>
       <path d="M 1683 1581 
C 1683 2040 1638 2817 1254 3639 
C 947 4303 422 4768 346 4768 
C 326 4768 301 4761 301 4729 
C 301 4717 307 4710 314 4697 
C 621 4378 1402 3568 1402 1584 
C 1402 -407 627 -1217 314 -1537 
C 307 -1549 301 -1556 301 -1568 
C 301 -1600 326 -1600 346 -1600 
C 416 -1600 960 -1128 1274 -426 
C 1594 281 1683 969 1683 1581 
z
" id="CMR17-29" transform="scale(0.015625)"/>
       <path d="M 2746 4562 
C 2746 4569 2784 4666 2784 4678 
C 2784 4755 2720 4800 2669 4800 
C 2637 4800 2579 4800 2528 4659 
L 384 -1363 
C 384 -1370 346 -1465 346 -1478 
C 346 -1555 410 -1600 461 -1600 
C 499 -1600 557 -1593 602 -1459 
L 2746 4562 
z
" id="CMMI12-3d" transform="scale(0.015625)"/>
      </defs>
      <use transform="scale(0.996264)" xlink:href="#CMR17-64"/>
      <use transform="translate(50.89537 0)scale(0.996264)" xlink:href="#CMMI12-60"/>
      <use transform="translate(96.494925 -17.936461)scale(0.697382)" xlink:href="#CMR17-5e"/>
      <use transform="translate(91.829589 -17.940992)scale(0.697382)" xlink:href="#CMMI12-1b"/>
      <use transform="translate(133.143428 2.205581)scale(0.498132)" xlink:href="#CMR17-32"/>
      <use transform="translate(156.486798 -17.940992)scale(0.697382)" xlink:href="#CMR17-28"/>
      <use transform="translate(181.183219 -17.940992)scale(0.697382)" xlink:href="#CMMI12-11"/>
      <use transform="translate(217.375713 -17.940992)scale(0.697382)" xlink:href="#CMR17-29"/>
      <use transform="translate(242.570266 0)scale(0.996264)" xlink:href="#CMR17-28"/>
      <use transform="translate(277.851033 0)scale(0.996264)" xlink:href="#CMMI12-11"/>
      <use transform="translate(329.554849 0)scale(0.996264)" xlink:href="#CMR17-29"/>
      <use transform="translate(364.835617 0)scale(0.996264)" xlink:href="#CMMI12-3d"/>
      <use transform="translate(413.610536 0)scale(0.996264)" xlink:href="#CMR17-64"/>
      <use transform="translate(464.505906 0)scale(0.996264)" xlink:href="#CMMI12-11"/>
     </g>
    </g>
   </g>
   <g id="patch_3">
    <path clip-path="url(#p493deb6819)" d="M 111.427018 391.29418 
L 230.467018 391.29418 
L 230.467018 114.81418 
L 111.427018 114.81418 
z
" style="fill:none;stroke:#808080;stroke-linejoin:miter;"/>
   </g>
   <g id="line2d_69">
    <path clip-path="url(#p493deb6819)" d="M 141.370794 -1 
L 142.690049 11.633398 
L 145.094897 33.035583 
L 147.499746 52.546521 
L 149.904594 70.33252 
L 152.309443 86.545405 
L 154.714291 101.32375 
L 157.11914 114.794019 
L 159.523988 127.071605 
L 161.928837 138.261788 
L 164.333685 148.46061 
L 166.738534 157.755673 
L 169.143382 166.226879 
L 171.548231 173.947096 
L 173.953079 180.98277 
L 176.357928 187.394495 
L 178.762776 193.237513 
L 181.167625 198.562196 
L 183.572473 203.414461 
L 185.977322 207.836172 
L 188.38217 211.86549 
L 190.787018 215.537199 
L 193.191867 218.883007 
L 195.596715 221.931816 
L 198.001564 224.709967 
L 200.406412 227.241468 
L 202.811261 229.548202 
L 206.418534 232.629999 
L 210.025806 235.310538 
L 213.633079 237.642028 
L 217.240352 239.66989 
L 220.847625 241.433636 
L 224.454897 242.967637 
L 228.06217 244.301791 
L 230.467018 245.093187 
L 230.467018 245.093187 
L 239.864913 247.566915 
L 249.262808 249.285748 
L 258.660703 250.479362 
L 268.058597 251.307335 
L 277.456492 251.880492 
L 286.854387 252.275777 
L 305.650176 252.730255 
L 324.445966 252.932588 
L 362.037545 253.042435 
L 409.027018 253.053794 
L 409.027018 253.053794 
" style="fill:none;stroke:#000000;stroke-dasharray:5.55,2.4;stroke-dashoffset:0;stroke-width:1.5;"/>
   </g>
   <g id="line2d_70">
    <path clip-path="url(#p493deb6819)" d="M 155.637404 399.49418 
L 157.11914 391.314341 
L 159.523988 379.036755 
L 161.928837 367.846572 
L 164.333685 357.64775 
L 166.738534 348.352686 
L 169.143382 339.88148 
L 171.548231 332.161264 
L 173.953079 325.125589 
L 176.357928 318.713865 
L 178.762776 312.870846 
L 181.167625 307.546164 
L 183.572473 302.693898 
L 185.977322 298.272187 
L 188.38217 294.24287 
L 190.787018 290.571161 
L 193.191867 287.225352 
L 195.596715 284.176544 
L 198.001564 281.398393 
L 200.406412 278.866891 
L 202.811261 276.560157 
L 206.418534 273.47836 
L 210.025806 270.797822 
L 213.633079 268.466332 
L 217.240352 266.43847 
L 220.847625 264.674724 
L 224.454897 263.140723 
L 228.06217 261.806569 
L 230.467018 261.015172 
L 230.467018 261.015172 
L 239.864913 258.541445 
L 249.262808 256.822612 
L 258.660703 255.628998 
L 268.058597 254.801025 
L 277.456492 254.227867 
L 286.854387 253.832583 
L 305.650176 253.378104 
L 324.445966 253.175771 
L 362.037545 253.065925 
L 409.027018 253.054565 
L 409.027018 253.054565 
" style="fill:none;stroke:#000000;stroke-dasharray:9.6,2.4,1.5,2.4;stroke-dashoffset:0;stroke-width:1.5;"/>
   </g>
   <g id="line2d_71">
    <path clip-path="url(#p493deb6819)" d="M 51.907018 24.525552 
L 54.336406 79.067192 
L 56.765794 126.427449 
L 59.195182 167.218316 
L 61.62457 202.029765 
L 64.053957 231.425683 
L 66.483345 255.941136 
L 67.698039 266.527606 
L 68.912733 276.080785 
L 70.127427 284.658896 
L 71.342121 292.318223 
L 72.556814 299.113119 
L 73.771508 305.096038 
L 74.986202 310.317553 
L 76.200896 314.826391 
L 77.41559 318.669469 
L 78.630284 321.891921 
L 79.844978 324.537142 
L 81.059672 326.646819 
L 82.274365 328.260964 
L 83.489059 329.417954 
L 84.703753 330.154555 
L 85.918447 330.505958 
L 87.133141 330.505805 
L 88.347835 330.186217 
L 89.562529 329.577818 
L 90.777223 328.709757 
L 91.991916 327.609733 
L 93.20661 326.304017 
L 95.635998 323.173567 
L 98.065386 319.500775 
L 100.494774 315.44651 
L 105.353549 306.734169 
L 111.427018 295.784286 
L 111.427018 295.784286 
L 115.034291 289.684811 
L 118.641564 284.070242 
L 122.248837 279.020217 
L 124.653685 275.984986 
L 127.058534 273.216507 
L 129.463382 270.709629 
L 131.868231 268.454808 
L 134.273079 266.439243 
L 136.677928 264.647869 
L 139.082776 263.064206 
L 141.487625 261.671065 
L 145.094897 259.900768 
L 148.70217 258.463467 
L 152.309443 257.306247 
L 155.916715 256.381444 
L 160.726412 255.438516 
L 165.536109 254.752314 
L 171.548231 254.157159 
L 178.762776 253.705671 
L 188.38217 253.373425 
L 201.608837 253.172148 
L 225.657322 253.073006 
L 315.048071 253.054199 
L 409.027018 253.05418 
L 409.027018 253.05418 
" style="fill:none;stroke:#000000;stroke-linecap:round;stroke-width:1.5;"/>
   </g>
   <g id="line2d_72">
    <defs>
     <path d="M 0 2 
C 0.530406 2 1.03916 1.789267 1.414214 1.414214 
C 1.789267 1.03916 2 0.530406 2 0 
C 2 -0.530406 1.789267 -1.03916 1.414214 -1.414214 
C 1.03916 -1.789267 0.530406 -2 0 -2 
C -0.530406 -2 -1.03916 -1.789267 -1.414214 -1.414214 
C -1.789267 -1.03916 -2 -0.530406 -2 0 
C -2 0.530406 -1.789267 1.03916 -1.414214 1.414214 
C -1.03916 1.789267 -0.530406 2 0 2 
z
" id="m54ca82a8b2" style="stroke:#000000;"/>
    </defs>
    <g clip-path="url(#p493deb6819)">
     <use style="stroke:#000000;" x="153.447658" xlink:href="#m54ca82a8b2" y="253.05418"/>
    </g>
   </g>
   <g id="patch_4">
    <path d="M 51.907018 287.61418 
L 51.907018 21.50218 
" style="fill:none;stroke:#262626;stroke-linecap:square;stroke-linejoin:miter;stroke-width:0.8;"/>
   </g>
   <g id="patch_5">
    <path d="M 409.027018 287.61418 
L 409.027018 21.50218 
" style="fill:none;stroke:#262626;stroke-linecap:square;stroke-linejoin:miter;stroke-width:0.8;"/>
   </g>
   <g id="patch_6">
    <path d="M 51.907018 287.61418 
L 409.027018 287.61418 
" style="fill:none;stroke:#262626;stroke-linecap:square;stroke-linejoin:miter;stroke-width:0.8;"/>
   </g>
   <g id="patch_7">
    <path d="M 51.907018 21.50218 
L 409.027018 21.50218 
" style="fill:none;stroke:#262626;stroke-linecap:square;stroke-linejoin:miter;stroke-width:0.8;"/>
   </g>
   <g id="text_13">
    <!-- Derivative of Log Marginal Likelihood Function -->
    <g style="fill:#262626;" transform="translate(108.210765 15.50218)scale(0.12 -0.12)">
     <defs>
      <path d="M 333 4352 
L 333 4186 
C 774 4186 845 4186 845 3900 
L 845 452 
C 845 166 774 166 333 166 
L 333 0 
L 2368 0 
C 3398 0 4224 943 4224 2141 
C 4224 3346 3411 4352 2368 4352 
L 333 4352 
z
M 1523 166 
C 1267 166 1254 197 1254 414 
L 1254 3938 
C 1254 4155 1267 4186 1523 4186 
L 2240 4186 
C 2771 4186 3750 3874 3750 2141 
C 3750 1242 3488 879 3366 707 
C 3213 510 2848 166 2240 166 
L 1523 166 
z
" id="CMR17-44" transform="scale(0.015625)"/>
      <path d="M 2438 1472 
C 2464 1498 2464 1511 2464 1576 
C 2464 2238 2118 2816 1389 2816 
C 710 2816 173 2169 173 1383 
C 173 551 781 -64 1459 -64 
C 2176 -64 2458 607 2458 740 
C 2458 784 2419 784 2406 784 
C 2362 784 2355 771 2330 696 
C 2189 265 1837 51 1504 51 
C 1229 51 954 203 781 480 
C 582 803 582 1176 582 1472 
L 2438 1472 
z
M 589 1568 
C 634 2505 1126 2714 1382 2714 
C 1818 2714 2112 2297 2118 1568 
L 589 1568 
z
" id="CMR17-65" transform="scale(0.015625)"/>
      <path d="M 960 1497 
C 960 2112 1222 2688 1702 2688 
C 1747 2688 1792 2682 1837 2662 
C 1837 2662 1696 2617 1696 2452 
C 1696 2298 1818 2234 1914 2234 
C 1990 2234 2131 2279 2131 2458 
C 2131 2663 1926 2790 1709 2790 
C 1222 2790 1011 2317 947 2093 
L 941 2093 
L 941 2790 
L 198 2720 
L 198 2554 
C 576 2554 634 2515 634 2208 
L 634 428 
C 634 184 608 153 198 153 
L 198 -13 
C 352 0 646 0 813 0 
C 998 0 1325 0 1498 -13 
L 1498 153 
C 1037 153 960 153 960 440 
L 960 1497 
z
" id="CMR17-72" transform="scale(0.015625)"/>
      <path d="M 992 3909 
C 992 4049 877 4170 730 4170 
C 589 4170 467 4056 467 3909 
C 467 3769 582 3648 730 3648 
C 870 3648 992 3763 992 3909 
z
M 243 2706 
L 243 2541 
C 602 2541 653 2502 653 2197 
L 653 427 
C 653 184 627 153 218 153 
L 218 -13 
C 371 0 646 0 806 0 
C 960 0 1222 0 1370 -13 
L 1370 153 
C 992 153 979 191 979 420 
L 979 2776 
L 243 2706 
z
" id="CMR17-69" transform="scale(0.015625)"/>
      <path d="M 2502 2163 
C 2560 2304 2662 2560 3034 2560 
L 3034 2726 
C 2912 2726 2752 2726 2630 2726 
C 2496 2726 2285 2726 2157 2732 
L 2157 2566 
C 2317 2553 2406 2477 2406 2311 
C 2406 2253 2406 2240 2368 2151 
L 1664 377 
L 902 2286 
C 864 2369 864 2381 864 2407 
C 864 2560 1075 2560 1171 2560 
L 1171 2732 
C 1018 2726 736 2726 576 2726 
C 403 2726 205 2726 64 2732 
L 64 2560 
C 307 2560 442 2560 518 2362 
L 1446 44 
C 1485 -51 1491 -64 1549 -64 
C 1606 -64 1613 -51 1651 44 
L 2502 2163 
z
" id="CMR17-76" transform="scale(0.015625)"/>
      <path d="M 2304 1653 
C 2304 2072 2304 2294 2035 2543 
C 1798 2752 1523 2816 1306 2816 
C 800 2816 435 2407 435 1971 
C 435 1728 627 1728 666 1728 
C 749 1728 896 1778 896 1954 
C 896 2112 774 2181 666 2181 
C 640 2181 608 2174 589 2168 
C 723 2592 1069 2714 1293 2714 
C 1613 2714 1965 2429 1965 1885 
L 1965 1600 
C 1587 1600 1133 1549 774 1357 
C 371 1133 256 813 256 570 
C 256 77 832 -64 1171 -64 
C 1523 -64 1850 139 1990 511 
C 2003 233 2182 -18 2464 -18 
C 2598 -18 2938 70 2938 567 
L 2938 920 
L 2822 920 
L 2822 562 
C 2822 178 2650 128 2566 128 
C 2304 128 2304 458 2304 738 
L 2304 1653 
z
M 1965 870 
C 1965 317 1568 38 1216 38 
C 896 38 646 275 646 570 
C 646 761 730 1100 1101 1305 
C 1408 1478 1760 1504 1965 1504 
L 1965 870 
z
" id="CMR17-61" transform="scale(0.015625)"/>
      <path d="M 966 2560 
L 1862 2560 
L 1862 2725 
L 966 2725 
L 966 3904 
L 851 3904 
C 838 3245 614 2668 70 2668 
L 70 2560 
L 627 2560 
L 627 771 
C 627 650 627 -64 1370 -64 
C 1747 -64 1965 306 1965 777 
L 1965 1140 
L 1850 1140 
L 1850 783 
C 1850 344 1677 51 1408 51 
C 1222 51 966 178 966 758 
L 966 2560 
z
" id="CMR17-74" transform="scale(0.015625)"/>
      <path d="M 2758 1356 
C 2758 2176 2163 2816 1466 2816 
C 768 2816 173 2176 173 1356 
C 173 551 768 -64 1466 -64 
C 2163 -64 2758 551 2758 1356 
z
M 1466 51 
C 1165 51 909 230 762 480 
C 602 767 582 1126 582 1408 
C 582 1677 595 2010 762 2298 
C 890 2509 1139 2714 1466 2714 
C 1754 2714 1997 2554 2150 2330 
C 2349 2029 2349 1607 2349 1408 
C 2349 1158 2336 775 2163 467 
C 1984 173 1709 51 1466 51 
z
" id="CMR17-6f" transform="scale(0.015625)"/>
      <path d="M 979 2560 
L 1709 2560 
L 1709 2725 
L 966 2725 
L 966 3494 
C 966 4022 1235 4352 1510 4352 
C 1594 4352 1690 4327 1754 4282 
C 1702 4269 1568 4225 1568 4067 
C 1568 3901 1696 3850 1786 3850 
C 1875 3850 2003 3901 2003 4067 
C 2003 4308 1773 4454 1517 4454 
C 1152 4454 653 4156 653 3481 
L 653 2725 
L 141 2725 
L 141 2560 
L 653 2560 
L 653 427 
C 653 184 627 153 218 153 
L 218 -13 
C 371 0 666 0 832 0 
C 1018 0 1344 0 1517 -13 
L 1517 153 
C 1056 153 979 153 979 439 
L 979 2560 
z
" id="CMR17-66" transform="scale(0.015625)"/>
      <path d="M 3469 1615 
L 3354 1615 
C 3302 983 3219 166 2125 166 
L 1530 166 
C 1274 166 1261 197 1261 414 
L 1261 3898 
C 1261 4129 1274 4192 1760 4192 
L 1901 4192 
L 1901 4352 
C 1638 4352 1331 4352 1069 4352 
C 870 4352 512 4352 326 4352 
L 326 4192 
C 768 4192 838 4192 838 3905 
L 838 452 
C 838 166 768 166 326 166 
L 326 0 
L 3315 0 
L 3469 1615 
z
" id="CMR17-4c" transform="scale(0.015625)"/>
      <path d="M 710 1164 
C 832 1068 1043 960 1299 960 
C 1805 960 2240 1357 2240 1888 
C 2240 2054 2189 2310 1997 2509 
C 2176 2692 2438 2752 2586 2752 
C 2611 2752 2650 2752 2682 2734 
C 2656 2728 2598 2703 2598 2605 
C 2598 2527 2656 2471 2739 2471 
C 2835 2471 2886 2533 2886 2614 
C 2886 2731 2790 2854 2586 2854 
C 2330 2854 2106 2738 1926 2580 
C 1734 2753 1504 2816 1299 2816 
C 794 2816 358 2419 358 1888 
C 358 1522 570 1292 634 1228 
C 442 1004 442 743 442 711 
C 442 545 506 302 723 168 
C 390 85 128 -169 128 -486 
C 128 -943 736 -1280 1466 -1280 
C 2170 -1280 2803 -956 2803 -479 
C 2803 384 1856 384 1363 384 
C 1216 384 954 384 922 391 
C 723 423 589 602 589 826 
C 589 883 589 1024 710 1164 
z
M 1299 1068 
C 736 1068 736 1760 736 1889 
C 736 2016 736 2708 1299 2708 
C 1862 2708 1862 2016 1862 1889 
C 1862 1760 1862 1068 1299 1068 
z
M 1466 -1171 
C 826 -1171 384 -835 384 -486 
C 384 -289 493 -105 634 -4 
C 794 104 858 104 1293 104 
C 1818 104 2547 104 2547 -486 
C 2547 -835 2106 -1171 1466 -1171 
z
" id="CMR17-67" transform="scale(0.015625)"/>
      <path d="M 1338 4224 
C 1299 4320 1293 4320 1158 4320 
L 339 4320 
L 339 4160 
C 781 4160 851 4160 851 3875 
L 851 610 
C 851 451 851 153 339 153 
L 339 -13 
C 486 0 755 0 915 0 
C 1075 0 1344 0 1491 -13 
L 1491 153 
C 979 153 979 451 979 610 
L 979 4135 
L 986 4135 
L 2490 89 
C 2515 25 2528 -13 2579 -13 
C 2630 -13 2643 25 2669 89 
L 4186 4166 
L 4192 4166 
L 4192 438 
C 4192 153 4122 153 3680 153 
L 3680 -13 
C 3853 0 4198 0 4384 0 
C 4570 0 4922 0 5094 -13 
L 5094 153 
C 4653 153 4582 153 4582 438 
L 4582 3875 
C 4582 4160 4653 4160 5094 4160 
L 5094 4320 
L 4282 4320 
C 4147 4320 4141 4314 4102 4218 
L 2720 502 
L 1338 4224 
z
" id="CMR17-4d" transform="scale(0.015625)"/>
      <path d="M 2656 1933 
C 2656 2259 2592 2790 1837 2790 
C 1331 2790 1069 2400 973 2144 
L 966 2144 
L 966 2790 
L 211 2720 
L 211 2554 
C 589 2554 646 2515 646 2208 
L 646 428 
C 646 184 621 153 211 153 
L 211 -13 
C 365 0 646 0 813 0 
C 979 0 1267 0 1421 -13 
L 1421 153 
C 1011 153 986 178 986 428 
L 986 1658 
C 986 2247 1344 2688 1792 2688 
C 2266 2688 2317 2266 2317 1958 
L 2317 428 
C 2317 184 2291 153 1882 153 
L 1882 -13 
C 2035 0 2317 0 2483 0 
C 2650 0 2938 0 3091 -13 
L 3091 153 
C 2682 153 2656 178 2656 428 
L 2656 1933 
z
" id="CMR17-6e" transform="scale(0.015625)"/>
      <path d="M 979 4396 
L 218 4326 
L 218 4160 
C 595 4160 653 4122 653 3817 
L 653 426 
C 653 184 627 153 218 153 
L 218 -13 
C 371 0 653 0 813 0 
C 979 0 1261 0 1414 -13 
L 1414 153 
C 1005 153 979 178 979 426 
L 979 4396 
z
" id="CMR17-6c" transform="scale(0.015625)"/>
      <path d="M 1670 1673 
C 1664 1686 1632 1724 1632 1743 
C 1632 1756 2086 2171 2144 2222 
C 2509 2528 2739 2560 2906 2560 
L 2906 2733 
C 2867 2733 2854 2733 2848 2720 
L 2534 2720 
C 2355 2720 2080 2720 1907 2733 
L 1907 2566 
C 1997 2559 2061 2508 2061 2419 
C 2061 2291 1933 2170 1926 2170 
L 960 1289 
L 960 4396 
L 198 4326 
L 198 4160 
C 576 4160 634 4122 634 3817 
L 634 426 
C 634 184 608 153 198 153 
L 198 -13 
C 352 0 634 0 794 0 
C 954 0 1235 0 1389 -13 
L 1389 153 
C 979 153 954 178 954 428 
L 954 1130 
L 1395 1532 
L 2042 574 
C 2118 459 2182 369 2182 286 
C 2182 172 2067 153 1990 153 
L 1990 -13 
C 2144 0 2419 0 2579 0 
C 2694 0 2931 0 3040 0 
L 3040 153 
C 2739 153 2669 210 2477 491 
L 1670 1673 
z
" id="CMR17-6b" transform="scale(0.015625)"/>
      <path d="M 2656 1933 
C 2656 2259 2592 2790 1837 2790 
C 1312 2790 1056 2368 979 2157 
L 973 2157 
L 973 4396 
L 211 4326 
L 211 4160 
C 589 4160 646 4122 646 3817 
L 646 426 
C 646 184 621 153 211 153 
L 211 -13 
C 365 0 646 0 813 0 
C 979 0 1267 0 1421 -13 
L 1421 153 
C 1011 153 986 178 986 428 
L 986 1658 
C 986 2247 1344 2688 1792 2688 
C 2266 2688 2317 2266 2317 1958 
L 2317 428 
C 2317 184 2291 153 1882 153 
L 1882 -13 
C 2035 0 2317 0 2483 0 
C 2650 0 2938 0 3091 -13 
L 3091 153 
C 2682 153 2656 178 2656 428 
L 2656 1933 
z
" id="CMR17-68" transform="scale(0.015625)"/>
      <path d="M 3482 4325 
L 326 4325 
L 326 4160 
C 768 4160 838 4160 838 3874 
L 838 446 
C 838 160 768 160 326 160 
L 326 0 
C 512 0 870 0 1069 0 
C 1331 0 1638 0 1901 0 
L 1901 160 
L 1760 160 
C 1274 160 1261 223 1261 452 
L 1261 2075 
L 1837 2075 
C 2432 2075 2490 1865 2490 1332 
L 2605 1332 
L 2605 2987 
L 2490 2987 
C 2490 2450 2432 2240 1837 2240 
L 1261 2240 
L 1261 3911 
C 1261 4128 1274 4160 1530 4160 
L 2355 4160 
C 3322 4160 3430 3765 3520 2916 
L 3635 2916 
L 3482 4325 
z
" id="CMR17-46" transform="scale(0.015625)"/>
      <path d="M 1882 2693 
L 1882 2528 
C 2259 2528 2317 2489 2317 2186 
L 2317 1032 
C 2317 500 2029 38 1555 38 
C 1030 38 986 348 986 678 
L 986 2763 
L 211 2693 
L 211 2528 
C 467 2528 640 2528 646 2274 
L 646 1058 
C 646 633 646 361 813 183 
C 896 101 1056 -64 1517 -64 
C 2061 -64 2272 377 2323 506 
L 2330 506 
L 2330 -63 
L 3091 -63 
L 3091 128 
C 2714 128 2656 166 2656 473 
L 2656 2763 
L 1882 2693 
z
" id="CMR17-75" transform="scale(0.015625)"/>
      <path d="M 2234 2240 
C 2112 2240 1933 2240 1933 2017 
C 1933 1838 2080 1787 2163 1787 
C 2208 1787 2394 1807 2394 2024 
C 2394 2467 1958 2803 1466 2803 
C 787 2803 211 2178 211 1363 
C 211 516 813 -64 1466 -64 
C 2259 -64 2458 677 2458 748 
C 2458 774 2451 793 2406 793 
C 2362 793 2355 787 2330 703 
C 2163 180 1798 51 1523 51 
C 1114 51 621 427 621 1369 
C 621 2338 1094 2688 1472 2688 
C 1722 2688 2093 2573 2234 2240 
z
" id="CMR17-63" transform="scale(0.015625)"/>
     </defs>
     <use transform="scale(0.996264)" xlink:href="#CMR17-44"/>
     <use transform="translate(70.393556 0)scale(0.996264)" xlink:href="#CMR17-65"/>
     <use transform="translate(110.879216 0)scale(0.996264)" xlink:href="#CMR17-72"/>
     <use transform="translate(146.159984 0)scale(0.996264)" xlink:href="#CMR17-69"/>
     <use transform="translate(171.031043 0)scale(0.996264)" xlink:href="#CMR17-76"/>
     <use transform="translate(214.119142 0)scale(0.996264)" xlink:href="#CMR17-61"/>
     <use transform="translate(259.809619 0)scale(0.996264)" xlink:href="#CMR17-74"/>
     <use transform="translate(295.090387 0)scale(0.996264)" xlink:href="#CMR17-69"/>
     <use transform="translate(319.961445 0)scale(0.996264)" xlink:href="#CMR17-76"/>
     <use transform="translate(365.651907 0)scale(0.996264)" xlink:href="#CMR17-65"/>
     <use transform="translate(436.213534 0)scale(0.996264)" xlink:href="#CMR17-6f"/>
     <use transform="translate(481.904011 0)scale(0.996264)" xlink:href="#CMR17-66"/>
     <use transform="translate(539.45349 0)scale(0.996264)" xlink:href="#CMR17-4c"/>
     <use transform="translate(596.834898 0)scale(0.996264)" xlink:href="#CMR17-6f"/>
     <use transform="translate(642.525375 0)scale(0.996264)" xlink:href="#CMR17-67"/>
     <use transform="translate(718.291818 0)scale(0.996264)" xlink:href="#CMR17-4d"/>
     <use transform="translate(802.978759 0)scale(0.996264)" xlink:href="#CMR17-61"/>
     <use transform="translate(848.669236 0)scale(0.996264)" xlink:href="#CMR17-72"/>
     <use transform="translate(883.950004 0)scale(0.996264)" xlink:href="#CMR17-67"/>
     <use transform="translate(929.640481 0)scale(0.996264)" xlink:href="#CMR17-69"/>
     <use transform="translate(954.511539 0)scale(0.996264)" xlink:href="#CMR17-6e"/>
     <use transform="translate(1005.406909 0)scale(0.996264)" xlink:href="#CMR17-61"/>
     <use transform="translate(1051.097386 0)scale(0.996264)" xlink:href="#CMR17-6c"/>
     <use transform="translate(1106.044411 0)scale(0.996264)" xlink:href="#CMR17-4c"/>
     <use transform="translate(1163.425819 0)scale(0.996264)" xlink:href="#CMR17-69"/>
     <use transform="translate(1188.296877 0)scale(0.996264)" xlink:href="#CMR17-6b"/>
     <use transform="translate(1233.987339 0)scale(0.996264)" xlink:href="#CMR17-65"/>
     <use transform="translate(1274.473 0)scale(0.996264)" xlink:href="#CMR17-6c"/>
     <use transform="translate(1299.344058 0)scale(0.996264)" xlink:href="#CMR17-69"/>
     <use transform="translate(1324.215117 0)scale(0.996264)" xlink:href="#CMR17-68"/>
     <use transform="translate(1375.110487 0)scale(0.996264)" xlink:href="#CMR17-6f"/>
     <use transform="translate(1423.403402 0)scale(0.996264)" xlink:href="#CMR17-6f"/>
     <use transform="translate(1471.696318 0)scale(0.996264)" xlink:href="#CMR17-64"/>
     <use transform="translate(1552.667654 0)scale(0.996264)" xlink:href="#CMR17-46"/>
     <use transform="translate(1604.844246 0)scale(0.996264)" xlink:href="#CMR17-75"/>
     <use transform="translate(1655.739615 0)scale(0.996264)" xlink:href="#CMR17-6e"/>
     <use transform="translate(1706.634985 0)scale(0.996264)" xlink:href="#CMR17-63"/>
     <use transform="translate(1747.120646 0)scale(0.996264)" xlink:href="#CMR17-74"/>
     <use transform="translate(1782.401413 0)scale(0.996264)" xlink:href="#CMR17-69"/>
     <use transform="translate(1807.272472 0)scale(0.996264)" xlink:href="#CMR17-6f"/>
     <use transform="translate(1852.962949 0)scale(0.996264)" xlink:href="#CMR17-6e"/>
    </g>
   </g>
  </g>
  <g id="axes_2">
   <g id="patch_8">
    <path d="M 205.468618 183.8305 
L 384.028618 183.8305 
L 384.028618 50.7745 
L 205.468618 50.7745 
z
" style="fill:#fdf5e6;"/>
   </g>
   <g id="matplotlib.axis_3">
    <g id="xtick_56">
     <g id="line2d_73">
      <g>
       <use style="fill:#262626;stroke:#262626;stroke-width:0.8;" x="205.468618" xlink:href="#m04f5f27699" y="183.8305"/>
      </g>
     </g>
     <g id="text_14">
      <g id="patch_9">
       <path d="M 191.388332 203.686177 
L 219.548905 203.686177 
L 219.548905 186.8305 
L 191.388332 186.8305 
z
" style="fill:#ffffff;stroke:#ffffff;stroke-linejoin:miter;"/>
      </g>
      <!-- $\mathdefault{10^{-2}}$ -->
      <g style="fill:#262626;" transform="translate(195.388332 197.748998)scale(0.1 -0.1)">
       <use transform="scale(0.996264)" xlink:href="#CMR17-31"/>
       <use transform="translate(45.690477 0)scale(0.996264)" xlink:href="#CMR17-30"/>
       <use transform="translate(91.380954 36.153639)scale(0.697382)" xlink:href="#CMSY10-0"/>
       <use transform="translate(145.621947 36.153639)scale(0.697382)" xlink:href="#CMR17-32"/>
      </g>
     </g>
    </g>
    <g id="xtick_57">
     <g id="line2d_74">
      <g>
       <use style="fill:#262626;stroke:#262626;stroke-width:0.8;" x="294.748618" xlink:href="#m04f5f27699" y="183.8305"/>
      </g>
     </g>
     <g id="text_15">
      <g id="patch_10">
       <path d="M 280.668332 203.686177 
L 308.828905 203.686177 
L 308.828905 186.8305 
L 280.668332 186.8305 
z
" style="fill:#ffffff;stroke:#ffffff;stroke-linejoin:miter;"/>
      </g>
      <!-- $\mathdefault{10^{-1}}$ -->
      <g style="fill:#262626;" transform="translate(284.668332 197.748998)scale(0.1 -0.1)">
       <use transform="scale(0.996264)" xlink:href="#CMR17-31"/>
       <use transform="translate(45.690477 0)scale(0.996264)" xlink:href="#CMR17-30"/>
       <use transform="translate(91.380954 36.153639)scale(0.697382)" xlink:href="#CMSY10-0"/>
       <use transform="translate(145.621947 36.153639)scale(0.697382)" xlink:href="#CMR17-31"/>
      </g>
     </g>
    </g>
    <g id="xtick_58">
     <g id="line2d_75">
      <g>
       <use style="fill:#262626;stroke:#262626;stroke-width:0.8;" x="384.028618" xlink:href="#m04f5f27699" y="183.8305"/>
      </g>
     </g>
     <g id="text_16">
      <g id="patch_11">
       <path d="M 373.061664 203.686177 
L 394.995573 203.686177 
L 394.995573 186.8305 
L 373.061664 186.8305 
z
" style="fill:#ffffff;stroke:#ffffff;stroke-linejoin:miter;"/>
      </g>
      <!-- $\mathdefault{10^{0}}$ -->
      <g style="fill:#262626;" transform="translate(377.061664 197.748998)scale(0.1 -0.1)">
       <use transform="scale(0.996264)" xlink:href="#CMR17-31"/>
       <use transform="translate(45.690477 0)scale(0.996264)" xlink:href="#CMR17-30"/>
       <use transform="translate(91.380954 36.153639)scale(0.697382)" xlink:href="#CMR17-30"/>
      </g>
     </g>
    </g>
    <g id="xtick_59">
     <g id="line2d_76">
      <g>
       <use style="fill:#262626;stroke:#262626;stroke-width:0.6;" x="232.344576" xlink:href="#m9a9250c2cf" y="183.8305"/>
      </g>
     </g>
    </g>
    <g id="xtick_60">
     <g id="line2d_77">
      <g>
       <use style="fill:#262626;stroke:#262626;stroke-width:0.6;" x="248.066004" xlink:href="#m9a9250c2cf" y="183.8305"/>
      </g>
     </g>
    </g>
    <g id="xtick_61">
     <g id="line2d_78">
      <g>
       <use style="fill:#262626;stroke:#262626;stroke-width:0.6;" x="259.220535" xlink:href="#m9a9250c2cf" y="183.8305"/>
      </g>
     </g>
    </g>
    <g id="xtick_62">
     <g id="line2d_79">
      <g>
       <use style="fill:#262626;stroke:#262626;stroke-width:0.6;" x="267.87266" xlink:href="#m9a9250c2cf" y="183.8305"/>
      </g>
     </g>
    </g>
    <g id="xtick_63">
     <g id="line2d_80">
      <g>
       <use style="fill:#262626;stroke:#262626;stroke-width:0.6;" x="274.941962" xlink:href="#m9a9250c2cf" y="183.8305"/>
      </g>
     </g>
    </g>
    <g id="xtick_64">
     <g id="line2d_81">
      <g>
       <use style="fill:#262626;stroke:#262626;stroke-width:0.6;" x="280.918971" xlink:href="#m9a9250c2cf" y="183.8305"/>
      </g>
     </g>
    </g>
    <g id="xtick_65">
     <g id="line2d_82">
      <g>
       <use style="fill:#262626;stroke:#262626;stroke-width:0.6;" x="286.096493" xlink:href="#m9a9250c2cf" y="183.8305"/>
      </g>
     </g>
    </g>
    <g id="xtick_66">
     <g id="line2d_83">
      <g>
       <use style="fill:#262626;stroke:#262626;stroke-width:0.6;" x="290.66339" xlink:href="#m9a9250c2cf" y="183.8305"/>
      </g>
     </g>
    </g>
    <g id="xtick_67">
     <g id="line2d_84">
      <g>
       <use style="fill:#262626;stroke:#262626;stroke-width:0.6;" x="321.624576" xlink:href="#m9a9250c2cf" y="183.8305"/>
      </g>
     </g>
    </g>
    <g id="xtick_68">
     <g id="line2d_85">
      <g>
       <use style="fill:#262626;stroke:#262626;stroke-width:0.6;" x="337.346004" xlink:href="#m9a9250c2cf" y="183.8305"/>
      </g>
     </g>
    </g>
    <g id="xtick_69">
     <g id="line2d_86">
      <g>
       <use style="fill:#262626;stroke:#262626;stroke-width:0.6;" x="348.500535" xlink:href="#m9a9250c2cf" y="183.8305"/>
      </g>
     </g>
    </g>
    <g id="xtick_70">
     <g id="line2d_87">
      <g>
       <use style="fill:#262626;stroke:#262626;stroke-width:0.6;" x="357.15266" xlink:href="#m9a9250c2cf" y="183.8305"/>
      </g>
     </g>
    </g>
    <g id="xtick_71">
     <g id="line2d_88">
      <g>
       <use style="fill:#262626;stroke:#262626;stroke-width:0.6;" x="364.221962" xlink:href="#m9a9250c2cf" y="183.8305"/>
      </g>
     </g>
    </g>
    <g id="xtick_72">
     <g id="line2d_89">
      <g>
       <use style="fill:#262626;stroke:#262626;stroke-width:0.6;" x="370.198971" xlink:href="#m9a9250c2cf" y="183.8305"/>
      </g>
     </g>
    </g>
    <g id="xtick_73">
     <g id="line2d_90">
      <g>
       <use style="fill:#262626;stroke:#262626;stroke-width:0.6;" x="375.376493" xlink:href="#m9a9250c2cf" y="183.8305"/>
      </g>
     </g>
    </g>
    <g id="xtick_74">
     <g id="line2d_91">
      <g>
       <use style="fill:#262626;stroke:#262626;stroke-width:0.6;" x="379.94339" xlink:href="#m9a9250c2cf" y="183.8305"/>
      </g>
     </g>
    </g>
   </g>
   <g id="matplotlib.axis_4">
    <g id="ytick_4">
     <g id="line2d_92">
      <path clip-path="url(#pdbebaef17e)" d="M 205.468618 183.8305 
L 384.028618 183.8305 
" style="fill:none;stroke:#cccccc;stroke-linecap:round;stroke-width:0.8;"/>
     </g>
     <g id="line2d_93">
      <g>
       <use style="fill:#262626;stroke:#262626;stroke-width:0.8;" x="205.468618" xlink:href="#m41292d8760" y="183.8305"/>
      </g>
     </g>
     <g id="text_17">
      <!-- $\mathdefault{−400}$ -->
      <g style="fill:#262626;" transform="translate(175.775869 187.289749)scale(0.1 -0.1)">
       <defs>
        <path d="M 2150 4122 
C 2150 4256 2144 4256 2029 4256 
L 128 1254 
L 128 1088 
L 1779 1088 
L 1779 457 
C 1779 224 1766 160 1318 160 
L 1197 160 
L 1197 0 
C 1402 0 1747 0 1965 0 
C 2182 0 2528 0 2733 0 
L 2733 160 
L 2611 160 
C 2163 160 2150 224 2150 457 
L 2150 1088 
L 2803 1088 
L 2803 1254 
L 2150 1254 
L 2150 4122 
z
M 1798 3703 
L 1798 1254 
L 256 1254 
L 1798 3703 
z
" id="CMR17-34" transform="scale(0.015625)"/>
       </defs>
       <use transform="scale(0.996264)" xlink:href="#CMSY10-0"/>
       <use transform="translate(77.487468 0)scale(0.996264)" xlink:href="#CMR17-34"/>
       <use transform="translate(123.177945 0)scale(0.996264)" xlink:href="#CMR17-30"/>
       <use transform="translate(168.868422 0)scale(0.996264)" xlink:href="#CMR17-30"/>
      </g>
     </g>
    </g>
    <g id="ytick_5">
     <g id="line2d_94">
      <path clip-path="url(#pdbebaef17e)" d="M 205.468618 117.3025 
L 384.028618 117.3025 
" style="fill:none;stroke:#cccccc;stroke-linecap:round;stroke-width:0.8;"/>
     </g>
     <g id="line2d_95">
      <g>
       <use style="fill:#262626;stroke:#262626;stroke-width:0.8;" x="205.468618" xlink:href="#m41292d8760" y="117.3025"/>
      </g>
     </g>
     <g id="text_18">
      <!-- $\mathdefault{0}$ -->
      <g style="fill:#262626;" transform="translate(193.487283 120.761749)scale(0.1 -0.1)">
       <use transform="scale(0.996264)" xlink:href="#CMR17-30"/>
      </g>
     </g>
    </g>
    <g id="ytick_6">
     <g id="line2d_96">
      <path clip-path="url(#pdbebaef17e)" d="M 205.468618 50.7745 
L 384.028618 50.7745 
" style="fill:none;stroke:#cccccc;stroke-linecap:round;stroke-width:0.8;"/>
     </g>
     <g id="line2d_97">
      <g>
       <use style="fill:#262626;stroke:#262626;stroke-width:0.8;" x="205.468618" xlink:href="#m41292d8760" y="50.7745"/>
      </g>
     </g>
     <g id="text_19">
      <!-- $\mathdefault{400}$ -->
      <g style="fill:#262626;" transform="translate(183.524613 54.233749)scale(0.1 -0.1)">
       <use transform="scale(0.996264)" xlink:href="#CMR17-34"/>
       <use transform="translate(45.690477 0)scale(0.996264)" xlink:href="#CMR17-30"/>
       <use transform="translate(91.380954 0)scale(0.996264)" xlink:href="#CMR17-30"/>
      </g>
     </g>
    </g>
   </g>
   <g id="patch_12">
    <path d="M 205.468618 183.8305 
L 111.427018 391.29418 
" style="fill:none;stroke:#808080;stroke-linejoin:miter;"/>
   </g>
   <g id="patch_13">
    <path d="M 384.028618 183.8305 
L 230.467018 391.29418 
" style="fill:none;stroke:#808080;stroke-linejoin:miter;"/>
   </g>
   <g id="line2d_98">
    <path clip-path="url(#pdbebaef17e)" d="M 251.670657 -1 
L 254.1668 6.387712 
L 257.774073 16.221967 
L 261.381346 25.186988 
L 264.988618 33.359248 
L 268.595891 40.808553 
L 272.203164 47.598613 
L 275.810437 53.787563 
L 279.417709 59.428449 
L 283.024982 64.569663 
L 286.632255 69.255349 
L 290.239528 73.52577 
L 293.8468 77.417647 
L 297.454073 80.964469 
L 301.061346 84.19677 
L 304.668618 87.142396 
L 308.275891 89.826733 
L 311.883164 92.272925 
L 315.490437 94.502072 
L 319.097709 96.53341 
L 322.704982 98.384473 
L 328.115891 100.857623 
L 333.5268 103.008889 
L 338.937709 104.880132 
L 344.348618 106.507776 
L 349.759528 107.923509 
L 356.974073 109.528644 
L 364.188618 110.86131 
L 371.403164 111.967725 
L 380.421346 113.090413 
L 384.028618 113.471272 
L 384.028618 113.471272 
L 398.125461 114.661753 
L 412.222303 115.488942 
L 426.319145 116.063369 
L 440.415987 116.461831 
L 468.609671 116.927893 
L 496.803355 117.146611 
L 553.190724 117.283157 
L 600.053564 117.300025 
L 600.053564 117.300025 
" style="fill:none;stroke:#000000;stroke-dasharray:5.55,2.4;stroke-dashoffset:0;stroke-width:1.5;"/>
   </g>
   <g id="line2d_99">
    <path clip-path="url(#pdbebaef17e)" d="M 251.670657 -1 
L 254.1668 6.387712 
L 257.774073 16.221967 
L 261.381346 25.186988 
L 264.988618 33.359248 
L 268.595891 40.808553 
L 272.203164 47.598613 
L 275.810437 53.787563 
L 279.417709 59.428449 
L 283.024982 64.569663 
L 286.632255 69.255349 
L 290.239528 73.52577 
L 293.8468 77.417647 
L 297.454073 80.964469 
L 301.061346 84.19677 
L 304.668618 87.142396 
L 308.275891 89.826733 
L 311.883164 92.272925 
L 315.490437 94.502072 
L 319.097709 96.53341 
L 322.704982 98.384473 
L 328.115891 100.857623 
L 333.5268 103.008889 
L 338.937709 104.880132 
L 344.348618 106.507776 
L 349.759528 107.923509 
L 356.974073 109.528644 
L 364.188618 110.86131 
L 371.403164 111.967725 
L 380.421346 113.090413 
L 384.028618 113.471272 
L 384.028618 113.471272 
L 398.125461 114.661753 
L 412.222303 115.488942 
L 426.319145 116.063369 
L 440.415987 116.461831 
L 468.609671 116.927893 
L 496.803355 117.146611 
L 553.190724 117.283157 
L 600.053564 117.300025 
L 600.053564 117.300025 
" style="fill:none;stroke:#000000;stroke-dasharray:9.6,2.4,1.5,2.4;stroke-dashoffset:0;stroke-width:1.5;"/>
   </g>
   <g id="line2d_100">
    <path clip-path="url(#pdbebaef17e)" d="M 205.468618 76.071804 
L 207.272255 84.071934 
L 209.075891 90.796415 
L 210.879528 96.432157 
L 212.683164 101.139879 
L 214.4868 105.057689 
L 216.290437 108.304173 
L 218.094073 110.981076 
L 219.897709 113.175623 
L 221.701346 114.962516 
L 223.504982 116.405675 
L 225.308618 117.55973 
L 227.112255 118.471323 
L 228.915891 119.180221 
L 230.719528 119.720282 
L 232.523164 120.120295 
L 234.3268 120.404694 
L 236.130437 120.594179 
L 237.934073 120.706254 
L 239.737709 120.755686 
L 241.541346 120.754903 
L 243.344982 120.714334 
L 245.148618 120.642705 
L 246.952255 120.547291 
L 248.755891 120.43413 
L 250.559528 120.308216 
L 252.363164 120.173652 
L 254.1668 120.033789 
L 255.970437 119.891346 
L 257.774073 119.748507 
L 259.577709 119.607006 
L 261.381346 119.468203 
L 263.184982 119.333145 
L 264.988618 119.202616 
L 266.792255 119.077188 
L 268.595891 118.957254 
L 270.399528 118.84306 
L 272.203164 118.734738 
L 274.0068 118.632321 
L 275.810437 118.53577 
L 277.614073 118.444985 
L 279.417709 118.35982 
L 281.221346 118.280093 
L 283.024982 118.205599 
L 284.828618 118.136114 
L 286.632255 118.071403 
L 288.435891 118.011223 
L 290.239528 117.95533 
L 292.043164 117.903483 
L 293.8468 117.85544 
L 295.650437 117.810969 
L 297.454073 117.769843 
L 299.257709 117.731844 
L 301.061346 117.696762 
L 302.864982 117.664398 
L 304.668618 117.634563 
L 306.472255 117.607076 
L 308.275891 117.58177 
L 310.079528 117.558483 
L 311.883164 117.537067 
L 313.6868 117.517381 
L 315.490437 117.499293 
L 317.294073 117.482682 
L 319.097709 117.467433 
L 320.901346 117.45344 
L 322.704982 117.440604 
L 324.508618 117.428834 
L 326.312255 117.418045 
L 328.115891 117.408157 
L 329.919528 117.399099 
L 331.723164 117.390803 
L 333.5268 117.383206 
L 335.330437 117.376253 
L 337.134073 117.369888 
L 338.937709 117.364065 
L 340.741346 117.358738 
L 342.544982 117.353865 
L 344.348618 117.34941 
L 346.152255 117.345336 
L 347.955891 117.341611 
L 349.759528 117.338208 
L 351.563164 117.335097 
L 353.3668 117.332255 
L 355.170437 117.329658 
L 356.974073 117.327286 
L 358.777709 117.325119 
L 360.581346 117.32314 
L 362.384982 117.321333 
L 364.188618 117.319683 
L 365.992255 117.318177 
L 367.795891 117.316801 
L 369.599528 117.315546 
L 371.403164 117.3144 
L 373.2068 117.313355 
L 375.010437 117.3124 
L 376.814073 117.31153 
L 378.617709 117.310735 
L 380.421346 117.31001 
L 382.224982 117.309349 
L 384.028618 117.308745 
" style="fill:none;stroke:#d2691e;stroke-linecap:round;stroke-width:1.5;"/>
   </g>
   <g id="line2d_101">
    <path clip-path="url(#pdbebaef17e)" d="M 205.468618 130.982175 
L 207.272255 130.992686 
L 209.075891 130.807384 
L 210.879528 130.487254 
L 212.683164 130.076555 
L 214.4868 129.607267 
L 216.290437 129.102383 
L 218.094073 128.578359 
L 219.897709 128.046908 
L 221.701346 127.516321 
L 223.504982 126.992427 
L 225.308618 126.479293 
L 227.112255 125.979726 
L 228.915891 125.495632 
L 230.719528 125.028276 
L 232.523164 124.57846 
L 234.3268 124.146654 
L 236.130437 123.733085 
L 237.934073 123.337799 
L 239.737709 122.960704 
L 241.541346 122.601606 
L 243.344982 122.260226 
L 245.148618 121.936217 
L 246.952255 121.629179 
L 248.755891 121.338667 
L 250.559528 121.064197 
L 252.363164 120.805258 
L 254.1668 120.561313 
L 255.970437 120.331804 
L 257.774073 120.116162 
L 259.577709 119.913809 
L 261.381346 119.72416 
L 263.184982 119.54663 
L 264.988618 119.380636 
L 266.792255 119.225602 
L 268.595891 119.08096 
L 270.399528 118.946152 
L 272.203164 118.820634 
L 274.0068 118.703878 
L 275.810437 118.595372 
L 277.614073 118.49462 
L 279.417709 118.401149 
L 281.221346 118.314502 
L 283.024982 118.234242 
L 284.828618 118.159955 
L 286.632255 118.091243 
L 288.435891 118.027733 
L 290.239528 117.969067 
L 292.043164 117.914911 
L 293.8468 117.864947 
L 295.650437 117.818877 
L 297.454073 117.77642 
L 299.257709 117.737314 
L 301.061346 117.701311 
L 302.864982 117.668181 
L 304.668618 117.637708 
L 306.472255 117.609691 
L 308.275891 117.583943 
L 310.079528 117.56029 
L 311.883164 117.538569 
L 313.6868 117.518629 
L 315.490437 117.500331 
L 317.294073 117.483544 
L 319.097709 117.46815 
L 320.901346 117.454036 
L 322.704982 117.441099 
L 324.508618 117.429245 
L 326.312255 117.418386 
L 328.115891 117.408441 
L 329.919528 117.399335 
L 331.723164 117.390999 
L 333.5268 117.383369 
L 335.330437 117.376388 
L 337.134073 117.370001 
L 338.937709 117.364158 
L 340.741346 117.358815 
L 342.544982 117.35393 
L 344.348618 117.349463 
L 346.152255 117.34538 
L 347.955891 117.341648 
L 349.759528 117.338238 
L 351.563164 117.335122 
L 353.3668 117.332276 
L 355.170437 117.329675 
L 356.974073 117.3273 
L 358.777709 117.325131 
L 360.581346 117.32315 
L 362.384982 117.321341 
L 364.188618 117.31969 
L 365.992255 117.318182 
L 367.795891 117.316806 
L 369.599528 117.31555 
L 371.403164 117.314404 
L 373.2068 117.313357 
L 375.010437 117.312403 
L 376.814073 117.311532 
L 378.617709 117.310737 
L 380.421346 117.310011 
L 382.224982 117.30935 
L 384.028618 117.308746 
" style="fill:none;stroke:#6b8e23;stroke-linecap:round;stroke-width:1.5;"/>
   </g>
   <g id="line2d_102">
    <path clip-path="url(#pdbebaef17e)" d="M 205.468618 137.866363 
L 207.272255 136.865436 
L 209.075891 135.886167 
L 210.879528 134.930991 
L 212.683164 134.001975 
L 214.4868 133.100839 
L 216.290437 132.22898 
L 218.094073 131.387492 
L 219.897709 130.577196 
L 221.701346 129.798655 
L 223.504982 129.0522 
L 225.308618 128.33795 
L 227.112255 127.655837 
L 228.915891 127.00562 
L 230.719528 126.38691 
L 232.523164 125.799185 
L 234.3268 125.24181 
L 236.130437 124.714052 
L 237.934073 124.215097 
L 239.737709 123.744061 
L 241.541346 123.30001 
L 243.344982 122.881963 
L 245.148618 122.488911 
L 246.952255 122.119825 
L 248.755891 121.773661 
L 250.559528 121.449376 
L 252.363164 121.145926 
L 254.1668 120.86228 
L 255.970437 120.59742 
L 257.774073 120.350351 
L 259.577709 120.1201 
L 261.381346 119.905719 
L 263.184982 119.706294 
L 264.988618 119.52094 
L 266.792255 119.348807 
L 268.595891 119.189078 
L 270.399528 119.040973 
L 272.203164 118.903745 
L 274.0068 118.776687 
L 275.810437 118.659124 
L 277.614073 118.550417 
L 279.417709 118.449961 
L 281.221346 118.357187 
L 283.024982 118.271556 
L 284.828618 118.192561 
L 286.632255 118.119727 
L 288.435891 118.052608 
L 290.239528 117.990785 
L 292.043164 117.933867 
L 293.8468 117.881489 
L 295.650437 117.833308 
L 297.454073 117.789008 
L 299.257709 117.748291 
L 301.061346 117.710882 
L 302.864982 117.676525 
L 304.668618 117.644981 
L 306.472255 117.61603 
L 308.275891 117.589467 
L 310.079528 117.565103 
L 311.883164 117.542761 
L 313.6868 117.522281 
L 315.490437 117.503512 
L 317.294073 117.486315 
L 319.097709 117.470562 
L 320.901346 117.456137 
L 322.704982 117.442929 
L 324.508618 117.430838 
L 326.312255 117.419773 
L 328.115891 117.409648 
L 329.919528 117.400386 
L 331.723164 117.391913 
L 333.5268 117.384165 
L 335.330437 117.377081 
L 337.134073 117.370604 
L 338.937709 117.364683 
L 340.741346 117.359272 
L 342.544982 117.354327 
L 344.348618 117.349809 
L 346.152255 117.345681 
L 347.955891 117.34191 
L 349.759528 117.338466 
L 351.563164 117.335321 
L 353.3668 117.332448 
L 355.170437 117.329825 
L 356.974073 117.327431 
L 358.777709 117.325245 
L 360.581346 117.323249 
L 362.384982 117.321427 
L 364.188618 117.319765 
L 365.992255 117.318248 
L 367.795891 117.316863 
L 369.599528 117.315599 
L 371.403164 117.314447 
L 373.2068 117.313395 
L 375.010437 117.312435 
L 376.814073 117.31156 
L 378.617709 117.310761 
L 380.421346 117.310033 
L 382.224982 117.309368 
L 384.028618 117.308762 
" style="fill:none;stroke:#000000;stroke-linecap:round;stroke-width:1.5;"/>
   </g>
   <g id="line2d_103">
    <path clip-path="url(#pdbebaef17e)" d="M 268.499578 117.3025 
" style="fill:none;"/>
    <defs>
     <path d="M 0 3 
C 0.795609 3 1.55874 2.683901 2.12132 2.12132 
C 2.683901 1.55874 3 0.795609 3 0 
C 3 -0.795609 2.683901 -1.55874 2.12132 -2.12132 
C 1.55874 -2.683901 0.795609 -3 0 -3 
C -0.795609 -3 -1.55874 -2.683901 -2.12132 -2.12132 
C -2.683901 -1.55874 -3 -0.795609 -3 0 
C -3 0.795609 -2.683901 1.55874 -2.12132 2.12132 
C -1.55874 2.683901 -0.795609 3 0 3 
z
" id="mc8a5f318dd" style="stroke:#ffffff;"/>
    </defs>
    <g clip-path="url(#pdbebaef17e)">
     <use style="stroke:#ffffff;" x="268.499578" xlink:href="#mc8a5f318dd" y="117.3025"/>
    </g>
   </g>
   <g id="line2d_104">
    <path clip-path="url(#pdbebaef17e)" d="M 224.869089 117.3025 
" style="fill:none;"/>
    <defs>
     <path d="M 0 3 
C 0.795609 3 1.55874 2.683901 2.12132 2.12132 
C 2.683901 1.55874 3 0.795609 3 0 
C 3 -0.795609 2.683901 -1.55874 2.12132 -2.12132 
C 1.55874 -2.683901 0.795609 -3 0 -3 
C -0.795609 -3 -1.55874 -2.683901 -2.12132 -2.12132 
C -2.683901 -1.55874 -3 -0.795609 -3 0 
C -3 0.795609 -2.683901 1.55874 -2.12132 2.12132 
C -1.55874 2.683901 -0.795609 3 0 3 
z
" id="mc49e945a4c" style="stroke:#ffffff;"/>
    </defs>
    <g clip-path="url(#pdbebaef17e)">
     <use style="fill:#d2691e;stroke:#ffffff;" x="224.869089" xlink:href="#mc49e945a4c" y="117.3025"/>
    </g>
   </g>
   <g id="line2d_105">
    <path clip-path="url(#pdbebaef17e)" d="M 194.018853 117.3025 
" style="fill:none;"/>
    <defs>
     <path d="M 0 3 
C 0.795609 3 1.55874 2.683901 2.12132 2.12132 
C 2.683901 1.55874 3 0.795609 3 0 
C 3 -0.795609 2.683901 -1.55874 2.12132 -2.12132 
C 1.55874 -2.683901 0.795609 -3 0 -3 
C -0.795609 -3 -1.55874 -2.683901 -2.12132 -2.12132 
C -2.683901 -1.55874 -3 -0.795609 -3 0 
C -3 0.795609 -2.683901 1.55874 -2.12132 2.12132 
C -1.55874 2.683901 -0.795609 3 0 3 
z
" id="mc031b577e1" style="stroke:#ffffff;"/>
    </defs>
    <g clip-path="url(#pdbebaef17e)">
     <use style="fill:#6b8e23;stroke:#ffffff;" x="194.018853" xlink:href="#mc031b577e1" y="117.3025"/>
    </g>
   </g>
   <g id="patch_14">
    <path d="M 205.468618 183.8305 
L 205.468618 50.7745 
" style="fill:none;stroke:#262626;stroke-linecap:square;stroke-linejoin:miter;stroke-width:0.8;"/>
   </g>
   <g id="patch_15">
    <path d="M 384.028618 183.8305 
L 384.028618 50.7745 
" style="fill:none;stroke:#262626;stroke-linecap:square;stroke-linejoin:miter;stroke-width:0.8;"/>
   </g>
   <g id="patch_16">
    <path d="M 205.468618 183.8305 
L 384.028618 183.8305 
" style="fill:none;stroke:#262626;stroke-linecap:square;stroke-linejoin:miter;stroke-width:0.8;"/>
   </g>
   <g id="patch_17">
    <path d="M 205.468618 50.7745 
L 384.028618 50.7745 
" style="fill:none;stroke:#262626;stroke-linecap:square;stroke-linejoin:miter;stroke-width:0.8;"/>
   </g>
   <g id="text_20">
    <!-- $\hat{\eta}$ -->
    <g style="fill:#262626;" transform="translate(272.963578 112.038921)scale(0.1 -0.1)">
     <use transform="translate(8.426105 0.006461)scale(0.996264)" xlink:href="#CMR17-5e"/>
     <use transform="scale(0.996264)" xlink:href="#CMMI12-11"/>
    </g>
   </g>
   <g id="text_21">
    <!-- $\hat{\eta}_1$ -->
    <g style="fill:#262626;" transform="translate(229.333089 112.038921)scale(0.1 -0.1)">
     <use transform="translate(8.426105 0.006461)scale(0.996264)" xlink:href="#CMR17-5e"/>
     <use transform="scale(0.996264)" xlink:href="#CMMI12-11"/>
     <use transform="translate(48.129223 -14.943915)scale(0.697382)" xlink:href="#CMR17-31"/>
    </g>
   </g>
   <g id="text_22">
    <!-- $\hat{\eta}_2$ -->
    <g style="fill:#262626;" transform="translate(198.482853 112.038921)scale(0.1 -0.1)">
     <use transform="translate(8.426105 0.006461)scale(0.996264)" xlink:href="#CMR17-5e"/>
     <use transform="scale(0.996264)" xlink:href="#CMMI12-11"/>
     <use transform="translate(48.129223 -14.943915)scale(0.697382)" xlink:href="#CMR17-32"/>
    </g>
   </g>
   <g id="legend_1">
    <g id="line2d_106">
     <path d="M 427.237618 55.86476 
L 443.897618 55.86476 
" style="fill:none;stroke:#000000;stroke-dasharray:5.55,2.4;stroke-dashoffset:0;stroke-width:1.5;"/>
    </g>
    <g id="line2d_107"/>
    <g id="text_23">
     <!-- Upper bound -->
     <g style="fill:#262626;" transform="translate(450.561618 58.78026)scale(0.0833 -0.0833)">
      <defs>
       <path d="M 3456 1433 
C 3456 579 2899 38 2291 38 
C 1965 38 1670 210 1491 477 
C 1286 783 1261 1178 1261 1401 
L 1261 3874 
C 1261 4160 1331 4160 1773 4160 
L 1773 4320 
C 1587 4320 1248 4320 1050 4320 
C 851 4320 512 4320 326 4320 
L 326 4160 
C 768 4160 838 4160 838 3874 
L 838 1433 
C 838 516 1536 -128 2278 -128 
C 3110 -128 3590 719 3590 1344 
L 3590 3766 
C 3590 4122 3917 4160 4102 4160 
L 4102 4326 
C 3955 4320 3686 4320 3526 4320 
C 3366 4320 3091 4320 2944 4326 
L 2944 4160 
C 3456 4160 3456 3861 3456 3702 
L 3456 1433 
z
" id="CMR17-55" transform="scale(0.015625)"/>
       <path d="M 1408 -1063 
C 998 -1063 973 -1037 973 -789 
L 973 402 
C 1158 134 1427 -38 1766 -38 
C 2406 -38 3053 523 3053 1388 
C 3053 2191 2496 2802 1837 2802 
C 1453 2802 1139 2592 960 2338 
L 960 2802 
L 198 2732 
L 198 2567 
C 576 2567 634 2528 634 2223 
L 634 -789 
C 634 -1031 608 -1063 198 -1063 
L 198 -1228 
C 352 -1216 634 -1216 800 -1216 
C 966 -1216 1254 -1216 1408 -1228 
L 1408 -1063 
z
M 973 2012 
C 973 2102 973 2235 1222 2471 
C 1254 2497 1472 2688 1792 2688 
C 2259 2688 2643 2108 2643 1382 
C 2643 656 2234 64 1728 64 
C 1498 64 1248 172 1056 472 
C 973 612 973 650 973 752 
L 973 2012 
z
" id="CMR17-70" transform="scale(0.015625)"/>
       <path d="M 960 4396 
L 198 4326 
L 198 4160 
C 576 4160 634 4122 634 3817 
L 634 -13 
L 749 -13 
L 934 441 
C 1120 141 1395 -64 1766 -64 
C 2406 -64 3053 500 3053 1370 
C 3053 2188 2477 2790 1830 2790 
C 1434 2790 1152 2579 960 2330 
L 960 4396 
z
M 973 2004 
C 973 2118 973 2138 1062 2272 
C 1312 2657 1670 2688 1792 2688 
C 1984 2688 2643 2585 2643 1376 
C 2643 108 1888 38 1734 38 
C 1536 38 1248 114 1043 486 
C 973 608 973 621 973 735 
L 973 2004 
z
" id="CMR17-62" transform="scale(0.015625)"/>
      </defs>
      <use transform="scale(0.996264)" xlink:href="#CMR17-55"/>
      <use transform="translate(69.07243 0)scale(0.996264)" xlink:href="#CMR17-70"/>
      <use transform="translate(119.9678 0)scale(0.996264)" xlink:href="#CMR17-70"/>
      <use transform="translate(173.465608 0)scale(0.996264)" xlink:href="#CMR17-65"/>
      <use transform="translate(213.951269 0)scale(0.996264)" xlink:href="#CMR17-72"/>
      <use transform="translate(279.308003 0)scale(0.996264)" xlink:href="#CMR17-62"/>
      <use transform="translate(332.805811 0)scale(0.996264)" xlink:href="#CMR17-6f"/>
      <use transform="translate(378.496288 0)scale(0.996264)" xlink:href="#CMR17-75"/>
      <use transform="translate(429.391658 0)scale(0.996264)" xlink:href="#CMR17-6e"/>
      <use transform="translate(480.287028 0)scale(0.996264)" xlink:href="#CMR17-64"/>
     </g>
    </g>
    <g id="line2d_108">
     <path d="M 427.237618 67.474429 
L 443.897618 67.474429 
" style="fill:none;stroke:#000000;stroke-dasharray:9.6,2.4,1.5,2.4;stroke-dashoffset:0;stroke-width:1.5;"/>
    </g>
    <g id="line2d_109"/>
    <g id="text_24">
     <!-- Lower bound -->
     <g style="fill:#262626;" transform="translate(450.561618 70.389929)scale(0.0833 -0.0833)">
      <defs>
       <path d="M 3725 2183 
C 3853 2560 4109 2560 4205 2560 
L 4205 2732 
C 4077 2732 3949 2732 3821 2732 
C 3699 2732 3424 2732 3315 2738 
L 3315 2560 
C 3514 2560 3622 2445 3622 2286 
C 3622 2241 3610 2184 3597 2140 
L 2995 407 
L 2342 2275 
C 2330 2319 2310 2370 2310 2395 
C 2310 2560 2528 2560 2630 2560 
L 2630 2738 
C 2483 2732 2214 2732 2061 2732 
C 1901 2732 1734 2732 1587 2738 
L 1587 2560 
C 1939 2560 1939 2547 2074 2149 
L 1485 451 
L 851 2281 
C 819 2363 819 2376 819 2395 
C 819 2560 1037 2560 1139 2560 
L 1139 2738 
C 986 2732 717 2732 557 2732 
C 416 2732 198 2732 64 2738 
L 64 2560 
C 346 2560 416 2541 486 2331 
L 1274 49 
C 1299 -33 1318 -52 1370 -52 
C 1414 -52 1440 -39 1472 56 
L 2131 1980 
L 2797 56 
C 2829 -39 2854 -52 2899 -52 
C 2950 -52 2970 -33 2995 50 
L 3725 2183 
z
" id="CMR17-77" transform="scale(0.015625)"/>
      </defs>
      <use transform="scale(0.996264)" xlink:href="#CMR17-4c"/>
      <use transform="translate(57.381408 0)scale(0.996264)" xlink:href="#CMR17-6f"/>
      <use transform="translate(100.469431 0)scale(0.996264)" xlink:href="#CMR17-77"/>
      <use transform="translate(164.376858 0)scale(0.996264)" xlink:href="#CMR17-65"/>
      <use transform="translate(204.862518 0)scale(0.996264)" xlink:href="#CMR17-72"/>
      <use transform="translate(270.219252 0)scale(0.996264)" xlink:href="#CMR17-62"/>
      <use transform="translate(323.717061 0)scale(0.996264)" xlink:href="#CMR17-6f"/>
      <use transform="translate(369.407538 0)scale(0.996264)" xlink:href="#CMR17-75"/>
      <use transform="translate(420.302908 0)scale(0.996264)" xlink:href="#CMR17-6e"/>
      <use transform="translate(471.198277 0)scale(0.996264)" xlink:href="#CMR17-64"/>
     </g>
    </g>
    <g id="line2d_110">
     <path d="M 427.237618 79.084098 
L 443.897618 79.084098 
" style="fill:none;stroke:#000000;stroke-linecap:round;stroke-width:1.5;"/>
    </g>
    <g id="line2d_111"/>
    <g id="text_25">
     <!-- Exact -->
     <g style="fill:#262626;" transform="translate(450.561618 81.999598)scale(0.0833 -0.0833)">
      <defs>
       <path d="M 3885 1615 
L 3770 1615 
C 3629 676 3546 166 2419 166 
L 1530 166 
C 1274 166 1261 197 1261 414 
L 1261 2176 
L 1862 2176 
C 2464 2176 2522 1960 2522 1430 
L 2637 1430 
L 2637 3081 
L 2522 3081 
C 2522 2557 2464 2342 1862 2342 
L 1261 2342 
L 1261 3913 
C 1261 4128 1274 4160 1530 4160 
L 2406 4160 
C 3398 4160 3514 3769 3603 2929 
L 3718 2929 
L 3565 4325 
L 326 4325 
L 326 4160 
C 768 4160 838 4160 838 3874 
L 838 451 
C 838 166 768 166 326 166 
L 326 0 
L 3654 0 
L 3885 1615 
z
" id="CMR17-45" transform="scale(0.015625)"/>
       <path d="M 1664 1477 
C 1856 1726 2074 2006 2253 2216 
C 2464 2458 2707 2560 2989 2560 
L 2989 2726 
C 2880 2726 2656 2726 2541 2726 
C 2368 2726 2170 2726 2022 2732 
L 2022 2566 
C 2112 2553 2163 2489 2163 2400 
C 2163 2285 2099 2215 2067 2171 
L 1594 1573 
L 1030 2306 
C 973 2376 973 2388 973 2420 
C 973 2497 1037 2560 1146 2560 
L 1146 2732 
C 992 2726 717 2726 557 2726 
C 384 2726 179 2726 38 2732 
L 38 2560 
C 384 2560 461 2534 614 2343 
L 1350 1395 
C 1363 1382 1395 1344 1395 1325 
C 1395 1299 838 619 768 530 
C 480 185 179 160 6 160 
L 6 0 
C 115 0 339 0 454 0 
C 582 0 864 0 979 -6 
L 979 160 
C 941 166 838 179 838 325 
C 838 440 890 510 947 586 
L 1478 1236 
L 2035 512 
C 2086 442 2163 346 2163 301 
C 2163 211 2086 160 1984 160 
L 1984 -6 
C 2138 0 2413 0 2573 0 
C 2746 0 2950 0 3091 -6 
L 3091 160 
C 2771 160 2675 172 2522 370 
L 1664 1477 
z
" id="CMR17-78" transform="scale(0.015625)"/>
      </defs>
      <use transform="scale(0.996264)" xlink:href="#CMR17-45"/>
      <use transform="translate(62.586301 0)scale(0.996264)" xlink:href="#CMR17-78"/>
      <use transform="translate(110.879216 0)scale(0.996264)" xlink:href="#CMR17-61"/>
      <use transform="translate(156.569693 0)scale(0.996264)" xlink:href="#CMR17-63"/>
      <use transform="translate(197.055354 0)scale(0.996264)" xlink:href="#CMR17-74"/>
     </g>
    </g>
    <g id="line2d_112">
     <path d="M 427.237618 91.364676 
L 443.897618 91.364676 
" style="fill:none;stroke:#d2691e;stroke-linecap:round;stroke-width:1.5;"/>
    </g>
    <g id="line2d_113"/>
    <g id="text_26">
     <!-- $1^{\text{st}}$ order asymptote -->
     <g style="fill:#262626;" transform="translate(450.561618 94.280176)scale(0.0833 -0.0833)">
      <defs>
       <path d="M 1978 2697 
C 1978 2813 1971 2819 1933 2819 
C 1907 2819 1901 2813 1824 2717 
C 1805 2691 1747 2626 1728 2601 
C 1523 2819 1235 2819 1126 2819 
C 416 2819 160 2447 160 2076 
C 160 1498 813 1365 998 1325 
C 1402 1243 1542 1217 1677 1101 
C 1760 1025 1901 884 1901 654 
C 1901 384 1747 38 1158 38 
C 602 38 403 460 288 1021 
C 269 1110 269 1117 218 1117 
C 166 1117 160 1110 160 983 
L 160 63 
C 160 -51 166 -58 205 -58 
C 237 -58 243 -51 275 0 
C 314 57 410 211 448 276 
C 576 103 800 -64 1158 -64 
C 1792 -64 2131 283 2131 784 
C 2131 1112 1958 1285 1875 1362 
C 1683 1561 1459 1606 1190 1657 
C 838 1735 390 1825 390 2217 
C 390 2383 480 2737 1126 2737 
C 1811 2737 1850 2094 1862 1888 
C 1869 1856 1901 1849 1920 1849 
C 1978 1849 1978 1869 1978 1978 
L 1978 2697 
z
" id="CMR17-73" transform="scale(0.015625)"/>
       <path d="M 2496 2197 
C 2656 2586 2944 2586 3034 2586 
L 3034 2752 
C 2912 2752 2752 2752 2630 2752 
C 2496 2752 2285 2752 2157 2758 
L 2157 2592 
C 2400 2573 2406 2394 2406 2343 
C 2406 2280 2394 2248 2362 2171 
L 1664 449 
L 902 2306 
C 870 2382 870 2426 870 2433 
C 870 2573 1018 2586 1171 2586 
L 1171 2758 
C 1018 2752 742 2752 582 2752 
C 410 2752 205 2752 64 2758 
L 64 2586 
C 410 2586 448 2554 531 2350 
L 1485 15 
C 1197 -738 1030 -1178 627 -1178 
C 557 -1178 397 -1159 282 -1044 
C 429 -1031 493 -942 493 -833 
C 493 -725 416 -629 288 -629 
C 147 -629 77 -725 77 -840 
C 77 -1095 339 -1280 627 -1280 
C 998 -1280 1229 -922 1357 -604 
L 2496 2197 
z
" id="CMR17-79" transform="scale(0.015625)"/>
       <path d="M 4326 1933 
C 4326 2252 4269 2790 3507 2790 
C 3072 2790 2771 2496 2656 2151 
L 2650 2151 
C 2573 2676 2195 2790 1837 2790 
C 1331 2790 1069 2400 973 2144 
L 966 2144 
L 966 2790 
L 211 2720 
L 211 2554 
C 589 2554 646 2515 646 2208 
L 646 428 
C 646 184 621 153 211 153 
L 211 -13 
C 365 0 646 0 813 0 
C 979 0 1267 0 1421 -13 
L 1421 153 
C 1011 153 986 178 986 428 
L 986 1658 
C 986 2247 1344 2688 1792 2688 
C 2266 2688 2317 2266 2317 1958 
L 2317 428 
C 2317 184 2291 153 1882 153 
L 1882 -13 
C 2035 0 2317 0 2483 0 
C 2650 0 2938 0 3091 -13 
L 3091 153 
C 2682 153 2656 178 2656 428 
L 2656 1658 
C 2656 2247 3014 2688 3462 2688 
C 3936 2688 3987 2266 3987 1958 
L 3987 428 
C 3987 184 3962 153 3552 153 
L 3552 -13 
C 3706 0 3987 0 4154 0 
C 4320 0 4608 0 4762 -13 
L 4762 153 
C 4352 153 4326 178 4326 428 
L 4326 1933 
z
" id="CMR17-6d" transform="scale(0.015625)"/>
      </defs>
      <use transform="scale(0.996264)" xlink:href="#CMR17-31"/>
      <use transform="translate(45.690477 36.153639)scale(0.697382)" xlink:href="#CMR17-73"/>
      <use transform="translate(70.751299 36.153639)scale(0.697382)" xlink:href="#CMR17-74"/>
      <use transform="translate(126.021818 0)scale(0.996264)" xlink:href="#CMR17-6f"/>
      <use transform="translate(171.712295 0)scale(0.996264)" xlink:href="#CMR17-72"/>
      <use transform="translate(206.993063 0)scale(0.996264)" xlink:href="#CMR17-64"/>
      <use transform="translate(257.888433 0)scale(0.996264)" xlink:href="#CMR17-65"/>
      <use transform="translate(298.374093 0)scale(0.996264)" xlink:href="#CMR17-72"/>
      <use transform="translate(363.730828 0)scale(0.996264)" xlink:href="#CMR17-61"/>
      <use transform="translate(409.421305 0)scale(0.996264)" xlink:href="#CMR17-73"/>
      <use transform="translate(445.222642 0)scale(0.996264)" xlink:href="#CMR17-79"/>
      <use transform="translate(493.515558 0)scale(0.996264)" xlink:href="#CMR17-6d"/>
      <use transform="translate(570.435148 0)scale(0.996264)" xlink:href="#CMR17-70"/>
      <use transform="translate(621.330518 0)scale(0.996264)" xlink:href="#CMR17-74"/>
      <use transform="translate(656.611286 0)scale(0.996264)" xlink:href="#CMR17-6f"/>
      <use transform="translate(702.301763 0)scale(0.996264)" xlink:href="#CMR17-74"/>
      <use transform="translate(737.58253 0)scale(0.996264)" xlink:href="#CMR17-65"/>
     </g>
    </g>
    <g id="line2d_114">
     <path d="M 427.237618 104.106309 
L 443.897618 104.106309 
" style="fill:none;stroke:#6b8e23;stroke-linecap:round;stroke-width:1.5;"/>
    </g>
    <g id="line2d_115"/>
    <g id="text_27">
     <!-- $2^{\text{nd}}$ order asymptote -->
     <g style="fill:#262626;" transform="translate(450.561618 107.021809)scale(0.0833 -0.0833)">
      <use transform="scale(0.996264)" xlink:href="#CMR17-32"/>
      <use transform="translate(45.690477 36.153639)scale(0.697382)" xlink:href="#CMR17-6e"/>
      <use transform="translate(81.317085 36.153639)scale(0.697382)" xlink:href="#CMR17-64"/>
      <use transform="translate(147.517792 0)scale(0.996264)" xlink:href="#CMR17-6f"/>
      <use transform="translate(193.208269 0)scale(0.996264)" xlink:href="#CMR17-72"/>
      <use transform="translate(228.489037 0)scale(0.996264)" xlink:href="#CMR17-64"/>
      <use transform="translate(279.384407 0)scale(0.996264)" xlink:href="#CMR17-65"/>
      <use transform="translate(319.870067 0)scale(0.996264)" xlink:href="#CMR17-72"/>
      <use transform="translate(385.226801 0)scale(0.996264)" xlink:href="#CMR17-61"/>
      <use transform="translate(430.917279 0)scale(0.996264)" xlink:href="#CMR17-73"/>
      <use transform="translate(466.718616 0)scale(0.996264)" xlink:href="#CMR17-79"/>
      <use transform="translate(515.011532 0)scale(0.996264)" xlink:href="#CMR17-6d"/>
      <use transform="translate(591.931122 0)scale(0.996264)" xlink:href="#CMR17-70"/>
      <use transform="translate(642.826492 0)scale(0.996264)" xlink:href="#CMR17-74"/>
      <use transform="translate(678.10726 0)scale(0.996264)" xlink:href="#CMR17-6f"/>
      <use transform="translate(723.797737 0)scale(0.996264)" xlink:href="#CMR17-74"/>
      <use transform="translate(759.078504 0)scale(0.996264)" xlink:href="#CMR17-65"/>
     </g>
    </g>
    <g id="line2d_116">
     <path d="M 427.237618 116.686605 
L 443.897618 116.686605 
" style="fill:none;"/>
    </g>
    <g id="line2d_117">
     <g>
      <use style="stroke:#ffffff;" x="435.567618" xlink:href="#mc8a5f318dd" y="116.686605"/>
     </g>
    </g>
    <g id="text_28">
     <!-- Exact root at $\hat{\eta}_{\phantom{2}} = 10^{-1.29}$ -->
     <g style="fill:#262626;" transform="translate(450.561618 119.602105)scale(0.0833 -0.0833)">
      <defs>
       <path d="M 4115 2017 
C 4211 2017 4307 2017 4307 2125 
C 4307 2240 4198 2240 4090 2240 
L 512 2240 
C 403 2240 294 2240 294 2125 
C 294 2017 390 2017 486 2017 
L 4115 2017 
z
M 4090 896 
C 4198 896 4307 896 4307 1011 
C 4307 1119 4211 1119 4115 1119 
L 486 1119 
C 390 1119 294 1119 294 1011 
C 294 896 403 896 512 896 
L 4090 896 
z
" id="CMR17-3d" transform="scale(0.015625)"/>
       <path d="M 1178 307 
C 1178 492 1024 619 870 619 
C 685 619 557 466 557 313 
C 557 128 710 0 864 0 
C 1050 0 1178 153 1178 307 
z
" id="CMMI12-3a" transform="scale(0.015625)"/>
       <path d="M 2253 1864 
C 2253 464 1670 31 1190 31 
C 1043 31 685 31 538 294 
C 704 268 826 357 826 518 
C 826 692 685 749 595 749 
C 538 749 365 723 365 506 
C 365 71 742 -128 1203 -128 
C 1939 -128 2688 674 2688 2073 
C 2688 3817 1971 4179 1485 4179 
C 851 4179 243 3628 243 2778 
C 243 1991 762 1408 1414 1408 
C 1952 1408 2189 1903 2253 2112 
L 2253 1864 
z
M 1427 1510 
C 1254 1510 1011 1542 813 1922 
C 678 2169 678 2461 678 2771 
C 678 3146 678 3405 858 3684 
C 947 3817 1114 4032 1485 4032 
C 2240 4032 2240 2885 2240 2632 
C 2240 2182 2035 1510 1427 1510 
z
" id="CMR17-39" transform="scale(0.015625)"/>
      </defs>
      <use transform="scale(0.996264)" xlink:href="#CMR17-45"/>
      <use transform="translate(62.586301 0)scale(0.996264)" xlink:href="#CMR17-78"/>
      <use transform="translate(110.879216 0)scale(0.996264)" xlink:href="#CMR17-61"/>
      <use transform="translate(156.569693 0)scale(0.996264)" xlink:href="#CMR17-63"/>
      <use transform="translate(197.055354 0)scale(0.996264)" xlink:href="#CMR17-74"/>
      <use transform="translate(262.412088 0)scale(0.996264)" xlink:href="#CMR17-72"/>
      <use transform="translate(297.692856 0)scale(0.996264)" xlink:href="#CMR17-6f"/>
      <use transform="translate(345.985772 0)scale(0.996264)" xlink:href="#CMR17-6f"/>
      <use transform="translate(391.676249 0)scale(0.996264)" xlink:href="#CMR17-74"/>
      <use transform="translate(457.032983 0)scale(0.996264)" xlink:href="#CMR17-61"/>
      <use transform="translate(502.72346 0)scale(0.996264)" xlink:href="#CMR17-74"/>
      <use transform="translate(576.506299 0.006461)scale(0.996264)" xlink:href="#CMR17-5e"/>
      <use transform="translate(568.080194 0)scale(0.996264)" xlink:href="#CMMI12-11"/>
      <use transform="translate(676.36474 0)scale(0.996264)" xlink:href="#CMR17-3d"/>
      <use transform="translate(775.753537 0)scale(0.996264)" xlink:href="#CMR17-31"/>
      <use transform="translate(821.444014 0)scale(0.996264)" xlink:href="#CMR17-30"/>
      <use transform="translate(867.134491 36.153639)scale(0.697382)" xlink:href="#CMSY10-0"/>
      <use transform="translate(921.375485 36.153639)scale(0.697382)" xlink:href="#CMR17-31"/>
      <use transform="translate(953.358667 36.153639)scale(0.697382)" xlink:href="#CMMI12-3a"/>
      <use transform="translate(972.326599 36.153639)scale(0.697382)" xlink:href="#CMR17-32"/>
      <use transform="translate(1004.309781 36.153639)scale(0.697382)" xlink:href="#CMR17-39"/>
     </g>
    </g>
    <g id="line2d_118">
     <path d="M 427.237618 129.266901 
L 443.897618 129.266901 
" style="fill:none;"/>
    </g>
    <g id="line2d_119">
     <g>
      <use style="fill:#d2691e;stroke:#ffffff;" x="435.567618" xlink:href="#mc49e945a4c" y="129.266901"/>
     </g>
    </g>
    <g id="text_29">
     <!-- Approximated root at $\hat{\eta}_1 = 10^{-1.78}$ -->
     <g style="fill:#262626;" transform="translate(450.561618 132.182401)scale(0.0833 -0.0833)">
      <defs>
       <path d="M 2323 4378 
C 2291 4461 2278 4480 2214 4480 
C 2150 4480 2138 4461 2106 4378 
L 749 566 
C 627 223 371 153 147 153 
L 147 -13 
C 262 0 518 0 640 0 
C 800 0 1056 0 1210 -13 
L 1210 153 
C 909 153 864 361 864 439 
C 864 497 877 530 890 569 
L 1229 1536 
L 2906 1536 
L 3290 442 
C 3322 365 3322 352 3322 327 
C 3322 153 3046 153 2925 153 
L 2925 0 
C 3110 0 3443 0 3642 0 
C 3808 0 4128 0 4282 -13 
L 4282 153 
C 3942 153 3827 153 3744 387 
L 2323 4378 
z
M 2067 3893 
L 2848 1702 
L 1286 1702 
L 2067 3893 
z
" id="CMR17-41" transform="scale(0.015625)"/>
       <path d="M 1741 2264 
C 2144 2467 2554 2773 2554 3263 
C 2554 3841 1990 4179 1472 4179 
C 890 4179 378 3759 378 3180 
C 378 3021 416 2747 666 2505 
C 730 2442 998 2251 1171 2130 
C 883 1983 211 1634 211 934 
C 211 279 838 -128 1459 -128 
C 2144 -128 2720 362 2720 1010 
C 2720 1590 2330 1857 2074 2029 
L 1741 2264 
z
M 902 2822 
C 851 2854 595 3051 595 3351 
C 595 3739 998 4032 1459 4032 
C 1965 4032 2336 3676 2336 3262 
C 2336 2669 1670 2331 1638 2331 
C 1632 2331 1626 2331 1574 2370 
L 902 2822 
z
M 2080 1519 
C 2176 1449 2483 1240 2483 851 
C 2483 381 2010 25 1472 25 
C 890 25 448 438 448 940 
C 448 1443 838 1862 1280 2060 
L 2080 1519 
z
" id="CMR17-38" transform="scale(0.015625)"/>
      </defs>
      <use transform="scale(0.996264)" xlink:href="#CMR17-41"/>
      <use transform="translate(69.07243 0)scale(0.996264)" xlink:href="#CMR17-70"/>
      <use transform="translate(119.9678 0)scale(0.996264)" xlink:href="#CMR17-70"/>
      <use transform="translate(170.863169 0)scale(0.996264)" xlink:href="#CMR17-72"/>
      <use transform="translate(206.143937 0)scale(0.996264)" xlink:href="#CMR17-6f"/>
      <use transform="translate(249.23196 0)scale(0.996264)" xlink:href="#CMR17-78"/>
      <use transform="translate(297.524876 0)scale(0.996264)" xlink:href="#CMR17-69"/>
      <use transform="translate(322.395935 0)scale(0.996264)" xlink:href="#CMR17-6d"/>
      <use transform="translate(399.315525 0)scale(0.996264)" xlink:href="#CMR17-61"/>
      <use transform="translate(445.006002 0)scale(0.996264)" xlink:href="#CMR17-74"/>
      <use transform="translate(480.286769 0)scale(0.996264)" xlink:href="#CMR17-65"/>
      <use transform="translate(520.77243 0)scale(0.996264)" xlink:href="#CMR17-64"/>
      <use transform="translate(601.743766 0)scale(0.996264)" xlink:href="#CMR17-72"/>
      <use transform="translate(637.024534 0)scale(0.996264)" xlink:href="#CMR17-6f"/>
      <use transform="translate(685.31745 0)scale(0.996264)" xlink:href="#CMR17-6f"/>
      <use transform="translate(731.007927 0)scale(0.996264)" xlink:href="#CMR17-74"/>
      <use transform="translate(796.364661 0)scale(0.996264)" xlink:href="#CMR17-61"/>
      <use transform="translate(842.055138 0)scale(0.996264)" xlink:href="#CMR17-74"/>
      <use transform="translate(915.837977 0.006461)scale(0.996264)" xlink:href="#CMR17-5e"/>
      <use transform="translate(907.411872 0)scale(0.996264)" xlink:href="#CMMI12-11"/>
      <use transform="translate(955.541095 -14.943915)scale(0.697382)" xlink:href="#CMR17-31"/>
      <use transform="translate(1015.696418 0)scale(0.996264)" xlink:href="#CMR17-3d"/>
      <use transform="translate(1115.085215 0)scale(0.996264)" xlink:href="#CMR17-31"/>
      <use transform="translate(1160.775692 0)scale(0.996264)" xlink:href="#CMR17-30"/>
      <use transform="translate(1206.466169 36.153639)scale(0.697382)" xlink:href="#CMSY10-0"/>
      <use transform="translate(1260.707163 36.153639)scale(0.697382)" xlink:href="#CMR17-31"/>
      <use transform="translate(1292.690345 36.153639)scale(0.697382)" xlink:href="#CMMI12-3a"/>
      <use transform="translate(1311.658277 36.153639)scale(0.697382)" xlink:href="#CMR17-37"/>
      <use transform="translate(1343.641459 36.153639)scale(0.697382)" xlink:href="#CMR17-38"/>
     </g>
    </g>
    <g id="line2d_120">
     <path d="M 427.237618 141.847198 
L 443.897618 141.847198 
" style="fill:none;"/>
    </g>
    <g id="line2d_121">
     <g>
      <use style="fill:#6b8e23;stroke:#ffffff;" x="435.567618" xlink:href="#mc031b577e1" y="141.847198"/>
     </g>
    </g>
    <g id="text_30">
     <!-- Approximated root at $\hat{\eta}_2 = 10^{-2.13}$ -->
     <g style="fill:#262626;" transform="translate(450.561618 144.762698)scale(0.0833 -0.0833)">
      <use transform="scale(0.996264)" xlink:href="#CMR17-41"/>
      <use transform="translate(69.07243 0)scale(0.996264)" xlink:href="#CMR17-70"/>
      <use transform="translate(119.9678 0)scale(0.996264)" xlink:href="#CMR17-70"/>
      <use transform="translate(170.863169 0)scale(0.996264)" xlink:href="#CMR17-72"/>
      <use transform="translate(206.143937 0)scale(0.996264)" xlink:href="#CMR17-6f"/>
      <use transform="translate(249.23196 0)scale(0.996264)" xlink:href="#CMR17-78"/>
      <use transform="translate(297.524876 0)scale(0.996264)" xlink:href="#CMR17-69"/>
      <use transform="translate(322.395935 0)scale(0.996264)" xlink:href="#CMR17-6d"/>
      <use transform="translate(399.315525 0)scale(0.996264)" xlink:href="#CMR17-61"/>
      <use transform="translate(445.006002 0)scale(0.996264)" xlink:href="#CMR17-74"/>
      <use transform="translate(480.286769 0)scale(0.996264)" xlink:href="#CMR17-65"/>
      <use transform="translate(520.77243 0)scale(0.996264)" xlink:href="#CMR17-64"/>
      <use transform="translate(601.743766 0)scale(0.996264)" xlink:href="#CMR17-72"/>
      <use transform="translate(637.024534 0)scale(0.996264)" xlink:href="#CMR17-6f"/>
      <use transform="translate(685.31745 0)scale(0.996264)" xlink:href="#CMR17-6f"/>
      <use transform="translate(731.007927 0)scale(0.996264)" xlink:href="#CMR17-74"/>
      <use transform="translate(796.364661 0)scale(0.996264)" xlink:href="#CMR17-61"/>
      <use transform="translate(842.055138 0)scale(0.996264)" xlink:href="#CMR17-74"/>
      <use transform="translate(915.837977 0.006461)scale(0.996264)" xlink:href="#CMR17-5e"/>
      <use transform="translate(907.411872 0)scale(0.996264)" xlink:href="#CMMI12-11"/>
      <use transform="translate(955.541095 -14.943915)scale(0.697382)" xlink:href="#CMR17-32"/>
      <use transform="translate(1015.696418 0)scale(0.996264)" xlink:href="#CMR17-3d"/>
      <use transform="translate(1115.085215 0)scale(0.996264)" xlink:href="#CMR17-31"/>
      <use transform="translate(1160.775692 0)scale(0.996264)" xlink:href="#CMR17-30"/>
      <use transform="translate(1206.466169 36.153639)scale(0.697382)" xlink:href="#CMSY10-0"/>
      <use transform="translate(1260.707163 36.153639)scale(0.697382)" xlink:href="#CMR17-32"/>
      <use transform="translate(1292.690345 36.153639)scale(0.697382)" xlink:href="#CMMI12-3a"/>
      <use transform="translate(1311.658277 36.153639)scale(0.697382)" xlink:href="#CMR17-31"/>
      <use transform="translate(1343.641459 36.153639)scale(0.697382)" xlink:href="#CMR17-33"/>
     </g>
    </g>
   </g>
  </g>
 </g>
 <defs>
  <clipPath id="p493deb6819">
   <rect height="266.112" width="357.12" x="51.907018" y="21.50218"/>
  </clipPath>
  <clipPath id="pdbebaef17e">
   <rect height="133.056" width="178.56" x="205.468618" y="50.7745"/>
  </clipPath>
 </defs>
</svg>
