<?xml version="1.0" encoding="utf-8" standalone="no"?>
<!DOCTYPE svg PUBLIC "-//W3C//DTD SVG 1.1//EN"
  "http://www.w3.org/Graphics/SVG/1.1/DTD/svg11.dtd">
<svg height="316.8pt" version="1.1" viewBox="0 0 600.707772 316.8" width="600.707772pt" xmlns="http://www.w3.org/2000/svg" xmlns:xlink="http://www.w3.org/1999/xlink">
 <metadata>
  <rdf:RDF xmlns:cc="http://creativecommons.org/ns#" xmlns:dc="http://purl.org/dc/elements/1.1/" xmlns:rdf="http://www.w3.org/1999/02/22-rdf-syntax-ns#">
   <cc:Work>
    <dc:type rdf:resource="http://purl.org/dc/dcmitype/StillImage"/>
    <dc:date>2021-10-06T21:34:06.043518</dc:date>
    <dc:format>image/svg+xml</dc:format>
    <dc:creator>
     <cc:Agent>
      <dc:title>Matplotlib v3.4.2, https://matplotlib.org/</dc:title>
     </cc:Agent>
    </dc:creator>
   </cc:Work>
  </rdf:RDF>
 </metadata>
 <defs>
  <style type="text/css">*{stroke-linecap:butt;stroke-linejoin:round;}</style>
 </defs>
 <g id="figure_1">
  <g id="patch_1">
   <path d="M 0 316.8 
L 600.707772 316.8 
L 600.707772 0 
L 0 0 
z
" style="fill:#ffffff;"/>
  </g>
  <g id="axes_1">
   <g id="patch_2">
    <path d="M 51.907018 280.888647 
L 410.633046 280.888647 
L 410.633046 21.50218 
L 51.907018 21.50218 
z
" style="fill:none;"/>
   </g>
   <g id="matplotlib.axis_1">
    <g id="xtick_1">
     <g id="line2d_1">
      <path clip-path="url(#pd90fe8a095)" d="M 51.907018 280.888647 
L 51.907018 21.50218 
" style="fill:none;stroke:#cccccc;stroke-linecap:round;stroke-width:0.8;"/>
     </g>
     <g id="line2d_2">
      <defs>
       <path d="M 0 0 
L 0 3.5 
" id="m26ecb54a45" style="stroke:#262626;stroke-width:0.8;"/>
      </defs>
      <g>
       <use style="fill:#262626;stroke:#262626;stroke-width:0.8;" x="51.907018" xlink:href="#m26ecb54a45" y="280.888647"/>
      </g>
     </g>
     <g id="text_1">
      <!-- $\mathdefault{10^{-3}}$ -->
      <g style="fill:#262626;" transform="translate(41.826732 294.807145)scale(0.1 -0.1)">
       <defs>
        <path d="M 1702 4058 
C 1702 4192 1696 4192 1606 4192 
C 1357 3916 979 3827 621 3827 
C 602 3827 570 3827 563 3808 
C 557 3795 557 3782 557 3648 
C 755 3648 1088 3686 1344 3839 
L 1344 461 
C 1344 236 1331 160 781 160 
L 589 160 
L 589 0 
C 896 0 1216 0 1523 0 
C 1830 0 2150 0 2458 0 
L 2458 160 
L 2266 160 
C 1715 160 1702 230 1702 458 
L 1702 4058 
z
" id="CMR17-31" transform="scale(0.015625)"/>
        <path d="M 2688 2025 
C 2688 2416 2682 3080 2413 3591 
C 2176 4039 1798 4198 1466 4198 
C 1158 4198 768 4058 525 3597 
C 269 3118 243 2524 243 2025 
C 243 1661 250 1106 448 619 
C 723 -39 1216 -128 1466 -128 
C 1760 -128 2208 -7 2470 600 
C 2662 1042 2688 1559 2688 2025 
z
M 1466 -26 
C 1056 -26 813 325 723 812 
C 653 1188 653 1738 653 2096 
C 653 2588 653 2997 736 3387 
C 858 3929 1216 4096 1466 4096 
C 1728 4096 2067 3923 2189 3400 
C 2272 3036 2278 2607 2278 2096 
C 2278 1680 2278 1169 2202 792 
C 2067 95 1690 -26 1466 -26 
z
" id="CMR17-30" transform="scale(0.015625)"/>
        <path d="M 4218 1472 
C 4326 1472 4442 1472 4442 1600 
C 4442 1728 4326 1728 4218 1728 
L 755 1728 
C 646 1728 531 1728 531 1600 
C 531 1472 646 1472 755 1472 
L 4218 1472 
z
" id="CMSY10-0" transform="scale(0.015625)"/>
        <path d="M 1414 2157 
C 1984 2157 2234 1662 2234 1090 
C 2234 320 1824 25 1453 25 
C 1114 25 563 194 390 693 
C 422 680 454 680 486 680 
C 640 680 755 782 755 948 
C 755 1133 614 1216 486 1216 
C 378 1216 211 1165 211 926 
C 211 335 787 -128 1466 -128 
C 2176 -128 2720 430 2720 1085 
C 2720 1707 2208 2157 1600 2227 
C 2086 2328 2554 2756 2554 3329 
C 2554 3820 2048 4179 1472 4179 
C 890 4179 378 3829 378 3329 
C 378 3110 544 3072 627 3072 
C 762 3072 877 3155 877 3321 
C 877 3486 762 3569 627 3569 
C 602 3569 570 3569 544 3557 
C 730 3959 1235 4032 1459 4032 
C 1683 4032 2106 3925 2106 3320 
C 2106 3143 2080 2828 1862 2550 
C 1670 2304 1453 2304 1242 2284 
C 1210 2284 1062 2269 1037 2269 
C 992 2263 966 2257 966 2208 
C 966 2163 973 2157 1101 2157 
L 1414 2157 
z
" id="CMR17-33" transform="scale(0.015625)"/>
       </defs>
       <use transform="scale(0.996264)" xlink:href="#CMR17-31"/>
       <use transform="translate(45.690477 0)scale(0.996264)" xlink:href="#CMR17-30"/>
       <use transform="translate(91.380954 36.153639)scale(0.697382)" xlink:href="#CMSY10-0"/>
       <use transform="translate(145.621947 36.153639)scale(0.697382)" xlink:href="#CMR17-33"/>
      </g>
     </g>
    </g>
    <g id="xtick_2">
     <g id="line2d_3">
      <path clip-path="url(#pd90fe8a095)" d="M 111.69469 280.888647 
L 111.69469 21.50218 
" style="fill:none;stroke:#cccccc;stroke-linecap:round;stroke-width:0.8;"/>
     </g>
     <g id="line2d_4">
      <g>
       <use style="fill:#262626;stroke:#262626;stroke-width:0.8;" x="111.69469" xlink:href="#m26ecb54a45" y="280.888647"/>
      </g>
     </g>
     <g id="text_2">
      <!-- $\mathdefault{10^{-2}}$ -->
      <g style="fill:#262626;" transform="translate(101.614403 294.807145)scale(0.1 -0.1)">
       <defs>
        <path d="M 2669 989 
L 2554 989 
C 2490 536 2438 459 2413 420 
C 2381 369 1920 369 1830 369 
L 602 369 
C 832 619 1280 1072 1824 1597 
C 2214 1967 2669 2402 2669 3035 
C 2669 3790 2067 4224 1395 4224 
C 691 4224 262 3604 262 3030 
C 262 2780 448 2748 525 2748 
C 589 2748 781 2787 781 3010 
C 781 3207 614 3264 525 3264 
C 486 3264 448 3258 422 3245 
C 544 3790 915 4058 1306 4058 
C 1862 4058 2227 3617 2227 3035 
C 2227 2479 1901 2000 1536 1584 
L 262 146 
L 262 0 
L 2515 0 
L 2669 989 
z
" id="CMR17-32" transform="scale(0.015625)"/>
       </defs>
       <use transform="scale(0.996264)" xlink:href="#CMR17-31"/>
       <use transform="translate(45.690477 0)scale(0.996264)" xlink:href="#CMR17-30"/>
       <use transform="translate(91.380954 36.153639)scale(0.697382)" xlink:href="#CMSY10-0"/>
       <use transform="translate(145.621947 36.153639)scale(0.697382)" xlink:href="#CMR17-32"/>
      </g>
     </g>
    </g>
    <g id="xtick_3">
     <g id="line2d_5">
      <path clip-path="url(#pd90fe8a095)" d="M 171.482361 280.888647 
L 171.482361 21.50218 
" style="fill:none;stroke:#cccccc;stroke-linecap:round;stroke-width:0.8;"/>
     </g>
     <g id="line2d_6">
      <g>
       <use style="fill:#262626;stroke:#262626;stroke-width:0.8;" x="171.482361" xlink:href="#m26ecb54a45" y="280.888647"/>
      </g>
     </g>
     <g id="text_3">
      <!-- $\mathdefault{10^{-1}}$ -->
      <g style="fill:#262626;" transform="translate(161.402074 294.807145)scale(0.1 -0.1)">
       <use transform="scale(0.996264)" xlink:href="#CMR17-31"/>
       <use transform="translate(45.690477 0)scale(0.996264)" xlink:href="#CMR17-30"/>
       <use transform="translate(91.380954 36.153639)scale(0.697382)" xlink:href="#CMSY10-0"/>
       <use transform="translate(145.621947 36.153639)scale(0.697382)" xlink:href="#CMR17-31"/>
      </g>
     </g>
    </g>
    <g id="xtick_4">
     <g id="line2d_7">
      <path clip-path="url(#pd90fe8a095)" d="M 231.270032 280.888647 
L 231.270032 21.50218 
" style="fill:none;stroke:#cccccc;stroke-linecap:round;stroke-width:0.8;"/>
     </g>
     <g id="line2d_8">
      <g>
       <use style="fill:#262626;stroke:#262626;stroke-width:0.8;" x="231.270032" xlink:href="#m26ecb54a45" y="280.888647"/>
      </g>
     </g>
     <g id="text_4">
      <!-- $\mathdefault{10^{0}}$ -->
      <g style="fill:#262626;" transform="translate(224.303078 294.807145)scale(0.1 -0.1)">
       <use transform="scale(0.996264)" xlink:href="#CMR17-31"/>
       <use transform="translate(45.690477 0)scale(0.996264)" xlink:href="#CMR17-30"/>
       <use transform="translate(91.380954 36.153639)scale(0.697382)" xlink:href="#CMR17-30"/>
      </g>
     </g>
    </g>
    <g id="xtick_5">
     <g id="line2d_9">
      <path clip-path="url(#pd90fe8a095)" d="M 291.057703 280.888647 
L 291.057703 21.50218 
" style="fill:none;stroke:#cccccc;stroke-linecap:round;stroke-width:0.8;"/>
     </g>
     <g id="line2d_10">
      <g>
       <use style="fill:#262626;stroke:#262626;stroke-width:0.8;" x="291.057703" xlink:href="#m26ecb54a45" y="280.888647"/>
      </g>
     </g>
     <g id="text_5">
      <!-- $\mathdefault{10^{1}}$ -->
      <g style="fill:#262626;" transform="translate(284.090749 294.807145)scale(0.1 -0.1)">
       <use transform="scale(0.996264)" xlink:href="#CMR17-31"/>
       <use transform="translate(45.690477 0)scale(0.996264)" xlink:href="#CMR17-30"/>
       <use transform="translate(91.380954 36.153639)scale(0.697382)" xlink:href="#CMR17-31"/>
      </g>
     </g>
    </g>
    <g id="xtick_6">
     <g id="line2d_11">
      <path clip-path="url(#pd90fe8a095)" d="M 350.845375 280.888647 
L 350.845375 21.50218 
" style="fill:none;stroke:#cccccc;stroke-linecap:round;stroke-width:0.8;"/>
     </g>
     <g id="line2d_12">
      <g>
       <use style="fill:#262626;stroke:#262626;stroke-width:0.8;" x="350.845375" xlink:href="#m26ecb54a45" y="280.888647"/>
      </g>
     </g>
     <g id="text_6">
      <!-- $\mathdefault{10^{2}}$ -->
      <g style="fill:#262626;" transform="translate(343.878421 294.807145)scale(0.1 -0.1)">
       <use transform="scale(0.996264)" xlink:href="#CMR17-31"/>
       <use transform="translate(45.690477 0)scale(0.996264)" xlink:href="#CMR17-30"/>
       <use transform="translate(91.380954 36.153639)scale(0.697382)" xlink:href="#CMR17-32"/>
      </g>
     </g>
    </g>
    <g id="xtick_7">
     <g id="line2d_13">
      <path clip-path="url(#pd90fe8a095)" d="M 410.633046 280.888647 
L 410.633046 21.50218 
" style="fill:none;stroke:#cccccc;stroke-linecap:round;stroke-width:0.8;"/>
     </g>
     <g id="line2d_14">
      <g>
       <use style="fill:#262626;stroke:#262626;stroke-width:0.8;" x="410.633046" xlink:href="#m26ecb54a45" y="280.888647"/>
      </g>
     </g>
     <g id="text_7">
      <!-- $\mathdefault{10^{3}}$ -->
      <g style="fill:#262626;" transform="translate(403.666092 294.807145)scale(0.1 -0.1)">
       <use transform="scale(0.996264)" xlink:href="#CMR17-31"/>
       <use transform="translate(45.690477 0)scale(0.996264)" xlink:href="#CMR17-30"/>
       <use transform="translate(91.380954 36.153639)scale(0.697382)" xlink:href="#CMR17-33"/>
      </g>
     </g>
    </g>
    <g id="xtick_8">
     <g id="line2d_15">
      <defs>
       <path d="M 0 0 
L 0 2 
" id="m009997a2c3" style="stroke:#262626;stroke-width:0.6;"/>
      </defs>
      <g>
       <use style="fill:#262626;stroke:#262626;stroke-width:0.6;" x="69.904901" xlink:href="#m009997a2c3" y="280.888647"/>
      </g>
     </g>
    </g>
    <g id="xtick_9">
     <g id="line2d_16">
      <g>
       <use style="fill:#262626;stroke:#262626;stroke-width:0.6;" x="80.432987" xlink:href="#m009997a2c3" y="280.888647"/>
      </g>
     </g>
    </g>
    <g id="xtick_10">
     <g id="line2d_17">
      <g>
       <use style="fill:#262626;stroke:#262626;stroke-width:0.6;" x="87.902783" xlink:href="#m009997a2c3" y="280.888647"/>
      </g>
     </g>
    </g>
    <g id="xtick_11">
     <g id="line2d_18">
      <g>
       <use style="fill:#262626;stroke:#262626;stroke-width:0.6;" x="93.696807" xlink:href="#m009997a2c3" y="280.888647"/>
      </g>
     </g>
    </g>
    <g id="xtick_12">
     <g id="line2d_19">
      <g>
       <use style="fill:#262626;stroke:#262626;stroke-width:0.6;" x="98.43087" xlink:href="#m009997a2c3" y="280.888647"/>
      </g>
     </g>
    </g>
    <g id="xtick_13">
     <g id="line2d_20">
      <g>
       <use style="fill:#262626;stroke:#262626;stroke-width:0.6;" x="102.433462" xlink:href="#m009997a2c3" y="280.888647"/>
      </g>
     </g>
    </g>
    <g id="xtick_14">
     <g id="line2d_21">
      <g>
       <use style="fill:#262626;stroke:#262626;stroke-width:0.6;" x="105.900666" xlink:href="#m009997a2c3" y="280.888647"/>
      </g>
     </g>
    </g>
    <g id="xtick_15">
     <g id="line2d_22">
      <g>
       <use style="fill:#262626;stroke:#262626;stroke-width:0.6;" x="108.958956" xlink:href="#m009997a2c3" y="280.888647"/>
      </g>
     </g>
    </g>
    <g id="xtick_16">
     <g id="line2d_23">
      <g>
       <use style="fill:#262626;stroke:#262626;stroke-width:0.6;" x="129.692572" xlink:href="#m009997a2c3" y="280.888647"/>
      </g>
     </g>
    </g>
    <g id="xtick_17">
     <g id="line2d_24">
      <g>
       <use style="fill:#262626;stroke:#262626;stroke-width:0.6;" x="140.220658" xlink:href="#m009997a2c3" y="280.888647"/>
      </g>
     </g>
    </g>
    <g id="xtick_18">
     <g id="line2d_25">
      <g>
       <use style="fill:#262626;stroke:#262626;stroke-width:0.6;" x="147.690455" xlink:href="#m009997a2c3" y="280.888647"/>
      </g>
     </g>
    </g>
    <g id="xtick_19">
     <g id="line2d_26">
      <g>
       <use style="fill:#262626;stroke:#262626;stroke-width:0.6;" x="153.484479" xlink:href="#m009997a2c3" y="280.888647"/>
      </g>
     </g>
    </g>
    <g id="xtick_20">
     <g id="line2d_27">
      <g>
       <use style="fill:#262626;stroke:#262626;stroke-width:0.6;" x="158.218541" xlink:href="#m009997a2c3" y="280.888647"/>
      </g>
     </g>
    </g>
    <g id="xtick_21">
     <g id="line2d_28">
      <g>
       <use style="fill:#262626;stroke:#262626;stroke-width:0.6;" x="162.221134" xlink:href="#m009997a2c3" y="280.888647"/>
      </g>
     </g>
    </g>
    <g id="xtick_22">
     <g id="line2d_29">
      <g>
       <use style="fill:#262626;stroke:#262626;stroke-width:0.6;" x="165.688337" xlink:href="#m009997a2c3" y="280.888647"/>
      </g>
     </g>
    </g>
    <g id="xtick_23">
     <g id="line2d_30">
      <g>
       <use style="fill:#262626;stroke:#262626;stroke-width:0.6;" x="168.746627" xlink:href="#m009997a2c3" y="280.888647"/>
      </g>
     </g>
    </g>
    <g id="xtick_24">
     <g id="line2d_31">
      <g>
       <use style="fill:#262626;stroke:#262626;stroke-width:0.6;" x="189.480243" xlink:href="#m009997a2c3" y="280.888647"/>
      </g>
     </g>
    </g>
    <g id="xtick_25">
     <g id="line2d_32">
      <g>
       <use style="fill:#262626;stroke:#262626;stroke-width:0.6;" x="200.00833" xlink:href="#m009997a2c3" y="280.888647"/>
      </g>
     </g>
    </g>
    <g id="xtick_26">
     <g id="line2d_33">
      <g>
       <use style="fill:#262626;stroke:#262626;stroke-width:0.6;" x="207.478126" xlink:href="#m009997a2c3" y="280.888647"/>
      </g>
     </g>
    </g>
    <g id="xtick_27">
     <g id="line2d_34">
      <g>
       <use style="fill:#262626;stroke:#262626;stroke-width:0.6;" x="213.27215" xlink:href="#m009997a2c3" y="280.888647"/>
      </g>
     </g>
    </g>
    <g id="xtick_28">
     <g id="line2d_35">
      <g>
       <use style="fill:#262626;stroke:#262626;stroke-width:0.6;" x="218.006212" xlink:href="#m009997a2c3" y="280.888647"/>
      </g>
     </g>
    </g>
    <g id="xtick_29">
     <g id="line2d_36">
      <g>
       <use style="fill:#262626;stroke:#262626;stroke-width:0.6;" x="222.008805" xlink:href="#m009997a2c3" y="280.888647"/>
      </g>
     </g>
    </g>
    <g id="xtick_30">
     <g id="line2d_37">
      <g>
       <use style="fill:#262626;stroke:#262626;stroke-width:0.6;" x="225.476008" xlink:href="#m009997a2c3" y="280.888647"/>
      </g>
     </g>
    </g>
    <g id="xtick_31">
     <g id="line2d_38">
      <g>
       <use style="fill:#262626;stroke:#262626;stroke-width:0.6;" x="228.534298" xlink:href="#m009997a2c3" y="280.888647"/>
      </g>
     </g>
    </g>
    <g id="xtick_32">
     <g id="line2d_39">
      <g>
       <use style="fill:#262626;stroke:#262626;stroke-width:0.6;" x="249.267915" xlink:href="#m009997a2c3" y="280.888647"/>
      </g>
     </g>
    </g>
    <g id="xtick_33">
     <g id="line2d_40">
      <g>
       <use style="fill:#262626;stroke:#262626;stroke-width:0.6;" x="259.796001" xlink:href="#m009997a2c3" y="280.888647"/>
      </g>
     </g>
    </g>
    <g id="xtick_34">
     <g id="line2d_41">
      <g>
       <use style="fill:#262626;stroke:#262626;stroke-width:0.6;" x="267.265797" xlink:href="#m009997a2c3" y="280.888647"/>
      </g>
     </g>
    </g>
    <g id="xtick_35">
     <g id="line2d_42">
      <g>
       <use style="fill:#262626;stroke:#262626;stroke-width:0.6;" x="273.059821" xlink:href="#m009997a2c3" y="280.888647"/>
      </g>
     </g>
    </g>
    <g id="xtick_36">
     <g id="line2d_43">
      <g>
       <use style="fill:#262626;stroke:#262626;stroke-width:0.6;" x="277.793883" xlink:href="#m009997a2c3" y="280.888647"/>
      </g>
     </g>
    </g>
    <g id="xtick_37">
     <g id="line2d_44">
      <g>
       <use style="fill:#262626;stroke:#262626;stroke-width:0.6;" x="281.796476" xlink:href="#m009997a2c3" y="280.888647"/>
      </g>
     </g>
    </g>
    <g id="xtick_38">
     <g id="line2d_45">
      <g>
       <use style="fill:#262626;stroke:#262626;stroke-width:0.6;" x="285.263679" xlink:href="#m009997a2c3" y="280.888647"/>
      </g>
     </g>
    </g>
    <g id="xtick_39">
     <g id="line2d_46">
      <g>
       <use style="fill:#262626;stroke:#262626;stroke-width:0.6;" x="288.32197" xlink:href="#m009997a2c3" y="280.888647"/>
      </g>
     </g>
    </g>
    <g id="xtick_40">
     <g id="line2d_47">
      <g>
       <use style="fill:#262626;stroke:#262626;stroke-width:0.6;" x="309.055586" xlink:href="#m009997a2c3" y="280.888647"/>
      </g>
     </g>
    </g>
    <g id="xtick_41">
     <g id="line2d_48">
      <g>
       <use style="fill:#262626;stroke:#262626;stroke-width:0.6;" x="319.583672" xlink:href="#m009997a2c3" y="280.888647"/>
      </g>
     </g>
    </g>
    <g id="xtick_42">
     <g id="line2d_49">
      <g>
       <use style="fill:#262626;stroke:#262626;stroke-width:0.6;" x="327.053468" xlink:href="#m009997a2c3" y="280.888647"/>
      </g>
     </g>
    </g>
    <g id="xtick_43">
     <g id="line2d_50">
      <g>
       <use style="fill:#262626;stroke:#262626;stroke-width:0.6;" x="332.847492" xlink:href="#m009997a2c3" y="280.888647"/>
      </g>
     </g>
    </g>
    <g id="xtick_44">
     <g id="line2d_51">
      <g>
       <use style="fill:#262626;stroke:#262626;stroke-width:0.6;" x="337.581555" xlink:href="#m009997a2c3" y="280.888647"/>
      </g>
     </g>
    </g>
    <g id="xtick_45">
     <g id="line2d_52">
      <g>
       <use style="fill:#262626;stroke:#262626;stroke-width:0.6;" x="341.584147" xlink:href="#m009997a2c3" y="280.888647"/>
      </g>
     </g>
    </g>
    <g id="xtick_46">
     <g id="line2d_53">
      <g>
       <use style="fill:#262626;stroke:#262626;stroke-width:0.6;" x="345.051351" xlink:href="#m009997a2c3" y="280.888647"/>
      </g>
     </g>
    </g>
    <g id="xtick_47">
     <g id="line2d_54">
      <g>
       <use style="fill:#262626;stroke:#262626;stroke-width:0.6;" x="348.109641" xlink:href="#m009997a2c3" y="280.888647"/>
      </g>
     </g>
    </g>
    <g id="xtick_48">
     <g id="line2d_55">
      <g>
       <use style="fill:#262626;stroke:#262626;stroke-width:0.6;" x="368.843257" xlink:href="#m009997a2c3" y="280.888647"/>
      </g>
     </g>
    </g>
    <g id="xtick_49">
     <g id="line2d_56">
      <g>
       <use style="fill:#262626;stroke:#262626;stroke-width:0.6;" x="379.371343" xlink:href="#m009997a2c3" y="280.888647"/>
      </g>
     </g>
    </g>
    <g id="xtick_50">
     <g id="line2d_57">
      <g>
       <use style="fill:#262626;stroke:#262626;stroke-width:0.6;" x="386.84114" xlink:href="#m009997a2c3" y="280.888647"/>
      </g>
     </g>
    </g>
    <g id="xtick_51">
     <g id="line2d_58">
      <g>
       <use style="fill:#262626;stroke:#262626;stroke-width:0.6;" x="392.635164" xlink:href="#m009997a2c3" y="280.888647"/>
      </g>
     </g>
    </g>
    <g id="xtick_52">
     <g id="line2d_59">
      <g>
       <use style="fill:#262626;stroke:#262626;stroke-width:0.6;" x="397.369226" xlink:href="#m009997a2c3" y="280.888647"/>
      </g>
     </g>
    </g>
    <g id="xtick_53">
     <g id="line2d_60">
      <g>
       <use style="fill:#262626;stroke:#262626;stroke-width:0.6;" x="401.371818" xlink:href="#m009997a2c3" y="280.888647"/>
      </g>
     </g>
    </g>
    <g id="xtick_54">
     <g id="line2d_61">
      <g>
       <use style="fill:#262626;stroke:#262626;stroke-width:0.6;" x="404.839022" xlink:href="#m009997a2c3" y="280.888647"/>
      </g>
     </g>
    </g>
    <g id="xtick_55">
     <g id="line2d_62">
      <g>
       <use style="fill:#262626;stroke:#262626;stroke-width:0.6;" x="407.897312" xlink:href="#m009997a2c3" y="280.888647"/>
      </g>
     </g>
    </g>
    <g id="text_8">
     <!-- $\eta$ -->
     <g style="fill:#262626;" transform="translate(228.796657 307.662822)scale(0.1 -0.1)">
      <defs>
       <path d="M 3040 1768 
C 3072 1895 3091 1973 3091 2145 
C 3091 2528 2867 2815 2381 2815 
C 1811 2815 1510 2413 1395 2254 
C 1376 2618 1114 2815 832 2815 
C 646 2815 499 2726 378 2483 
C 262 2254 173 1864 173 1839 
C 173 1813 198 1781 243 1781 
C 294 1781 301 1788 339 1934 
C 435 2311 557 2688 813 2688 
C 960 2688 1011 2586 1011 2394 
C 1011 2254 947 2005 902 1807 
L 723 1118 
C 698 996 627 709 595 593 
C 550 428 480 127 480 96 
C 480 6 550 -64 646 -64 
C 723 -64 813 -25 864 70 
C 877 102 934 326 966 453 
L 1107 1028 
L 1318 1871 
C 1331 1909 1491 2228 1728 2432 
C 1894 2586 2112 2688 2362 2688 
C 2618 2688 2707 2496 2707 2241 
C 2707 2055 2682 1953 2650 1831 
L 1907 -1107 
C 1901 -1139 1888 -1177 1888 -1216 
C 1888 -1312 1965 -1376 2061 -1376 
C 2118 -1376 2253 -1350 2304 -1158 
L 3040 1768 
z
" id="CMMI12-11" transform="scale(0.015625)"/>
      </defs>
      <use transform="scale(0.996264)" xlink:href="#CMMI12-11"/>
     </g>
    </g>
   </g>
   <g id="matplotlib.axis_2">
    <g id="ytick_1">
     <g id="line2d_63">
      <path clip-path="url(#pd90fe8a095)" d="M 51.907018 280.888647 
L 410.633046 280.888647 
" style="fill:none;stroke:#cccccc;stroke-linecap:round;stroke-width:0.8;"/>
     </g>
     <g id="line2d_64">
      <defs>
       <path d="M 0 0 
L -3.5 0 
" id="m9369bd7697" style="stroke:#262626;stroke-width:0.8;"/>
      </defs>
      <g>
       <use style="fill:#262626;stroke:#262626;stroke-width:0.8;" x="51.907018" xlink:href="#m9369bd7697" y="280.888647"/>
      </g>
     </g>
     <g id="text_9">
      <!-- $\mathdefault{−100}$ -->
      <g style="fill:#262626;" transform="translate(22.214269 284.347896)scale(0.1 -0.1)">
       <use transform="scale(0.996264)" xlink:href="#CMSY10-0"/>
       <use transform="translate(77.487468 0)scale(0.996264)" xlink:href="#CMR17-31"/>
       <use transform="translate(123.177945 0)scale(0.996264)" xlink:href="#CMR17-30"/>
       <use transform="translate(168.868422 0)scale(0.996264)" xlink:href="#CMR17-30"/>
      </g>
     </g>
    </g>
    <g id="ytick_2">
     <g id="line2d_65">
      <path clip-path="url(#pd90fe8a095)" d="M 51.907018 252.694465 
L 410.633046 252.694465 
" style="fill:none;stroke:#cccccc;stroke-linecap:round;stroke-width:0.8;"/>
     </g>
     <g id="line2d_66">
      <g>
       <use style="fill:#262626;stroke:#262626;stroke-width:0.8;" x="51.907018" xlink:href="#m9369bd7697" y="252.694465"/>
      </g>
     </g>
     <g id="text_10">
      <!-- $\mathdefault{0}$ -->
      <g style="fill:#262626;" transform="translate(39.925683 256.153715)scale(0.1 -0.1)">
       <use transform="scale(0.996264)" xlink:href="#CMR17-30"/>
      </g>
     </g>
    </g>
    <g id="ytick_3">
     <g id="line2d_67">
      <path clip-path="url(#pd90fe8a095)" d="M 51.907018 21.50218 
L 410.633046 21.50218 
" style="fill:none;stroke:#cccccc;stroke-linecap:round;stroke-width:0.8;"/>
     </g>
     <g id="line2d_68">
      <g>
       <use style="fill:#262626;stroke:#262626;stroke-width:0.8;" x="51.907018" xlink:href="#m9369bd7697" y="21.50218"/>
      </g>
     </g>
     <g id="text_11">
      <!-- $\mathdefault{820}$ -->
      <g style="fill:#262626;" transform="translate(29.963013 24.961429)scale(0.1 -0.1)">
       <defs>
        <path d="M 1741 2264 
C 2144 2467 2554 2773 2554 3263 
C 2554 3841 1990 4179 1472 4179 
C 890 4179 378 3759 378 3180 
C 378 3021 416 2747 666 2505 
C 730 2442 998 2251 1171 2130 
C 883 1983 211 1634 211 934 
C 211 279 838 -128 1459 -128 
C 2144 -128 2720 362 2720 1010 
C 2720 1590 2330 1857 2074 2029 
L 1741 2264 
z
M 902 2822 
C 851 2854 595 3051 595 3351 
C 595 3739 998 4032 1459 4032 
C 1965 4032 2336 3676 2336 3262 
C 2336 2669 1670 2331 1638 2331 
C 1632 2331 1626 2331 1574 2370 
L 902 2822 
z
M 2080 1519 
C 2176 1449 2483 1240 2483 851 
C 2483 381 2010 25 1472 25 
C 890 25 448 438 448 940 
C 448 1443 838 1862 1280 2060 
L 2080 1519 
z
" id="CMR17-38" transform="scale(0.015625)"/>
       </defs>
       <use transform="scale(0.996264)" xlink:href="#CMR17-38"/>
       <use transform="translate(45.690477 0)scale(0.996264)" xlink:href="#CMR17-32"/>
       <use transform="translate(91.380954 0)scale(0.996264)" xlink:href="#CMR17-30"/>
      </g>
     </g>
    </g>
    <g id="text_12">
     <!-- $\mathrm{d} \ell_{\hat{\sigma}^2(\eta)}(\eta)/\mathrm{d} \eta$ -->
     <g style="fill:#262626;" transform="translate(14.67198 180.213761)rotate(-90)scale(0.1 -0.1)">
      <defs>
       <path d="M 1869 4326 
L 1869 4160 
C 2246 4160 2304 4122 2304 3820 
L 2304 2345 
C 2278 2377 2016 2790 1498 2790 
C 845 2790 211 2208 211 1364 
C 211 525 806 -64 1434 -64 
C 1978 -64 2259 337 2291 380 
L 2291 -63 
L 3066 -63 
L 3066 128 
C 2688 128 2630 166 2630 473 
L 2630 4396 
L 1869 4326 
z
M 2291 755 
C 2291 563 2176 390 2029 262 
C 1811 70 1594 38 1472 38 
C 1286 38 621 134 621 1356 
C 621 2612 1363 2688 1530 2688 
C 1824 2688 2061 2522 2208 2291 
C 2291 2157 2291 2138 2291 2023 
L 2291 755 
z
" id="CMR17-64" transform="scale(0.015625)"/>
       <path d="M 589 1088 
C 186 692 83 597 83 572 
C 83 546 109 501 154 501 
C 186 501 550 851 602 909 
C 640 482 800 -73 1299 -73 
C 1555 -73 1786 86 1888 163 
C 1971 227 2278 488 2278 546 
C 2278 578 2246 616 2214 616 
C 2189 616 2093 520 2067 495 
C 1843 278 1562 55 1306 55 
C 960 55 915 552 915 897 
C 915 960 915 1228 960 1279 
C 1338 1667 2522 2886 2522 4014 
C 2522 4269 2426 4492 2150 4492 
C 1555 4492 1037 3178 947 2936 
C 922 2873 550 1891 589 1088 
z
M 973 1471 
C 979 1509 1267 3186 1805 4082 
C 1914 4255 2022 4364 2150 4364 
C 2368 4364 2381 4159 2381 4018 
C 2381 3794 2317 3218 1760 2412 
C 1594 2175 1338 1855 973 1471 
z
" id="CMMI12-60" transform="scale(0.015625)"/>
       <path d="M 1466 4421 
L 678 3555 
L 755 3478 
L 1466 4166 
L 2176 3478 
L 2253 3555 
L 1466 4421 
z
" id="CMR17-5e" transform="scale(0.015625)"/>
       <path d="M 3251 2408 
C 3334 2408 3546 2408 3546 2612 
C 3546 2752 3424 2752 3309 2752 
L 1894 2752 
C 934 2752 243 1686 243 932 
C 243 390 595 -64 1171 -64 
C 1926 -64 2752 747 2752 1705 
C 2752 1954 2694 2196 2541 2408 
L 3251 2408 
z
M 1178 64 
C 851 64 614 313 614 754 
C 614 1137 845 2408 1786 2408 
C 2061 2408 2368 2274 2368 1781 
C 2368 1558 2266 1021 2042 652 
C 1811 275 1466 64 1178 64 
z
" id="CMMI12-1b" transform="scale(0.015625)"/>
       <path d="M 1958 -1561 
C 1958 -1555 1958 -1542 1939 -1523 
C 1645 -1224 858 -407 858 1581 
C 858 3569 1632 4379 1946 4697 
C 1946 4704 1958 4717 1958 4736 
C 1958 4755 1939 4768 1914 4768 
C 1843 4768 1299 4296 986 3594 
C 666 2887 576 2199 576 1588 
C 576 1128 621 351 1005 -471 
C 1312 -1135 1837 -1600 1914 -1600 
C 1946 -1600 1958 -1587 1958 -1561 
z
" id="CMR17-28" transform="scale(0.015625)"/>
       <path d="M 1683 1581 
C 1683 2040 1638 2817 1254 3639 
C 947 4303 422 4768 346 4768 
C 326 4768 301 4761 301 4729 
C 301 4717 307 4710 314 4697 
C 621 4378 1402 3568 1402 1584 
C 1402 -407 627 -1217 314 -1537 
C 307 -1549 301 -1556 301 -1568 
C 301 -1600 326 -1600 346 -1600 
C 416 -1600 960 -1128 1274 -426 
C 1594 281 1683 969 1683 1581 
z
" id="CMR17-29" transform="scale(0.015625)"/>
       <path d="M 2746 4562 
C 2746 4569 2784 4666 2784 4678 
C 2784 4755 2720 4800 2669 4800 
C 2637 4800 2579 4800 2528 4659 
L 384 -1363 
C 384 -1370 346 -1465 346 -1478 
C 346 -1555 410 -1600 461 -1600 
C 499 -1600 557 -1593 602 -1459 
L 2746 4562 
z
" id="CMMI12-3d" transform="scale(0.015625)"/>
      </defs>
      <use transform="scale(0.996264)" xlink:href="#CMR17-64"/>
      <use transform="translate(50.89537 0)scale(0.996264)" xlink:href="#CMMI12-60"/>
      <use transform="translate(96.494925 -17.936461)scale(0.697382)" xlink:href="#CMR17-5e"/>
      <use transform="translate(91.829589 -17.940992)scale(0.697382)" xlink:href="#CMMI12-1b"/>
      <use transform="translate(133.143428 2.205581)scale(0.498132)" xlink:href="#CMR17-32"/>
      <use transform="translate(156.486798 -17.940992)scale(0.697382)" xlink:href="#CMR17-28"/>
      <use transform="translate(181.183219 -17.940992)scale(0.697382)" xlink:href="#CMMI12-11"/>
      <use transform="translate(217.375713 -17.940992)scale(0.697382)" xlink:href="#CMR17-29"/>
      <use transform="translate(242.570266 0)scale(0.996264)" xlink:href="#CMR17-28"/>
      <use transform="translate(277.851033 0)scale(0.996264)" xlink:href="#CMMI12-11"/>
      <use transform="translate(329.554849 0)scale(0.996264)" xlink:href="#CMR17-29"/>
      <use transform="translate(364.835617 0)scale(0.996264)" xlink:href="#CMMI12-3d"/>
      <use transform="translate(413.610536 0)scale(0.996264)" xlink:href="#CMR17-64"/>
      <use transform="translate(464.505906 0)scale(0.996264)" xlink:href="#CMMI12-11"/>
     </g>
    </g>
   </g>
   <g id="patch_3">
    <path clip-path="url(#pd90fe8a095)" d="M 111.69469 255.231942 
L 231.270032 255.231942 
L 231.270032 250.156989 
L 111.69469 250.156989 
z
" style="fill:none;stroke:#808080;stroke-linejoin:miter;"/>
   </g>
   <g id="line2d_69">
    <path clip-path="url(#pd90fe8a095)" d="M 133.588409 -1 
L 135.851325 18.053399 
L 138.266988 36.963338 
L 140.682652 54.495699 
L 143.098315 70.7279 
L 145.513979 85.736718 
L 147.929642 99.597587 
L 150.345305 112.384023 
L 152.760969 124.167165 
L 155.176632 135.015433 
L 157.592296 144.994273 
L 160.007959 154.165988 
L 162.423623 162.589632 
L 164.839286 170.32097 
L 167.25495 177.412479 
L 169.670613 183.913394 
L 172.086277 189.869778 
L 174.50194 195.324623 
L 176.917604 200.317963 
L 179.333267 204.887002 
L 181.748931 209.066255 
L 184.164594 212.887687 
L 186.580258 216.380854 
L 188.995921 219.573056 
L 191.411585 222.489471 
L 193.827248 225.153297 
L 196.242912 227.585887 
L 199.866407 230.843715 
L 203.489902 233.684732 
L 207.113397 236.161405 
L 210.736893 238.319799 
L 214.360388 240.200314 
L 217.983883 241.838336 
L 221.607378 243.264838 
L 226.438705 244.884113 
L 231.270032 246.230037 
L 231.270032 246.230037 
L 240.710191 248.238474 
L 250.150349 249.635848 
L 259.590508 250.606991 
L 269.030667 251.280841 
L 278.470825 251.747192 
L 297.351143 252.288249 
L 316.23146 252.535305 
L 344.551936 252.663452 
L 410.633046 252.694177 
L 410.633046 252.694177 
" style="fill:none;stroke:#000000;stroke-dasharray:5.55,2.4;stroke-dashoffset:0;stroke-width:1.5;"/>
   </g>
   <g id="line2d_70">
    <path clip-path="url(#pd90fe8a095)" d="M 171.14052 317.8 
L 173.294109 312.731607 
L 175.709772 307.51234 
L 178.125436 302.735629 
L 180.541099 298.365635 
L 182.956763 294.369134 
L 185.372426 290.715385 
L 187.788089 287.375976 
L 190.203753 284.324688 
L 192.619416 281.537349 
L 195.03508 278.9917 
L 197.450743 276.667263 
L 201.074239 273.554629 
L 204.697734 270.840558 
L 208.321229 268.474802 
L 211.944724 266.413263 
L 215.56822 264.617281 
L 219.191715 263.053004 
L 222.81521 261.690814 
L 227.646537 260.144644 
L 231.270032 259.158894 
L 231.270032 259.158894 
L 240.710191 257.150457 
L 250.150349 255.753083 
L 259.590508 254.78194 
L 269.030667 254.10809 
L 278.470825 253.641739 
L 297.351143 253.100682 
L 316.23146 252.853626 
L 344.551936 252.725479 
L 410.633046 252.694754 
L 410.633046 252.694754 
" style="fill:none;stroke:#000000;stroke-dasharray:9.6,2.4,1.5,2.4;stroke-dashoffset:0;stroke-width:1.5;"/>
   </g>
   <g id="line2d_71">
    <path clip-path="url(#pd90fe8a095)" d="M 51.907018 21.808315 
L 55.567488 32.620844 
L 59.227958 44.036421 
L 64.108584 60.068878 
L 70.209367 81.095488 
L 88.511715 145.258202 
L 93.392341 161.149629 
L 97.052811 172.389759 
L 100.713281 182.947477 
L 104.37375 192.752883 
L 108.03422 201.756733 
L 111.69469 209.930655 
L 111.69469 209.930655 
L 114.110353 214.865532 
L 116.526017 219.43713 
L 118.94168 223.650827 
L 121.357344 227.514913 
L 123.773007 231.040229 
L 126.188671 234.239772 
L 128.604334 237.128297 
L 131.019998 239.721919 
L 133.435661 242.03773 
L 135.851325 244.093436 
L 138.266988 245.907036 
L 140.682652 247.496534 
L 143.098315 248.879687 
L 145.513979 250.073816 
L 149.137474 251.546961 
L 152.760969 252.68556 
L 156.384464 253.538786 
L 160.007959 254.151449 
L 163.631455 254.564011 
L 168.462782 254.864937 
L 173.294109 254.949243 
L 179.333267 254.845665 
L 188.995921 254.421992 
L 210.736893 253.390092 
L 224.023042 253.023632 
L 240.710191 252.807118 
L 278.470825 252.70194 
L 410.633046 252.694466 
L 410.633046 252.694466 
" style="fill:none;stroke:#000000;stroke-linecap:round;stroke-width:1.5;"/>
   </g>
   <g id="line2d_72">
    <defs>
     <path d="M 0 2 
C 0.530406 2 1.03916 1.789267 1.414214 1.414214 
C 1.789267 1.03916 2 0.530406 2 0 
C 2 -0.530406 1.789267 -1.03916 1.414214 -1.414214 
C 1.03916 -1.789267 0.530406 -2 0 -2 
C -0.530406 -2 -1.03916 -1.789267 -1.414214 -1.414214 
C -1.789267 -1.03916 -2 -0.530406 -2 0 
C -2 0.530406 -1.789267 1.03916 -1.414214 1.414214 
C -1.03916 1.789267 -0.530406 2 0 2 
z
" id="m7660303cd4" style="stroke:#000000;"/>
    </defs>
    <g clip-path="url(#pd90fe8a095)">
     <use style="stroke:#000000;" x="152.793185" xlink:href="#m7660303cd4" y="252.694465"/>
    </g>
   </g>
   <g id="patch_4">
    <path d="M 51.907018 280.888647 
L 51.907018 21.50218 
" style="fill:none;stroke:#262626;stroke-linecap:square;stroke-linejoin:miter;stroke-width:0.8;"/>
   </g>
   <g id="patch_5">
    <path d="M 410.633046 280.888647 
L 410.633046 21.50218 
" style="fill:none;stroke:#262626;stroke-linecap:square;stroke-linejoin:miter;stroke-width:0.8;"/>
   </g>
   <g id="patch_6">
    <path d="M 51.907018 280.888647 
L 410.633046 280.888647 
" style="fill:none;stroke:#262626;stroke-linecap:square;stroke-linejoin:miter;stroke-width:0.8;"/>
   </g>
   <g id="patch_7">
    <path d="M 51.907018 21.50218 
L 410.633046 21.50218 
" style="fill:none;stroke:#262626;stroke-linecap:square;stroke-linejoin:miter;stroke-width:0.8;"/>
   </g>
   <g id="text_13">
    <!-- Derivative of Log Marginal Likelihood Function -->
    <g style="fill:#262626;" transform="translate(109.013779 15.50218)scale(0.12 -0.12)">
     <defs>
      <path d="M 333 4352 
L 333 4186 
C 774 4186 845 4186 845 3900 
L 845 452 
C 845 166 774 166 333 166 
L 333 0 
L 2368 0 
C 3398 0 4224 943 4224 2141 
C 4224 3346 3411 4352 2368 4352 
L 333 4352 
z
M 1523 166 
C 1267 166 1254 197 1254 414 
L 1254 3938 
C 1254 4155 1267 4186 1523 4186 
L 2240 4186 
C 2771 4186 3750 3874 3750 2141 
C 3750 1242 3488 879 3366 707 
C 3213 510 2848 166 2240 166 
L 1523 166 
z
" id="CMR17-44" transform="scale(0.015625)"/>
      <path d="M 2438 1472 
C 2464 1498 2464 1511 2464 1576 
C 2464 2238 2118 2816 1389 2816 
C 710 2816 173 2169 173 1383 
C 173 551 781 -64 1459 -64 
C 2176 -64 2458 607 2458 740 
C 2458 784 2419 784 2406 784 
C 2362 784 2355 771 2330 696 
C 2189 265 1837 51 1504 51 
C 1229 51 954 203 781 480 
C 582 803 582 1176 582 1472 
L 2438 1472 
z
M 589 1568 
C 634 2505 1126 2714 1382 2714 
C 1818 2714 2112 2297 2118 1568 
L 589 1568 
z
" id="CMR17-65" transform="scale(0.015625)"/>
      <path d="M 960 1497 
C 960 2112 1222 2688 1702 2688 
C 1747 2688 1792 2682 1837 2662 
C 1837 2662 1696 2617 1696 2452 
C 1696 2298 1818 2234 1914 2234 
C 1990 2234 2131 2279 2131 2458 
C 2131 2663 1926 2790 1709 2790 
C 1222 2790 1011 2317 947 2093 
L 941 2093 
L 941 2790 
L 198 2720 
L 198 2554 
C 576 2554 634 2515 634 2208 
L 634 428 
C 634 184 608 153 198 153 
L 198 -13 
C 352 0 646 0 813 0 
C 998 0 1325 0 1498 -13 
L 1498 153 
C 1037 153 960 153 960 440 
L 960 1497 
z
" id="CMR17-72" transform="scale(0.015625)"/>
      <path d="M 992 3909 
C 992 4049 877 4170 730 4170 
C 589 4170 467 4056 467 3909 
C 467 3769 582 3648 730 3648 
C 870 3648 992 3763 992 3909 
z
M 243 2706 
L 243 2541 
C 602 2541 653 2502 653 2197 
L 653 427 
C 653 184 627 153 218 153 
L 218 -13 
C 371 0 646 0 806 0 
C 960 0 1222 0 1370 -13 
L 1370 153 
C 992 153 979 191 979 420 
L 979 2776 
L 243 2706 
z
" id="CMR17-69" transform="scale(0.015625)"/>
      <path d="M 2502 2163 
C 2560 2304 2662 2560 3034 2560 
L 3034 2726 
C 2912 2726 2752 2726 2630 2726 
C 2496 2726 2285 2726 2157 2732 
L 2157 2566 
C 2317 2553 2406 2477 2406 2311 
C 2406 2253 2406 2240 2368 2151 
L 1664 377 
L 902 2286 
C 864 2369 864 2381 864 2407 
C 864 2560 1075 2560 1171 2560 
L 1171 2732 
C 1018 2726 736 2726 576 2726 
C 403 2726 205 2726 64 2732 
L 64 2560 
C 307 2560 442 2560 518 2362 
L 1446 44 
C 1485 -51 1491 -64 1549 -64 
C 1606 -64 1613 -51 1651 44 
L 2502 2163 
z
" id="CMR17-76" transform="scale(0.015625)"/>
      <path d="M 2304 1653 
C 2304 2072 2304 2294 2035 2543 
C 1798 2752 1523 2816 1306 2816 
C 800 2816 435 2407 435 1971 
C 435 1728 627 1728 666 1728 
C 749 1728 896 1778 896 1954 
C 896 2112 774 2181 666 2181 
C 640 2181 608 2174 589 2168 
C 723 2592 1069 2714 1293 2714 
C 1613 2714 1965 2429 1965 1885 
L 1965 1600 
C 1587 1600 1133 1549 774 1357 
C 371 1133 256 813 256 570 
C 256 77 832 -64 1171 -64 
C 1523 -64 1850 139 1990 511 
C 2003 233 2182 -18 2464 -18 
C 2598 -18 2938 70 2938 567 
L 2938 920 
L 2822 920 
L 2822 562 
C 2822 178 2650 128 2566 128 
C 2304 128 2304 458 2304 738 
L 2304 1653 
z
M 1965 870 
C 1965 317 1568 38 1216 38 
C 896 38 646 275 646 570 
C 646 761 730 1100 1101 1305 
C 1408 1478 1760 1504 1965 1504 
L 1965 870 
z
" id="CMR17-61" transform="scale(0.015625)"/>
      <path d="M 966 2560 
L 1862 2560 
L 1862 2725 
L 966 2725 
L 966 3904 
L 851 3904 
C 838 3245 614 2668 70 2668 
L 70 2560 
L 627 2560 
L 627 771 
C 627 650 627 -64 1370 -64 
C 1747 -64 1965 306 1965 777 
L 1965 1140 
L 1850 1140 
L 1850 783 
C 1850 344 1677 51 1408 51 
C 1222 51 966 178 966 758 
L 966 2560 
z
" id="CMR17-74" transform="scale(0.015625)"/>
      <path d="M 2758 1356 
C 2758 2176 2163 2816 1466 2816 
C 768 2816 173 2176 173 1356 
C 173 551 768 -64 1466 -64 
C 2163 -64 2758 551 2758 1356 
z
M 1466 51 
C 1165 51 909 230 762 480 
C 602 767 582 1126 582 1408 
C 582 1677 595 2010 762 2298 
C 890 2509 1139 2714 1466 2714 
C 1754 2714 1997 2554 2150 2330 
C 2349 2029 2349 1607 2349 1408 
C 2349 1158 2336 775 2163 467 
C 1984 173 1709 51 1466 51 
z
" id="CMR17-6f" transform="scale(0.015625)"/>
      <path d="M 979 2560 
L 1709 2560 
L 1709 2725 
L 966 2725 
L 966 3494 
C 966 4022 1235 4352 1510 4352 
C 1594 4352 1690 4327 1754 4282 
C 1702 4269 1568 4225 1568 4067 
C 1568 3901 1696 3850 1786 3850 
C 1875 3850 2003 3901 2003 4067 
C 2003 4308 1773 4454 1517 4454 
C 1152 4454 653 4156 653 3481 
L 653 2725 
L 141 2725 
L 141 2560 
L 653 2560 
L 653 427 
C 653 184 627 153 218 153 
L 218 -13 
C 371 0 666 0 832 0 
C 1018 0 1344 0 1517 -13 
L 1517 153 
C 1056 153 979 153 979 439 
L 979 2560 
z
" id="CMR17-66" transform="scale(0.015625)"/>
      <path d="M 3469 1615 
L 3354 1615 
C 3302 983 3219 166 2125 166 
L 1530 166 
C 1274 166 1261 197 1261 414 
L 1261 3898 
C 1261 4129 1274 4192 1760 4192 
L 1901 4192 
L 1901 4352 
C 1638 4352 1331 4352 1069 4352 
C 870 4352 512 4352 326 4352 
L 326 4192 
C 768 4192 838 4192 838 3905 
L 838 452 
C 838 166 768 166 326 166 
L 326 0 
L 3315 0 
L 3469 1615 
z
" id="CMR17-4c" transform="scale(0.015625)"/>
      <path d="M 710 1164 
C 832 1068 1043 960 1299 960 
C 1805 960 2240 1357 2240 1888 
C 2240 2054 2189 2310 1997 2509 
C 2176 2692 2438 2752 2586 2752 
C 2611 2752 2650 2752 2682 2734 
C 2656 2728 2598 2703 2598 2605 
C 2598 2527 2656 2471 2739 2471 
C 2835 2471 2886 2533 2886 2614 
C 2886 2731 2790 2854 2586 2854 
C 2330 2854 2106 2738 1926 2580 
C 1734 2753 1504 2816 1299 2816 
C 794 2816 358 2419 358 1888 
C 358 1522 570 1292 634 1228 
C 442 1004 442 743 442 711 
C 442 545 506 302 723 168 
C 390 85 128 -169 128 -486 
C 128 -943 736 -1280 1466 -1280 
C 2170 -1280 2803 -956 2803 -479 
C 2803 384 1856 384 1363 384 
C 1216 384 954 384 922 391 
C 723 423 589 602 589 826 
C 589 883 589 1024 710 1164 
z
M 1299 1068 
C 736 1068 736 1760 736 1889 
C 736 2016 736 2708 1299 2708 
C 1862 2708 1862 2016 1862 1889 
C 1862 1760 1862 1068 1299 1068 
z
M 1466 -1171 
C 826 -1171 384 -835 384 -486 
C 384 -289 493 -105 634 -4 
C 794 104 858 104 1293 104 
C 1818 104 2547 104 2547 -486 
C 2547 -835 2106 -1171 1466 -1171 
z
" id="CMR17-67" transform="scale(0.015625)"/>
      <path d="M 1338 4224 
C 1299 4320 1293 4320 1158 4320 
L 339 4320 
L 339 4160 
C 781 4160 851 4160 851 3875 
L 851 610 
C 851 451 851 153 339 153 
L 339 -13 
C 486 0 755 0 915 0 
C 1075 0 1344 0 1491 -13 
L 1491 153 
C 979 153 979 451 979 610 
L 979 4135 
L 986 4135 
L 2490 89 
C 2515 25 2528 -13 2579 -13 
C 2630 -13 2643 25 2669 89 
L 4186 4166 
L 4192 4166 
L 4192 438 
C 4192 153 4122 153 3680 153 
L 3680 -13 
C 3853 0 4198 0 4384 0 
C 4570 0 4922 0 5094 -13 
L 5094 153 
C 4653 153 4582 153 4582 438 
L 4582 3875 
C 4582 4160 4653 4160 5094 4160 
L 5094 4320 
L 4282 4320 
C 4147 4320 4141 4314 4102 4218 
L 2720 502 
L 1338 4224 
z
" id="CMR17-4d" transform="scale(0.015625)"/>
      <path d="M 2656 1933 
C 2656 2259 2592 2790 1837 2790 
C 1331 2790 1069 2400 973 2144 
L 966 2144 
L 966 2790 
L 211 2720 
L 211 2554 
C 589 2554 646 2515 646 2208 
L 646 428 
C 646 184 621 153 211 153 
L 211 -13 
C 365 0 646 0 813 0 
C 979 0 1267 0 1421 -13 
L 1421 153 
C 1011 153 986 178 986 428 
L 986 1658 
C 986 2247 1344 2688 1792 2688 
C 2266 2688 2317 2266 2317 1958 
L 2317 428 
C 2317 184 2291 153 1882 153 
L 1882 -13 
C 2035 0 2317 0 2483 0 
C 2650 0 2938 0 3091 -13 
L 3091 153 
C 2682 153 2656 178 2656 428 
L 2656 1933 
z
" id="CMR17-6e" transform="scale(0.015625)"/>
      <path d="M 979 4396 
L 218 4326 
L 218 4160 
C 595 4160 653 4122 653 3817 
L 653 426 
C 653 184 627 153 218 153 
L 218 -13 
C 371 0 653 0 813 0 
C 979 0 1261 0 1414 -13 
L 1414 153 
C 1005 153 979 178 979 426 
L 979 4396 
z
" id="CMR17-6c" transform="scale(0.015625)"/>
      <path d="M 1670 1673 
C 1664 1686 1632 1724 1632 1743 
C 1632 1756 2086 2171 2144 2222 
C 2509 2528 2739 2560 2906 2560 
L 2906 2733 
C 2867 2733 2854 2733 2848 2720 
L 2534 2720 
C 2355 2720 2080 2720 1907 2733 
L 1907 2566 
C 1997 2559 2061 2508 2061 2419 
C 2061 2291 1933 2170 1926 2170 
L 960 1289 
L 960 4396 
L 198 4326 
L 198 4160 
C 576 4160 634 4122 634 3817 
L 634 426 
C 634 184 608 153 198 153 
L 198 -13 
C 352 0 634 0 794 0 
C 954 0 1235 0 1389 -13 
L 1389 153 
C 979 153 954 178 954 428 
L 954 1130 
L 1395 1532 
L 2042 574 
C 2118 459 2182 369 2182 286 
C 2182 172 2067 153 1990 153 
L 1990 -13 
C 2144 0 2419 0 2579 0 
C 2694 0 2931 0 3040 0 
L 3040 153 
C 2739 153 2669 210 2477 491 
L 1670 1673 
z
" id="CMR17-6b" transform="scale(0.015625)"/>
      <path d="M 2656 1933 
C 2656 2259 2592 2790 1837 2790 
C 1312 2790 1056 2368 979 2157 
L 973 2157 
L 973 4396 
L 211 4326 
L 211 4160 
C 589 4160 646 4122 646 3817 
L 646 426 
C 646 184 621 153 211 153 
L 211 -13 
C 365 0 646 0 813 0 
C 979 0 1267 0 1421 -13 
L 1421 153 
C 1011 153 986 178 986 428 
L 986 1658 
C 986 2247 1344 2688 1792 2688 
C 2266 2688 2317 2266 2317 1958 
L 2317 428 
C 2317 184 2291 153 1882 153 
L 1882 -13 
C 2035 0 2317 0 2483 0 
C 2650 0 2938 0 3091 -13 
L 3091 153 
C 2682 153 2656 178 2656 428 
L 2656 1933 
z
" id="CMR17-68" transform="scale(0.015625)"/>
      <path d="M 3482 4325 
L 326 4325 
L 326 4160 
C 768 4160 838 4160 838 3874 
L 838 446 
C 838 160 768 160 326 160 
L 326 0 
C 512 0 870 0 1069 0 
C 1331 0 1638 0 1901 0 
L 1901 160 
L 1760 160 
C 1274 160 1261 223 1261 452 
L 1261 2075 
L 1837 2075 
C 2432 2075 2490 1865 2490 1332 
L 2605 1332 
L 2605 2987 
L 2490 2987 
C 2490 2450 2432 2240 1837 2240 
L 1261 2240 
L 1261 3911 
C 1261 4128 1274 4160 1530 4160 
L 2355 4160 
C 3322 4160 3430 3765 3520 2916 
L 3635 2916 
L 3482 4325 
z
" id="CMR17-46" transform="scale(0.015625)"/>
      <path d="M 1882 2693 
L 1882 2528 
C 2259 2528 2317 2489 2317 2186 
L 2317 1032 
C 2317 500 2029 38 1555 38 
C 1030 38 986 348 986 678 
L 986 2763 
L 211 2693 
L 211 2528 
C 467 2528 640 2528 646 2274 
L 646 1058 
C 646 633 646 361 813 183 
C 896 101 1056 -64 1517 -64 
C 2061 -64 2272 377 2323 506 
L 2330 506 
L 2330 -63 
L 3091 -63 
L 3091 128 
C 2714 128 2656 166 2656 473 
L 2656 2763 
L 1882 2693 
z
" id="CMR17-75" transform="scale(0.015625)"/>
      <path d="M 2234 2240 
C 2112 2240 1933 2240 1933 2017 
C 1933 1838 2080 1787 2163 1787 
C 2208 1787 2394 1807 2394 2024 
C 2394 2467 1958 2803 1466 2803 
C 787 2803 211 2178 211 1363 
C 211 516 813 -64 1466 -64 
C 2259 -64 2458 677 2458 748 
C 2458 774 2451 793 2406 793 
C 2362 793 2355 787 2330 703 
C 2163 180 1798 51 1523 51 
C 1114 51 621 427 621 1369 
C 621 2338 1094 2688 1472 2688 
C 1722 2688 2093 2573 2234 2240 
z
" id="CMR17-63" transform="scale(0.015625)"/>
     </defs>
     <use transform="scale(0.996264)" xlink:href="#CMR17-44"/>
     <use transform="translate(70.393556 0)scale(0.996264)" xlink:href="#CMR17-65"/>
     <use transform="translate(110.879216 0)scale(0.996264)" xlink:href="#CMR17-72"/>
     <use transform="translate(146.159984 0)scale(0.996264)" xlink:href="#CMR17-69"/>
     <use transform="translate(171.031043 0)scale(0.996264)" xlink:href="#CMR17-76"/>
     <use transform="translate(214.119142 0)scale(0.996264)" xlink:href="#CMR17-61"/>
     <use transform="translate(259.809619 0)scale(0.996264)" xlink:href="#CMR17-74"/>
     <use transform="translate(295.090387 0)scale(0.996264)" xlink:href="#CMR17-69"/>
     <use transform="translate(319.961445 0)scale(0.996264)" xlink:href="#CMR17-76"/>
     <use transform="translate(365.651907 0)scale(0.996264)" xlink:href="#CMR17-65"/>
     <use transform="translate(436.213534 0)scale(0.996264)" xlink:href="#CMR17-6f"/>
     <use transform="translate(481.904011 0)scale(0.996264)" xlink:href="#CMR17-66"/>
     <use transform="translate(539.45349 0)scale(0.996264)" xlink:href="#CMR17-4c"/>
     <use transform="translate(596.834898 0)scale(0.996264)" xlink:href="#CMR17-6f"/>
     <use transform="translate(642.525375 0)scale(0.996264)" xlink:href="#CMR17-67"/>
     <use transform="translate(718.291818 0)scale(0.996264)" xlink:href="#CMR17-4d"/>
     <use transform="translate(802.978759 0)scale(0.996264)" xlink:href="#CMR17-61"/>
     <use transform="translate(848.669236 0)scale(0.996264)" xlink:href="#CMR17-72"/>
     <use transform="translate(883.950004 0)scale(0.996264)" xlink:href="#CMR17-67"/>
     <use transform="translate(929.640481 0)scale(0.996264)" xlink:href="#CMR17-69"/>
     <use transform="translate(954.511539 0)scale(0.996264)" xlink:href="#CMR17-6e"/>
     <use transform="translate(1005.406909 0)scale(0.996264)" xlink:href="#CMR17-61"/>
     <use transform="translate(1051.097386 0)scale(0.996264)" xlink:href="#CMR17-6c"/>
     <use transform="translate(1106.044411 0)scale(0.996264)" xlink:href="#CMR17-4c"/>
     <use transform="translate(1163.425819 0)scale(0.996264)" xlink:href="#CMR17-69"/>
     <use transform="translate(1188.296877 0)scale(0.996264)" xlink:href="#CMR17-6b"/>
     <use transform="translate(1233.987339 0)scale(0.996264)" xlink:href="#CMR17-65"/>
     <use transform="translate(1274.473 0)scale(0.996264)" xlink:href="#CMR17-6c"/>
     <use transform="translate(1299.344058 0)scale(0.996264)" xlink:href="#CMR17-69"/>
     <use transform="translate(1324.215117 0)scale(0.996264)" xlink:href="#CMR17-68"/>
     <use transform="translate(1375.110487 0)scale(0.996264)" xlink:href="#CMR17-6f"/>
     <use transform="translate(1423.403402 0)scale(0.996264)" xlink:href="#CMR17-6f"/>
     <use transform="translate(1471.696318 0)scale(0.996264)" xlink:href="#CMR17-64"/>
     <use transform="translate(1552.667654 0)scale(0.996264)" xlink:href="#CMR17-46"/>
     <use transform="translate(1604.844246 0)scale(0.996264)" xlink:href="#CMR17-75"/>
     <use transform="translate(1655.739615 0)scale(0.996264)" xlink:href="#CMR17-6e"/>
     <use transform="translate(1706.634985 0)scale(0.996264)" xlink:href="#CMR17-63"/>
     <use transform="translate(1747.120646 0)scale(0.996264)" xlink:href="#CMR17-74"/>
     <use transform="translate(1782.401413 0)scale(0.996264)" xlink:href="#CMR17-69"/>
     <use transform="translate(1807.272472 0)scale(0.996264)" xlink:href="#CMR17-6f"/>
     <use transform="translate(1852.962949 0)scale(0.996264)" xlink:href="#CMR17-6e"/>
    </g>
   </g>
  </g>
  <g id="axes_2">
   <g id="patch_8">
    <path d="M 206.15921 179.727925 
L 385.522224 179.727925 
L 385.522224 50.034691 
L 206.15921 50.034691 
z
" style="fill:#fdf5e6;"/>
   </g>
   <g id="matplotlib.axis_3">
    <g id="xtick_56">
     <g id="line2d_73">
      <g>
       <use style="fill:#262626;stroke:#262626;stroke-width:0.8;" x="206.15921" xlink:href="#m26ecb54a45" y="179.727925"/>
      </g>
     </g>
     <g id="text_14">
      <g id="patch_9">
       <path d="M 192.078924 199.583601 
L 220.239497 199.583601 
L 220.239497 182.727925 
L 192.078924 182.727925 
z
" style="fill:#ffffff;stroke:#ffffff;stroke-linejoin:miter;"/>
      </g>
      <!-- $\mathdefault{10^{-2}}$ -->
      <g style="fill:#262626;" transform="translate(196.078924 193.646423)scale(0.1 -0.1)">
       <use transform="scale(0.996264)" xlink:href="#CMR17-31"/>
       <use transform="translate(45.690477 0)scale(0.996264)" xlink:href="#CMR17-30"/>
       <use transform="translate(91.380954 36.153639)scale(0.697382)" xlink:href="#CMSY10-0"/>
       <use transform="translate(145.621947 36.153639)scale(0.697382)" xlink:href="#CMR17-32"/>
      </g>
     </g>
    </g>
    <g id="xtick_57">
     <g id="line2d_74">
      <g>
       <use style="fill:#262626;stroke:#262626;stroke-width:0.8;" x="295.840717" xlink:href="#m26ecb54a45" y="179.727925"/>
      </g>
     </g>
     <g id="text_15">
      <g id="patch_10">
       <path d="M 281.76043 199.583601 
L 309.921004 199.583601 
L 309.921004 182.727925 
L 281.76043 182.727925 
z
" style="fill:#ffffff;stroke:#ffffff;stroke-linejoin:miter;"/>
      </g>
      <!-- $\mathdefault{10^{-1}}$ -->
      <g style="fill:#262626;" transform="translate(285.76043 193.646423)scale(0.1 -0.1)">
       <use transform="scale(0.996264)" xlink:href="#CMR17-31"/>
       <use transform="translate(45.690477 0)scale(0.996264)" xlink:href="#CMR17-30"/>
       <use transform="translate(91.380954 36.153639)scale(0.697382)" xlink:href="#CMSY10-0"/>
       <use transform="translate(145.621947 36.153639)scale(0.697382)" xlink:href="#CMR17-31"/>
      </g>
     </g>
    </g>
    <g id="xtick_58">
     <g id="line2d_75">
      <g>
       <use style="fill:#262626;stroke:#262626;stroke-width:0.8;" x="385.522224" xlink:href="#m26ecb54a45" y="179.727925"/>
      </g>
     </g>
     <g id="text_16">
      <g id="patch_11">
       <path d="M 374.55527 199.583601 
L 396.489178 199.583601 
L 396.489178 182.727925 
L 374.55527 182.727925 
z
" style="fill:#ffffff;stroke:#ffffff;stroke-linejoin:miter;"/>
      </g>
      <!-- $\mathdefault{10^{0}}$ -->
      <g style="fill:#262626;" transform="translate(378.55527 193.646423)scale(0.1 -0.1)">
       <use transform="scale(0.996264)" xlink:href="#CMR17-31"/>
       <use transform="translate(45.690477 0)scale(0.996264)" xlink:href="#CMR17-30"/>
       <use transform="translate(91.380954 36.153639)scale(0.697382)" xlink:href="#CMR17-30"/>
      </g>
     </g>
    </g>
    <g id="xtick_59">
     <g id="line2d_76">
      <g>
       <use style="fill:#262626;stroke:#262626;stroke-width:0.6;" x="233.156034" xlink:href="#m009997a2c3" y="179.727925"/>
      </g>
     </g>
    </g>
    <g id="xtick_60">
     <g id="line2d_77">
      <g>
       <use style="fill:#262626;stroke:#262626;stroke-width:0.6;" x="248.948163" xlink:href="#m009997a2c3" y="179.727925"/>
      </g>
     </g>
    </g>
    <g id="xtick_61">
     <g id="line2d_78">
      <g>
       <use style="fill:#262626;stroke:#262626;stroke-width:0.6;" x="260.152858" xlink:href="#m009997a2c3" y="179.727925"/>
      </g>
     </g>
    </g>
    <g id="xtick_62">
     <g id="line2d_79">
      <g>
       <use style="fill:#262626;stroke:#262626;stroke-width:0.6;" x="268.843894" xlink:href="#m009997a2c3" y="179.727925"/>
      </g>
     </g>
    </g>
    <g id="xtick_63">
     <g id="line2d_80">
      <g>
       <use style="fill:#262626;stroke:#262626;stroke-width:0.6;" x="275.944987" xlink:href="#m009997a2c3" y="179.727925"/>
      </g>
     </g>
    </g>
    <g id="xtick_64">
     <g id="line2d_81">
      <g>
       <use style="fill:#262626;stroke:#262626;stroke-width:0.6;" x="281.948876" xlink:href="#m009997a2c3" y="179.727925"/>
      </g>
     </g>
    </g>
    <g id="xtick_65">
     <g id="line2d_82">
      <g>
       <use style="fill:#262626;stroke:#262626;stroke-width:0.6;" x="287.149681" xlink:href="#m009997a2c3" y="179.727925"/>
      </g>
     </g>
    </g>
    <g id="xtick_66">
     <g id="line2d_83">
      <g>
       <use style="fill:#262626;stroke:#262626;stroke-width:0.6;" x="291.737116" xlink:href="#m009997a2c3" y="179.727925"/>
      </g>
     </g>
    </g>
    <g id="xtick_67">
     <g id="line2d_84">
      <g>
       <use style="fill:#262626;stroke:#262626;stroke-width:0.6;" x="322.837541" xlink:href="#m009997a2c3" y="179.727925"/>
      </g>
     </g>
    </g>
    <g id="xtick_68">
     <g id="line2d_85">
      <g>
       <use style="fill:#262626;stroke:#262626;stroke-width:0.6;" x="338.62967" xlink:href="#m009997a2c3" y="179.727925"/>
      </g>
     </g>
    </g>
    <g id="xtick_69">
     <g id="line2d_86">
      <g>
       <use style="fill:#262626;stroke:#262626;stroke-width:0.6;" x="349.834364" xlink:href="#m009997a2c3" y="179.727925"/>
      </g>
     </g>
    </g>
    <g id="xtick_70">
     <g id="line2d_87">
      <g>
       <use style="fill:#262626;stroke:#262626;stroke-width:0.6;" x="358.5254" xlink:href="#m009997a2c3" y="179.727925"/>
      </g>
     </g>
    </g>
    <g id="xtick_71">
     <g id="line2d_88">
      <g>
       <use style="fill:#262626;stroke:#262626;stroke-width:0.6;" x="365.626494" xlink:href="#m009997a2c3" y="179.727925"/>
      </g>
     </g>
    </g>
    <g id="xtick_72">
     <g id="line2d_89">
      <g>
       <use style="fill:#262626;stroke:#262626;stroke-width:0.6;" x="371.630383" xlink:href="#m009997a2c3" y="179.727925"/>
      </g>
     </g>
    </g>
    <g id="xtick_73">
     <g id="line2d_90">
      <g>
       <use style="fill:#262626;stroke:#262626;stroke-width:0.6;" x="376.831188" xlink:href="#m009997a2c3" y="179.727925"/>
      </g>
     </g>
    </g>
    <g id="xtick_74">
     <g id="line2d_91">
      <g>
       <use style="fill:#262626;stroke:#262626;stroke-width:0.6;" x="381.418623" xlink:href="#m009997a2c3" y="179.727925"/>
      </g>
     </g>
    </g>
   </g>
   <g id="matplotlib.axis_4">
    <g id="ytick_4">
     <g id="line2d_92">
      <path clip-path="url(#p1b5fda24d5)" d="M 206.15921 179.727925 
L 385.522224 179.727925 
" style="fill:none;stroke:#cccccc;stroke-linecap:round;stroke-width:0.8;"/>
     </g>
     <g id="line2d_93">
      <g>
       <use style="fill:#262626;stroke:#262626;stroke-width:0.8;" x="206.15921" xlink:href="#m9369bd7697" y="179.727925"/>
      </g>
     </g>
     <g id="text_17">
      <!-- $\mathdefault{−9}$ -->
      <g style="fill:#262626;" transform="translate(186.429131 183.187174)scale(0.1 -0.1)">
       <defs>
        <path d="M 2253 1864 
C 2253 464 1670 31 1190 31 
C 1043 31 685 31 538 294 
C 704 268 826 357 826 518 
C 826 692 685 749 595 749 
C 538 749 365 723 365 506 
C 365 71 742 -128 1203 -128 
C 1939 -128 2688 674 2688 2073 
C 2688 3817 1971 4179 1485 4179 
C 851 4179 243 3628 243 2778 
C 243 1991 762 1408 1414 1408 
C 1952 1408 2189 1903 2253 2112 
L 2253 1864 
z
M 1427 1510 
C 1254 1510 1011 1542 813 1922 
C 678 2169 678 2461 678 2771 
C 678 3146 678 3405 858 3684 
C 947 3817 1114 4032 1485 4032 
C 2240 4032 2240 2885 2240 2632 
C 2240 2182 2035 1510 1427 1510 
z
" id="CMR17-39" transform="scale(0.015625)"/>
       </defs>
       <use transform="scale(0.996264)" xlink:href="#CMSY10-0"/>
       <use transform="translate(77.487468 0)scale(0.996264)" xlink:href="#CMR17-39"/>
      </g>
     </g>
    </g>
    <g id="ytick_5">
     <g id="line2d_94">
      <path clip-path="url(#p1b5fda24d5)" d="M 206.15921 114.881308 
L 385.522224 114.881308 
" style="fill:none;stroke:#cccccc;stroke-linecap:round;stroke-width:0.8;"/>
     </g>
     <g id="line2d_95">
      <g>
       <use style="fill:#262626;stroke:#262626;stroke-width:0.8;" x="206.15921" xlink:href="#m9369bd7697" y="114.881308"/>
      </g>
     </g>
     <g id="text_18">
      <!-- $\mathdefault{0}$ -->
      <g style="fill:#262626;" transform="translate(194.177875 118.340557)scale(0.1 -0.1)">
       <use transform="scale(0.996264)" xlink:href="#CMR17-30"/>
      </g>
     </g>
    </g>
    <g id="ytick_6">
     <g id="line2d_96">
      <path clip-path="url(#p1b5fda24d5)" d="M 206.15921 50.034691 
L 385.522224 50.034691 
" style="fill:none;stroke:#cccccc;stroke-linecap:round;stroke-width:0.8;"/>
     </g>
     <g id="line2d_97">
      <g>
       <use style="fill:#262626;stroke:#262626;stroke-width:0.8;" x="206.15921" xlink:href="#m9369bd7697" y="50.034691"/>
      </g>
     </g>
     <g id="text_19">
      <!-- $\mathdefault{9}$ -->
      <g style="fill:#262626;" transform="translate(194.177875 53.49394)scale(0.1 -0.1)">
       <use transform="scale(0.996264)" xlink:href="#CMR17-39"/>
      </g>
     </g>
    </g>
   </g>
   <g id="patch_12">
    <path d="M 206.15921 179.727925 
L 111.69469 255.231942 
" style="fill:none;stroke:#808080;stroke-linejoin:miter;"/>
   </g>
   <g id="patch_13">
    <path d="M 385.522224 179.727925 
L 231.270032 255.231942 
" style="fill:none;stroke:#808080;stroke-linejoin:miter;"/>
   </g>
   <g id="line2d_98">
    <path clip-path="url(#p1b5fda24d5)" d="M 399.129046 -1 
L 399.682462 1.005972 
L 413.8427 36.716642 
L 428.002938 61.534744 
L 442.163176 78.755358 
L 456.323414 90.673213 
L 470.483652 98.884618 
L 484.643889 104.500212 
L 498.804127 108.294982 
L 512.964365 110.813874 
L 527.124603 112.445066 
L 541.284841 113.468898 
L 555.445079 114.088737 
L 569.605317 114.449958 
L 597.925793 114.76297 
L 601.707772 114.778501 
L 601.707772 114.778501 
" style="fill:none;stroke:#000000;stroke-dasharray:5.55,2.4;stroke-dashoffset:0;stroke-width:1.5;"/>
   </g>
   <g id="line2d_99">
    <path clip-path="url(#p1b5fda24d5)" d="M 399.129046 -1 
L 399.682462 1.005972 
L 413.8427 36.716642 
L 428.002938 61.534744 
L 442.163176 78.755358 
L 456.323414 90.673213 
L 470.483652 98.884618 
L 484.643889 104.500212 
L 498.804127 108.294982 
L 512.964365 110.813874 
L 527.124603 112.445066 
L 541.284841 113.468898 
L 555.445079 114.088737 
L 569.605317 114.449958 
L 597.925793 114.76297 
L 601.707772 114.778501 
L 601.707772 114.778501 
" style="fill:none;stroke:#000000;stroke-dasharray:9.6,2.4,1.5,2.4;stroke-dashoffset:0;stroke-width:1.5;"/>
   </g>
   <g id="line2d_100">
    <path clip-path="url(#p1b5fda24d5)" d="M 330.623025 -1 
L 331.169796 5.907575 
L 332.981543 25.307314 
L 334.793291 41.717749 
L 336.605038 55.569324 
L 338.416786 67.232767 
L 340.228534 77.027195 
L 342.040281 85.227126 
L 343.852029 92.068564 
L 345.663777 97.754256 
L 347.475524 102.45825 
L 349.287272 106.329833 
L 351.099019 109.496946 
L 352.910767 112.069133 
L 354.722515 114.140087 
L 356.534262 115.78986 
L 358.34601 117.086763 
L 360.157757 118.089017 
L 361.969505 118.84617 
L 363.781253 119.400322 
L 365.593 119.787188 
L 367.404748 120.037006 
L 369.216495 120.175326 
L 371.028243 120.223684 
L 372.839991 120.200189 
L 374.651738 120.120024 
L 376.463486 119.995877 
L 378.275234 119.838312 
L 380.086981 119.656085 
L 381.898729 119.456424 
L 383.710476 119.245257 
L 385.522224 119.027415 
" style="fill:none;stroke:#d2691e;stroke-linecap:round;stroke-width:1.5;"/>
   </g>
   <g id="line2d_101">
    <path clip-path="url(#p1b5fda24d5)" d="M 315.632183 -1 
L 316.675815 24.848678 
L 318.487562 57.817258 
L 320.29931 81.871703 
L 322.111058 99.273052 
L 323.922805 111.726247 
L 325.734553 120.513341 
L 327.5463 126.595568 
L 329.358048 130.691395 
L 331.169796 133.336089 
L 332.981543 134.927061 
L 334.793291 135.75831 
L 336.605038 136.046513 
L 338.416786 135.95073 
L 340.228534 135.587248 
L 342.040281 135.040721 
L 343.852029 134.372503 
L 345.663777 133.626859 
L 347.475524 132.835572 
L 349.287272 132.02135 
L 351.099019 131.200334 
L 352.910767 130.383928 
L 354.722515 129.580133 
L 356.534262 128.794517 
L 358.34601 128.030908 
L 360.157757 127.29189 
L 361.969505 126.579159 
L 363.781253 125.893772 
L 365.593 125.236321 
L 367.404748 124.607061 
L 369.216495 124.00599 
L 371.028243 123.432913 
L 372.839991 122.887486 
L 374.651738 122.369244 
L 376.463486 121.877625 
L 378.275234 121.411988 
L 380.086981 120.971627 
L 381.898729 120.55578 
L 383.710476 120.163643 
L 385.522224 119.794378 
" style="fill:none;stroke:#6b8e23;stroke-linecap:round;stroke-width:1.5;"/>
   </g>
   <g id="line2d_102">
    <path clip-path="url(#p1b5fda24d5)" d="M 251.319275 -1 
L 251.452901 0.350078 
L 253.264648 17.392535 
L 255.076396 33.22757 
L 256.888143 47.909144 
L 258.699891 61.490151 
L 260.511639 74.022331 
L 262.323386 85.556203 
L 264.135134 96.141008 
L 265.946882 105.824664 
L 267.758629 114.653736 
L 269.570377 122.673411 
L 271.382124 129.927492 
L 273.193872 136.45839 
L 275.00562 142.307126 
L 276.817367 147.513346 
L 278.629115 152.115329 
L 280.440862 156.150009 
L 282.25261 159.652993 
L 284.064358 162.658586 
L 285.876105 165.199814 
L 287.687853 167.308452 
L 289.499601 169.015042 
L 291.311348 170.348925 
L 293.123096 171.338263 
L 294.934843 172.010059 
L 296.746591 172.390183 
L 298.558339 172.503389 
L 300.370086 172.373338 
L 302.181834 172.022612 
L 303.993581 171.472735 
L 305.805329 170.744186 
L 307.617077 169.856418 
L 309.428824 168.827869 
L 311.240572 167.67598 
L 313.052319 166.417208 
L 314.864067 165.06704 
L 316.675815 163.640015 
L 318.487562 162.149731 
L 320.29931 160.608871 
L 322.111058 159.029217 
L 323.922805 157.421672 
L 325.734553 155.796283 
L 327.5463 154.162262 
L 329.358048 152.528012 
L 331.169796 150.901154 
L 332.981543 149.288554 
L 334.793291 147.696355 
L 336.605038 146.130005 
L 338.416786 144.594293 
L 340.228534 143.093379 
L 342.040281 141.630829 
L 343.852029 140.209653 
L 345.663777 138.832334 
L 347.475524 137.500871 
L 349.287272 136.216809 
L 351.099019 134.981276 
L 352.910767 133.795018 
L 354.722515 132.658432 
L 356.534262 131.571603 
L 358.34601 130.53433 
L 360.157757 129.546161 
L 361.969505 128.606422 
L 363.781253 127.714247 
L 365.593 126.868599 
L 367.404748 126.068302 
L 369.216495 125.312058 
L 371.028243 124.598474 
L 372.839991 123.926078 
L 374.651738 123.293342 
L 376.463486 122.698692 
L 378.275234 122.140529 
L 380.086981 121.617241 
L 381.898729 121.127212 
L 383.710476 120.668836 
L 385.522224 120.240527 
" style="fill:none;stroke:#000000;stroke-linecap:round;stroke-width:1.5;"/>
   </g>
   <g id="line2d_103">
    <path clip-path="url(#p1b5fda24d5)" d="M 267.806953 114.881308 
" style="fill:none;"/>
    <defs>
     <path d="M 0 3 
C 0.795609 3 1.55874 2.683901 2.12132 2.12132 
C 2.683901 1.55874 3 0.795609 3 0 
C 3 -0.795609 2.683901 -1.55874 2.12132 -2.12132 
C 1.55874 -2.683901 0.795609 -3 0 -3 
C -0.795609 -3 -1.55874 -2.683901 -2.12132 -2.12132 
C -2.683901 -1.55874 -3 -0.795609 -3 0 
C -3 0.795609 -2.683901 1.55874 -2.12132 2.12132 
C -1.55874 2.683901 -0.795609 3 0 3 
z
" id="m967667300f" style="stroke:#ffffff;"/>
    </defs>
    <g clip-path="url(#p1b5fda24d5)">
     <use style="stroke:#ffffff;" x="267.806953" xlink:href="#m967667300f" y="114.881308"/>
    </g>
   </g>
   <g id="line2d_104">
    <path clip-path="url(#p1b5fda24d5)" d="M 355.484747 114.881308 
" style="fill:none;"/>
    <defs>
     <path d="M 0 3 
C 0.795609 3 1.55874 2.683901 2.12132 2.12132 
C 2.683901 1.55874 3 0.795609 3 0 
C 3 -0.795609 2.683901 -1.55874 2.12132 -2.12132 
C 1.55874 -2.683901 0.795609 -3 0 -3 
C -0.795609 -3 -1.55874 -2.683901 -2.12132 -2.12132 
C -2.683901 -1.55874 -3 -0.795609 -3 0 
C -3 0.795609 -2.683901 1.55874 -2.12132 2.12132 
C -1.55874 2.683901 -0.795609 3 0 3 
z
" id="m2596aeac16" style="stroke:#ffffff;"/>
    </defs>
    <g clip-path="url(#p1b5fda24d5)">
     <use style="fill:#d2691e;stroke:#ffffff;" x="355.484747" xlink:href="#m2596aeac16" y="114.881308"/>
    </g>
   </g>
   <g id="line2d_105">
    <path clip-path="url(#p1b5fda24d5)" d="M 324.501782 114.881308 
" style="fill:none;"/>
    <defs>
     <path d="M 0 3 
C 0.795609 3 1.55874 2.683901 2.12132 2.12132 
C 2.683901 1.55874 3 0.795609 3 0 
C 3 -0.795609 2.683901 -1.55874 2.12132 -2.12132 
C 1.55874 -2.683901 0.795609 -3 0 -3 
C -0.795609 -3 -1.55874 -2.683901 -2.12132 -2.12132 
C -2.683901 -1.55874 -3 -0.795609 -3 0 
C -3 0.795609 -2.683901 1.55874 -2.12132 2.12132 
C -1.55874 2.683901 -0.795609 3 0 3 
z
" id="m2d7fc9bb77" style="stroke:#ffffff;"/>
    </defs>
    <g clip-path="url(#p1b5fda24d5)">
     <use style="fill:#6b8e23;stroke:#ffffff;" x="324.501782" xlink:href="#m2d7fc9bb77" y="114.881308"/>
    </g>
   </g>
   <g id="patch_14">
    <path d="M 206.15921 179.727925 
L 206.15921 50.034691 
" style="fill:none;stroke:#262626;stroke-linecap:square;stroke-linejoin:miter;stroke-width:0.8;"/>
   </g>
   <g id="patch_15">
    <path d="M 385.522224 179.727925 
L 385.522224 50.034691 
" style="fill:none;stroke:#262626;stroke-linecap:square;stroke-linejoin:miter;stroke-width:0.8;"/>
   </g>
   <g id="patch_16">
    <path d="M 206.15921 179.727925 
L 385.522224 179.727925 
" style="fill:none;stroke:#262626;stroke-linecap:square;stroke-linejoin:miter;stroke-width:0.8;"/>
   </g>
   <g id="patch_17">
    <path d="M 206.15921 50.034691 
L 385.522224 50.034691 
" style="fill:none;stroke:#262626;stroke-linecap:square;stroke-linejoin:miter;stroke-width:0.8;"/>
   </g>
   <g id="text_20">
    <!-- $\hat{\eta}$ -->
    <g style="fill:#262626;" transform="translate(272.291028 109.701799)scale(0.1 -0.1)">
     <use transform="translate(8.426105 0.006461)scale(0.996264)" xlink:href="#CMR17-5e"/>
     <use transform="scale(0.996264)" xlink:href="#CMMI12-11"/>
    </g>
   </g>
   <g id="text_21">
    <!-- $\hat{\eta}_1$ -->
    <g style="fill:#262626;" transform="translate(359.968823 109.701799)scale(0.1 -0.1)">
     <use transform="translate(8.426105 0.006461)scale(0.996264)" xlink:href="#CMR17-5e"/>
     <use transform="scale(0.996264)" xlink:href="#CMMI12-11"/>
     <use transform="translate(48.129223 -14.943915)scale(0.697382)" xlink:href="#CMR17-31"/>
    </g>
   </g>
   <g id="text_22">
    <!-- $\hat{\eta}_2$ -->
    <g style="fill:#262626;" transform="translate(328.985857 109.701799)scale(0.1 -0.1)">
     <use transform="translate(8.426105 0.006461)scale(0.996264)" xlink:href="#CMR17-5e"/>
     <use transform="scale(0.996264)" xlink:href="#CMMI12-11"/>
     <use transform="translate(48.129223 -14.943915)scale(0.697382)" xlink:href="#CMR17-32"/>
    </g>
   </g>
   <g id="legend_1">
    <g id="line2d_106">
     <path d="M 428.891827 55.259462 
L 445.551827 55.259462 
" style="fill:none;stroke:#000000;stroke-dasharray:5.55,2.4;stroke-dashoffset:0;stroke-width:1.5;"/>
    </g>
    <g id="line2d_107"/>
    <g id="text_23">
     <!-- Upper bound -->
     <g style="fill:#262626;" transform="translate(452.215827 58.174962)scale(0.0833 -0.0833)">
      <defs>
       <path d="M 3456 1433 
C 3456 579 2899 38 2291 38 
C 1965 38 1670 210 1491 477 
C 1286 783 1261 1178 1261 1401 
L 1261 3874 
C 1261 4160 1331 4160 1773 4160 
L 1773 4320 
C 1587 4320 1248 4320 1050 4320 
C 851 4320 512 4320 326 4320 
L 326 4160 
C 768 4160 838 4160 838 3874 
L 838 1433 
C 838 516 1536 -128 2278 -128 
C 3110 -128 3590 719 3590 1344 
L 3590 3766 
C 3590 4122 3917 4160 4102 4160 
L 4102 4326 
C 3955 4320 3686 4320 3526 4320 
C 3366 4320 3091 4320 2944 4326 
L 2944 4160 
C 3456 4160 3456 3861 3456 3702 
L 3456 1433 
z
" id="CMR17-55" transform="scale(0.015625)"/>
       <path d="M 1408 -1063 
C 998 -1063 973 -1037 973 -789 
L 973 402 
C 1158 134 1427 -38 1766 -38 
C 2406 -38 3053 523 3053 1388 
C 3053 2191 2496 2802 1837 2802 
C 1453 2802 1139 2592 960 2338 
L 960 2802 
L 198 2732 
L 198 2567 
C 576 2567 634 2528 634 2223 
L 634 -789 
C 634 -1031 608 -1063 198 -1063 
L 198 -1228 
C 352 -1216 634 -1216 800 -1216 
C 966 -1216 1254 -1216 1408 -1228 
L 1408 -1063 
z
M 973 2012 
C 973 2102 973 2235 1222 2471 
C 1254 2497 1472 2688 1792 2688 
C 2259 2688 2643 2108 2643 1382 
C 2643 656 2234 64 1728 64 
C 1498 64 1248 172 1056 472 
C 973 612 973 650 973 752 
L 973 2012 
z
" id="CMR17-70" transform="scale(0.015625)"/>
       <path d="M 960 4396 
L 198 4326 
L 198 4160 
C 576 4160 634 4122 634 3817 
L 634 -13 
L 749 -13 
L 934 441 
C 1120 141 1395 -64 1766 -64 
C 2406 -64 3053 500 3053 1370 
C 3053 2188 2477 2790 1830 2790 
C 1434 2790 1152 2579 960 2330 
L 960 4396 
z
M 973 2004 
C 973 2118 973 2138 1062 2272 
C 1312 2657 1670 2688 1792 2688 
C 1984 2688 2643 2585 2643 1376 
C 2643 108 1888 38 1734 38 
C 1536 38 1248 114 1043 486 
C 973 608 973 621 973 735 
L 973 2004 
z
" id="CMR17-62" transform="scale(0.015625)"/>
      </defs>
      <use transform="scale(0.996264)" xlink:href="#CMR17-55"/>
      <use transform="translate(69.07243 0)scale(0.996264)" xlink:href="#CMR17-70"/>
      <use transform="translate(119.9678 0)scale(0.996264)" xlink:href="#CMR17-70"/>
      <use transform="translate(173.465608 0)scale(0.996264)" xlink:href="#CMR17-65"/>
      <use transform="translate(213.951269 0)scale(0.996264)" xlink:href="#CMR17-72"/>
      <use transform="translate(279.308003 0)scale(0.996264)" xlink:href="#CMR17-62"/>
      <use transform="translate(332.805811 0)scale(0.996264)" xlink:href="#CMR17-6f"/>
      <use transform="translate(378.496288 0)scale(0.996264)" xlink:href="#CMR17-75"/>
      <use transform="translate(429.391658 0)scale(0.996264)" xlink:href="#CMR17-6e"/>
      <use transform="translate(480.287028 0)scale(0.996264)" xlink:href="#CMR17-64"/>
     </g>
    </g>
    <g id="line2d_108">
     <path d="M 428.891827 66.869131 
L 445.551827 66.869131 
" style="fill:none;stroke:#000000;stroke-dasharray:9.6,2.4,1.5,2.4;stroke-dashoffset:0;stroke-width:1.5;"/>
    </g>
    <g id="line2d_109"/>
    <g id="text_24">
     <!-- Lower bound -->
     <g style="fill:#262626;" transform="translate(452.215827 69.784631)scale(0.0833 -0.0833)">
      <defs>
       <path d="M 3725 2183 
C 3853 2560 4109 2560 4205 2560 
L 4205 2732 
C 4077 2732 3949 2732 3821 2732 
C 3699 2732 3424 2732 3315 2738 
L 3315 2560 
C 3514 2560 3622 2445 3622 2286 
C 3622 2241 3610 2184 3597 2140 
L 2995 407 
L 2342 2275 
C 2330 2319 2310 2370 2310 2395 
C 2310 2560 2528 2560 2630 2560 
L 2630 2738 
C 2483 2732 2214 2732 2061 2732 
C 1901 2732 1734 2732 1587 2738 
L 1587 2560 
C 1939 2560 1939 2547 2074 2149 
L 1485 451 
L 851 2281 
C 819 2363 819 2376 819 2395 
C 819 2560 1037 2560 1139 2560 
L 1139 2738 
C 986 2732 717 2732 557 2732 
C 416 2732 198 2732 64 2738 
L 64 2560 
C 346 2560 416 2541 486 2331 
L 1274 49 
C 1299 -33 1318 -52 1370 -52 
C 1414 -52 1440 -39 1472 56 
L 2131 1980 
L 2797 56 
C 2829 -39 2854 -52 2899 -52 
C 2950 -52 2970 -33 2995 50 
L 3725 2183 
z
" id="CMR17-77" transform="scale(0.015625)"/>
      </defs>
      <use transform="scale(0.996264)" xlink:href="#CMR17-4c"/>
      <use transform="translate(57.381408 0)scale(0.996264)" xlink:href="#CMR17-6f"/>
      <use transform="translate(100.469431 0)scale(0.996264)" xlink:href="#CMR17-77"/>
      <use transform="translate(164.376858 0)scale(0.996264)" xlink:href="#CMR17-65"/>
      <use transform="translate(204.862518 0)scale(0.996264)" xlink:href="#CMR17-72"/>
      <use transform="translate(270.219252 0)scale(0.996264)" xlink:href="#CMR17-62"/>
      <use transform="translate(323.717061 0)scale(0.996264)" xlink:href="#CMR17-6f"/>
      <use transform="translate(369.407538 0)scale(0.996264)" xlink:href="#CMR17-75"/>
      <use transform="translate(420.302908 0)scale(0.996264)" xlink:href="#CMR17-6e"/>
      <use transform="translate(471.198277 0)scale(0.996264)" xlink:href="#CMR17-64"/>
     </g>
    </g>
    <g id="line2d_110">
     <path d="M 428.891827 78.4788 
L 445.551827 78.4788 
" style="fill:none;stroke:#000000;stroke-linecap:round;stroke-width:1.5;"/>
    </g>
    <g id="line2d_111"/>
    <g id="text_25">
     <!-- Exact -->
     <g style="fill:#262626;" transform="translate(452.215827 81.3943)scale(0.0833 -0.0833)">
      <defs>
       <path d="M 3885 1615 
L 3770 1615 
C 3629 676 3546 166 2419 166 
L 1530 166 
C 1274 166 1261 197 1261 414 
L 1261 2176 
L 1862 2176 
C 2464 2176 2522 1960 2522 1430 
L 2637 1430 
L 2637 3081 
L 2522 3081 
C 2522 2557 2464 2342 1862 2342 
L 1261 2342 
L 1261 3913 
C 1261 4128 1274 4160 1530 4160 
L 2406 4160 
C 3398 4160 3514 3769 3603 2929 
L 3718 2929 
L 3565 4325 
L 326 4325 
L 326 4160 
C 768 4160 838 4160 838 3874 
L 838 451 
C 838 166 768 166 326 166 
L 326 0 
L 3654 0 
L 3885 1615 
z
" id="CMR17-45" transform="scale(0.015625)"/>
       <path d="M 1664 1477 
C 1856 1726 2074 2006 2253 2216 
C 2464 2458 2707 2560 2989 2560 
L 2989 2726 
C 2880 2726 2656 2726 2541 2726 
C 2368 2726 2170 2726 2022 2732 
L 2022 2566 
C 2112 2553 2163 2489 2163 2400 
C 2163 2285 2099 2215 2067 2171 
L 1594 1573 
L 1030 2306 
C 973 2376 973 2388 973 2420 
C 973 2497 1037 2560 1146 2560 
L 1146 2732 
C 992 2726 717 2726 557 2726 
C 384 2726 179 2726 38 2732 
L 38 2560 
C 384 2560 461 2534 614 2343 
L 1350 1395 
C 1363 1382 1395 1344 1395 1325 
C 1395 1299 838 619 768 530 
C 480 185 179 160 6 160 
L 6 0 
C 115 0 339 0 454 0 
C 582 0 864 0 979 -6 
L 979 160 
C 941 166 838 179 838 325 
C 838 440 890 510 947 586 
L 1478 1236 
L 2035 512 
C 2086 442 2163 346 2163 301 
C 2163 211 2086 160 1984 160 
L 1984 -6 
C 2138 0 2413 0 2573 0 
C 2746 0 2950 0 3091 -6 
L 3091 160 
C 2771 160 2675 172 2522 370 
L 1664 1477 
z
" id="CMR17-78" transform="scale(0.015625)"/>
      </defs>
      <use transform="scale(0.996264)" xlink:href="#CMR17-45"/>
      <use transform="translate(62.586301 0)scale(0.996264)" xlink:href="#CMR17-78"/>
      <use transform="translate(110.879216 0)scale(0.996264)" xlink:href="#CMR17-61"/>
      <use transform="translate(156.569693 0)scale(0.996264)" xlink:href="#CMR17-63"/>
      <use transform="translate(197.055354 0)scale(0.996264)" xlink:href="#CMR17-74"/>
     </g>
    </g>
    <g id="line2d_112">
     <path d="M 428.891827 90.759378 
L 445.551827 90.759378 
" style="fill:none;stroke:#d2691e;stroke-linecap:round;stroke-width:1.5;"/>
    </g>
    <g id="line2d_113"/>
    <g id="text_26">
     <!-- $1^{\text{st}}$ order asymptote -->
     <g style="fill:#262626;" transform="translate(452.215827 93.674878)scale(0.0833 -0.0833)">
      <defs>
       <path d="M 1978 2697 
C 1978 2813 1971 2819 1933 2819 
C 1907 2819 1901 2813 1824 2717 
C 1805 2691 1747 2626 1728 2601 
C 1523 2819 1235 2819 1126 2819 
C 416 2819 160 2447 160 2076 
C 160 1498 813 1365 998 1325 
C 1402 1243 1542 1217 1677 1101 
C 1760 1025 1901 884 1901 654 
C 1901 384 1747 38 1158 38 
C 602 38 403 460 288 1021 
C 269 1110 269 1117 218 1117 
C 166 1117 160 1110 160 983 
L 160 63 
C 160 -51 166 -58 205 -58 
C 237 -58 243 -51 275 0 
C 314 57 410 211 448 276 
C 576 103 800 -64 1158 -64 
C 1792 -64 2131 283 2131 784 
C 2131 1112 1958 1285 1875 1362 
C 1683 1561 1459 1606 1190 1657 
C 838 1735 390 1825 390 2217 
C 390 2383 480 2737 1126 2737 
C 1811 2737 1850 2094 1862 1888 
C 1869 1856 1901 1849 1920 1849 
C 1978 1849 1978 1869 1978 1978 
L 1978 2697 
z
" id="CMR17-73" transform="scale(0.015625)"/>
       <path d="M 2496 2197 
C 2656 2586 2944 2586 3034 2586 
L 3034 2752 
C 2912 2752 2752 2752 2630 2752 
C 2496 2752 2285 2752 2157 2758 
L 2157 2592 
C 2400 2573 2406 2394 2406 2343 
C 2406 2280 2394 2248 2362 2171 
L 1664 449 
L 902 2306 
C 870 2382 870 2426 870 2433 
C 870 2573 1018 2586 1171 2586 
L 1171 2758 
C 1018 2752 742 2752 582 2752 
C 410 2752 205 2752 64 2758 
L 64 2586 
C 410 2586 448 2554 531 2350 
L 1485 15 
C 1197 -738 1030 -1178 627 -1178 
C 557 -1178 397 -1159 282 -1044 
C 429 -1031 493 -942 493 -833 
C 493 -725 416 -629 288 -629 
C 147 -629 77 -725 77 -840 
C 77 -1095 339 -1280 627 -1280 
C 998 -1280 1229 -922 1357 -604 
L 2496 2197 
z
" id="CMR17-79" transform="scale(0.015625)"/>
       <path d="M 4326 1933 
C 4326 2252 4269 2790 3507 2790 
C 3072 2790 2771 2496 2656 2151 
L 2650 2151 
C 2573 2676 2195 2790 1837 2790 
C 1331 2790 1069 2400 973 2144 
L 966 2144 
L 966 2790 
L 211 2720 
L 211 2554 
C 589 2554 646 2515 646 2208 
L 646 428 
C 646 184 621 153 211 153 
L 211 -13 
C 365 0 646 0 813 0 
C 979 0 1267 0 1421 -13 
L 1421 153 
C 1011 153 986 178 986 428 
L 986 1658 
C 986 2247 1344 2688 1792 2688 
C 2266 2688 2317 2266 2317 1958 
L 2317 428 
C 2317 184 2291 153 1882 153 
L 1882 -13 
C 2035 0 2317 0 2483 0 
C 2650 0 2938 0 3091 -13 
L 3091 153 
C 2682 153 2656 178 2656 428 
L 2656 1658 
C 2656 2247 3014 2688 3462 2688 
C 3936 2688 3987 2266 3987 1958 
L 3987 428 
C 3987 184 3962 153 3552 153 
L 3552 -13 
C 3706 0 3987 0 4154 0 
C 4320 0 4608 0 4762 -13 
L 4762 153 
C 4352 153 4326 178 4326 428 
L 4326 1933 
z
" id="CMR17-6d" transform="scale(0.015625)"/>
      </defs>
      <use transform="scale(0.996264)" xlink:href="#CMR17-31"/>
      <use transform="translate(45.690477 36.153639)scale(0.697382)" xlink:href="#CMR17-73"/>
      <use transform="translate(70.751299 36.153639)scale(0.697382)" xlink:href="#CMR17-74"/>
      <use transform="translate(126.021818 0)scale(0.996264)" xlink:href="#CMR17-6f"/>
      <use transform="translate(171.712295 0)scale(0.996264)" xlink:href="#CMR17-72"/>
      <use transform="translate(206.993063 0)scale(0.996264)" xlink:href="#CMR17-64"/>
      <use transform="translate(257.888433 0)scale(0.996264)" xlink:href="#CMR17-65"/>
      <use transform="translate(298.374093 0)scale(0.996264)" xlink:href="#CMR17-72"/>
      <use transform="translate(363.730828 0)scale(0.996264)" xlink:href="#CMR17-61"/>
      <use transform="translate(409.421305 0)scale(0.996264)" xlink:href="#CMR17-73"/>
      <use transform="translate(445.222642 0)scale(0.996264)" xlink:href="#CMR17-79"/>
      <use transform="translate(493.515558 0)scale(0.996264)" xlink:href="#CMR17-6d"/>
      <use transform="translate(570.435148 0)scale(0.996264)" xlink:href="#CMR17-70"/>
      <use transform="translate(621.330518 0)scale(0.996264)" xlink:href="#CMR17-74"/>
      <use transform="translate(656.611286 0)scale(0.996264)" xlink:href="#CMR17-6f"/>
      <use transform="translate(702.301763 0)scale(0.996264)" xlink:href="#CMR17-74"/>
      <use transform="translate(737.58253 0)scale(0.996264)" xlink:href="#CMR17-65"/>
     </g>
    </g>
    <g id="line2d_114">
     <path d="M 428.891827 103.501011 
L 445.551827 103.501011 
" style="fill:none;stroke:#6b8e23;stroke-linecap:round;stroke-width:1.5;"/>
    </g>
    <g id="line2d_115"/>
    <g id="text_27">
     <!-- $2^{\text{nd}}$ order asymptote -->
     <g style="fill:#262626;" transform="translate(452.215827 106.416511)scale(0.0833 -0.0833)">
      <use transform="scale(0.996264)" xlink:href="#CMR17-32"/>
      <use transform="translate(45.690477 36.153639)scale(0.697382)" xlink:href="#CMR17-6e"/>
      <use transform="translate(81.317085 36.153639)scale(0.697382)" xlink:href="#CMR17-64"/>
      <use transform="translate(147.517792 0)scale(0.996264)" xlink:href="#CMR17-6f"/>
      <use transform="translate(193.208269 0)scale(0.996264)" xlink:href="#CMR17-72"/>
      <use transform="translate(228.489037 0)scale(0.996264)" xlink:href="#CMR17-64"/>
      <use transform="translate(279.384407 0)scale(0.996264)" xlink:href="#CMR17-65"/>
      <use transform="translate(319.870067 0)scale(0.996264)" xlink:href="#CMR17-72"/>
      <use transform="translate(385.226801 0)scale(0.996264)" xlink:href="#CMR17-61"/>
      <use transform="translate(430.917279 0)scale(0.996264)" xlink:href="#CMR17-73"/>
      <use transform="translate(466.718616 0)scale(0.996264)" xlink:href="#CMR17-79"/>
      <use transform="translate(515.011532 0)scale(0.996264)" xlink:href="#CMR17-6d"/>
      <use transform="translate(591.931122 0)scale(0.996264)" xlink:href="#CMR17-70"/>
      <use transform="translate(642.826492 0)scale(0.996264)" xlink:href="#CMR17-74"/>
      <use transform="translate(678.10726 0)scale(0.996264)" xlink:href="#CMR17-6f"/>
      <use transform="translate(723.797737 0)scale(0.996264)" xlink:href="#CMR17-74"/>
      <use transform="translate(759.078504 0)scale(0.996264)" xlink:href="#CMR17-65"/>
     </g>
    </g>
    <g id="line2d_116">
     <path d="M 428.891827 116.081307 
L 445.551827 116.081307 
" style="fill:none;"/>
    </g>
    <g id="line2d_117">
     <g>
      <use style="stroke:#ffffff;" x="437.221827" xlink:href="#m967667300f" y="116.081307"/>
     </g>
    </g>
    <g id="text_28">
     <!-- Exact root at $\hat{\eta}_{\phantom{2}} = 10^{-1.31}$ -->
     <g style="fill:#262626;" transform="translate(452.215827 118.996807)scale(0.0833 -0.0833)">
      <defs>
       <path d="M 4115 2017 
C 4211 2017 4307 2017 4307 2125 
C 4307 2240 4198 2240 4090 2240 
L 512 2240 
C 403 2240 294 2240 294 2125 
C 294 2017 390 2017 486 2017 
L 4115 2017 
z
M 4090 896 
C 4198 896 4307 896 4307 1011 
C 4307 1119 4211 1119 4115 1119 
L 486 1119 
C 390 1119 294 1119 294 1011 
C 294 896 403 896 512 896 
L 4090 896 
z
" id="CMR17-3d" transform="scale(0.015625)"/>
       <path d="M 1178 307 
C 1178 492 1024 619 870 619 
C 685 619 557 466 557 313 
C 557 128 710 0 864 0 
C 1050 0 1178 153 1178 307 
z
" id="CMMI12-3a" transform="scale(0.015625)"/>
      </defs>
      <use transform="scale(0.996264)" xlink:href="#CMR17-45"/>
      <use transform="translate(62.586301 0)scale(0.996264)" xlink:href="#CMR17-78"/>
      <use transform="translate(110.879216 0)scale(0.996264)" xlink:href="#CMR17-61"/>
      <use transform="translate(156.569693 0)scale(0.996264)" xlink:href="#CMR17-63"/>
      <use transform="translate(197.055354 0)scale(0.996264)" xlink:href="#CMR17-74"/>
      <use transform="translate(262.412088 0)scale(0.996264)" xlink:href="#CMR17-72"/>
      <use transform="translate(297.692856 0)scale(0.996264)" xlink:href="#CMR17-6f"/>
      <use transform="translate(345.985772 0)scale(0.996264)" xlink:href="#CMR17-6f"/>
      <use transform="translate(391.676249 0)scale(0.996264)" xlink:href="#CMR17-74"/>
      <use transform="translate(457.032983 0)scale(0.996264)" xlink:href="#CMR17-61"/>
      <use transform="translate(502.72346 0)scale(0.996264)" xlink:href="#CMR17-74"/>
      <use transform="translate(576.506299 0.006461)scale(0.996264)" xlink:href="#CMR17-5e"/>
      <use transform="translate(568.080194 0)scale(0.996264)" xlink:href="#CMMI12-11"/>
      <use transform="translate(676.36474 0)scale(0.996264)" xlink:href="#CMR17-3d"/>
      <use transform="translate(775.753537 0)scale(0.996264)" xlink:href="#CMR17-31"/>
      <use transform="translate(821.444014 0)scale(0.996264)" xlink:href="#CMR17-30"/>
      <use transform="translate(867.134491 36.153639)scale(0.697382)" xlink:href="#CMSY10-0"/>
      <use transform="translate(921.375485 36.153639)scale(0.697382)" xlink:href="#CMR17-31"/>
      <use transform="translate(953.358667 36.153639)scale(0.697382)" xlink:href="#CMMI12-3a"/>
      <use transform="translate(972.326599 36.153639)scale(0.697382)" xlink:href="#CMR17-33"/>
      <use transform="translate(1004.309781 36.153639)scale(0.697382)" xlink:href="#CMR17-31"/>
     </g>
    </g>
    <g id="line2d_118">
     <path d="M 428.891827 128.661604 
L 445.551827 128.661604 
" style="fill:none;"/>
    </g>
    <g id="line2d_119">
     <g>
      <use style="fill:#d2691e;stroke:#ffffff;" x="437.221827" xlink:href="#m2596aeac16" y="128.661604"/>
     </g>
    </g>
    <g id="text_29">
     <!-- Approximated root at $\hat{\eta}_1 = 10^{-0.33}$ -->
     <g style="fill:#262626;" transform="translate(452.215827 131.577104)scale(0.0833 -0.0833)">
      <defs>
       <path d="M 2323 4378 
C 2291 4461 2278 4480 2214 4480 
C 2150 4480 2138 4461 2106 4378 
L 749 566 
C 627 223 371 153 147 153 
L 147 -13 
C 262 0 518 0 640 0 
C 800 0 1056 0 1210 -13 
L 1210 153 
C 909 153 864 361 864 439 
C 864 497 877 530 890 569 
L 1229 1536 
L 2906 1536 
L 3290 442 
C 3322 365 3322 352 3322 327 
C 3322 153 3046 153 2925 153 
L 2925 0 
C 3110 0 3443 0 3642 0 
C 3808 0 4128 0 4282 -13 
L 4282 153 
C 3942 153 3827 153 3744 387 
L 2323 4378 
z
M 2067 3893 
L 2848 1702 
L 1286 1702 
L 2067 3893 
z
" id="CMR17-41" transform="scale(0.015625)"/>
      </defs>
      <use transform="scale(0.996264)" xlink:href="#CMR17-41"/>
      <use transform="translate(69.07243 0)scale(0.996264)" xlink:href="#CMR17-70"/>
      <use transform="translate(119.9678 0)scale(0.996264)" xlink:href="#CMR17-70"/>
      <use transform="translate(170.863169 0)scale(0.996264)" xlink:href="#CMR17-72"/>
      <use transform="translate(206.143937 0)scale(0.996264)" xlink:href="#CMR17-6f"/>
      <use transform="translate(249.23196 0)scale(0.996264)" xlink:href="#CMR17-78"/>
      <use transform="translate(297.524876 0)scale(0.996264)" xlink:href="#CMR17-69"/>
      <use transform="translate(322.395935 0)scale(0.996264)" xlink:href="#CMR17-6d"/>
      <use transform="translate(399.315525 0)scale(0.996264)" xlink:href="#CMR17-61"/>
      <use transform="translate(445.006002 0)scale(0.996264)" xlink:href="#CMR17-74"/>
      <use transform="translate(480.286769 0)scale(0.996264)" xlink:href="#CMR17-65"/>
      <use transform="translate(520.77243 0)scale(0.996264)" xlink:href="#CMR17-64"/>
      <use transform="translate(601.743766 0)scale(0.996264)" xlink:href="#CMR17-72"/>
      <use transform="translate(637.024534 0)scale(0.996264)" xlink:href="#CMR17-6f"/>
      <use transform="translate(685.31745 0)scale(0.996264)" xlink:href="#CMR17-6f"/>
      <use transform="translate(731.007927 0)scale(0.996264)" xlink:href="#CMR17-74"/>
      <use transform="translate(796.364661 0)scale(0.996264)" xlink:href="#CMR17-61"/>
      <use transform="translate(842.055138 0)scale(0.996264)" xlink:href="#CMR17-74"/>
      <use transform="translate(915.837977 0.006461)scale(0.996264)" xlink:href="#CMR17-5e"/>
      <use transform="translate(907.411872 0)scale(0.996264)" xlink:href="#CMMI12-11"/>
      <use transform="translate(955.541095 -14.943915)scale(0.697382)" xlink:href="#CMR17-31"/>
      <use transform="translate(1015.696418 0)scale(0.996264)" xlink:href="#CMR17-3d"/>
      <use transform="translate(1115.085215 0)scale(0.996264)" xlink:href="#CMR17-31"/>
      <use transform="translate(1160.775692 0)scale(0.996264)" xlink:href="#CMR17-30"/>
      <use transform="translate(1206.466169 36.153639)scale(0.697382)" xlink:href="#CMSY10-0"/>
      <use transform="translate(1260.707163 36.153639)scale(0.697382)" xlink:href="#CMR17-30"/>
      <use transform="translate(1292.690345 36.153639)scale(0.697382)" xlink:href="#CMMI12-3a"/>
      <use transform="translate(1311.658277 36.153639)scale(0.697382)" xlink:href="#CMR17-33"/>
      <use transform="translate(1343.641459 36.153639)scale(0.697382)" xlink:href="#CMR17-33"/>
     </g>
    </g>
    <g id="line2d_120">
     <path d="M 428.891827 141.2419 
L 445.551827 141.2419 
" style="fill:none;"/>
    </g>
    <g id="line2d_121">
     <g>
      <use style="fill:#6b8e23;stroke:#ffffff;" x="437.221827" xlink:href="#m2d7fc9bb77" y="141.2419"/>
     </g>
    </g>
    <g id="text_30">
     <!-- Approximated root at $\hat{\eta}_2 = 10^{-0.68}$ -->
     <g style="fill:#262626;" transform="translate(452.215827 144.1574)scale(0.0833 -0.0833)">
      <defs>
       <path d="M 678 2176 
C 678 3690 1395 4032 1811 4032 
C 1946 4032 2272 4009 2400 3776 
C 2298 3776 2106 3776 2106 3553 
C 2106 3381 2246 3323 2336 3323 
C 2394 3323 2566 3348 2566 3560 
C 2566 3954 2246 4179 1805 4179 
C 1043 4179 243 3390 243 1984 
C 243 253 966 -128 1478 -128 
C 2099 -128 2688 427 2688 1283 
C 2688 2081 2170 2662 1517 2662 
C 1126 2662 838 2407 678 1960 
L 678 2176 
z
M 1478 25 
C 691 25 691 1200 691 1436 
C 691 1896 909 2560 1504 2560 
C 1613 2560 1926 2560 2138 2120 
C 2253 1870 2253 1609 2253 1289 
C 2253 944 2253 690 2118 434 
C 1978 171 1773 25 1478 25 
z
" id="CMR17-36" transform="scale(0.015625)"/>
      </defs>
      <use transform="scale(0.996264)" xlink:href="#CMR17-41"/>
      <use transform="translate(69.07243 0)scale(0.996264)" xlink:href="#CMR17-70"/>
      <use transform="translate(119.9678 0)scale(0.996264)" xlink:href="#CMR17-70"/>
      <use transform="translate(170.863169 0)scale(0.996264)" xlink:href="#CMR17-72"/>
      <use transform="translate(206.143937 0)scale(0.996264)" xlink:href="#CMR17-6f"/>
      <use transform="translate(249.23196 0)scale(0.996264)" xlink:href="#CMR17-78"/>
      <use transform="translate(297.524876 0)scale(0.996264)" xlink:href="#CMR17-69"/>
      <use transform="translate(322.395935 0)scale(0.996264)" xlink:href="#CMR17-6d"/>
      <use transform="translate(399.315525 0)scale(0.996264)" xlink:href="#CMR17-61"/>
      <use transform="translate(445.006002 0)scale(0.996264)" xlink:href="#CMR17-74"/>
      <use transform="translate(480.286769 0)scale(0.996264)" xlink:href="#CMR17-65"/>
      <use transform="translate(520.77243 0)scale(0.996264)" xlink:href="#CMR17-64"/>
      <use transform="translate(601.743766 0)scale(0.996264)" xlink:href="#CMR17-72"/>
      <use transform="translate(637.024534 0)scale(0.996264)" xlink:href="#CMR17-6f"/>
      <use transform="translate(685.31745 0)scale(0.996264)" xlink:href="#CMR17-6f"/>
      <use transform="translate(731.007927 0)scale(0.996264)" xlink:href="#CMR17-74"/>
      <use transform="translate(796.364661 0)scale(0.996264)" xlink:href="#CMR17-61"/>
      <use transform="translate(842.055138 0)scale(0.996264)" xlink:href="#CMR17-74"/>
      <use transform="translate(915.837977 0.006461)scale(0.996264)" xlink:href="#CMR17-5e"/>
      <use transform="translate(907.411872 0)scale(0.996264)" xlink:href="#CMMI12-11"/>
      <use transform="translate(955.541095 -14.943915)scale(0.697382)" xlink:href="#CMR17-32"/>
      <use transform="translate(1015.696418 0)scale(0.996264)" xlink:href="#CMR17-3d"/>
      <use transform="translate(1115.085215 0)scale(0.996264)" xlink:href="#CMR17-31"/>
      <use transform="translate(1160.775692 0)scale(0.996264)" xlink:href="#CMR17-30"/>
      <use transform="translate(1206.466169 36.153639)scale(0.697382)" xlink:href="#CMSY10-0"/>
      <use transform="translate(1260.707163 36.153639)scale(0.697382)" xlink:href="#CMR17-30"/>
      <use transform="translate(1292.690345 36.153639)scale(0.697382)" xlink:href="#CMMI12-3a"/>
      <use transform="translate(1311.658277 36.153639)scale(0.697382)" xlink:href="#CMR17-36"/>
      <use transform="translate(1343.641459 36.153639)scale(0.697382)" xlink:href="#CMR17-38"/>
     </g>
    </g>
   </g>
  </g>
 </g>
 <defs>
  <clipPath id="pd90fe8a095">
   <rect height="259.386467" width="358.726027" x="51.907018" y="21.50218"/>
  </clipPath>
  <clipPath id="p1b5fda24d5">
   <rect height="129.693233" width="179.363014" x="206.15921" y="50.034691"/>
  </clipPath>
 </defs>
</svg>
