<?xml version="1.0" encoding="utf-8" standalone="no"?>
<!DOCTYPE svg PUBLIC "-//W3C//DTD SVG 1.1//EN"
  "http://www.w3.org/Graphics/SVG/1.1/DTD/svg11.dtd">
<svg height="338.4pt" version="1.1" viewBox="0 0 424.8 338.4" width="424.8pt" xmlns="http://www.w3.org/2000/svg" xmlns:xlink="http://www.w3.org/1999/xlink">
 <metadata>
  <rdf:RDF xmlns:cc="http://creativecommons.org/ns#" xmlns:dc="http://purl.org/dc/elements/1.1/" xmlns:rdf="http://www.w3.org/1999/02/22-rdf-syntax-ns#">
   <cc:Work>
    <dc:type rdf:resource="http://purl.org/dc/dcmitype/StillImage"/>
    <dc:date>2021-11-29T19:28:29.738713</dc:date>
    <dc:format>image/svg+xml</dc:format>
    <dc:creator>
     <cc:Agent>
      <dc:title>Matplotlib v3.4.2, https://matplotlib.org/</dc:title>
     </cc:Agent>
    </dc:creator>
   </cc:Work>
  </rdf:RDF>
 </metadata>
 <defs>
  <style type="text/css">*{stroke-linecap:butt;stroke-linejoin:round;}</style>
 </defs>
 <g id="figure_1">
  <g id="patch_1">
   <path d="M 0 338.4 
L 424.8 338.4 
L 424.8 0 
L 0 0 
z
" style="fill:#ffffff;"/>
  </g>
  <g id="axes_1">
   <g id="patch_2">
    <path d="M 40.892719 302.488647 
L 411.234961 302.488647 
L 411.234961 21.50218 
L 40.892719 21.50218 
z
" style="fill:#ffffff;"/>
   </g>
   <g id="matplotlib.axis_1">
    <g id="xtick_1">
     <g id="line2d_1">
      <defs>
       <path d="M 0 0 
L 0 3.5 
" id="m88cbeb8de4" style="stroke:#262626;stroke-width:0.8;"/>
      </defs>
      <g>
       <use style="fill:#262626;stroke:#262626;stroke-width:0.8;" x="40.892719" xlink:href="#m88cbeb8de4" y="302.488647"/>
      </g>
     </g>
     <g id="text_1">
      <!-- $\mathdefault{0.0}$ -->
      <g style="fill:#262626;" transform="translate(34.52768 316.407145)scale(0.1 -0.1)">
       <defs>
        <path d="M 2688 2025 
C 2688 2416 2682 3080 2413 3591 
C 2176 4039 1798 4198 1466 4198 
C 1158 4198 768 4058 525 3597 
C 269 3118 243 2524 243 2025 
C 243 1661 250 1106 448 619 
C 723 -39 1216 -128 1466 -128 
C 1760 -128 2208 -7 2470 600 
C 2662 1042 2688 1559 2688 2025 
z
M 1466 -26 
C 1056 -26 813 325 723 812 
C 653 1188 653 1738 653 2096 
C 653 2588 653 2997 736 3387 
C 858 3929 1216 4096 1466 4096 
C 1728 4096 2067 3923 2189 3400 
C 2272 3036 2278 2607 2278 2096 
C 2278 1680 2278 1169 2202 792 
C 2067 95 1690 -26 1466 -26 
z
" id="CMR17-30" transform="scale(0.015625)"/>
        <path d="M 1178 307 
C 1178 492 1024 619 870 619 
C 685 619 557 466 557 313 
C 557 128 710 0 864 0 
C 1050 0 1178 153 1178 307 
z
" id="CMMI12-3a" transform="scale(0.015625)"/>
       </defs>
       <use transform="scale(0.996264)" xlink:href="#CMR17-30"/>
       <use transform="translate(45.690477 0)scale(0.996264)" xlink:href="#CMMI12-3a"/>
       <use transform="translate(72.787654 0)scale(0.996264)" xlink:href="#CMR17-30"/>
      </g>
     </g>
    </g>
    <g id="xtick_2">
     <g id="line2d_2">
      <g>
       <use style="fill:#262626;stroke:#262626;stroke-width:0.8;" x="114.961167" xlink:href="#m88cbeb8de4" y="302.488647"/>
      </g>
     </g>
     <g id="text_2">
      <!-- $\mathdefault{0.2}$ -->
      <g style="fill:#262626;" transform="translate(108.596128 316.407145)scale(0.1 -0.1)">
       <defs>
        <path d="M 2669 989 
L 2554 989 
C 2490 536 2438 459 2413 420 
C 2381 369 1920 369 1830 369 
L 602 369 
C 832 619 1280 1072 1824 1597 
C 2214 1967 2669 2402 2669 3035 
C 2669 3790 2067 4224 1395 4224 
C 691 4224 262 3604 262 3030 
C 262 2780 448 2748 525 2748 
C 589 2748 781 2787 781 3010 
C 781 3207 614 3264 525 3264 
C 486 3264 448 3258 422 3245 
C 544 3790 915 4058 1306 4058 
C 1862 4058 2227 3617 2227 3035 
C 2227 2479 1901 2000 1536 1584 
L 262 146 
L 262 0 
L 2515 0 
L 2669 989 
z
" id="CMR17-32" transform="scale(0.015625)"/>
       </defs>
       <use transform="scale(0.996264)" xlink:href="#CMR17-30"/>
       <use transform="translate(45.690477 0)scale(0.996264)" xlink:href="#CMMI12-3a"/>
       <use transform="translate(72.787654 0)scale(0.996264)" xlink:href="#CMR17-32"/>
      </g>
     </g>
    </g>
    <g id="xtick_3">
     <g id="line2d_3">
      <g>
       <use style="fill:#262626;stroke:#262626;stroke-width:0.8;" x="189.029616" xlink:href="#m88cbeb8de4" y="302.488647"/>
      </g>
     </g>
     <g id="text_3">
      <!-- $\mathdefault{0.4}$ -->
      <g style="fill:#262626;" transform="translate(182.664576 316.407145)scale(0.1 -0.1)">
       <defs>
        <path d="M 2150 4122 
C 2150 4256 2144 4256 2029 4256 
L 128 1254 
L 128 1088 
L 1779 1088 
L 1779 457 
C 1779 224 1766 160 1318 160 
L 1197 160 
L 1197 0 
C 1402 0 1747 0 1965 0 
C 2182 0 2528 0 2733 0 
L 2733 160 
L 2611 160 
C 2163 160 2150 224 2150 457 
L 2150 1088 
L 2803 1088 
L 2803 1254 
L 2150 1254 
L 2150 4122 
z
M 1798 3703 
L 1798 1254 
L 256 1254 
L 1798 3703 
z
" id="CMR17-34" transform="scale(0.015625)"/>
       </defs>
       <use transform="scale(0.996264)" xlink:href="#CMR17-30"/>
       <use transform="translate(45.690477 0)scale(0.996264)" xlink:href="#CMMI12-3a"/>
       <use transform="translate(72.787654 0)scale(0.996264)" xlink:href="#CMR17-34"/>
      </g>
     </g>
    </g>
    <g id="xtick_4">
     <g id="line2d_4">
      <g>
       <use style="fill:#262626;stroke:#262626;stroke-width:0.8;" x="263.098064" xlink:href="#m88cbeb8de4" y="302.488647"/>
      </g>
     </g>
     <g id="text_4">
      <!-- $\mathdefault{0.6}$ -->
      <g style="fill:#262626;" transform="translate(256.733024 316.407145)scale(0.1 -0.1)">
       <defs>
        <path d="M 678 2176 
C 678 3690 1395 4032 1811 4032 
C 1946 4032 2272 4009 2400 3776 
C 2298 3776 2106 3776 2106 3553 
C 2106 3381 2246 3323 2336 3323 
C 2394 3323 2566 3348 2566 3560 
C 2566 3954 2246 4179 1805 4179 
C 1043 4179 243 3390 243 1984 
C 243 253 966 -128 1478 -128 
C 2099 -128 2688 427 2688 1283 
C 2688 2081 2170 2662 1517 2662 
C 1126 2662 838 2407 678 1960 
L 678 2176 
z
M 1478 25 
C 691 25 691 1200 691 1436 
C 691 1896 909 2560 1504 2560 
C 1613 2560 1926 2560 2138 2120 
C 2253 1870 2253 1609 2253 1289 
C 2253 944 2253 690 2118 434 
C 1978 171 1773 25 1478 25 
z
" id="CMR17-36" transform="scale(0.015625)"/>
       </defs>
       <use transform="scale(0.996264)" xlink:href="#CMR17-30"/>
       <use transform="translate(45.690477 0)scale(0.996264)" xlink:href="#CMMI12-3a"/>
       <use transform="translate(72.787654 0)scale(0.996264)" xlink:href="#CMR17-36"/>
      </g>
     </g>
    </g>
    <g id="xtick_5">
     <g id="line2d_5">
      <g>
       <use style="fill:#262626;stroke:#262626;stroke-width:0.8;" x="337.166512" xlink:href="#m88cbeb8de4" y="302.488647"/>
      </g>
     </g>
     <g id="text_5">
      <!-- $\mathdefault{0.8}$ -->
      <g style="fill:#262626;" transform="translate(330.801473 316.407145)scale(0.1 -0.1)">
       <defs>
        <path d="M 1741 2264 
C 2144 2467 2554 2773 2554 3263 
C 2554 3841 1990 4179 1472 4179 
C 890 4179 378 3759 378 3180 
C 378 3021 416 2747 666 2505 
C 730 2442 998 2251 1171 2130 
C 883 1983 211 1634 211 934 
C 211 279 838 -128 1459 -128 
C 2144 -128 2720 362 2720 1010 
C 2720 1590 2330 1857 2074 2029 
L 1741 2264 
z
M 902 2822 
C 851 2854 595 3051 595 3351 
C 595 3739 998 4032 1459 4032 
C 1965 4032 2336 3676 2336 3262 
C 2336 2669 1670 2331 1638 2331 
C 1632 2331 1626 2331 1574 2370 
L 902 2822 
z
M 2080 1519 
C 2176 1449 2483 1240 2483 851 
C 2483 381 2010 25 1472 25 
C 890 25 448 438 448 940 
C 448 1443 838 1862 1280 2060 
L 2080 1519 
z
" id="CMR17-38" transform="scale(0.015625)"/>
       </defs>
       <use transform="scale(0.996264)" xlink:href="#CMR17-30"/>
       <use transform="translate(45.690477 0)scale(0.996264)" xlink:href="#CMMI12-3a"/>
       <use transform="translate(72.787654 0)scale(0.996264)" xlink:href="#CMR17-38"/>
      </g>
     </g>
    </g>
    <g id="xtick_6">
     <g id="line2d_6">
      <g>
       <use style="fill:#262626;stroke:#262626;stroke-width:0.8;" x="411.234961" xlink:href="#m88cbeb8de4" y="302.488647"/>
      </g>
     </g>
     <g id="text_6">
      <!-- $\mathdefault{1.0}$ -->
      <g style="fill:#262626;" transform="translate(404.869921 316.407145)scale(0.1 -0.1)">
       <defs>
        <path d="M 1702 4058 
C 1702 4192 1696 4192 1606 4192 
C 1357 3916 979 3827 621 3827 
C 602 3827 570 3827 563 3808 
C 557 3795 557 3782 557 3648 
C 755 3648 1088 3686 1344 3839 
L 1344 461 
C 1344 236 1331 160 781 160 
L 589 160 
L 589 0 
C 896 0 1216 0 1523 0 
C 1830 0 2150 0 2458 0 
L 2458 160 
L 2266 160 
C 1715 160 1702 230 1702 458 
L 1702 4058 
z
" id="CMR17-31" transform="scale(0.015625)"/>
       </defs>
       <use transform="scale(0.996264)" xlink:href="#CMR17-31"/>
       <use transform="translate(45.690477 0)scale(0.996264)" xlink:href="#CMMI12-3a"/>
       <use transform="translate(72.787654 0)scale(0.996264)" xlink:href="#CMR17-30"/>
      </g>
     </g>
    </g>
    <g id="text_7">
     <!-- $x^*$ -->
     <g style="fill:#262626;" transform="translate(221.175919 329.262822)scale(0.1 -0.1)">
      <defs>
       <path d="M 3034 2606 
C 2829 2567 2752 2414 2752 2293 
C 2752 2139 2874 2088 2963 2088 
C 3155 2088 3290 2254 3290 2427 
C 3290 2695 2982 2816 2714 2816 
C 2323 2816 2106 2433 2048 2312 
C 1901 2816 1504 2816 1389 2816 
C 736 2816 390 1980 390 1839 
C 390 1814 416 1782 461 1782 
C 512 1782 525 1820 538 1846 
C 755 2555 1184 2689 1370 2689 
C 1658 2689 1715 2420 1715 2267 
C 1715 2127 1677 1980 1600 1673 
L 1382 798 
C 1286 415 1101 64 762 64 
C 730 64 570 64 435 147 
C 666 192 717 383 717 460 
C 717 588 621 664 499 664 
C 346 664 179 530 179 326 
C 179 57 480 -64 755 -64 
C 1062 -64 1280 179 1414 441 
C 1517 64 1837 -64 2074 -64 
C 2726 -64 3072 773 3072 913 
C 3072 945 3046 971 3008 971 
C 2950 971 2944 939 2925 888 
C 2752 326 2381 64 2093 64 
C 1869 64 1747 230 1747 492 
C 1747 632 1773 734 1875 1156 
L 2099 2024 
C 2195 2408 2413 2689 2707 2689 
C 2720 2689 2899 2689 3034 2606 
z
" id="CMMI12-78" transform="scale(0.015625)"/>
       <path d="M 1760 2719 
C 1766 2808 1766 2962 1600 2962 
C 1498 2962 1414 2879 1434 2795 
L 1434 2712 
L 1523 1720 
L 704 2316 
C 646 2348 634 2360 589 2360 
C 499 2360 416 2271 416 2181 
C 416 2079 480 2053 544 2021 
L 1453 1586 
L 570 1158 
C 467 1107 416 1081 416 985 
C 416 889 499 806 589 806 
C 634 806 646 806 806 928 
L 1523 1446 
L 1427 371 
C 1427 236 1542 204 1594 204 
C 1670 204 1766 248 1766 371 
L 1670 1446 
L 2490 851 
C 2547 819 2560 806 2605 806 
C 2694 806 2778 896 2778 985 
C 2778 1081 2720 1113 2643 1152 
C 2259 1343 2246 1343 1741 1580 
L 2624 2008 
C 2726 2060 2778 2085 2778 2181 
C 2778 2277 2694 2360 2605 2360 
C 2560 2360 2547 2360 2387 2239 
L 1670 1720 
L 1760 2719 
z
" id="CMSY10-3" transform="scale(0.015625)"/>
      </defs>
      <use transform="scale(0.996264)" xlink:href="#CMMI12-78"/>
      <use transform="translate(55.43406 36.153639)scale(0.697382)" xlink:href="#CMSY10-3"/>
     </g>
    </g>
   </g>
   <g id="matplotlib.axis_2">
    <g id="ytick_1">
     <g id="line2d_7">
      <defs>
       <path d="M 0 0 
L -3.5 0 
" id="m75b1872782" style="stroke:#262626;stroke-width:0.8;"/>
      </defs>
      <g>
       <use style="fill:#262626;stroke:#262626;stroke-width:0.8;" x="40.892719" xlink:href="#m75b1872782" y="272.406217"/>
      </g>
     </g>
     <g id="text_8">
      <!-- $\mathdefault{0.0}$ -->
      <g style="fill:#262626;" transform="translate(21.16264 275.865466)scale(0.1 -0.1)">
       <use transform="scale(0.996264)" xlink:href="#CMR17-30"/>
       <use transform="translate(45.690477 0)scale(0.996264)" xlink:href="#CMMI12-3a"/>
       <use transform="translate(72.787654 0)scale(0.996264)" xlink:href="#CMR17-30"/>
      </g>
     </g>
    </g>
    <g id="ytick_2">
     <g id="line2d_8">
      <g>
       <use style="fill:#262626;stroke:#262626;stroke-width:0.8;" x="40.892719" xlink:href="#m75b1872782" y="228.55351"/>
      </g>
     </g>
     <g id="text_9">
      <!-- $\mathdefault{0.2}$ -->
      <g style="fill:#262626;" transform="translate(21.16264 232.012759)scale(0.1 -0.1)">
       <use transform="scale(0.996264)" xlink:href="#CMR17-30"/>
       <use transform="translate(45.690477 0)scale(0.996264)" xlink:href="#CMMI12-3a"/>
       <use transform="translate(72.787654 0)scale(0.996264)" xlink:href="#CMR17-32"/>
      </g>
     </g>
    </g>
    <g id="ytick_3">
     <g id="line2d_9">
      <g>
       <use style="fill:#262626;stroke:#262626;stroke-width:0.8;" x="40.892719" xlink:href="#m75b1872782" y="184.700803"/>
      </g>
     </g>
     <g id="text_10">
      <!-- $\mathdefault{0.4}$ -->
      <g style="fill:#262626;" transform="translate(21.16264 188.160053)scale(0.1 -0.1)">
       <use transform="scale(0.996264)" xlink:href="#CMR17-30"/>
       <use transform="translate(45.690477 0)scale(0.996264)" xlink:href="#CMMI12-3a"/>
       <use transform="translate(72.787654 0)scale(0.996264)" xlink:href="#CMR17-34"/>
      </g>
     </g>
    </g>
    <g id="ytick_4">
     <g id="line2d_10">
      <g>
       <use style="fill:#262626;stroke:#262626;stroke-width:0.8;" x="40.892719" xlink:href="#m75b1872782" y="140.848097"/>
      </g>
     </g>
     <g id="text_11">
      <!-- $\mathdefault{0.6}$ -->
      <g style="fill:#262626;" transform="translate(21.16264 144.307346)scale(0.1 -0.1)">
       <use transform="scale(0.996264)" xlink:href="#CMR17-30"/>
       <use transform="translate(45.690477 0)scale(0.996264)" xlink:href="#CMMI12-3a"/>
       <use transform="translate(72.787654 0)scale(0.996264)" xlink:href="#CMR17-36"/>
      </g>
     </g>
    </g>
    <g id="ytick_5">
     <g id="line2d_11">
      <g>
       <use style="fill:#262626;stroke:#262626;stroke-width:0.8;" x="40.892719" xlink:href="#m75b1872782" y="96.99539"/>
      </g>
     </g>
     <g id="text_12">
      <!-- $\mathdefault{0.8}$ -->
      <g style="fill:#262626;" transform="translate(21.16264 100.454639)scale(0.1 -0.1)">
       <use transform="scale(0.996264)" xlink:href="#CMR17-30"/>
       <use transform="translate(45.690477 0)scale(0.996264)" xlink:href="#CMMI12-3a"/>
       <use transform="translate(72.787654 0)scale(0.996264)" xlink:href="#CMR17-38"/>
      </g>
     </g>
    </g>
    <g id="ytick_6">
     <g id="line2d_12">
      <g>
       <use style="fill:#262626;stroke:#262626;stroke-width:0.8;" x="40.892719" xlink:href="#m75b1872782" y="53.142683"/>
      </g>
     </g>
     <g id="text_13">
      <!-- $\mathdefault{1.0}$ -->
      <g style="fill:#262626;" transform="translate(21.16264 56.601932)scale(0.1 -0.1)">
       <use transform="scale(0.996264)" xlink:href="#CMR17-31"/>
       <use transform="translate(45.690477 0)scale(0.996264)" xlink:href="#CMMI12-3a"/>
       <use transform="translate(72.787654 0)scale(0.996264)" xlink:href="#CMR17-30"/>
      </g>
     </g>
    </g>
    <g id="text_14">
     <!-- $z^*(x^*|z, \beta, \sigma, \sigma_0, \boldsymbol{\theta})$ -->
     <g style="fill:#262626;" transform="translate(14.67198 202.474947)rotate(-90)scale(0.1 -0.1)">
      <defs>
       <path d="M 813 486 
C 1088 803 1312 1004 1632 1296 
C 2016 1632 2182 1793 2272 1891 
C 2720 2338 2944 2713 2944 2764 
C 2944 2816 2893 2816 2880 2816 
C 2835 2816 2822 2793 2790 2750 
C 2630 2494 2477 2367 2310 2367 
C 2176 2367 2106 2421 1984 2565 
C 1850 2715 1741 2816 1555 2816 
C 1088 2816 806 2257 806 2128 
C 806 2108 813 2068 870 2068 
C 922 2068 928 2091 947 2133 
C 1056 2372 1363 2414 1485 2414 
C 1619 2414 1747 2376 1882 2327 
C 2125 2240 2227 2240 2291 2240 
C 2336 2240 2362 2240 2394 2246 
C 2182 1994 1837 1683 1549 1418 
L 902 816 
C 512 415 275 33 275 -12 
C 275 -51 307 -64 346 -64 
C 384 -64 390 -57 435 14 
C 538 163 742 384 979 384 
C 1114 384 1178 342 1306 193 
C 1427 61 1536 -64 1741 -64 
C 2368 -64 2726 732 2726 876 
C 2726 903 2720 942 2656 942 
C 2605 942 2598 917 2579 855 
C 2438 488 2061 338 1811 338 
C 1677 338 1549 376 1414 425 
C 1158 512 1088 512 1005 512 
C 941 512 870 512 813 486 
z
" id="CMMI12-7a" transform="scale(0.015625)"/>
       <path d="M 1958 -1561 
C 1958 -1555 1958 -1542 1939 -1523 
C 1645 -1224 858 -407 858 1581 
C 858 3569 1632 4379 1946 4697 
C 1946 4704 1958 4717 1958 4736 
C 1958 4755 1939 4768 1914 4768 
C 1843 4768 1299 4296 986 3594 
C 666 2887 576 2199 576 1588 
C 576 1128 621 351 1005 -471 
C 1312 -1135 1837 -1600 1914 -1600 
C 1946 -1600 1958 -1587 1958 -1561 
z
" id="CMR17-28" transform="scale(0.015625)"/>
       <path d="M 1018 4570 
C 1018 4685 1018 4800 890 4800 
C 762 4800 762 4685 762 4570 
L 762 -1370 
C 762 -1485 762 -1600 890 -1600 
C 1018 -1600 1018 -1485 1018 -1370 
L 1018 4570 
z
" id="CMSY10-6a" transform="scale(0.015625)"/>
       <path d="M 1248 -31 
C 1248 343 1126 619 864 619 
C 659 619 557 453 557 313 
C 557 172 653 0 870 0 
C 954 0 1024 26 1082 83 
C 1094 96 1101 96 1107 96 
C 1120 96 1120 5 1120 -27 
C 1120 -240 1082 -659 710 -1080 
C 640 -1157 640 -1170 640 -1183 
C 640 -1216 672 -1248 704 -1248 
C 755 -1248 1248 -771 1248 -31 
z
" id="CMMI12-3b" transform="scale(0.015625)"/>
       <path d="M 3622 3701 
C 3622 4081 3296 4480 2714 4480 
C 1888 4480 1363 3477 1197 2816 
L 186 -1172 
C 173 -1223 211 -1236 243 -1236 
C 288 -1236 320 -1230 326 -1198 
L 774 586 
C 838 229 1190 -64 1568 -64 
C 2483 -64 3347 650 3347 1599 
C 3347 1841 3290 2083 3155 2287 
C 3078 2408 2982 2497 2880 2574 
C 3341 2815 3622 3200 3622 3701 
z
M 2509 2580 
C 2406 2542 2304 2529 2182 2529 
C 2093 2529 2010 2523 1894 2561 
C 1958 2606 2054 2618 2189 2618 
C 2304 2618 2419 2606 2509 2580 
z
M 3290 3758 
C 3290 3410 3117 2903 2701 2669 
C 2579 2718 2413 2752 2272 2752 
C 2138 2752 1754 2752 1754 2555 
C 1754 2389 2106 2389 2214 2389 
C 2381 2389 2528 2432 2682 2484 
C 2886 2318 2976 2101 2976 1783 
C 2976 1413 2874 1115 2752 841 
C 2541 369 2042 64 1600 64 
C 1133 64 890 432 890 864 
C 890 922 890 1005 915 1099 
L 1331 2771 
C 1542 3603 2080 4353 2701 4353 
C 3162 4353 3290 4036 3290 3758 
z
" id="CMMI12-c" transform="scale(0.015625)"/>
       <path d="M 3251 2408 
C 3334 2408 3546 2408 3546 2612 
C 3546 2752 3424 2752 3309 2752 
L 1894 2752 
C 934 2752 243 1686 243 932 
C 243 390 595 -64 1171 -64 
C 1926 -64 2752 747 2752 1705 
C 2752 1954 2694 2196 2541 2408 
L 3251 2408 
z
M 1178 64 
C 851 64 614 313 614 754 
C 614 1137 845 2408 1786 2408 
C 2061 2408 2368 2274 2368 1781 
C 2368 1558 2266 1021 2042 652 
C 1811 275 1466 64 1178 64 
z
" id="CMMI12-1b" transform="scale(0.015625)"/>
       <path d="M 3501 3123 
C 3501 4250 2835 4480 2445 4480 
C 1939 4480 1299 4148 819 3277 
C 493 2675 294 1805 294 1287 
C 294 359 781 -64 1357 -64 
C 1786 -64 2349 186 2790 839 
C 3328 1626 3501 2644 3501 3123 
z
M 1267 2353 
C 1357 2727 1523 3312 1715 3647 
C 1862 3910 2125 4251 2432 4251 
C 2701 4251 2816 3969 2816 3589 
C 2816 3183 2675 2623 2605 2353 
L 1267 2353 
z
M 2528 2048 
C 2131 338 1594 165 1370 165 
C 1280 165 1146 190 1056 389 
C 979 560 979 809 979 816 
C 979 1180 1120 1773 1190 2048 
L 2528 2048 
z
" id="CMMIB10-12" transform="scale(0.015625)"/>
       <path d="M 1683 1581 
C 1683 2040 1638 2817 1254 3639 
C 947 4303 422 4768 346 4768 
C 326 4768 301 4761 301 4729 
C 301 4717 307 4710 314 4697 
C 621 4378 1402 3568 1402 1584 
C 1402 -407 627 -1217 314 -1537 
C 307 -1549 301 -1556 301 -1568 
C 301 -1600 326 -1600 346 -1600 
C 416 -1600 960 -1128 1274 -426 
C 1594 281 1683 969 1683 1581 
z
" id="CMR17-29" transform="scale(0.015625)"/>
      </defs>
      <use transform="scale(0.996264)" xlink:href="#CMMI12-7a"/>
      <use transform="translate(49.755145 36.153639)scale(0.697382)" xlink:href="#CMSY10-3"/>
      <use transform="translate(85.122487 0)scale(0.996264)" xlink:href="#CMR17-28"/>
      <use transform="translate(120.403255 0)scale(0.996264)" xlink:href="#CMMI12-78"/>
      <use transform="translate(175.837314 36.153639)scale(0.697382)" xlink:href="#CMSY10-3"/>
      <use transform="translate(211.204656 0)scale(0.996264)" xlink:href="#CMSY10-6a"/>
      <use transform="translate(238.878741 0)scale(0.996264)" xlink:href="#CMMI12-7a"/>
      <use transform="translate(288.633886 0)scale(0.996264)" xlink:href="#CMMI12-3b"/>
      <use transform="translate(332.335468 0)scale(0.996264)" xlink:href="#CMMI12-c"/>
      <use transform="translate(392.929484 0)scale(0.996264)" xlink:href="#CMMI12-3b"/>
      <use transform="translate(436.631066 0)scale(0.996264)" xlink:href="#CMMI12-1b"/>
      <use transform="translate(490.231684 0)scale(0.996264)" xlink:href="#CMMI12-3b"/>
      <use transform="translate(533.933267 0)scale(0.996264)" xlink:href="#CMMI12-1b"/>
      <use transform="translate(589.378727 -14.943915)scale(0.697382)" xlink:href="#CMR17-30"/>
      <use transform="translate(621.860041 0)scale(0.996264)" xlink:href="#CMMI12-3b"/>
      <use transform="translate(665.561624 0)scale(0.996264)" xlink:href="#CMMIB10-12"/>
      <use transform="translate(724.714511 0)scale(0.996264)" xlink:href="#CMR17-29"/>
     </g>
    </g>
   </g>
   <g id="PolyCollection_1">
    <defs>
     <path d="M 40.892719 -75.713085 
L 40.892719 -48.683466 
L 50.388674 -70.743676 
L 59.884629 -89.417992 
L 69.380584 -106.840515 
L 78.876539 -123.956744 
L 88.372494 -141.828404 
L 97.868449 -158.560244 
L 107.364403 -173.597099 
L 116.860358 -188.315613 
L 126.356313 -201.054977 
L 135.852268 -213.401824 
L 145.348223 -226.419 
L 154.844178 -236.105456 
L 164.340133 -244.6954 
L 173.836088 -253.722649 
L 183.332043 -261.263021 
L 192.827998 -268.598323 
L 202.323953 -275.556844 
L 211.819907 -277.78502 
L 221.315862 -278.05701 
L 230.811817 -277.542308 
L 240.307772 -276.08859 
L 249.803727 -274.305054 
L 259.299682 -270.375012 
L 268.795637 -265.360621 
L 278.291592 -258.404686 
L 287.787547 -249.05635 
L 297.283502 -237.95019 
L 306.779457 -226.375394 
L 316.275411 -213.202085 
L 325.771366 -199.196868 
L 335.267321 -185.613394 
L 344.763276 -172.226207 
L 354.259231 -157.262349 
L 363.755186 -142.593254 
L 373.251141 -125.806058 
L 382.747096 -109.13 
L 392.243051 -94.03701 
L 401.739006 -78.305757 
L 411.234961 -58.025735 
L 411.234961 -85.055304 
L 411.234961 -85.055304 
L 401.739006 -97.23164 
L 392.243051 -110.720918 
L 382.747096 -125.536656 
L 373.251141 -142.087895 
L 363.755186 -158.97121 
L 354.259231 -173.385706 
L 344.763276 -187.865309 
L 335.267321 -200.828189 
L 325.771366 -214.44593 
L 316.275411 -228.439133 
L 306.779457 -241.542227 
L 297.283502 -253.097661 
L 287.787547 -264.438321 
L 278.291592 -273.811509 
L 268.795637 -280.597249 
L 259.299682 -285.479533 
L 249.803727 -289.465668 
L 240.307772 -291.165505 
L 230.811817 -292.419276 
L 221.315862 -292.93402 
L 211.819907 -292.862042 
L 202.323953 -290.717573 
L 192.827998 -283.702903 
L 183.332043 -276.499591 
L 173.836088 -269.129277 
L 164.340133 -260.077067 
L 154.844178 -251.252599 
L 145.348223 -241.585591 
L 135.852268 -228.638778 
L 126.356313 -216.304116 
L 116.860358 -203.53063 
L 107.364403 -189.236516 
L 97.868449 -174.684013 
L 88.372494 -158.206859 
L 78.876539 -140.239097 
L 69.380584 -123.247501 
L 59.884629 -106.101971 
L 50.388674 -89.669493 
L 40.892719 -75.713085 
z
" id="mb57a08fd12" style="stroke:#000000;stroke-opacity:0.25;"/>
    </defs>
    <g clip-path="url(#pe98a7d8416)">
     <use style="fill-opacity:0.25;stroke:#000000;stroke-opacity:0.25;" x="0" xlink:href="#mb57a08fd12" y="338.4"/>
    </g>
   </g>
   <g id="line2d_13">
    <defs>
     <path d="M 0 1.5 
C 0.397805 1.5 0.77937 1.341951 1.06066 1.06066 
C 1.341951 0.77937 1.5 0.397805 1.5 0 
C 1.5 -0.397805 1.341951 -0.77937 1.06066 -1.06066 
C 0.77937 -1.341951 0.397805 -1.5 0 -1.5 
C -0.397805 -1.5 -0.77937 -1.341951 -1.06066 -1.06066 
C -1.341951 -0.77937 -1.5 -0.397805 -1.5 0 
C -1.5 0.397805 -1.341951 0.77937 -1.06066 1.06066 
C -0.77937 1.341951 -0.397805 1.5 0 1.5 
z
" id="m90911a6bfb" style="stroke:#808080;"/>
    </defs>
    <g clip-path="url(#pe98a7d8416)">
     <use style="fill:#808080;stroke:#808080;" x="40.892719" xlink:href="#m90911a6bfb" y="276.953273"/>
     <use style="fill:#808080;stroke:#808080;" x="48.450724" xlink:href="#m90911a6bfb" y="262.012734"/>
     <use style="fill:#808080;stroke:#808080;" x="56.008729" xlink:href="#m90911a6bfb" y="243.478393"/>
     <use style="fill:#808080;stroke:#808080;" x="63.566734" xlink:href="#m90911a6bfb" y="239.164269"/>
     <use style="fill:#808080;stroke:#808080;" x="71.124739" xlink:href="#m90911a6bfb" y="219.185563"/>
     <use style="fill:#808080;stroke:#808080;" x="78.682744" xlink:href="#m90911a6bfb" y="211.681537"/>
     <use style="fill:#808080;stroke:#808080;" x="86.240749" xlink:href="#m90911a6bfb" y="198.643554"/>
     <use style="fill:#808080;stroke:#808080;" x="93.798754" xlink:href="#m90911a6bfb" y="156.996513"/>
     <use style="fill:#808080;stroke:#808080;" x="101.356758" xlink:href="#m90911a6bfb" y="172.545373"/>
     <use style="fill:#808080;stroke:#808080;" x="108.914763" xlink:href="#m90911a6bfb" y="153.733601"/>
     <use style="fill:#808080;stroke:#808080;" x="116.472768" xlink:href="#m90911a6bfb" y="138.105725"/>
     <use style="fill:#808080;stroke:#808080;" x="124.030773" xlink:href="#m90911a6bfb" y="131.713782"/>
     <use style="fill:#808080;stroke:#808080;" x="131.588778" xlink:href="#m90911a6bfb" y="130.6424"/>
     <use style="fill:#808080;stroke:#808080;" x="139.146783" xlink:href="#m90911a6bfb" y="120.163119"/>
     <use style="fill:#808080;stroke:#808080;" x="146.704788" xlink:href="#m90911a6bfb" y="87.829471"/>
     <use style="fill:#808080;stroke:#808080;" x="154.262793" xlink:href="#m90911a6bfb" y="96.314896"/>
     <use style="fill:#808080;stroke:#808080;" x="161.820798" xlink:href="#m90911a6bfb" y="104.184516"/>
     <use style="fill:#808080;stroke:#808080;" x="169.378803" xlink:href="#m90911a6bfb" y="77.44691"/>
     <use style="fill:#808080;stroke:#808080;" x="176.936808" xlink:href="#m90911a6bfb" y="78.179032"/>
     <use style="fill:#808080;stroke:#808080;" x="184.494813" xlink:href="#m90911a6bfb" y="74.314744"/>
     <use style="fill:#808080;stroke:#808080;" x="192.052818" xlink:href="#m90911a6bfb" y="72.457051"/>
     <use style="fill:#808080;stroke:#808080;" x="199.610823" xlink:href="#m90911a6bfb" y="41.817237"/>
     <use style="fill:#808080;stroke:#808080;" x="207.168827" xlink:href="#m90911a6bfb" y="34.274292"/>
     <use style="fill:#808080;stroke:#808080;" x="214.726832" xlink:href="#m90911a6bfb" y="58.926242"/>
     <use style="fill:#808080;stroke:#808080;" x="222.284837" xlink:href="#m90911a6bfb" y="54.730453"/>
     <use style="fill:#808080;stroke:#808080;" x="229.842842" xlink:href="#m90911a6bfb" y="55.552833"/>
     <use style="fill:#808080;stroke:#808080;" x="237.400847" xlink:href="#m90911a6bfb" y="62.562989"/>
     <use style="fill:#808080;stroke:#808080;" x="244.958852" xlink:href="#m90911a6bfb" y="55.515048"/>
     <use style="fill:#808080;stroke:#808080;" x="252.516857" xlink:href="#m90911a6bfb" y="51.933048"/>
     <use style="fill:#808080;stroke:#808080;" x="260.074862" xlink:href="#m90911a6bfb" y="65.097679"/>
     <use style="fill:#808080;stroke:#808080;" x="267.632867" xlink:href="#m90911a6bfb" y="60.963285"/>
     <use style="fill:#808080;stroke:#808080;" x="275.190872" xlink:href="#m90911a6bfb" y="64.380391"/>
     <use style="fill:#808080;stroke:#808080;" x="282.748877" xlink:href="#m90911a6bfb" y="65.942828"/>
     <use style="fill:#808080;stroke:#808080;" x="290.306882" xlink:href="#m90911a6bfb" y="85.914428"/>
     <use style="fill:#808080;stroke:#808080;" x="297.864887" xlink:href="#m90911a6bfb" y="97.140366"/>
     <use style="fill:#808080;stroke:#808080;" x="305.422892" xlink:href="#m90911a6bfb" y="103.388986"/>
     <use style="fill:#808080;stroke:#808080;" x="312.980896" xlink:href="#m90911a6bfb" y="110.284905"/>
     <use style="fill:#808080;stroke:#808080;" x="320.538901" xlink:href="#m90911a6bfb" y="132.918442"/>
     <use style="fill:#808080;stroke:#808080;" x="328.096906" xlink:href="#m90911a6bfb" y="142.174855"/>
     <use style="fill:#808080;stroke:#808080;" x="335.654911" xlink:href="#m90911a6bfb" y="153.047098"/>
     <use style="fill:#808080;stroke:#808080;" x="343.212916" xlink:href="#m90911a6bfb" y="152.632594"/>
     <use style="fill:#808080;stroke:#808080;" x="350.770921" xlink:href="#m90911a6bfb" y="165.787451"/>
     <use style="fill:#808080;stroke:#808080;" x="358.328926" xlink:href="#m90911a6bfb" y="184.674072"/>
     <use style="fill:#808080;stroke:#808080;" x="365.886931" xlink:href="#m90911a6bfb" y="172.696503"/>
     <use style="fill:#808080;stroke:#808080;" x="373.444936" xlink:href="#m90911a6bfb" y="208.22037"/>
     <use style="fill:#808080;stroke:#808080;" x="381.002941" xlink:href="#m90911a6bfb" y="222.496646"/>
     <use style="fill:#808080;stroke:#808080;" x="388.560946" xlink:href="#m90911a6bfb" y="238.096452"/>
     <use style="fill:#808080;stroke:#808080;" x="396.118951" xlink:href="#m90911a6bfb" y="230.45812"/>
     <use style="fill:#808080;stroke:#808080;" x="403.676956" xlink:href="#m90911a6bfb" y="243.004863"/>
     <use style="fill:#808080;stroke:#808080;" x="411.234961" xlink:href="#m90911a6bfb" y="279.235493"/>
    </g>
   </g>
   <g id="line2d_14">
    <path clip-path="url(#pe98a7d8416)" d="M 40.892719 276.201725 
L 50.388674 258.193416 
L 59.884629 240.640019 
L 69.380584 223.355992 
L 78.876539 206.30208 
L 88.372494 188.382368 
L 97.868449 171.777872 
L 107.364403 156.983192 
L 116.860358 142.476878 
L 126.356313 129.720454 
L 135.852268 117.379699 
L 145.348223 104.397705 
L 154.844178 94.720973 
L 164.340133 86.013766 
L 173.836088 76.974037 
L 183.332043 69.518694 
L 192.827998 62.249387 
L 202.323953 55.262791 
L 211.819907 53.076469 
L 221.315862 52.904485 
L 230.811817 53.419208 
L 240.307772 54.772952 
L 249.803727 56.514639 
L 259.299682 60.472728 
L 268.795637 65.421065 
L 278.291592 72.291902 
L 287.787547 81.652665 
L 297.283502 92.876075 
L 306.779457 104.44119 
L 316.275411 117.579391 
L 325.771366 131.578601 
L 335.267321 145.179209 
L 344.763276 158.354242 
L 354.259231 173.075973 
L 363.755186 187.617768 
L 373.251141 204.453023 
L 382.747096 221.066672 
L 392.243051 236.021036 
L 401.739006 250.631302 
L 411.234961 266.859481 
" style="fill:none;stroke:#000000;stroke-linecap:round;stroke-width:1.5;"/>
   </g>
   <g id="patch_3">
    <path d="M 40.892719 302.488647 
L 40.892719 21.50218 
" style="fill:none;stroke:#262626;stroke-linecap:square;stroke-linejoin:miter;stroke-width:0.8;"/>
   </g>
   <g id="patch_4">
    <path d="M 411.234961 302.488647 
L 411.234961 21.50218 
" style="fill:none;stroke:#262626;stroke-linecap:square;stroke-linejoin:miter;stroke-width:0.8;"/>
   </g>
   <g id="patch_5">
    <path d="M 40.892719 302.488647 
L 411.234961 302.488647 
" style="fill:none;stroke:#262626;stroke-linecap:square;stroke-linejoin:miter;stroke-width:0.8;"/>
   </g>
   <g id="patch_6">
    <path d="M 40.892719 21.50218 
L 411.234961 21.50218 
" style="fill:none;stroke:#262626;stroke-linecap:square;stroke-linejoin:miter;stroke-width:0.8;"/>
   </g>
   <g id="text_15">
    <!-- Prediction -->
    <g style="fill:#262626;" transform="translate(199.645126 15.50218)scale(0.12 -0.12)">
     <defs>
      <path d="M 1267 2042 
L 2291 2042 
C 3117 2042 3718 2578 3718 3184 
C 3718 3791 3130 4352 2291 4352 
L 333 4352 
L 333 4186 
C 774 4186 845 4186 845 3899 
L 845 446 
C 845 160 774 160 333 160 
L 333 0 
C 518 0 858 0 1056 0 
C 1254 0 1594 0 1779 0 
L 1779 160 
C 1338 160 1267 160 1267 446 
L 1267 2042 
z
M 1254 2176 
L 1254 3938 
C 1254 4155 1267 4186 1523 4186 
L 2170 4186 
C 2995 4186 3232 3714 3232 3184 
C 3232 2604 2950 2176 2170 2176 
L 1254 2176 
z
" id="CMR17-50" transform="scale(0.015625)"/>
      <path d="M 960 1497 
C 960 2112 1222 2688 1702 2688 
C 1747 2688 1792 2682 1837 2662 
C 1837 2662 1696 2617 1696 2452 
C 1696 2298 1818 2234 1914 2234 
C 1990 2234 2131 2279 2131 2458 
C 2131 2663 1926 2790 1709 2790 
C 1222 2790 1011 2317 947 2093 
L 941 2093 
L 941 2790 
L 198 2720 
L 198 2554 
C 576 2554 634 2515 634 2208 
L 634 428 
C 634 184 608 153 198 153 
L 198 -13 
C 352 0 646 0 813 0 
C 998 0 1325 0 1498 -13 
L 1498 153 
C 1037 153 960 153 960 440 
L 960 1497 
z
" id="CMR17-72" transform="scale(0.015625)"/>
      <path d="M 2438 1472 
C 2464 1498 2464 1511 2464 1576 
C 2464 2238 2118 2816 1389 2816 
C 710 2816 173 2169 173 1383 
C 173 551 781 -64 1459 -64 
C 2176 -64 2458 607 2458 740 
C 2458 784 2419 784 2406 784 
C 2362 784 2355 771 2330 696 
C 2189 265 1837 51 1504 51 
C 1229 51 954 203 781 480 
C 582 803 582 1176 582 1472 
L 2438 1472 
z
M 589 1568 
C 634 2505 1126 2714 1382 2714 
C 1818 2714 2112 2297 2118 1568 
L 589 1568 
z
" id="CMR17-65" transform="scale(0.015625)"/>
      <path d="M 1869 4326 
L 1869 4160 
C 2246 4160 2304 4122 2304 3820 
L 2304 2345 
C 2278 2377 2016 2790 1498 2790 
C 845 2790 211 2208 211 1364 
C 211 525 806 -64 1434 -64 
C 1978 -64 2259 337 2291 380 
L 2291 -63 
L 3066 -63 
L 3066 128 
C 2688 128 2630 166 2630 473 
L 2630 4396 
L 1869 4326 
z
M 2291 755 
C 2291 563 2176 390 2029 262 
C 1811 70 1594 38 1472 38 
C 1286 38 621 134 621 1356 
C 621 2612 1363 2688 1530 2688 
C 1824 2688 2061 2522 2208 2291 
C 2291 2157 2291 2138 2291 2023 
L 2291 755 
z
" id="CMR17-64" transform="scale(0.015625)"/>
      <path d="M 992 3909 
C 992 4049 877 4170 730 4170 
C 589 4170 467 4056 467 3909 
C 467 3769 582 3648 730 3648 
C 870 3648 992 3763 992 3909 
z
M 243 2706 
L 243 2541 
C 602 2541 653 2502 653 2197 
L 653 427 
C 653 184 627 153 218 153 
L 218 -13 
C 371 0 646 0 806 0 
C 960 0 1222 0 1370 -13 
L 1370 153 
C 992 153 979 191 979 420 
L 979 2776 
L 243 2706 
z
" id="CMR17-69" transform="scale(0.015625)"/>
      <path d="M 2234 2240 
C 2112 2240 1933 2240 1933 2017 
C 1933 1838 2080 1787 2163 1787 
C 2208 1787 2394 1807 2394 2024 
C 2394 2467 1958 2803 1466 2803 
C 787 2803 211 2178 211 1363 
C 211 516 813 -64 1466 -64 
C 2259 -64 2458 677 2458 748 
C 2458 774 2451 793 2406 793 
C 2362 793 2355 787 2330 703 
C 2163 180 1798 51 1523 51 
C 1114 51 621 427 621 1369 
C 621 2338 1094 2688 1472 2688 
C 1722 2688 2093 2573 2234 2240 
z
" id="CMR17-63" transform="scale(0.015625)"/>
      <path d="M 966 2560 
L 1862 2560 
L 1862 2725 
L 966 2725 
L 966 3904 
L 851 3904 
C 838 3245 614 2668 70 2668 
L 70 2560 
L 627 2560 
L 627 771 
C 627 650 627 -64 1370 -64 
C 1747 -64 1965 306 1965 777 
L 1965 1140 
L 1850 1140 
L 1850 783 
C 1850 344 1677 51 1408 51 
C 1222 51 966 178 966 758 
L 966 2560 
z
" id="CMR17-74" transform="scale(0.015625)"/>
      <path d="M 2758 1356 
C 2758 2176 2163 2816 1466 2816 
C 768 2816 173 2176 173 1356 
C 173 551 768 -64 1466 -64 
C 2163 -64 2758 551 2758 1356 
z
M 1466 51 
C 1165 51 909 230 762 480 
C 602 767 582 1126 582 1408 
C 582 1677 595 2010 762 2298 
C 890 2509 1139 2714 1466 2714 
C 1754 2714 1997 2554 2150 2330 
C 2349 2029 2349 1607 2349 1408 
C 2349 1158 2336 775 2163 467 
C 1984 173 1709 51 1466 51 
z
" id="CMR17-6f" transform="scale(0.015625)"/>
      <path d="M 2656 1933 
C 2656 2259 2592 2790 1837 2790 
C 1331 2790 1069 2400 973 2144 
L 966 2144 
L 966 2790 
L 211 2720 
L 211 2554 
C 589 2554 646 2515 646 2208 
L 646 428 
C 646 184 621 153 211 153 
L 211 -13 
C 365 0 646 0 813 0 
C 979 0 1267 0 1421 -13 
L 1421 153 
C 1011 153 986 178 986 428 
L 986 1658 
C 986 2247 1344 2688 1792 2688 
C 2266 2688 2317 2266 2317 1958 
L 2317 428 
C 2317 184 2291 153 1882 153 
L 1882 -13 
C 2035 0 2317 0 2483 0 
C 2650 0 2938 0 3091 -13 
L 3091 153 
C 2682 153 2656 178 2656 428 
L 2656 1933 
z
" id="CMR17-6e" transform="scale(0.015625)"/>
     </defs>
     <use transform="scale(0.996264)" xlink:href="#CMR17-50"/>
     <use transform="translate(62.586301 0)scale(0.996264)" xlink:href="#CMR17-72"/>
     <use transform="translate(97.867068 0)scale(0.996264)" xlink:href="#CMR17-65"/>
     <use transform="translate(138.352729 0)scale(0.996264)" xlink:href="#CMR17-64"/>
     <use transform="translate(189.248099 0)scale(0.996264)" xlink:href="#CMR17-69"/>
     <use transform="translate(214.119157 0)scale(0.996264)" xlink:href="#CMR17-63"/>
     <use transform="translate(254.604818 0)scale(0.996264)" xlink:href="#CMR17-74"/>
     <use transform="translate(289.885585 0)scale(0.996264)" xlink:href="#CMR17-69"/>
     <use transform="translate(314.756644 0)scale(0.996264)" xlink:href="#CMR17-6f"/>
     <use transform="translate(360.447121 0)scale(0.996264)" xlink:href="#CMR17-6e"/>
    </g>
   </g>
   <g id="legend_1">
    <g id="patch_7">
     <path d="M 280.458298 64.242541 
L 405.403961 64.242541 
Q 407.069961 64.242541 407.069961 62.576541 
L 407.069961 27.33318 
Q 407.069961 25.66718 405.403961 25.66718 
L 280.458298 25.66718 
Q 278.792298 25.66718 278.792298 27.33318 
L 278.792298 62.576541 
Q 278.792298 64.242541 280.458298 64.242541 
z
" style="fill:#ffffff;opacity:0.8;stroke:#cccccc;stroke-linejoin:miter;"/>
    </g>
    <g id="line2d_15"/>
    <g id="line2d_16">
     <g>
      <use style="fill:#808080;stroke:#808080;" x="290.454298" xlink:href="#m90911a6bfb" y="32.307837"/>
     </g>
    </g>
    <g id="text_16">
     <!-- training (noisy) data -->
     <g style="fill:#262626;" transform="translate(305.448298 35.223337)scale(0.0833 -0.0833)">
      <defs>
       <path d="M 2304 1653 
C 2304 2072 2304 2294 2035 2543 
C 1798 2752 1523 2816 1306 2816 
C 800 2816 435 2407 435 1971 
C 435 1728 627 1728 666 1728 
C 749 1728 896 1778 896 1954 
C 896 2112 774 2181 666 2181 
C 640 2181 608 2174 589 2168 
C 723 2592 1069 2714 1293 2714 
C 1613 2714 1965 2429 1965 1885 
L 1965 1600 
C 1587 1600 1133 1549 774 1357 
C 371 1133 256 813 256 570 
C 256 77 832 -64 1171 -64 
C 1523 -64 1850 139 1990 511 
C 2003 233 2182 -18 2464 -18 
C 2598 -18 2938 70 2938 567 
L 2938 920 
L 2822 920 
L 2822 562 
C 2822 178 2650 128 2566 128 
C 2304 128 2304 458 2304 738 
L 2304 1653 
z
M 1965 870 
C 1965 317 1568 38 1216 38 
C 896 38 646 275 646 570 
C 646 761 730 1100 1101 1305 
C 1408 1478 1760 1504 1965 1504 
L 1965 870 
z
" id="CMR17-61" transform="scale(0.015625)"/>
       <path d="M 710 1164 
C 832 1068 1043 960 1299 960 
C 1805 960 2240 1357 2240 1888 
C 2240 2054 2189 2310 1997 2509 
C 2176 2692 2438 2752 2586 2752 
C 2611 2752 2650 2752 2682 2734 
C 2656 2728 2598 2703 2598 2605 
C 2598 2527 2656 2471 2739 2471 
C 2835 2471 2886 2533 2886 2614 
C 2886 2731 2790 2854 2586 2854 
C 2330 2854 2106 2738 1926 2580 
C 1734 2753 1504 2816 1299 2816 
C 794 2816 358 2419 358 1888 
C 358 1522 570 1292 634 1228 
C 442 1004 442 743 442 711 
C 442 545 506 302 723 168 
C 390 85 128 -169 128 -486 
C 128 -943 736 -1280 1466 -1280 
C 2170 -1280 2803 -956 2803 -479 
C 2803 384 1856 384 1363 384 
C 1216 384 954 384 922 391 
C 723 423 589 602 589 826 
C 589 883 589 1024 710 1164 
z
M 1299 1068 
C 736 1068 736 1760 736 1889 
C 736 2016 736 2708 1299 2708 
C 1862 2708 1862 2016 1862 1889 
C 1862 1760 1862 1068 1299 1068 
z
M 1466 -1171 
C 826 -1171 384 -835 384 -486 
C 384 -289 493 -105 634 -4 
C 794 104 858 104 1293 104 
C 1818 104 2547 104 2547 -486 
C 2547 -835 2106 -1171 1466 -1171 
z
" id="CMR17-67" transform="scale(0.015625)"/>
       <path d="M 1978 2697 
C 1978 2813 1971 2819 1933 2819 
C 1907 2819 1901 2813 1824 2717 
C 1805 2691 1747 2626 1728 2601 
C 1523 2819 1235 2819 1126 2819 
C 416 2819 160 2447 160 2076 
C 160 1498 813 1365 998 1325 
C 1402 1243 1542 1217 1677 1101 
C 1760 1025 1901 884 1901 654 
C 1901 384 1747 38 1158 38 
C 602 38 403 460 288 1021 
C 269 1110 269 1117 218 1117 
C 166 1117 160 1110 160 983 
L 160 63 
C 160 -51 166 -58 205 -58 
C 237 -58 243 -51 275 0 
C 314 57 410 211 448 276 
C 576 103 800 -64 1158 -64 
C 1792 -64 2131 283 2131 784 
C 2131 1112 1958 1285 1875 1362 
C 1683 1561 1459 1606 1190 1657 
C 838 1735 390 1825 390 2217 
C 390 2383 480 2737 1126 2737 
C 1811 2737 1850 2094 1862 1888 
C 1869 1856 1901 1849 1920 1849 
C 1978 1849 1978 1869 1978 1978 
L 1978 2697 
z
" id="CMR17-73" transform="scale(0.015625)"/>
       <path d="M 2496 2197 
C 2656 2586 2944 2586 3034 2586 
L 3034 2752 
C 2912 2752 2752 2752 2630 2752 
C 2496 2752 2285 2752 2157 2758 
L 2157 2592 
C 2400 2573 2406 2394 2406 2343 
C 2406 2280 2394 2248 2362 2171 
L 1664 449 
L 902 2306 
C 870 2382 870 2426 870 2433 
C 870 2573 1018 2586 1171 2586 
L 1171 2758 
C 1018 2752 742 2752 582 2752 
C 410 2752 205 2752 64 2758 
L 64 2586 
C 410 2586 448 2554 531 2350 
L 1485 15 
C 1197 -738 1030 -1178 627 -1178 
C 557 -1178 397 -1159 282 -1044 
C 429 -1031 493 -942 493 -833 
C 493 -725 416 -629 288 -629 
C 147 -629 77 -725 77 -840 
C 77 -1095 339 -1280 627 -1280 
C 998 -1280 1229 -922 1357 -604 
L 2496 2197 
z
" id="CMR17-79" transform="scale(0.015625)"/>
      </defs>
      <use transform="scale(0.996264)" xlink:href="#CMR17-74"/>
      <use transform="translate(35.280768 0)scale(0.996264)" xlink:href="#CMR17-72"/>
      <use transform="translate(70.561536 0)scale(0.996264)" xlink:href="#CMR17-61"/>
      <use transform="translate(116.252013 0)scale(0.996264)" xlink:href="#CMR17-69"/>
      <use transform="translate(141.123071 0)scale(0.996264)" xlink:href="#CMR17-6e"/>
      <use transform="translate(192.018441 0)scale(0.996264)" xlink:href="#CMR17-69"/>
      <use transform="translate(216.889499 0)scale(0.996264)" xlink:href="#CMR17-6e"/>
      <use transform="translate(267.784869 0)scale(0.996264)" xlink:href="#CMR17-67"/>
      <use transform="translate(343.551313 0)scale(0.996264)" xlink:href="#CMR17-28"/>
      <use transform="translate(378.832081 0)scale(0.996264)" xlink:href="#CMR17-6e"/>
      <use transform="translate(429.72745 0)scale(0.996264)" xlink:href="#CMR17-6f"/>
      <use transform="translate(475.417927 0)scale(0.996264)" xlink:href="#CMR17-69"/>
      <use transform="translate(500.288986 0)scale(0.996264)" xlink:href="#CMR17-73"/>
      <use transform="translate(536.090324 0)scale(0.996264)" xlink:href="#CMR17-79"/>
      <use transform="translate(584.383239 0)scale(0.996264)" xlink:href="#CMR17-29"/>
      <use transform="translate(649.739974 0)scale(0.996264)" xlink:href="#CMR17-64"/>
      <use transform="translate(700.635343 0)scale(0.996264)" xlink:href="#CMR17-61"/>
      <use transform="translate(746.32582 0)scale(0.996264)" xlink:href="#CMR17-74"/>
      <use transform="translate(781.606588 0)scale(0.996264)" xlink:href="#CMR17-61"/>
     </g>
    </g>
    <g id="line2d_17">
     <path d="M 282.124298 44.378546 
L 298.784298 44.378546 
" style="fill:none;stroke:#000000;stroke-linecap:round;stroke-width:1.5;"/>
    </g>
    <g id="line2d_18"/>
    <g id="text_17">
     <!-- posterior predictive mean -->
     <g style="fill:#262626;" transform="translate(305.448298 47.294046)scale(0.0833 -0.0833)">
      <defs>
       <path d="M 1408 -1063 
C 998 -1063 973 -1037 973 -789 
L 973 402 
C 1158 134 1427 -38 1766 -38 
C 2406 -38 3053 523 3053 1388 
C 3053 2191 2496 2802 1837 2802 
C 1453 2802 1139 2592 960 2338 
L 960 2802 
L 198 2732 
L 198 2567 
C 576 2567 634 2528 634 2223 
L 634 -789 
C 634 -1031 608 -1063 198 -1063 
L 198 -1228 
C 352 -1216 634 -1216 800 -1216 
C 966 -1216 1254 -1216 1408 -1228 
L 1408 -1063 
z
M 973 2012 
C 973 2102 973 2235 1222 2471 
C 1254 2497 1472 2688 1792 2688 
C 2259 2688 2643 2108 2643 1382 
C 2643 656 2234 64 1728 64 
C 1498 64 1248 172 1056 472 
C 973 612 973 650 973 752 
L 973 2012 
z
" id="CMR17-70" transform="scale(0.015625)"/>
       <path d="M 2502 2163 
C 2560 2304 2662 2560 3034 2560 
L 3034 2726 
C 2912 2726 2752 2726 2630 2726 
C 2496 2726 2285 2726 2157 2732 
L 2157 2566 
C 2317 2553 2406 2477 2406 2311 
C 2406 2253 2406 2240 2368 2151 
L 1664 377 
L 902 2286 
C 864 2369 864 2381 864 2407 
C 864 2560 1075 2560 1171 2560 
L 1171 2732 
C 1018 2726 736 2726 576 2726 
C 403 2726 205 2726 64 2732 
L 64 2560 
C 307 2560 442 2560 518 2362 
L 1446 44 
C 1485 -51 1491 -64 1549 -64 
C 1606 -64 1613 -51 1651 44 
L 2502 2163 
z
" id="CMR17-76" transform="scale(0.015625)"/>
       <path d="M 4326 1933 
C 4326 2252 4269 2790 3507 2790 
C 3072 2790 2771 2496 2656 2151 
L 2650 2151 
C 2573 2676 2195 2790 1837 2790 
C 1331 2790 1069 2400 973 2144 
L 966 2144 
L 966 2790 
L 211 2720 
L 211 2554 
C 589 2554 646 2515 646 2208 
L 646 428 
C 646 184 621 153 211 153 
L 211 -13 
C 365 0 646 0 813 0 
C 979 0 1267 0 1421 -13 
L 1421 153 
C 1011 153 986 178 986 428 
L 986 1658 
C 986 2247 1344 2688 1792 2688 
C 2266 2688 2317 2266 2317 1958 
L 2317 428 
C 2317 184 2291 153 1882 153 
L 1882 -13 
C 2035 0 2317 0 2483 0 
C 2650 0 2938 0 3091 -13 
L 3091 153 
C 2682 153 2656 178 2656 428 
L 2656 1658 
C 2656 2247 3014 2688 3462 2688 
C 3936 2688 3987 2266 3987 1958 
L 3987 428 
C 3987 184 3962 153 3552 153 
L 3552 -13 
C 3706 0 3987 0 4154 0 
C 4320 0 4608 0 4762 -13 
L 4762 153 
C 4352 153 4326 178 4326 428 
L 4326 1933 
z
" id="CMR17-6d" transform="scale(0.015625)"/>
      </defs>
      <use transform="scale(0.996264)" xlink:href="#CMR17-70"/>
      <use transform="translate(53.497809 0)scale(0.996264)" xlink:href="#CMR17-6f"/>
      <use transform="translate(99.188286 0)scale(0.996264)" xlink:href="#CMR17-73"/>
      <use transform="translate(134.989623 0)scale(0.996264)" xlink:href="#CMR17-74"/>
      <use transform="translate(170.270391 0)scale(0.996264)" xlink:href="#CMR17-65"/>
      <use transform="translate(210.756052 0)scale(0.996264)" xlink:href="#CMR17-72"/>
      <use transform="translate(246.036819 0)scale(0.996264)" xlink:href="#CMR17-69"/>
      <use transform="translate(270.907878 0)scale(0.996264)" xlink:href="#CMR17-6f"/>
      <use transform="translate(316.598355 0)scale(0.996264)" xlink:href="#CMR17-72"/>
      <use transform="translate(381.955089 0)scale(0.996264)" xlink:href="#CMR17-70"/>
      <use transform="translate(432.850459 0)scale(0.996264)" xlink:href="#CMR17-72"/>
      <use transform="translate(468.131227 0)scale(0.996264)" xlink:href="#CMR17-65"/>
      <use transform="translate(508.616887 0)scale(0.996264)" xlink:href="#CMR17-64"/>
      <use transform="translate(559.512257 0)scale(0.996264)" xlink:href="#CMR17-69"/>
      <use transform="translate(584.383315 0)scale(0.996264)" xlink:href="#CMR17-63"/>
      <use transform="translate(624.868976 0)scale(0.996264)" xlink:href="#CMR17-74"/>
      <use transform="translate(660.149744 0)scale(0.996264)" xlink:href="#CMR17-69"/>
      <use transform="translate(685.020802 0)scale(0.996264)" xlink:href="#CMR17-76"/>
      <use transform="translate(730.711264 0)scale(0.996264)" xlink:href="#CMR17-65"/>
      <use transform="translate(801.272891 0)scale(0.996264)" xlink:href="#CMR17-6d"/>
      <use transform="translate(878.192481 0)scale(0.996264)" xlink:href="#CMR17-65"/>
      <use transform="translate(918.678141 0)scale(0.996264)" xlink:href="#CMR17-61"/>
      <use transform="translate(964.368618 0)scale(0.996264)" xlink:href="#CMR17-6e"/>
     </g>
    </g>
    <g id="patch_8">
     <path d="M 282.124298 59.296872 
L 298.784298 59.296872 
L 298.784298 53.465872 
L 282.124298 53.465872 
z
" style="opacity:0.25;stroke:#000000;stroke-linejoin:miter;"/>
    </g>
    <g id="text_18">
     <!-- 95$\%$ confidence region -->
     <g style="fill:#262626;" transform="translate(305.448298 59.296872)scale(0.0833 -0.0833)">
      <defs>
       <path d="M 2253 1864 
C 2253 464 1670 31 1190 31 
C 1043 31 685 31 538 294 
C 704 268 826 357 826 518 
C 826 692 685 749 595 749 
C 538 749 365 723 365 506 
C 365 71 742 -128 1203 -128 
C 1939 -128 2688 674 2688 2073 
C 2688 3817 1971 4179 1485 4179 
C 851 4179 243 3628 243 2778 
C 243 1991 762 1408 1414 1408 
C 1952 1408 2189 1903 2253 2112 
L 2253 1864 
z
M 1427 1510 
C 1254 1510 1011 1542 813 1922 
C 678 2169 678 2461 678 2771 
C 678 3146 678 3405 858 3684 
C 947 3817 1114 4032 1485 4032 
C 2240 4032 2240 2885 2240 2632 
C 2240 2182 2035 1510 1427 1510 
z
" id="CMR17-39" transform="scale(0.015625)"/>
       <path d="M 730 3692 
C 794 3666 1056 3584 1325 3584 
C 1920 3584 2246 3911 2432 4100 
C 2432 4157 2432 4192 2394 4192 
C 2387 4192 2374 4192 2323 4163 
C 2099 4058 1837 3973 1517 3973 
C 1325 3973 1037 3999 723 4139 
C 653 4171 640 4171 634 4171 
C 602 4171 595 4164 595 4037 
L 595 2203 
C 595 2089 595 2057 659 2057 
C 691 2057 704 2070 736 2114 
C 941 2401 1222 2522 1542 2522 
C 1766 2522 2246 2382 2246 1289 
C 2246 1085 2246 715 2054 421 
C 1894 159 1645 25 1370 25 
C 947 25 518 320 403 814 
C 429 807 480 795 506 795 
C 589 795 749 840 749 1038 
C 749 1210 627 1280 506 1280 
C 358 1280 262 1190 262 1011 
C 262 454 704 -128 1382 -128 
C 2042 -128 2669 440 2669 1264 
C 2669 2030 2170 2624 1549 2624 
C 1222 2624 947 2503 730 2274 
L 730 3692 
z
" id="CMR17-35" transform="scale(0.015625)"/>
       <path d="M 4640 959 
C 4640 1698 4275 2240 3846 2240 
C 3411 2240 2970 1736 2970 959 
C 2970 183 3405 -320 3846 -320 
C 4275 -320 4640 215 4640 959 
z
M 3853 -218 
C 3686 -218 3270 -66 3270 959 
C 3270 1991 3686 2138 3853 2138 
C 4205 2138 4525 1634 4525 959 
C 4525 285 4205 -218 3853 -218 
z
M 4083 4577 
C 4128 4647 4134 4653 4134 4685 
C 4134 4761 4077 4800 4026 4800 
C 3962 4800 3936 4756 3891 4706 
C 3520 4190 3008 4134 2746 4134 
C 2106 4134 1715 4494 1594 4607 
C 1510 4682 1389 4800 1171 4800 
C 736 4800 294 4296 294 3519 
C 294 2743 730 2240 1171 2240 
C 1600 2240 1965 2778 1965 3527 
C 1965 3969 1830 4270 1811 4308 
C 2202 4064 2586 4032 2752 4032 
C 3162 4032 3456 4183 3616 4289 
L 3622 4283 
L 858 -84 
C 800 -174 800 -187 800 -206 
C 800 -276 858 -320 915 -320 
C 973 -320 992 -289 1037 -218 
L 4083 4577 
z
M 1178 2342 
C 1011 2342 595 2494 595 3519 
C 595 4551 1011 4698 1178 4698 
C 1530 4698 1850 4194 1850 3519 
C 1850 2845 1530 2342 1178 2342 
z
" id="CMR17-25" transform="scale(0.015625)"/>
       <path d="M 2554 2764 
C 2400 2764 1926 2764 1805 2739 
C 1766 2725 1754 2725 1677 2725 
L 947 2725 
L 947 3469 
C 947 4073 1434 4352 1818 4352 
C 1939 4352 2214 4320 2355 4101 
C 2291 4101 2086 4101 2086 3878 
C 2086 3725 2189 3648 2317 3648 
C 2432 3648 2547 3712 2547 3885 
C 2547 4205 2240 4454 1843 4454 
C 1338 4454 634 4168 634 3469 
L 634 2725 
L 122 2725 
L 122 2560 
L 634 2560 
L 634 427 
C 634 184 608 153 198 153 
L 198 -13 
C 352 0 634 0 794 0 
C 960 0 1242 0 1395 -13 
L 1395 153 
C 986 153 960 178 960 427 
L 960 2560 
L 1901 2560 
C 2176 2560 2227 2502 2227 2222 
L 2227 427 
C 2227 184 2202 153 1792 153 
L 1792 -13 
C 1946 0 2227 0 2387 0 
C 2554 0 2835 0 2989 -13 
L 2989 153 
C 2579 153 2554 178 2554 427 
L 2554 2764 
z
" id="CMR17-c" transform="scale(0.015625)"/>
      </defs>
      <use transform="scale(0.996264)" xlink:href="#CMR17-39"/>
      <use transform="translate(45.690477 0)scale(0.996264)" xlink:href="#CMR17-35"/>
      <use transform="translate(91.380954 0)scale(0.996264)" xlink:href="#CMR17-25"/>
      <use transform="translate(198.37651 0)scale(0.996264)" xlink:href="#CMR17-63"/>
      <use transform="translate(238.862171 0)scale(0.996264)" xlink:href="#CMR17-6f"/>
      <use transform="translate(284.552648 0)scale(0.996264)" xlink:href="#CMR17-6e"/>
      <use transform="translate(335.448018 0)scale(0.996264)" xlink:href="#CMR17-c"/>
      <use transform="translate(385.190241 0)scale(0.996264)" xlink:href="#CMR17-64"/>
      <use transform="translate(436.085611 0)scale(0.996264)" xlink:href="#CMR17-65"/>
      <use transform="translate(476.571271 0)scale(0.996264)" xlink:href="#CMR17-6e"/>
      <use transform="translate(527.466641 0)scale(0.996264)" xlink:href="#CMR17-63"/>
      <use transform="translate(567.952302 0)scale(0.996264)" xlink:href="#CMR17-65"/>
      <use transform="translate(638.513928 0)scale(0.996264)" xlink:href="#CMR17-72"/>
      <use transform="translate(673.794696 0)scale(0.996264)" xlink:href="#CMR17-65"/>
      <use transform="translate(714.280357 0)scale(0.996264)" xlink:href="#CMR17-67"/>
      <use transform="translate(759.970834 0)scale(0.996264)" xlink:href="#CMR17-69"/>
      <use transform="translate(784.841892 0)scale(0.996264)" xlink:href="#CMR17-6f"/>
      <use transform="translate(830.532369 0)scale(0.996264)" xlink:href="#CMR17-6e"/>
     </g>
    </g>
   </g>
  </g>
 </g>
 <defs>
  <clipPath id="pe98a7d8416">
   <rect height="280.986467" width="370.342241" x="40.892719" y="21.50218"/>
  </clipPath>
 </defs>
</svg>
