<?xml version="1.0" encoding="utf-8" standalone="no"?>
<!DOCTYPE svg PUBLIC "-//W3C//DTD SVG 1.1//EN"
  "http://www.w3.org/Graphics/SVG/1.1/DTD/svg11.dtd">
<svg height="300.096pt" version="1.1" viewBox="0 0 1135.296 300.096" width="1135.296pt" xmlns="http://www.w3.org/2000/svg" xmlns:xlink="http://www.w3.org/1999/xlink">
 <metadata>
  <rdf:RDF xmlns:cc="http://creativecommons.org/ns#" xmlns:dc="http://purl.org/dc/elements/1.1/" xmlns:rdf="http://www.w3.org/1999/02/22-rdf-syntax-ns#">
   <cc:Work>
    <dc:type rdf:resource="http://purl.org/dc/dcmitype/StillImage"/>
    <dc:date>2021-12-19T18:17:43.312240</dc:date>
    <dc:format>image/svg+xml</dc:format>
    <dc:creator>
     <cc:Agent>
      <dc:title>Matplotlib v3.4.2, https://matplotlib.org/</dc:title>
     </cc:Agent>
    </dc:creator>
   </cc:Work>
  </rdf:RDF>
 </metadata>
 <defs>
  <style type="text/css">*{stroke-linecap:butt;stroke-linejoin:round;}</style>
 </defs>
 <g id="figure_1">
  <g id="patch_1">
   <path d="M 0 300.096 
L 1135.296 300.096 
L 1135.296 0 
L 0 0 
z
" style="fill:none;"/>
  </g>
  <g id="axes_1">
   <g id="patch_2">
    <path d="M 56.343786 254.954392 
L 262.755008 254.954392 
L 262.755008 23.162625 
L 56.343786 23.162625 
z
" style="fill:none;"/>
   </g>
   <g id="matplotlib.axis_1">
    <g id="xtick_1">
     <g id="line2d_1">
      <defs>
       <path d="M 0 0 
L 0 6 
" id="m7d17c66e0a" style="stroke:#262626;stroke-width:1.25;"/>
      </defs>
      <g>
       <use style="fill:#262626;stroke:#262626;stroke-width:1.25;" x="65.726115" xlink:href="#m7d17c66e0a" y="254.954392"/>
      </g>
     </g>
     <g id="text_1">
      <!-- $\mathdefault{2^{12}}$ -->
      <g style="fill:#262626;" transform="translate(57.776457 273.586787)scale(0.132 -0.132)">
       <defs>
        <path d="M 2669 989 
L 2554 989 
C 2490 536 2438 459 2413 420 
C 2381 369 1920 369 1830 369 
L 602 369 
C 832 619 1280 1072 1824 1597 
C 2214 1967 2669 2402 2669 3035 
C 2669 3790 2067 4224 1395 4224 
C 691 4224 262 3604 262 3030 
C 262 2780 448 2748 525 2748 
C 589 2748 781 2787 781 3010 
C 781 3207 614 3264 525 3264 
C 486 3264 448 3258 422 3245 
C 544 3790 915 4058 1306 4058 
C 1862 4058 2227 3617 2227 3035 
C 2227 2479 1901 2000 1536 1584 
L 262 146 
L 262 0 
L 2515 0 
L 2669 989 
z
" id="CMR17-32" transform="scale(0.015625)"/>
        <path d="M 1702 4058 
C 1702 4192 1696 4192 1606 4192 
C 1357 3916 979 3827 621 3827 
C 602 3827 570 3827 563 3808 
C 557 3795 557 3782 557 3648 
C 755 3648 1088 3686 1344 3839 
L 1344 461 
C 1344 236 1331 160 781 160 
L 589 160 
L 589 0 
C 896 0 1216 0 1523 0 
C 1830 0 2150 0 2458 0 
L 2458 160 
L 2266 160 
C 1715 160 1702 230 1702 458 
L 1702 4058 
z
" id="CMR17-31" transform="scale(0.015625)"/>
       </defs>
       <use transform="scale(0.996264)" xlink:href="#CMR17-32"/>
       <use transform="translate(45.690477 36.153639)scale(0.697382)" xlink:href="#CMR17-31"/>
       <use transform="translate(77.673659 36.153639)scale(0.697382)" xlink:href="#CMR17-32"/>
      </g>
     </g>
    </g>
    <g id="xtick_2">
     <g id="line2d_2">
      <g>
       <use style="fill:#262626;stroke:#262626;stroke-width:1.25;" x="159.549397" xlink:href="#m7d17c66e0a" y="254.954392"/>
      </g>
     </g>
     <g id="text_2">
      <!-- $\mathdefault{2^{13}}$ -->
      <g style="fill:#262626;" transform="translate(151.599739 273.586787)scale(0.132 -0.132)">
       <defs>
        <path d="M 1414 2157 
C 1984 2157 2234 1662 2234 1090 
C 2234 320 1824 25 1453 25 
C 1114 25 563 194 390 693 
C 422 680 454 680 486 680 
C 640 680 755 782 755 948 
C 755 1133 614 1216 486 1216 
C 378 1216 211 1165 211 926 
C 211 335 787 -128 1466 -128 
C 2176 -128 2720 430 2720 1085 
C 2720 1707 2208 2157 1600 2227 
C 2086 2328 2554 2756 2554 3329 
C 2554 3820 2048 4179 1472 4179 
C 890 4179 378 3829 378 3329 
C 378 3110 544 3072 627 3072 
C 762 3072 877 3155 877 3321 
C 877 3486 762 3569 627 3569 
C 602 3569 570 3569 544 3557 
C 730 3959 1235 4032 1459 4032 
C 1683 4032 2106 3925 2106 3320 
C 2106 3143 2080 2828 1862 2550 
C 1670 2304 1453 2304 1242 2284 
C 1210 2284 1062 2269 1037 2269 
C 992 2263 966 2257 966 2208 
C 966 2163 973 2157 1101 2157 
L 1414 2157 
z
" id="CMR17-33" transform="scale(0.015625)"/>
       </defs>
       <use transform="scale(0.996264)" xlink:href="#CMR17-32"/>
       <use transform="translate(45.690477 36.153639)scale(0.697382)" xlink:href="#CMR17-31"/>
       <use transform="translate(77.673659 36.153639)scale(0.697382)" xlink:href="#CMR17-33"/>
      </g>
     </g>
    </g>
    <g id="text_3">
     <!-- $n$ -->
     <g style="fill:#262626;" transform="translate(155.356837 290.106473)scale(0.144 -0.144)">
      <defs>
       <path d="M 1318 1871 
C 1331 1910 1491 2229 1728 2433 
C 1894 2586 2112 2689 2362 2689 
C 2618 2689 2707 2497 2707 2242 
C 2707 1878 2445 1150 2317 805 
C 2259 651 2227 568 2227 453 
C 2227 166 2426 -64 2733 -64 
C 3328 -64 3552 875 3552 913 
C 3552 945 3526 971 3488 971 
C 3430 971 3424 952 3392 843 
C 3245 319 3002 64 2752 64 
C 2688 64 2586 64 2586 269 
C 2586 429 2656 621 2694 710 
C 2822 1063 3091 1780 3091 2145 
C 3091 2528 2867 2816 2381 2816 
C 1811 2816 1510 2415 1395 2255 
C 1376 2618 1114 2816 832 2816 
C 627 2816 486 2695 378 2478 
C 262 2248 173 1865 173 1839 
C 173 1814 198 1782 243 1782 
C 294 1782 301 1788 339 1935 
C 442 2325 557 2689 813 2689 
C 960 2689 1011 2586 1011 2395 
C 1011 2254 947 2005 902 1807 
L 723 1118 
C 698 996 627 709 595 594 
C 550 428 480 128 480 96 
C 480 6 550 -64 646 -64 
C 723 -64 813 -26 864 70 
C 877 102 934 326 966 453 
L 1107 1028 
L 1318 1871 
z
" id="CMMI12-6e" transform="scale(0.015625)"/>
      </defs>
      <use transform="scale(0.996264)" xlink:href="#CMMI12-6e"/>
     </g>
    </g>
   </g>
   <g id="matplotlib.axis_2">
    <g id="ytick_1">
     <g id="line2d_3">
      <path clip-path="url(#p009b1ec04b)" d="M 56.343786 228.03068 
L 262.755008 228.03068 
" style="fill:none;stroke:#cccccc;stroke-linecap:round;"/>
     </g>
     <g id="line2d_4">
      <defs>
       <path d="M 0 0 
L -6 0 
" id="mc52470ac74" style="stroke:#262626;stroke-width:1.25;"/>
      </defs>
      <g>
       <use style="fill:#262626;stroke:#262626;stroke-width:1.25;" x="56.343786" xlink:href="#mc52470ac74" y="228.03068"/>
      </g>
     </g>
     <g id="text_4">
      <!-- $\mathdefault{0.02}$ -->
      <g style="fill:#262626;" transform="translate(23.952152 232.596878)scale(0.132 -0.132)">
       <defs>
        <path d="M 2688 2025 
C 2688 2416 2682 3080 2413 3591 
C 2176 4039 1798 4198 1466 4198 
C 1158 4198 768 4058 525 3597 
C 269 3118 243 2524 243 2025 
C 243 1661 250 1106 448 619 
C 723 -39 1216 -128 1466 -128 
C 1760 -128 2208 -7 2470 600 
C 2662 1042 2688 1559 2688 2025 
z
M 1466 -26 
C 1056 -26 813 325 723 812 
C 653 1188 653 1738 653 2096 
C 653 2588 653 2997 736 3387 
C 858 3929 1216 4096 1466 4096 
C 1728 4096 2067 3923 2189 3400 
C 2272 3036 2278 2607 2278 2096 
C 2278 1680 2278 1169 2202 792 
C 2067 95 1690 -26 1466 -26 
z
" id="CMR17-30" transform="scale(0.015625)"/>
        <path d="M 1178 307 
C 1178 492 1024 619 870 619 
C 685 619 557 466 557 313 
C 557 128 710 0 864 0 
C 1050 0 1178 153 1178 307 
z
" id="CMMI12-3a" transform="scale(0.015625)"/>
       </defs>
       <use transform="scale(0.996264)" xlink:href="#CMR17-30"/>
       <use transform="translate(45.690477 0)scale(0.996264)" xlink:href="#CMMI12-3a"/>
       <use transform="translate(72.787654 0)scale(0.996264)" xlink:href="#CMR17-30"/>
       <use transform="translate(118.478131 0)scale(0.996264)" xlink:href="#CMR17-32"/>
      </g>
     </g>
    </g>
    <g id="ytick_2">
     <g id="line2d_5">
      <path clip-path="url(#p009b1ec04b)" d="M 56.343786 195.255087 
L 262.755008 195.255087 
" style="fill:none;stroke:#cccccc;stroke-linecap:round;"/>
     </g>
     <g id="line2d_6">
      <g>
       <use style="fill:#262626;stroke:#262626;stroke-width:1.25;" x="56.343786" xlink:href="#mc52470ac74" y="195.255087"/>
      </g>
     </g>
     <g id="text_5">
      <!-- $\mathdefault{0.04}$ -->
      <g style="fill:#262626;" transform="translate(23.952152 199.821284)scale(0.132 -0.132)">
       <defs>
        <path d="M 2150 4122 
C 2150 4256 2144 4256 2029 4256 
L 128 1254 
L 128 1088 
L 1779 1088 
L 1779 457 
C 1779 224 1766 160 1318 160 
L 1197 160 
L 1197 0 
C 1402 0 1747 0 1965 0 
C 2182 0 2528 0 2733 0 
L 2733 160 
L 2611 160 
C 2163 160 2150 224 2150 457 
L 2150 1088 
L 2803 1088 
L 2803 1254 
L 2150 1254 
L 2150 4122 
z
M 1798 3703 
L 1798 1254 
L 256 1254 
L 1798 3703 
z
" id="CMR17-34" transform="scale(0.015625)"/>
       </defs>
       <use transform="scale(0.996264)" xlink:href="#CMR17-30"/>
       <use transform="translate(45.690477 0)scale(0.996264)" xlink:href="#CMMI12-3a"/>
       <use transform="translate(72.787654 0)scale(0.996264)" xlink:href="#CMR17-30"/>
       <use transform="translate(118.478131 0)scale(0.996264)" xlink:href="#CMR17-34"/>
      </g>
     </g>
    </g>
    <g id="ytick_3">
     <g id="line2d_7">
      <path clip-path="url(#p009b1ec04b)" d="M 56.343786 162.479494 
L 262.755008 162.479494 
" style="fill:none;stroke:#cccccc;stroke-linecap:round;"/>
     </g>
     <g id="line2d_8">
      <g>
       <use style="fill:#262626;stroke:#262626;stroke-width:1.25;" x="56.343786" xlink:href="#mc52470ac74" y="162.479494"/>
      </g>
     </g>
     <g id="text_6">
      <!-- $\mathdefault{0.06}$ -->
      <g style="fill:#262626;" transform="translate(23.952152 167.045691)scale(0.132 -0.132)">
       <defs>
        <path d="M 678 2176 
C 678 3690 1395 4032 1811 4032 
C 1946 4032 2272 4009 2400 3776 
C 2298 3776 2106 3776 2106 3553 
C 2106 3381 2246 3323 2336 3323 
C 2394 3323 2566 3348 2566 3560 
C 2566 3954 2246 4179 1805 4179 
C 1043 4179 243 3390 243 1984 
C 243 253 966 -128 1478 -128 
C 2099 -128 2688 427 2688 1283 
C 2688 2081 2170 2662 1517 2662 
C 1126 2662 838 2407 678 1960 
L 678 2176 
z
M 1478 25 
C 691 25 691 1200 691 1436 
C 691 1896 909 2560 1504 2560 
C 1613 2560 1926 2560 2138 2120 
C 2253 1870 2253 1609 2253 1289 
C 2253 944 2253 690 2118 434 
C 1978 171 1773 25 1478 25 
z
" id="CMR17-36" transform="scale(0.015625)"/>
       </defs>
       <use transform="scale(0.996264)" xlink:href="#CMR17-30"/>
       <use transform="translate(45.690477 0)scale(0.996264)" xlink:href="#CMMI12-3a"/>
       <use transform="translate(72.787654 0)scale(0.996264)" xlink:href="#CMR17-30"/>
       <use transform="translate(118.478131 0)scale(0.996264)" xlink:href="#CMR17-36"/>
      </g>
     </g>
    </g>
    <g id="ytick_4">
     <g id="line2d_9">
      <path clip-path="url(#p009b1ec04b)" d="M 56.343786 129.703901 
L 262.755008 129.703901 
" style="fill:none;stroke:#cccccc;stroke-linecap:round;"/>
     </g>
     <g id="line2d_10">
      <g>
       <use style="fill:#262626;stroke:#262626;stroke-width:1.25;" x="56.343786" xlink:href="#mc52470ac74" y="129.703901"/>
      </g>
     </g>
     <g id="text_7">
      <!-- $\mathdefault{0.08}$ -->
      <g style="fill:#262626;" transform="translate(23.952152 134.270098)scale(0.132 -0.132)">
       <defs>
        <path d="M 1741 2264 
C 2144 2467 2554 2773 2554 3263 
C 2554 3841 1990 4179 1472 4179 
C 890 4179 378 3759 378 3180 
C 378 3021 416 2747 666 2505 
C 730 2442 998 2251 1171 2130 
C 883 1983 211 1634 211 934 
C 211 279 838 -128 1459 -128 
C 2144 -128 2720 362 2720 1010 
C 2720 1590 2330 1857 2074 2029 
L 1741 2264 
z
M 902 2822 
C 851 2854 595 3051 595 3351 
C 595 3739 998 4032 1459 4032 
C 1965 4032 2336 3676 2336 3262 
C 2336 2669 1670 2331 1638 2331 
C 1632 2331 1626 2331 1574 2370 
L 902 2822 
z
M 2080 1519 
C 2176 1449 2483 1240 2483 851 
C 2483 381 2010 25 1472 25 
C 890 25 448 438 448 940 
C 448 1443 838 1862 1280 2060 
L 2080 1519 
z
" id="CMR17-38" transform="scale(0.015625)"/>
       </defs>
       <use transform="scale(0.996264)" xlink:href="#CMR17-30"/>
       <use transform="translate(45.690477 0)scale(0.996264)" xlink:href="#CMMI12-3a"/>
       <use transform="translate(72.787654 0)scale(0.996264)" xlink:href="#CMR17-30"/>
       <use transform="translate(118.478131 0)scale(0.996264)" xlink:href="#CMR17-38"/>
      </g>
     </g>
    </g>
    <g id="ytick_5">
     <g id="line2d_11">
      <path clip-path="url(#p009b1ec04b)" d="M 56.343786 96.928307 
L 262.755008 96.928307 
" style="fill:none;stroke:#cccccc;stroke-linecap:round;"/>
     </g>
     <g id="line2d_12">
      <g>
       <use style="fill:#262626;stroke:#262626;stroke-width:1.25;" x="56.343786" xlink:href="#mc52470ac74" y="96.928307"/>
      </g>
     </g>
     <g id="text_8">
      <!-- $\mathdefault{0.10}$ -->
      <g style="fill:#262626;" transform="translate(23.952152 101.494505)scale(0.132 -0.132)">
       <use transform="scale(0.996264)" xlink:href="#CMR17-30"/>
       <use transform="translate(45.690477 0)scale(0.996264)" xlink:href="#CMMI12-3a"/>
       <use transform="translate(72.787654 0)scale(0.996264)" xlink:href="#CMR17-31"/>
       <use transform="translate(118.478131 0)scale(0.996264)" xlink:href="#CMR17-30"/>
      </g>
     </g>
    </g>
    <g id="ytick_6">
     <g id="line2d_13">
      <path clip-path="url(#p009b1ec04b)" d="M 56.343786 64.152714 
L 262.755008 64.152714 
" style="fill:none;stroke:#cccccc;stroke-linecap:round;"/>
     </g>
     <g id="line2d_14">
      <g>
       <use style="fill:#262626;stroke:#262626;stroke-width:1.25;" x="56.343786" xlink:href="#mc52470ac74" y="64.152714"/>
      </g>
     </g>
     <g id="text_9">
      <!-- $\mathdefault{0.12}$ -->
      <g style="fill:#262626;" transform="translate(23.952152 68.718912)scale(0.132 -0.132)">
       <use transform="scale(0.996264)" xlink:href="#CMR17-30"/>
       <use transform="translate(45.690477 0)scale(0.996264)" xlink:href="#CMMI12-3a"/>
       <use transform="translate(72.787654 0)scale(0.996264)" xlink:href="#CMR17-31"/>
       <use transform="translate(118.478131 0)scale(0.996264)" xlink:href="#CMR17-32"/>
      </g>
     </g>
    </g>
    <g id="ytick_7">
     <g id="line2d_15">
      <path clip-path="url(#p009b1ec04b)" d="M 56.343786 31.377121 
L 262.755008 31.377121 
" style="fill:none;stroke:#cccccc;stroke-linecap:round;"/>
     </g>
     <g id="line2d_16">
      <g>
       <use style="fill:#262626;stroke:#262626;stroke-width:1.25;" x="56.343786" xlink:href="#mc52470ac74" y="31.377121"/>
      </g>
     </g>
     <g id="text_10">
      <!-- $\mathdefault{0.14}$ -->
      <g style="fill:#262626;" transform="translate(23.952152 35.943319)scale(0.132 -0.132)">
       <use transform="scale(0.996264)" xlink:href="#CMR17-30"/>
       <use transform="translate(45.690477 0)scale(0.996264)" xlink:href="#CMMI12-3a"/>
       <use transform="translate(72.787654 0)scale(0.996264)" xlink:href="#CMR17-31"/>
       <use transform="translate(118.478131 0)scale(0.996264)" xlink:href="#CMR17-34"/>
      </g>
     </g>
    </g>
    <g id="text_11">
     <!-- $\sigma$ -->
     <g style="fill:#262626;" transform="translate(17.162625 143.050572)rotate(-90)scale(0.144 -0.144)">
      <defs>
       <path d="M 3251 2408 
C 3334 2408 3546 2408 3546 2612 
C 3546 2752 3424 2752 3309 2752 
L 1894 2752 
C 934 2752 243 1686 243 932 
C 243 390 595 -64 1171 -64 
C 1926 -64 2752 747 2752 1705 
C 2752 1954 2694 2196 2541 2408 
L 3251 2408 
z
M 1178 64 
C 851 64 614 313 614 754 
C 614 1137 845 2408 1786 2408 
C 2061 2408 2368 2274 2368 1781 
C 2368 1558 2266 1021 2042 652 
C 1811 275 1466 64 1178 64 
z
" id="CMMI12-1b" transform="scale(0.015625)"/>
      </defs>
      <use transform="scale(0.996264)" xlink:href="#CMMI12-1b"/>
     </g>
    </g>
   </g>
   <g id="LineCollection_1">
    <path clip-path="url(#p009b1ec04b)" d="M 65.726115 213.976393 
L 65.726115 184.707996 
" style="fill:none;stroke:#0093ff;stroke-width:1.5;"/>
    <path clip-path="url(#p009b1ec04b)" d="M 93.825647 175.610381 
L 93.825647 136.531616 
" style="fill:none;stroke:#0093ff;stroke-width:1.5;"/>
    <path clip-path="url(#p009b1ec04b)" d="M 126.134816 116.887959 
L 126.134816 106.279195 
" style="fill:none;stroke:#0093ff;stroke-width:1.5;"/>
    <path clip-path="url(#p009b1ec04b)" d="M 158.020659 188.920471 
L 158.020659 133.422491 
" style="fill:none;stroke:#0093ff;stroke-width:1.5;"/>
    <path clip-path="url(#p009b1ec04b)" d="M 189.237239 244.418402 
L 189.237239 244.418389 
" style="fill:none;stroke:#0093ff;stroke-width:1.5;"/>
    <path clip-path="url(#p009b1ec04b)" d="M 222.015065 244.418344 
L 222.015065 244.418212 
" style="fill:none;stroke:#0093ff;stroke-width:1.5;"/>
    <path clip-path="url(#p009b1ec04b)" d="M 253.37268 177.998294 
L 253.37268 155.130129 
" style="fill:none;stroke:#0093ff;stroke-width:1.5;"/>
   </g>
   <g id="LineCollection_2">
    <path clip-path="url(#p009b1ec04b)" d="M 65.726115 40.820686 
L 65.726115 33.698614 
" style="fill:none;stroke:#77b900;stroke-width:1.5;"/>
    <path clip-path="url(#p009b1ec04b)" d="M 93.825647 67.324411 
L 93.825647 58.91094 
" style="fill:none;stroke:#77b900;stroke-width:1.5;"/>
    <path clip-path="url(#p009b1ec04b)" d="M 126.134816 82.36561 
L 126.134816 82.36561 
" style="fill:none;stroke:#77b900;stroke-width:1.5;"/>
    <path clip-path="url(#p009b1ec04b)" d="M 158.020659 141.137222 
L 158.020659 140.68804 
" style="fill:none;stroke:#77b900;stroke-width:1.5;"/>
    <path clip-path="url(#p009b1ec04b)" d="M 189.237239 120.06253 
L 189.237239 119.639036 
" style="fill:none;stroke:#77b900;stroke-width:1.5;"/>
    <path clip-path="url(#p009b1ec04b)" d="M 222.015065 129.591287 
L 222.015065 127.642881 
" style="fill:none;stroke:#77b900;stroke-width:1.5;"/>
    <path clip-path="url(#p009b1ec04b)" d="M 253.37268 153.137832 
L 253.37268 151.270701 
" style="fill:none;stroke:#77b900;stroke-width:1.5;"/>
   </g>
   <g id="line2d_17">
    <path clip-path="url(#p009b1ec04b)" d="M 65.726115 213.976393 
L 93.825647 175.610381 
L 126.134816 116.887959 
L 158.020659 188.920471 
L 189.237239 244.418402 
L 222.015065 244.418344 
L 253.37268 177.998294 
" style="fill:none;stroke:#0093ff;stroke-linecap:round;stroke-width:1.5;"/>
    <defs>
     <path d="M 0 3 
C 0.795609 3 1.55874 2.683901 2.12132 2.12132 
C 2.683901 1.55874 3 0.795609 3 0 
C 3 -0.795609 2.683901 -1.55874 2.12132 -2.12132 
C 1.55874 -2.683901 0.795609 -3 0 -3 
C -0.795609 -3 -1.55874 -2.683901 -2.12132 -2.12132 
C -2.683901 -1.55874 -3 -0.795609 -3 0 
C -3 0.795609 -2.683901 1.55874 -2.12132 2.12132 
C -1.55874 2.683901 -0.795609 3 0 3 
z
" id="m8909394e8f" style="stroke:#0093ff;"/>
    </defs>
    <g clip-path="url(#p009b1ec04b)">
     <use style="fill:#0093ff;stroke:#0093ff;" x="65.726115" xlink:href="#m8909394e8f" y="213.976393"/>
     <use style="fill:#0093ff;stroke:#0093ff;" x="93.825647" xlink:href="#m8909394e8f" y="175.610381"/>
     <use style="fill:#0093ff;stroke:#0093ff;" x="126.134816" xlink:href="#m8909394e8f" y="116.887959"/>
     <use style="fill:#0093ff;stroke:#0093ff;" x="158.020659" xlink:href="#m8909394e8f" y="188.920471"/>
     <use style="fill:#0093ff;stroke:#0093ff;" x="189.237239" xlink:href="#m8909394e8f" y="244.418402"/>
     <use style="fill:#0093ff;stroke:#0093ff;" x="222.015065" xlink:href="#m8909394e8f" y="244.418344"/>
     <use style="fill:#0093ff;stroke:#0093ff;" x="253.37268" xlink:href="#m8909394e8f" y="177.998294"/>
    </g>
   </g>
   <g id="line2d_18">
    <path clip-path="url(#p009b1ec04b)" d="M 65.726115 40.820686 
L 93.825647 67.324411 
L 126.134816 82.36561 
L 158.020659 141.137222 
L 189.237239 120.06253 
L 222.015065 129.591287 
L 253.37268 153.137832 
" style="fill:none;stroke:#77b900;stroke-linecap:round;stroke-width:1.5;"/>
    <defs>
     <path d="M -3 3 
L 3 3 
L 3 -3 
L -3 -3 
z
" id="m25d8d079ca" style="stroke:#77b900;stroke-linejoin:miter;"/>
    </defs>
    <g clip-path="url(#p009b1ec04b)">
     <use style="fill:#77b900;stroke:#77b900;stroke-linejoin:miter;" x="65.726115" xlink:href="#m25d8d079ca" y="40.820686"/>
     <use style="fill:#77b900;stroke:#77b900;stroke-linejoin:miter;" x="93.825647" xlink:href="#m25d8d079ca" y="67.324411"/>
     <use style="fill:#77b900;stroke:#77b900;stroke-linejoin:miter;" x="126.134816" xlink:href="#m25d8d079ca" y="82.36561"/>
     <use style="fill:#77b900;stroke:#77b900;stroke-linejoin:miter;" x="158.020659" xlink:href="#m25d8d079ca" y="141.137222"/>
     <use style="fill:#77b900;stroke:#77b900;stroke-linejoin:miter;" x="189.237239" xlink:href="#m25d8d079ca" y="120.06253"/>
     <use style="fill:#77b900;stroke:#77b900;stroke-linejoin:miter;" x="222.015065" xlink:href="#m25d8d079ca" y="129.591287"/>
     <use style="fill:#77b900;stroke:#77b900;stroke-linejoin:miter;" x="253.37268" xlink:href="#m25d8d079ca" y="153.137832"/>
    </g>
   </g>
   <g id="patch_3">
    <path d="M 56.343786 254.954392 
L 56.343786 23.162625 
" style="fill:none;stroke:#262626;stroke-linecap:square;stroke-linejoin:miter;stroke-width:1.25;"/>
   </g>
   <g id="patch_4">
    <path d="M 262.755008 254.954392 
L 262.755008 23.162625 
" style="fill:none;stroke:#262626;stroke-linecap:square;stroke-linejoin:miter;stroke-width:1.25;"/>
   </g>
   <g id="patch_5">
    <path d="M 56.343786 254.954392 
L 262.755008 254.954392 
" style="fill:none;stroke:#262626;stroke-linecap:square;stroke-linejoin:miter;stroke-width:1.25;"/>
   </g>
   <g id="patch_6">
    <path d="M 56.343786 23.162625 
L 262.755008 23.162625 
" style="fill:none;stroke:#262626;stroke-linecap:square;stroke-linejoin:miter;stroke-width:1.25;"/>
   </g>
   <g id="text_12">
    <!-- Misfit -->
    <g style="fill:#262626;" transform="translate(141.758827 17.162625)scale(0.144 -0.144)">
     <defs>
      <path d="M 1338 4224 
C 1299 4320 1293 4320 1158 4320 
L 339 4320 
L 339 4160 
C 781 4160 851 4160 851 3875 
L 851 610 
C 851 451 851 153 339 153 
L 339 -13 
C 486 0 755 0 915 0 
C 1075 0 1344 0 1491 -13 
L 1491 153 
C 979 153 979 451 979 610 
L 979 4135 
L 986 4135 
L 2490 89 
C 2515 25 2528 -13 2579 -13 
C 2630 -13 2643 25 2669 89 
L 4186 4166 
L 4192 4166 
L 4192 438 
C 4192 153 4122 153 3680 153 
L 3680 -13 
C 3853 0 4198 0 4384 0 
C 4570 0 4922 0 5094 -13 
L 5094 153 
C 4653 153 4582 153 4582 438 
L 4582 3875 
C 4582 4160 4653 4160 5094 4160 
L 5094 4320 
L 4282 4320 
C 4147 4320 4141 4314 4102 4218 
L 2720 502 
L 1338 4224 
z
" id="CMR17-4d" transform="scale(0.015625)"/>
      <path d="M 992 3909 
C 992 4049 877 4170 730 4170 
C 589 4170 467 4056 467 3909 
C 467 3769 582 3648 730 3648 
C 870 3648 992 3763 992 3909 
z
M 243 2706 
L 243 2541 
C 602 2541 653 2502 653 2197 
L 653 427 
C 653 184 627 153 218 153 
L 218 -13 
C 371 0 646 0 806 0 
C 960 0 1222 0 1370 -13 
L 1370 153 
C 992 153 979 191 979 420 
L 979 2776 
L 243 2706 
z
" id="CMR17-69" transform="scale(0.015625)"/>
      <path d="M 1978 2697 
C 1978 2813 1971 2819 1933 2819 
C 1907 2819 1901 2813 1824 2717 
C 1805 2691 1747 2626 1728 2601 
C 1523 2819 1235 2819 1126 2819 
C 416 2819 160 2447 160 2076 
C 160 1498 813 1365 998 1325 
C 1402 1243 1542 1217 1677 1101 
C 1760 1025 1901 884 1901 654 
C 1901 384 1747 38 1158 38 
C 602 38 403 460 288 1021 
C 269 1110 269 1117 218 1117 
C 166 1117 160 1110 160 983 
L 160 63 
C 160 -51 166 -58 205 -58 
C 237 -58 243 -51 275 0 
C 314 57 410 211 448 276 
C 576 103 800 -64 1158 -64 
C 1792 -64 2131 283 2131 784 
C 2131 1112 1958 1285 1875 1362 
C 1683 1561 1459 1606 1190 1657 
C 838 1735 390 1825 390 2217 
C 390 2383 480 2737 1126 2737 
C 1811 2737 1850 2094 1862 1888 
C 1869 1856 1901 1849 1920 1849 
C 1978 1849 1978 1869 1978 1978 
L 1978 2697 
z
" id="CMR17-73" transform="scale(0.015625)"/>
      <path d="M 2554 2764 
C 2400 2764 1926 2764 1805 2739 
C 1766 2725 1754 2725 1677 2725 
L 947 2725 
L 947 3469 
C 947 4073 1434 4352 1818 4352 
C 1939 4352 2214 4320 2355 4101 
C 2291 4101 2086 4101 2086 3878 
C 2086 3725 2189 3648 2317 3648 
C 2432 3648 2547 3712 2547 3885 
C 2547 4205 2240 4454 1843 4454 
C 1338 4454 634 4168 634 3469 
L 634 2725 
L 122 2725 
L 122 2560 
L 634 2560 
L 634 427 
C 634 184 608 153 198 153 
L 198 -13 
C 352 0 634 0 794 0 
C 960 0 1242 0 1395 -13 
L 1395 153 
C 986 153 960 178 960 427 
L 960 2560 
L 1901 2560 
C 2176 2560 2227 2502 2227 2222 
L 2227 427 
C 2227 184 2202 153 1792 153 
L 1792 -13 
C 1946 0 2227 0 2387 0 
C 2554 0 2835 0 2989 -13 
L 2989 153 
C 2579 153 2554 178 2554 427 
L 2554 2764 
z
" id="CMR17-c" transform="scale(0.015625)"/>
      <path d="M 966 2560 
L 1862 2560 
L 1862 2725 
L 966 2725 
L 966 3904 
L 851 3904 
C 838 3245 614 2668 70 2668 
L 70 2560 
L 627 2560 
L 627 771 
C 627 650 627 -64 1370 -64 
C 1747 -64 1965 306 1965 777 
L 1965 1140 
L 1850 1140 
L 1850 783 
C 1850 344 1677 51 1408 51 
C 1222 51 966 178 966 758 
L 966 2560 
z
" id="CMR17-74" transform="scale(0.015625)"/>
     </defs>
     <use transform="scale(0.996264)" xlink:href="#CMR17-4d"/>
     <use transform="translate(84.686941 0)scale(0.996264)" xlink:href="#CMR17-69"/>
     <use transform="translate(109.557999 0)scale(0.996264)" xlink:href="#CMR17-73"/>
     <use transform="translate(145.359337 0)scale(0.996264)" xlink:href="#CMR17-c"/>
     <use transform="translate(195.10156 0)scale(0.996264)" xlink:href="#CMR17-74"/>
    </g>
   </g>
   <g id="legend_1">
    <g id="patch_7">
     <path d="M 190.212396 59.014008 
L 255.759488 59.014008 
Q 257.758208 59.014008 257.758208 57.015288 
L 257.758208 30.158145 
Q 257.758208 28.159425 255.759488 28.159425 
L 190.212396 28.159425 
Q 188.213676 28.159425 188.213676 30.158145 
L 188.213676 57.015288 
Q 188.213676 59.014008 190.212396 59.014008 
z
" style="fill:#ffffff;opacity:0.8;stroke:#cccccc;stroke-linejoin:miter;"/>
    </g>
    <g id="LineCollection_3">
     <path d="M 202.204716 40.651425 
L 202.204716 30.657825 
" style="fill:none;stroke:#0093ff;stroke-width:1.5;"/>
    </g>
    <g id="line2d_19">
     <path d="M 192.211116 35.654625 
L 212.198316 35.654625 
" style="fill:none;stroke:#0093ff;stroke-linecap:round;stroke-width:1.5;"/>
    </g>
    <g id="line2d_20">
     <g>
      <use style="fill:#0093ff;stroke:#0093ff;" x="202.204716" xlink:href="#m8909394e8f" y="35.654625"/>
     </g>
    </g>
    <g id="text_13">
     <!-- full -->
     <g style="fill:#262626;" transform="translate(220.193196 39.152385)scale(0.099936 -0.099936)">
      <defs>
       <path d="M 979 2560 
L 1709 2560 
L 1709 2725 
L 966 2725 
L 966 3494 
C 966 4022 1235 4352 1510 4352 
C 1594 4352 1690 4327 1754 4282 
C 1702 4269 1568 4225 1568 4067 
C 1568 3901 1696 3850 1786 3850 
C 1875 3850 2003 3901 2003 4067 
C 2003 4308 1773 4454 1517 4454 
C 1152 4454 653 4156 653 3481 
L 653 2725 
L 141 2725 
L 141 2560 
L 653 2560 
L 653 427 
C 653 184 627 153 218 153 
L 218 -13 
C 371 0 666 0 832 0 
C 1018 0 1344 0 1517 -13 
L 1517 153 
C 1056 153 979 153 979 439 
L 979 2560 
z
" id="CMR17-66" transform="scale(0.015625)"/>
       <path d="M 1882 2693 
L 1882 2528 
C 2259 2528 2317 2489 2317 2186 
L 2317 1032 
C 2317 500 2029 38 1555 38 
C 1030 38 986 348 986 678 
L 986 2763 
L 211 2693 
L 211 2528 
C 467 2528 640 2528 646 2274 
L 646 1058 
C 646 633 646 361 813 183 
C 896 101 1056 -64 1517 -64 
C 2061 -64 2272 377 2323 506 
L 2330 506 
L 2330 -63 
L 3091 -63 
L 3091 128 
C 2714 128 2656 166 2656 473 
L 2656 2763 
L 1882 2693 
z
" id="CMR17-75" transform="scale(0.015625)"/>
       <path d="M 979 4396 
L 218 4326 
L 218 4160 
C 595 4160 653 4122 653 3817 
L 653 426 
C 653 184 627 153 218 153 
L 218 -13 
C 371 0 653 0 813 0 
C 979 0 1261 0 1414 -13 
L 1414 153 
C 1005 153 979 178 979 426 
L 979 4396 
z
" id="CMR17-6c" transform="scale(0.015625)"/>
      </defs>
      <use transform="scale(0.996264)" xlink:href="#CMR17-66"/>
      <use transform="translate(27.473512 0)scale(0.996264)" xlink:href="#CMR17-75"/>
      <use transform="translate(78.368882 0)scale(0.996264)" xlink:href="#CMR17-6c"/>
      <use transform="translate(103.239941 0)scale(0.996264)" xlink:href="#CMR17-6c"/>
     </g>
    </g>
    <g id="LineCollection_4">
     <path d="M 202.204716 54.579677 
L 202.204716 44.586077 
" style="fill:none;stroke:#77b900;stroke-width:1.5;"/>
    </g>
    <g id="line2d_21">
     <path d="M 192.211116 49.582877 
L 212.198316 49.582877 
" style="fill:none;stroke:#77b900;stroke-linecap:round;stroke-width:1.5;"/>
    </g>
    <g id="line2d_22">
     <g>
      <use style="fill:#77b900;stroke:#77b900;stroke-linejoin:miter;" x="202.204716" xlink:href="#m25d8d079ca" y="49.582877"/>
     </g>
    </g>
    <g id="text_14">
     <!-- profiled -->
     <g style="fill:#262626;" transform="translate(220.193196 53.080637)scale(0.099936 -0.099936)">
      <defs>
       <path d="M 1408 -1063 
C 998 -1063 973 -1037 973 -789 
L 973 402 
C 1158 134 1427 -38 1766 -38 
C 2406 -38 3053 523 3053 1388 
C 3053 2191 2496 2802 1837 2802 
C 1453 2802 1139 2592 960 2338 
L 960 2802 
L 198 2732 
L 198 2567 
C 576 2567 634 2528 634 2223 
L 634 -789 
C 634 -1031 608 -1063 198 -1063 
L 198 -1228 
C 352 -1216 634 -1216 800 -1216 
C 966 -1216 1254 -1216 1408 -1228 
L 1408 -1063 
z
M 973 2012 
C 973 2102 973 2235 1222 2471 
C 1254 2497 1472 2688 1792 2688 
C 2259 2688 2643 2108 2643 1382 
C 2643 656 2234 64 1728 64 
C 1498 64 1248 172 1056 472 
C 973 612 973 650 973 752 
L 973 2012 
z
" id="CMR17-70" transform="scale(0.015625)"/>
       <path d="M 960 1497 
C 960 2112 1222 2688 1702 2688 
C 1747 2688 1792 2682 1837 2662 
C 1837 2662 1696 2617 1696 2452 
C 1696 2298 1818 2234 1914 2234 
C 1990 2234 2131 2279 2131 2458 
C 2131 2663 1926 2790 1709 2790 
C 1222 2790 1011 2317 947 2093 
L 941 2093 
L 941 2790 
L 198 2720 
L 198 2554 
C 576 2554 634 2515 634 2208 
L 634 428 
C 634 184 608 153 198 153 
L 198 -13 
C 352 0 646 0 813 0 
C 998 0 1325 0 1498 -13 
L 1498 153 
C 1037 153 960 153 960 440 
L 960 1497 
z
" id="CMR17-72" transform="scale(0.015625)"/>
       <path d="M 2758 1356 
C 2758 2176 2163 2816 1466 2816 
C 768 2816 173 2176 173 1356 
C 173 551 768 -64 1466 -64 
C 2163 -64 2758 551 2758 1356 
z
M 1466 51 
C 1165 51 909 230 762 480 
C 602 767 582 1126 582 1408 
C 582 1677 595 2010 762 2298 
C 890 2509 1139 2714 1466 2714 
C 1754 2714 1997 2554 2150 2330 
C 2349 2029 2349 1607 2349 1408 
C 2349 1158 2336 775 2163 467 
C 1984 173 1709 51 1466 51 
z
" id="CMR17-6f" transform="scale(0.015625)"/>
       <path d="M 2438 1472 
C 2464 1498 2464 1511 2464 1576 
C 2464 2238 2118 2816 1389 2816 
C 710 2816 173 2169 173 1383 
C 173 551 781 -64 1459 -64 
C 2176 -64 2458 607 2458 740 
C 2458 784 2419 784 2406 784 
C 2362 784 2355 771 2330 696 
C 2189 265 1837 51 1504 51 
C 1229 51 954 203 781 480 
C 582 803 582 1176 582 1472 
L 2438 1472 
z
M 589 1568 
C 634 2505 1126 2714 1382 2714 
C 1818 2714 2112 2297 2118 1568 
L 589 1568 
z
" id="CMR17-65" transform="scale(0.015625)"/>
       <path d="M 1869 4326 
L 1869 4160 
C 2246 4160 2304 4122 2304 3820 
L 2304 2345 
C 2278 2377 2016 2790 1498 2790 
C 845 2790 211 2208 211 1364 
C 211 525 806 -64 1434 -64 
C 1978 -64 2259 337 2291 380 
L 2291 -63 
L 3066 -63 
L 3066 128 
C 2688 128 2630 166 2630 473 
L 2630 4396 
L 1869 4326 
z
M 2291 755 
C 2291 563 2176 390 2029 262 
C 1811 70 1594 38 1472 38 
C 1286 38 621 134 621 1356 
C 621 2612 1363 2688 1530 2688 
C 1824 2688 2061 2522 2208 2291 
C 2291 2157 2291 2138 2291 2023 
L 2291 755 
z
" id="CMR17-64" transform="scale(0.015625)"/>
      </defs>
      <use transform="scale(0.996264)" xlink:href="#CMR17-70"/>
      <use transform="translate(50.89537 0)scale(0.996264)" xlink:href="#CMR17-72"/>
      <use transform="translate(86.176138 0)scale(0.996264)" xlink:href="#CMR17-6f"/>
      <use transform="translate(131.866615 0)scale(0.996264)" xlink:href="#CMR17-c"/>
      <use transform="translate(181.608838 0)scale(0.996264)" xlink:href="#CMR17-6c"/>
      <use transform="translate(206.479897 0)scale(0.996264)" xlink:href="#CMR17-65"/>
      <use transform="translate(246.965557 0)scale(0.996264)" xlink:href="#CMR17-64"/>
     </g>
    </g>
   </g>
  </g>
  <g id="axes_2">
   <g id="patch_8">
    <path d="M 344.790784 254.954392 
L 551.202005 254.954392 
L 551.202005 23.162625 
L 344.790784 23.162625 
z
" style="fill:none;"/>
   </g>
   <g id="matplotlib.axis_3">
    <g id="xtick_3">
     <g id="line2d_23">
      <g>
       <use style="fill:#262626;stroke:#262626;stroke-width:1.25;" x="354.173112" xlink:href="#m7d17c66e0a" y="254.954392"/>
      </g>
     </g>
     <g id="text_15">
      <!-- $\mathdefault{2^{12}}$ -->
      <g style="fill:#262626;" transform="translate(346.223454 273.586787)scale(0.132 -0.132)">
       <use transform="scale(0.996264)" xlink:href="#CMR17-32"/>
       <use transform="translate(45.690477 36.153639)scale(0.697382)" xlink:href="#CMR17-31"/>
       <use transform="translate(77.673659 36.153639)scale(0.697382)" xlink:href="#CMR17-32"/>
      </g>
     </g>
    </g>
    <g id="xtick_4">
     <g id="line2d_24">
      <g>
       <use style="fill:#262626;stroke:#262626;stroke-width:1.25;" x="447.996395" xlink:href="#m7d17c66e0a" y="254.954392"/>
      </g>
     </g>
     <g id="text_16">
      <!-- $\mathdefault{2^{13}}$ -->
      <g style="fill:#262626;" transform="translate(440.046736 273.586787)scale(0.132 -0.132)">
       <use transform="scale(0.996264)" xlink:href="#CMR17-32"/>
       <use transform="translate(45.690477 36.153639)scale(0.697382)" xlink:href="#CMR17-31"/>
       <use transform="translate(77.673659 36.153639)scale(0.697382)" xlink:href="#CMR17-33"/>
      </g>
     </g>
    </g>
    <g id="text_17">
     <!-- $n$ -->
     <g style="fill:#262626;" transform="translate(443.803834 290.106473)scale(0.144 -0.144)">
      <use transform="scale(0.996264)" xlink:href="#CMMI12-6e"/>
     </g>
    </g>
   </g>
   <g id="matplotlib.axis_4">
    <g id="ytick_8">
     <g id="line2d_25">
      <path clip-path="url(#pd358eeff82)" d="M 344.790784 228.505257 
L 551.202005 228.505257 
" style="fill:none;stroke:#cccccc;stroke-linecap:round;"/>
     </g>
     <g id="line2d_26">
      <g>
       <use style="fill:#262626;stroke:#262626;stroke-width:1.25;" x="344.790784" xlink:href="#mc52470ac74" y="228.505257"/>
      </g>
     </g>
     <g id="text_18">
      <!-- $\mathdefault{0.15}$ -->
      <g style="fill:#262626;" transform="translate(312.399149 233.071455)scale(0.132 -0.132)">
       <defs>
        <path d="M 730 3692 
C 794 3666 1056 3584 1325 3584 
C 1920 3584 2246 3911 2432 4100 
C 2432 4157 2432 4192 2394 4192 
C 2387 4192 2374 4192 2323 4163 
C 2099 4058 1837 3973 1517 3973 
C 1325 3973 1037 3999 723 4139 
C 653 4171 640 4171 634 4171 
C 602 4171 595 4164 595 4037 
L 595 2203 
C 595 2089 595 2057 659 2057 
C 691 2057 704 2070 736 2114 
C 941 2401 1222 2522 1542 2522 
C 1766 2522 2246 2382 2246 1289 
C 2246 1085 2246 715 2054 421 
C 1894 159 1645 25 1370 25 
C 947 25 518 320 403 814 
C 429 807 480 795 506 795 
C 589 795 749 840 749 1038 
C 749 1210 627 1280 506 1280 
C 358 1280 262 1190 262 1011 
C 262 454 704 -128 1382 -128 
C 2042 -128 2669 440 2669 1264 
C 2669 2030 2170 2624 1549 2624 
C 1222 2624 947 2503 730 2274 
L 730 3692 
z
" id="CMR17-35" transform="scale(0.015625)"/>
       </defs>
       <use transform="scale(0.996264)" xlink:href="#CMR17-30"/>
       <use transform="translate(45.690477 0)scale(0.996264)" xlink:href="#CMMI12-3a"/>
       <use transform="translate(72.787654 0)scale(0.996264)" xlink:href="#CMR17-31"/>
       <use transform="translate(118.478131 0)scale(0.996264)" xlink:href="#CMR17-35"/>
      </g>
     </g>
    </g>
    <g id="ytick_9">
     <g id="line2d_27">
      <path clip-path="url(#pd358eeff82)" d="M 344.790784 189.569085 
L 551.202005 189.569085 
" style="fill:none;stroke:#cccccc;stroke-linecap:round;"/>
     </g>
     <g id="line2d_28">
      <g>
       <use style="fill:#262626;stroke:#262626;stroke-width:1.25;" x="344.790784" xlink:href="#mc52470ac74" y="189.569085"/>
      </g>
     </g>
     <g id="text_19">
      <!-- $\mathdefault{0.16}$ -->
      <g style="fill:#262626;" transform="translate(312.399149 194.135282)scale(0.132 -0.132)">
       <use transform="scale(0.996264)" xlink:href="#CMR17-30"/>
       <use transform="translate(45.690477 0)scale(0.996264)" xlink:href="#CMMI12-3a"/>
       <use transform="translate(72.787654 0)scale(0.996264)" xlink:href="#CMR17-31"/>
       <use transform="translate(118.478131 0)scale(0.996264)" xlink:href="#CMR17-36"/>
      </g>
     </g>
    </g>
    <g id="ytick_10">
     <g id="line2d_29">
      <path clip-path="url(#pd358eeff82)" d="M 344.790784 150.632912 
L 551.202005 150.632912 
" style="fill:none;stroke:#cccccc;stroke-linecap:round;"/>
     </g>
     <g id="line2d_30">
      <g>
       <use style="fill:#262626;stroke:#262626;stroke-width:1.25;" x="344.790784" xlink:href="#mc52470ac74" y="150.632912"/>
      </g>
     </g>
     <g id="text_20">
      <!-- $\mathdefault{0.17}$ -->
      <g style="fill:#262626;" transform="translate(312.399149 155.199109)scale(0.132 -0.132)">
       <defs>
        <path d="M 2886 3941 
L 2886 4081 
L 1382 4081 
C 634 4081 621 4165 595 4288 
L 480 4288 
L 294 3094 
L 410 3094 
C 429 3215 474 3540 550 3661 
C 589 3712 1062 3712 1171 3712 
L 2579 3712 
L 1869 2661 
C 1395 1954 1069 999 1069 165 
C 1069 89 1069 -128 1299 -128 
C 1530 -128 1530 89 1530 171 
L 1530 465 
C 1530 1508 1709 2196 2003 2636 
L 2886 3941 
z
" id="CMR17-37" transform="scale(0.015625)"/>
       </defs>
       <use transform="scale(0.996264)" xlink:href="#CMR17-30"/>
       <use transform="translate(45.690477 0)scale(0.996264)" xlink:href="#CMMI12-3a"/>
       <use transform="translate(72.787654 0)scale(0.996264)" xlink:href="#CMR17-31"/>
       <use transform="translate(118.478131 0)scale(0.996264)" xlink:href="#CMR17-37"/>
      </g>
     </g>
    </g>
    <g id="ytick_11">
     <g id="line2d_31">
      <path clip-path="url(#pd358eeff82)" d="M 344.790784 111.696739 
L 551.202005 111.696739 
" style="fill:none;stroke:#cccccc;stroke-linecap:round;"/>
     </g>
     <g id="line2d_32">
      <g>
       <use style="fill:#262626;stroke:#262626;stroke-width:1.25;" x="344.790784" xlink:href="#mc52470ac74" y="111.696739"/>
      </g>
     </g>
     <g id="text_21">
      <!-- $\mathdefault{0.18}$ -->
      <g style="fill:#262626;" transform="translate(312.399149 116.262936)scale(0.132 -0.132)">
       <use transform="scale(0.996264)" xlink:href="#CMR17-30"/>
       <use transform="translate(45.690477 0)scale(0.996264)" xlink:href="#CMMI12-3a"/>
       <use transform="translate(72.787654 0)scale(0.996264)" xlink:href="#CMR17-31"/>
       <use transform="translate(118.478131 0)scale(0.996264)" xlink:href="#CMR17-38"/>
      </g>
     </g>
    </g>
    <g id="ytick_12">
     <g id="line2d_33">
      <path clip-path="url(#pd358eeff82)" d="M 344.790784 72.760566 
L 551.202005 72.760566 
" style="fill:none;stroke:#cccccc;stroke-linecap:round;"/>
     </g>
     <g id="line2d_34">
      <g>
       <use style="fill:#262626;stroke:#262626;stroke-width:1.25;" x="344.790784" xlink:href="#mc52470ac74" y="72.760566"/>
      </g>
     </g>
     <g id="text_22">
      <!-- $\mathdefault{0.19}$ -->
      <g style="fill:#262626;" transform="translate(312.399149 77.326764)scale(0.132 -0.132)">
       <defs>
        <path d="M 2253 1864 
C 2253 464 1670 31 1190 31 
C 1043 31 685 31 538 294 
C 704 268 826 357 826 518 
C 826 692 685 749 595 749 
C 538 749 365 723 365 506 
C 365 71 742 -128 1203 -128 
C 1939 -128 2688 674 2688 2073 
C 2688 3817 1971 4179 1485 4179 
C 851 4179 243 3628 243 2778 
C 243 1991 762 1408 1414 1408 
C 1952 1408 2189 1903 2253 2112 
L 2253 1864 
z
M 1427 1510 
C 1254 1510 1011 1542 813 1922 
C 678 2169 678 2461 678 2771 
C 678 3146 678 3405 858 3684 
C 947 3817 1114 4032 1485 4032 
C 2240 4032 2240 2885 2240 2632 
C 2240 2182 2035 1510 1427 1510 
z
" id="CMR17-39" transform="scale(0.015625)"/>
       </defs>
       <use transform="scale(0.996264)" xlink:href="#CMR17-30"/>
       <use transform="translate(45.690477 0)scale(0.996264)" xlink:href="#CMMI12-3a"/>
       <use transform="translate(72.787654 0)scale(0.996264)" xlink:href="#CMR17-31"/>
       <use transform="translate(118.478131 0)scale(0.996264)" xlink:href="#CMR17-39"/>
      </g>
     </g>
    </g>
    <g id="ytick_13">
     <g id="line2d_35">
      <path clip-path="url(#pd358eeff82)" d="M 344.790784 33.824394 
L 551.202005 33.824394 
" style="fill:none;stroke:#cccccc;stroke-linecap:round;"/>
     </g>
     <g id="line2d_36">
      <g>
       <use style="fill:#262626;stroke:#262626;stroke-width:1.25;" x="344.790784" xlink:href="#mc52470ac74" y="33.824394"/>
      </g>
     </g>
     <g id="text_23">
      <!-- $\mathdefault{0.20}$ -->
      <g style="fill:#262626;" transform="translate(312.399149 38.390591)scale(0.132 -0.132)">
       <use transform="scale(0.996264)" xlink:href="#CMR17-30"/>
       <use transform="translate(45.690477 0)scale(0.996264)" xlink:href="#CMMI12-3a"/>
       <use transform="translate(72.787654 0)scale(0.996264)" xlink:href="#CMR17-32"/>
       <use transform="translate(118.478131 0)scale(0.996264)" xlink:href="#CMR17-30"/>
      </g>
     </g>
    </g>
    <g id="text_24">
     <!-- $\sigma_0$ -->
     <g style="fill:#262626;" transform="translate(305.609622 145.54124)rotate(-90)scale(0.144 -0.144)">
      <use transform="scale(0.996264)" xlink:href="#CMMI12-1b"/>
      <use transform="translate(55.445461 -14.943915)scale(0.697382)" xlink:href="#CMR17-30"/>
     </g>
    </g>
   </g>
   <g id="LineCollection_5">
    <path clip-path="url(#pd358eeff82)" d="M 354.173112 50.507353 
L 354.173112 41.21303 
" style="fill:none;stroke:#0093ff;stroke-width:1.5;"/>
    <path clip-path="url(#pd358eeff82)" d="M 382.272645 67.679893 
L 382.272645 41.845447 
" style="fill:none;stroke:#0093ff;stroke-width:1.5;"/>
    <path clip-path="url(#pd358eeff82)" d="M 414.581813 115.344184 
L 414.581813 102.900709 
" style="fill:none;stroke:#0093ff;stroke-width:1.5;"/>
    <path clip-path="url(#pd358eeff82)" d="M 446.467656 68.0189 
L 446.467656 37.751507 
" style="fill:none;stroke:#0093ff;stroke-width:1.5;"/>
    <path clip-path="url(#pd358eeff82)" d="M 477.684236 35.739077 
L 477.684236 35.688162 
" style="fill:none;stroke:#0093ff;stroke-width:1.5;"/>
    <path clip-path="url(#pd358eeff82)" d="M 510.462062 34.040417 
L 510.462062 33.698614 
" style="fill:none;stroke:#0093ff;stroke-width:1.5;"/>
    <path clip-path="url(#pd358eeff82)" d="M 541.819677 59.882978 
L 541.819677 41.125088 
" style="fill:none;stroke:#0093ff;stroke-width:1.5;"/>
   </g>
   <g id="LineCollection_6">
    <path clip-path="url(#pd358eeff82)" d="M 354.173112 244.418402 
L 354.173112 228.897432 
" style="fill:none;stroke:#77b900;stroke-width:1.5;"/>
    <path clip-path="url(#pd358eeff82)" d="M 382.272645 188.950645 
L 382.272645 174.268592 
" style="fill:none;stroke:#77b900;stroke-width:1.5;"/>
    <path clip-path="url(#pd358eeff82)" d="M 414.581813 164.511405 
L 414.581813 164.511405 
" style="fill:none;stroke:#77b900;stroke-width:1.5;"/>
    <path clip-path="url(#pd358eeff82)" d="M 446.467656 91.665579 
L 446.467656 91.24707 
" style="fill:none;stroke:#77b900;stroke-width:1.5;"/>
    <path clip-path="url(#pd358eeff82)" d="M 477.684236 111.162935 
L 477.684236 110.691009 
" style="fill:none;stroke:#77b900;stroke-width:1.5;"/>
    <path clip-path="url(#pd358eeff82)" d="M 510.462062 98.645328 
L 510.462062 96.673763 
" style="fill:none;stroke:#77b900;stroke-width:1.5;"/>
    <path clip-path="url(#pd358eeff82)" d="M 541.819677 79.665366 
L 541.819677 78.154803 
" style="fill:none;stroke:#77b900;stroke-width:1.5;"/>
   </g>
   <g id="line2d_37">
    <path clip-path="url(#pd358eeff82)" d="M 354.173112 50.507353 
L 382.272645 67.679893 
L 414.581813 115.344184 
L 446.467656 68.0189 
L 477.684236 35.739077 
L 510.462062 34.040417 
L 541.819677 59.882978 
" style="fill:none;stroke:#0093ff;stroke-linecap:round;stroke-width:1.5;"/>
    <g clip-path="url(#pd358eeff82)">
     <use style="fill:#0093ff;stroke:#0093ff;" x="354.173112" xlink:href="#m8909394e8f" y="50.507353"/>
     <use style="fill:#0093ff;stroke:#0093ff;" x="382.272645" xlink:href="#m8909394e8f" y="67.679893"/>
     <use style="fill:#0093ff;stroke:#0093ff;" x="414.581813" xlink:href="#m8909394e8f" y="115.344184"/>
     <use style="fill:#0093ff;stroke:#0093ff;" x="446.467656" xlink:href="#m8909394e8f" y="68.0189"/>
     <use style="fill:#0093ff;stroke:#0093ff;" x="477.684236" xlink:href="#m8909394e8f" y="35.739077"/>
     <use style="fill:#0093ff;stroke:#0093ff;" x="510.462062" xlink:href="#m8909394e8f" y="34.040417"/>
     <use style="fill:#0093ff;stroke:#0093ff;" x="541.819677" xlink:href="#m8909394e8f" y="59.882978"/>
    </g>
   </g>
   <g id="line2d_38">
    <path clip-path="url(#pd358eeff82)" d="M 354.173112 244.418402 
L 382.272645 188.950645 
L 414.581813 164.511405 
L 446.467656 91.665579 
L 477.684236 111.162935 
L 510.462062 98.645328 
L 541.819677 79.665366 
" style="fill:none;stroke:#77b900;stroke-linecap:round;stroke-width:1.5;"/>
    <g clip-path="url(#pd358eeff82)">
     <use style="fill:#77b900;stroke:#77b900;stroke-linejoin:miter;" x="354.173112" xlink:href="#m25d8d079ca" y="244.418402"/>
     <use style="fill:#77b900;stroke:#77b900;stroke-linejoin:miter;" x="382.272645" xlink:href="#m25d8d079ca" y="188.950645"/>
     <use style="fill:#77b900;stroke:#77b900;stroke-linejoin:miter;" x="414.581813" xlink:href="#m25d8d079ca" y="164.511405"/>
     <use style="fill:#77b900;stroke:#77b900;stroke-linejoin:miter;" x="446.467656" xlink:href="#m25d8d079ca" y="91.665579"/>
     <use style="fill:#77b900;stroke:#77b900;stroke-linejoin:miter;" x="477.684236" xlink:href="#m25d8d079ca" y="111.162935"/>
     <use style="fill:#77b900;stroke:#77b900;stroke-linejoin:miter;" x="510.462062" xlink:href="#m25d8d079ca" y="98.645328"/>
     <use style="fill:#77b900;stroke:#77b900;stroke-linejoin:miter;" x="541.819677" xlink:href="#m25d8d079ca" y="79.665366"/>
    </g>
   </g>
   <g id="patch_9">
    <path d="M 344.790784 254.954392 
L 344.790784 23.162625 
" style="fill:none;stroke:#262626;stroke-linecap:square;stroke-linejoin:miter;stroke-width:1.25;"/>
   </g>
   <g id="patch_10">
    <path d="M 551.202005 254.954392 
L 551.202005 23.162625 
" style="fill:none;stroke:#262626;stroke-linecap:square;stroke-linejoin:miter;stroke-width:1.25;"/>
   </g>
   <g id="patch_11">
    <path d="M 344.790784 254.954392 
L 551.202005 254.954392 
" style="fill:none;stroke:#262626;stroke-linecap:square;stroke-linejoin:miter;stroke-width:1.25;"/>
   </g>
   <g id="patch_12">
    <path d="M 344.790784 23.162625 
L 551.202005 23.162625 
" style="fill:none;stroke:#262626;stroke-linecap:square;stroke-linejoin:miter;stroke-width:1.25;"/>
   </g>
   <g id="text_25">
    <!-- Noise -->
    <g style="fill:#262626;" transform="translate(431.376415 17.162625)scale(0.144 -0.144)">
     <defs>
      <path d="M 1312 4250 
C 1267 4320 1261 4320 1139 4320 
L 326 4320 
L 326 4160 
L 448 4160 
C 704 4160 819 4129 838 4122 
L 838 610 
C 838 451 838 153 326 153 
L 326 -13 
C 474 0 742 0 902 0 
C 1062 0 1331 0 1478 -13 
L 1478 153 
C 966 153 966 451 966 610 
L 966 4033 
C 1011 3995 1011 3982 1056 3919 
L 3430 76 
C 3475 0 3494 0 3526 0 
C 3590 0 3590 19 3590 139 
L 3590 3705 
C 3590 3863 3590 4160 4102 4160 
L 4102 4326 
C 3955 4320 3686 4320 3526 4320 
C 3366 4320 3098 4320 2950 4326 
L 2950 4160 
C 3462 4160 3462 3862 3462 3703 
L 3462 763 
L 1312 4250 
z
" id="CMR17-4e" transform="scale(0.015625)"/>
     </defs>
     <use transform="scale(0.996264)" xlink:href="#CMR17-4e"/>
     <use transform="translate(69.07243 0)scale(0.996264)" xlink:href="#CMR17-6f"/>
     <use transform="translate(114.762907 0)scale(0.996264)" xlink:href="#CMR17-69"/>
     <use transform="translate(139.633965 0)scale(0.996264)" xlink:href="#CMR17-73"/>
     <use transform="translate(175.435303 0)scale(0.996264)" xlink:href="#CMR17-65"/>
    </g>
   </g>
   <g id="legend_2">
    <g id="patch_13">
     <path d="M 478.659393 249.957592 
L 544.206485 249.957592 
Q 546.205205 249.957592 546.205205 247.958872 
L 546.205205 221.101728 
Q 546.205205 219.103008 544.206485 219.103008 
L 478.659393 219.103008 
Q 476.660673 219.103008 476.660673 221.101728 
L 476.660673 247.958872 
Q 476.660673 249.957592 478.659393 249.957592 
z
" style="fill:#ffffff;opacity:0.8;stroke:#cccccc;stroke-linejoin:miter;"/>
    </g>
    <g id="LineCollection_7">
     <path d="M 490.651713 231.595008 
L 490.651713 221.601408 
" style="fill:none;stroke:#0093ff;stroke-width:1.5;"/>
    </g>
    <g id="line2d_39">
     <path d="M 480.658113 226.598208 
L 500.645313 226.598208 
" style="fill:none;stroke:#0093ff;stroke-linecap:round;stroke-width:1.5;"/>
    </g>
    <g id="line2d_40">
     <g>
      <use style="fill:#0093ff;stroke:#0093ff;" x="490.651713" xlink:href="#m8909394e8f" y="226.598208"/>
     </g>
    </g>
    <g id="text_26">
     <!-- full -->
     <g style="fill:#262626;" transform="translate(508.640193 230.095968)scale(0.099936 -0.099936)">
      <use transform="scale(0.996264)" xlink:href="#CMR17-66"/>
      <use transform="translate(27.473512 0)scale(0.996264)" xlink:href="#CMR17-75"/>
      <use transform="translate(78.368882 0)scale(0.996264)" xlink:href="#CMR17-6c"/>
      <use transform="translate(103.239941 0)scale(0.996264)" xlink:href="#CMR17-6c"/>
     </g>
    </g>
    <g id="LineCollection_8">
     <path d="M 490.651713 245.52326 
L 490.651713 235.52966 
" style="fill:none;stroke:#77b900;stroke-width:1.5;"/>
    </g>
    <g id="line2d_41">
     <path d="M 480.658113 240.52646 
L 500.645313 240.52646 
" style="fill:none;stroke:#77b900;stroke-linecap:round;stroke-width:1.5;"/>
    </g>
    <g id="line2d_42">
     <g>
      <use style="fill:#77b900;stroke:#77b900;stroke-linejoin:miter;" x="490.651713" xlink:href="#m25d8d079ca" y="240.52646"/>
     </g>
    </g>
    <g id="text_27">
     <!-- profiled -->
     <g style="fill:#262626;" transform="translate(508.640193 244.02422)scale(0.099936 -0.099936)">
      <use transform="scale(0.996264)" xlink:href="#CMR17-70"/>
      <use transform="translate(50.89537 0)scale(0.996264)" xlink:href="#CMR17-72"/>
      <use transform="translate(86.176138 0)scale(0.996264)" xlink:href="#CMR17-6f"/>
      <use transform="translate(131.866615 0)scale(0.996264)" xlink:href="#CMR17-c"/>
      <use transform="translate(181.608838 0)scale(0.996264)" xlink:href="#CMR17-6c"/>
      <use transform="translate(206.479897 0)scale(0.996264)" xlink:href="#CMR17-65"/>
      <use transform="translate(246.965557 0)scale(0.996264)" xlink:href="#CMR17-64"/>
     </g>
    </g>
   </g>
  </g>
  <g id="axes_3">
   <g id="patch_14">
    <path d="M 633.237781 254.954392 
L 839.649003 254.954392 
L 839.649003 23.162625 
L 633.237781 23.162625 
z
" style="fill:none;"/>
   </g>
   <g id="matplotlib.axis_5">
    <g id="xtick_5">
     <g id="line2d_43">
      <g>
       <use style="fill:#262626;stroke:#262626;stroke-width:1.25;" x="642.620109" xlink:href="#m7d17c66e0a" y="254.954392"/>
      </g>
     </g>
     <g id="text_28">
      <!-- $\mathdefault{2^{12}}$ -->
      <g style="fill:#262626;" transform="translate(634.670451 273.586787)scale(0.132 -0.132)">
       <use transform="scale(0.996264)" xlink:href="#CMR17-32"/>
       <use transform="translate(45.690477 36.153639)scale(0.697382)" xlink:href="#CMR17-31"/>
       <use transform="translate(77.673659 36.153639)scale(0.697382)" xlink:href="#CMR17-32"/>
      </g>
     </g>
    </g>
    <g id="xtick_6">
     <g id="line2d_44">
      <g>
       <use style="fill:#262626;stroke:#262626;stroke-width:1.25;" x="736.443392" xlink:href="#m7d17c66e0a" y="254.954392"/>
      </g>
     </g>
     <g id="text_29">
      <!-- $\mathdefault{2^{13}}$ -->
      <g style="fill:#262626;" transform="translate(728.493734 273.586787)scale(0.132 -0.132)">
       <use transform="scale(0.996264)" xlink:href="#CMR17-32"/>
       <use transform="translate(45.690477 36.153639)scale(0.697382)" xlink:href="#CMR17-31"/>
       <use transform="translate(77.673659 36.153639)scale(0.697382)" xlink:href="#CMR17-33"/>
      </g>
     </g>
    </g>
    <g id="text_30">
     <!-- $n$ -->
     <g style="fill:#262626;" transform="translate(732.250831 290.106473)scale(0.144 -0.144)">
      <use transform="scale(0.996264)" xlink:href="#CMMI12-6e"/>
     </g>
    </g>
   </g>
   <g id="matplotlib.axis_6">
    <g id="ytick_14">
     <g id="line2d_45">
      <path clip-path="url(#p7e0d89491c)" d="M 633.237781 234.678722 
L 839.649003 234.678722 
" style="fill:none;stroke:#cccccc;stroke-linecap:round;"/>
     </g>
     <g id="line2d_46">
      <g>
       <use style="fill:#262626;stroke:#262626;stroke-width:1.25;" x="633.237781" xlink:href="#mc52470ac74" y="234.678722"/>
      </g>
     </g>
     <g id="text_31">
      <!-- $\mathdefault{0.1985}$ -->
      <g style="fill:#262626;" transform="translate(587.969598 239.24492)scale(0.132 -0.132)">
       <use transform="scale(0.996264)" xlink:href="#CMR17-30"/>
       <use transform="translate(45.690477 0)scale(0.996264)" xlink:href="#CMMI12-3a"/>
       <use transform="translate(72.787654 0)scale(0.996264)" xlink:href="#CMR17-31"/>
       <use transform="translate(118.478131 0)scale(0.996264)" xlink:href="#CMR17-39"/>
       <use transform="translate(164.168608 0)scale(0.996264)" xlink:href="#CMR17-38"/>
       <use transform="translate(209.859086 0)scale(0.996264)" xlink:href="#CMR17-35"/>
      </g>
     </g>
    </g>
    <g id="ytick_15">
     <g id="line2d_47">
      <path clip-path="url(#p7e0d89491c)" d="M 633.237781 200.875704 
L 839.649003 200.875704 
" style="fill:none;stroke:#cccccc;stroke-linecap:round;"/>
     </g>
     <g id="line2d_48">
      <g>
       <use style="fill:#262626;stroke:#262626;stroke-width:1.25;" x="633.237781" xlink:href="#mc52470ac74" y="200.875704"/>
      </g>
     </g>
     <g id="text_32">
      <!-- $\mathdefault{0.1990}$ -->
      <g style="fill:#262626;" transform="translate(587.969598 205.441901)scale(0.132 -0.132)">
       <use transform="scale(0.996264)" xlink:href="#CMR17-30"/>
       <use transform="translate(45.690477 0)scale(0.996264)" xlink:href="#CMMI12-3a"/>
       <use transform="translate(72.787654 0)scale(0.996264)" xlink:href="#CMR17-31"/>
       <use transform="translate(118.478131 0)scale(0.996264)" xlink:href="#CMR17-39"/>
       <use transform="translate(164.168608 0)scale(0.996264)" xlink:href="#CMR17-39"/>
       <use transform="translate(209.859086 0)scale(0.996264)" xlink:href="#CMR17-30"/>
      </g>
     </g>
    </g>
    <g id="ytick_16">
     <g id="line2d_49">
      <path clip-path="url(#p7e0d89491c)" d="M 633.237781 167.072685 
L 839.649003 167.072685 
" style="fill:none;stroke:#cccccc;stroke-linecap:round;"/>
     </g>
     <g id="line2d_50">
      <g>
       <use style="fill:#262626;stroke:#262626;stroke-width:1.25;" x="633.237781" xlink:href="#mc52470ac74" y="167.072685"/>
      </g>
     </g>
     <g id="text_33">
      <!-- $\mathdefault{0.1995}$ -->
      <g style="fill:#262626;" transform="translate(587.969598 171.638883)scale(0.132 -0.132)">
       <use transform="scale(0.996264)" xlink:href="#CMR17-30"/>
       <use transform="translate(45.690477 0)scale(0.996264)" xlink:href="#CMMI12-3a"/>
       <use transform="translate(72.787654 0)scale(0.996264)" xlink:href="#CMR17-31"/>
       <use transform="translate(118.478131 0)scale(0.996264)" xlink:href="#CMR17-39"/>
       <use transform="translate(164.168608 0)scale(0.996264)" xlink:href="#CMR17-39"/>
       <use transform="translate(209.859086 0)scale(0.996264)" xlink:href="#CMR17-35"/>
      </g>
     </g>
    </g>
    <g id="ytick_17">
     <g id="line2d_51">
      <path clip-path="url(#p7e0d89491c)" d="M 633.237781 133.269667 
L 839.649003 133.269667 
" style="fill:none;stroke:#cccccc;stroke-linecap:round;"/>
     </g>
     <g id="line2d_52">
      <g>
       <use style="fill:#262626;stroke:#262626;stroke-width:1.25;" x="633.237781" xlink:href="#mc52470ac74" y="133.269667"/>
      </g>
     </g>
     <g id="text_34">
      <!-- $\mathdefault{0.2000}$ -->
      <g style="fill:#262626;" transform="translate(587.969598 137.835864)scale(0.132 -0.132)">
       <use transform="scale(0.996264)" xlink:href="#CMR17-30"/>
       <use transform="translate(45.690477 0)scale(0.996264)" xlink:href="#CMMI12-3a"/>
       <use transform="translate(72.787654 0)scale(0.996264)" xlink:href="#CMR17-32"/>
       <use transform="translate(118.478131 0)scale(0.996264)" xlink:href="#CMR17-30"/>
       <use transform="translate(164.168608 0)scale(0.996264)" xlink:href="#CMR17-30"/>
       <use transform="translate(209.859086 0)scale(0.996264)" xlink:href="#CMR17-30"/>
      </g>
     </g>
    </g>
    <g id="ytick_18">
     <g id="line2d_53">
      <path clip-path="url(#p7e0d89491c)" d="M 633.237781 99.466648 
L 839.649003 99.466648 
" style="fill:none;stroke:#cccccc;stroke-linecap:round;"/>
     </g>
     <g id="line2d_54">
      <g>
       <use style="fill:#262626;stroke:#262626;stroke-width:1.25;" x="633.237781" xlink:href="#mc52470ac74" y="99.466648"/>
      </g>
     </g>
     <g id="text_35">
      <!-- $\mathdefault{0.2005}$ -->
      <g style="fill:#262626;" transform="translate(587.969598 104.032846)scale(0.132 -0.132)">
       <use transform="scale(0.996264)" xlink:href="#CMR17-30"/>
       <use transform="translate(45.690477 0)scale(0.996264)" xlink:href="#CMMI12-3a"/>
       <use transform="translate(72.787654 0)scale(0.996264)" xlink:href="#CMR17-32"/>
       <use transform="translate(118.478131 0)scale(0.996264)" xlink:href="#CMR17-30"/>
       <use transform="translate(164.168608 0)scale(0.996264)" xlink:href="#CMR17-30"/>
       <use transform="translate(209.859086 0)scale(0.996264)" xlink:href="#CMR17-35"/>
      </g>
     </g>
    </g>
    <g id="ytick_19">
     <g id="line2d_55">
      <path clip-path="url(#p7e0d89491c)" d="M 633.237781 65.66363 
L 839.649003 65.66363 
" style="fill:none;stroke:#cccccc;stroke-linecap:round;"/>
     </g>
     <g id="line2d_56">
      <g>
       <use style="fill:#262626;stroke:#262626;stroke-width:1.25;" x="633.237781" xlink:href="#mc52470ac74" y="65.66363"/>
      </g>
     </g>
     <g id="text_36">
      <!-- $\mathdefault{0.2010}$ -->
      <g style="fill:#262626;" transform="translate(587.969598 70.229827)scale(0.132 -0.132)">
       <use transform="scale(0.996264)" xlink:href="#CMR17-30"/>
       <use transform="translate(45.690477 0)scale(0.996264)" xlink:href="#CMMI12-3a"/>
       <use transform="translate(72.787654 0)scale(0.996264)" xlink:href="#CMR17-32"/>
       <use transform="translate(118.478131 0)scale(0.996264)" xlink:href="#CMR17-30"/>
       <use transform="translate(164.168608 0)scale(0.996264)" xlink:href="#CMR17-31"/>
       <use transform="translate(209.859086 0)scale(0.996264)" xlink:href="#CMR17-30"/>
      </g>
     </g>
    </g>
    <g id="ytick_20">
     <g id="line2d_57">
      <path clip-path="url(#p7e0d89491c)" d="M 633.237781 31.860612 
L 839.649003 31.860612 
" style="fill:none;stroke:#cccccc;stroke-linecap:round;"/>
     </g>
     <g id="line2d_58">
      <g>
       <use style="fill:#262626;stroke:#262626;stroke-width:1.25;" x="633.237781" xlink:href="#mc52470ac74" y="31.860612"/>
      </g>
     </g>
     <g id="text_37">
      <!-- $\mathdefault{0.2015}$ -->
      <g style="fill:#262626;" transform="translate(587.969598 36.426809)scale(0.132 -0.132)">
       <use transform="scale(0.996264)" xlink:href="#CMR17-30"/>
       <use transform="translate(45.690477 0)scale(0.996264)" xlink:href="#CMMI12-3a"/>
       <use transform="translate(72.787654 0)scale(0.996264)" xlink:href="#CMR17-32"/>
       <use transform="translate(118.478131 0)scale(0.996264)" xlink:href="#CMR17-30"/>
       <use transform="translate(164.168608 0)scale(0.996264)" xlink:href="#CMR17-31"/>
       <use transform="translate(209.859086 0)scale(0.996264)" xlink:href="#CMR17-35"/>
      </g>
     </g>
    </g>
    <g id="text_38">
     <!-- $\hat{\sigma} = \sqrt{\sigma^2 + \sigma_0^2}$ -->
     <g style="fill:#262626;" transform="translate(579.801148 182.557937)rotate(-90)scale(0.144 -0.144)">
      <defs>
       <path d="M 1466 4421 
L 678 3555 
L 755 3478 
L 1466 4166 
L 2176 3478 
L 2253 3555 
L 1466 4421 
z
" id="CMR17-5e" transform="scale(0.015625)"/>
       <path d="M 4115 2017 
C 4211 2017 4307 2017 4307 2125 
C 4307 2240 4198 2240 4090 2240 
L 512 2240 
C 403 2240 294 2240 294 2125 
C 294 2017 390 2017 486 2017 
L 4115 2017 
z
M 4090 896 
C 4198 896 4307 896 4307 1011 
C 4307 1119 4211 1119 4115 1119 
L 486 1119 
C 390 1119 294 1119 294 1011 
C 294 896 403 896 512 896 
L 4090 896 
z
" id="CMR17-3d" transform="scale(0.015625)"/>
       <path d="M 4725 256 
C 4520 256 4495 237 4495 26 
L 4495 -3488 
C 4495 -3597 4495 -3712 4623 -3712 
C 4751 -3712 4751 -3597 4751 -3488 
L 4751 0 
L 6664 0 
C 6773 0 6888 0 6888 128 
C 6888 256 6773 256 6664 256 
L 4725 256 
z
" id="CMEX10-76" transform="scale(0.015625)"/>
       <path d="M 4495 -3744 
C 4495 -3853 4495 -3968 4623 -3968 
C 4751 -3968 4751 -3853 4751 -3744 
L 4751 -96 
C 4751 13 4751 128 4623 128 
C 4495 128 4495 13 4495 -96 
L 4495 -3744 
z
" id="CMEX10-75" transform="scale(0.015625)"/>
       <path d="M 4494 -11520 
C 4737 -11520 4750 -11482 4750 -11290 
L 4750 -96 
C 4750 13 4750 128 4622 128 
C 4494 128 4494 13 4494 -96 
L 4494 -9888 
L 4487 -9888 
L 1601 -1139 
L 711 -2886 
L 807 -2989 
L 1339 -1952 
L 4494 -11520 
z
" id="CMEX10-74" transform="scale(0.015625)"/>
       <path d="M 2413 1472 
L 4109 1472 
C 4198 1472 4307 1472 4307 1580 
C 4307 1695 4205 1695 4109 1695 
L 2413 1695 
L 2413 3386 
C 2413 3475 2413 3584 2304 3584 
C 2189 3584 2189 3482 2189 3386 
L 2189 1695 
L 493 1695 
C 403 1695 294 1695 294 1587 
C 294 1472 397 1472 493 1472 
L 2189 1472 
L 2189 -218 
C 2189 -307 2189 -416 2298 -416 
C 2413 -416 2413 -314 2413 -218 
L 2413 1472 
z
" id="CMR17-2b" transform="scale(0.015625)"/>
      </defs>
      <use transform="translate(6.664796 0.006461)scale(0.996264)" xlink:href="#CMR17-5e"/>
      <use transform="scale(0.996264)" xlink:href="#CMMI12-1b"/>
      <use transform="translate(86.694062 0)scale(0.996264)" xlink:href="#CMR17-3d"/>
      <use transform="translate(186.082859 76.730054)scale(0.247871)" xlink:href="#CMEX10-76"/>
      <use transform="translate(186.082859 62.849139)scale(0.247871)" xlink:href="#CMEX10-75"/>
      <use transform="translate(186.082859 47.976764)scale(0.247871)" xlink:href="#CMEX10-75"/>
      <use transform="translate(186.082859 33.104389)scale(0.247871)" xlink:href="#CMEX10-75"/>
      <use transform="translate(186.082859 18.232014)scale(0.247871)" xlink:href="#CMEX10-74"/>
      <use transform="translate(212.247058 0)scale(0.996264)" xlink:href="#CMMI12-1b"/>
      <use transform="translate(271.267111 28.780957)scale(0.697382)" xlink:href="#CMR17-32"/>
      <use transform="translate(325.887632 0)scale(0.996264)" xlink:href="#CMR17-2b"/>
      <use transform="translate(419.741627 0)scale(0.996264)" xlink:href="#CMMI12-1b"/>
      <use transform="translate(478.761681 28.780957)scale(0.697382)" xlink:href="#CMR17-32"/>
      <use transform="translate(475.187088 -24.62935)scale(0.697382)" xlink:href="#CMR17-30"/>
      <path d="M 212.247058 76.730054 
L 511.242995 76.730054 
L 511.242995 77.721499 
L 212.247058 77.721499 
L 212.247058 76.730054 
z
"/>
     </g>
    </g>
   </g>
   <g id="LineCollection_9">
    <path clip-path="url(#p7e0d89491c)" d="M 642.620109 227.281805 
L 642.620109 212.58361 
" style="fill:none;stroke:#0093ff;stroke-width:1.5;"/>
    <path clip-path="url(#p7e0d89491c)" d="M 670.719642 148.000568 
L 670.719642 137.978093 
" style="fill:none;stroke:#0093ff;stroke-width:1.5;"/>
    <path clip-path="url(#p7e0d89491c)" d="M 703.02881 162.340311 
L 703.02881 161.070059 
" style="fill:none;stroke:#0093ff;stroke-width:1.5;"/>
    <path clip-path="url(#p7e0d89491c)" d="M 734.914653 184.795323 
L 734.914653 184.480786 
" style="fill:none;stroke:#0093ff;stroke-width:1.5;"/>
    <path clip-path="url(#p7e0d89491c)" d="M 766.131233 149.582195 
L 766.131233 148.699273 
" style="fill:none;stroke:#0093ff;stroke-width:1.5;"/>
    <path clip-path="url(#p7e0d89491c)" d="M 798.90906 120.124624 
L 798.90906 114.197488 
" style="fill:none;stroke:#0093ff;stroke-width:1.5;"/>
    <path clip-path="url(#p7e0d89491c)" d="M 830.266674 110.015786 
L 830.266674 33.698614 
" style="fill:none;stroke:#0093ff;stroke-width:1.5;"/>
   </g>
   <g id="LineCollection_10">
    <path clip-path="url(#p7e0d89491c)" d="M 642.620109 244.418402 
L 642.620109 243.824204 
" style="fill:none;stroke:#77b900;stroke-width:1.5;"/>
    <path clip-path="url(#p7e0d89491c)" d="M 670.719642 195.835375 
L 670.719642 195.083176 
" style="fill:none;stroke:#77b900;stroke-width:1.5;"/>
    <path clip-path="url(#p7e0d89491c)" d="M 703.02881 208.346821 
L 703.02881 208.346821 
" style="fill:none;stroke:#77b900;stroke-width:1.5;"/>
    <path clip-path="url(#p7e0d89491c)" d="M 734.914653 199.174927 
L 734.914653 199.1359 
" style="fill:none;stroke:#77b900;stroke-width:1.5;"/>
    <path clip-path="url(#p7e0d89491c)" d="M 766.131233 162.813676 
L 766.131233 162.69157 
" style="fill:none;stroke:#77b900;stroke-width:1.5;"/>
    <path clip-path="url(#p7e0d89491c)" d="M 798.90906 128.094415 
L 798.90906 127.298699 
" style="fill:none;stroke:#77b900;stroke-width:1.5;"/>
    <path clip-path="url(#p7e0d89491c)" d="M 830.266674 176.055138 
L 830.266674 175.434215 
" style="fill:none;stroke:#77b900;stroke-width:1.5;"/>
   </g>
   <g id="line2d_59">
    <path clip-path="url(#p7e0d89491c)" d="M 642.620109 227.281805 
L 670.719642 148.000568 
L 703.02881 162.340311 
L 734.914653 184.795323 
L 766.131233 149.582195 
L 798.90906 120.124624 
L 830.266674 110.015786 
" style="fill:none;stroke:#0093ff;stroke-linecap:round;stroke-width:1.5;"/>
    <g clip-path="url(#p7e0d89491c)">
     <use style="fill:#0093ff;stroke:#0093ff;" x="642.620109" xlink:href="#m8909394e8f" y="227.281805"/>
     <use style="fill:#0093ff;stroke:#0093ff;" x="670.719642" xlink:href="#m8909394e8f" y="148.000568"/>
     <use style="fill:#0093ff;stroke:#0093ff;" x="703.02881" xlink:href="#m8909394e8f" y="162.340311"/>
     <use style="fill:#0093ff;stroke:#0093ff;" x="734.914653" xlink:href="#m8909394e8f" y="184.795323"/>
     <use style="fill:#0093ff;stroke:#0093ff;" x="766.131233" xlink:href="#m8909394e8f" y="149.582195"/>
     <use style="fill:#0093ff;stroke:#0093ff;" x="798.90906" xlink:href="#m8909394e8f" y="120.124624"/>
     <use style="fill:#0093ff;stroke:#0093ff;" x="830.266674" xlink:href="#m8909394e8f" y="110.015786"/>
    </g>
   </g>
   <g id="line2d_60">
    <path clip-path="url(#p7e0d89491c)" d="M 642.620109 244.418402 
L 670.719642 195.835375 
L 703.02881 208.346821 
L 734.914653 199.174927 
L 766.131233 162.813676 
L 798.90906 128.094415 
L 830.266674 176.055138 
" style="fill:none;stroke:#77b900;stroke-linecap:round;stroke-width:1.5;"/>
    <g clip-path="url(#p7e0d89491c)">
     <use style="fill:#77b900;stroke:#77b900;stroke-linejoin:miter;" x="642.620109" xlink:href="#m25d8d079ca" y="244.418402"/>
     <use style="fill:#77b900;stroke:#77b900;stroke-linejoin:miter;" x="670.719642" xlink:href="#m25d8d079ca" y="195.835375"/>
     <use style="fill:#77b900;stroke:#77b900;stroke-linejoin:miter;" x="703.02881" xlink:href="#m25d8d079ca" y="208.346821"/>
     <use style="fill:#77b900;stroke:#77b900;stroke-linejoin:miter;" x="734.914653" xlink:href="#m25d8d079ca" y="199.174927"/>
     <use style="fill:#77b900;stroke:#77b900;stroke-linejoin:miter;" x="766.131233" xlink:href="#m25d8d079ca" y="162.813676"/>
     <use style="fill:#77b900;stroke:#77b900;stroke-linejoin:miter;" x="798.90906" xlink:href="#m25d8d079ca" y="128.094415"/>
     <use style="fill:#77b900;stroke:#77b900;stroke-linejoin:miter;" x="830.266674" xlink:href="#m25d8d079ca" y="176.055138"/>
    </g>
   </g>
   <g id="patch_15">
    <path d="M 633.237781 254.954392 
L 633.237781 23.162625 
" style="fill:none;stroke:#262626;stroke-linecap:square;stroke-linejoin:miter;stroke-width:1.25;"/>
   </g>
   <g id="patch_16">
    <path d="M 839.649003 254.954392 
L 839.649003 23.162625 
" style="fill:none;stroke:#262626;stroke-linecap:square;stroke-linejoin:miter;stroke-width:1.25;"/>
   </g>
   <g id="patch_17">
    <path d="M 633.237781 254.954392 
L 839.649003 254.954392 
" style="fill:none;stroke:#262626;stroke-linecap:square;stroke-linejoin:miter;stroke-width:1.25;"/>
   </g>
   <g id="patch_18">
    <path d="M 633.237781 23.162625 
L 839.649003 23.162625 
" style="fill:none;stroke:#262626;stroke-linecap:square;stroke-linejoin:miter;stroke-width:1.25;"/>
   </g>
   <g id="text_39">
    <!-- Uncertainty -->
    <g style="fill:#262626;" transform="translate(700.157414 17.162625)scale(0.144 -0.144)">
     <defs>
      <path d="M 3456 1433 
C 3456 579 2899 38 2291 38 
C 1965 38 1670 210 1491 477 
C 1286 783 1261 1178 1261 1401 
L 1261 3874 
C 1261 4160 1331 4160 1773 4160 
L 1773 4320 
C 1587 4320 1248 4320 1050 4320 
C 851 4320 512 4320 326 4320 
L 326 4160 
C 768 4160 838 4160 838 3874 
L 838 1433 
C 838 516 1536 -128 2278 -128 
C 3110 -128 3590 719 3590 1344 
L 3590 3766 
C 3590 4122 3917 4160 4102 4160 
L 4102 4326 
C 3955 4320 3686 4320 3526 4320 
C 3366 4320 3091 4320 2944 4326 
L 2944 4160 
C 3456 4160 3456 3861 3456 3702 
L 3456 1433 
z
" id="CMR17-55" transform="scale(0.015625)"/>
      <path d="M 2656 1933 
C 2656 2259 2592 2790 1837 2790 
C 1331 2790 1069 2400 973 2144 
L 966 2144 
L 966 2790 
L 211 2720 
L 211 2554 
C 589 2554 646 2515 646 2208 
L 646 428 
C 646 184 621 153 211 153 
L 211 -13 
C 365 0 646 0 813 0 
C 979 0 1267 0 1421 -13 
L 1421 153 
C 1011 153 986 178 986 428 
L 986 1658 
C 986 2247 1344 2688 1792 2688 
C 2266 2688 2317 2266 2317 1958 
L 2317 428 
C 2317 184 2291 153 1882 153 
L 1882 -13 
C 2035 0 2317 0 2483 0 
C 2650 0 2938 0 3091 -13 
L 3091 153 
C 2682 153 2656 178 2656 428 
L 2656 1933 
z
" id="CMR17-6e" transform="scale(0.015625)"/>
      <path d="M 2234 2240 
C 2112 2240 1933 2240 1933 2017 
C 1933 1838 2080 1787 2163 1787 
C 2208 1787 2394 1807 2394 2024 
C 2394 2467 1958 2803 1466 2803 
C 787 2803 211 2178 211 1363 
C 211 516 813 -64 1466 -64 
C 2259 -64 2458 677 2458 748 
C 2458 774 2451 793 2406 793 
C 2362 793 2355 787 2330 703 
C 2163 180 1798 51 1523 51 
C 1114 51 621 427 621 1369 
C 621 2338 1094 2688 1472 2688 
C 1722 2688 2093 2573 2234 2240 
z
" id="CMR17-63" transform="scale(0.015625)"/>
      <path d="M 2304 1653 
C 2304 2072 2304 2294 2035 2543 
C 1798 2752 1523 2816 1306 2816 
C 800 2816 435 2407 435 1971 
C 435 1728 627 1728 666 1728 
C 749 1728 896 1778 896 1954 
C 896 2112 774 2181 666 2181 
C 640 2181 608 2174 589 2168 
C 723 2592 1069 2714 1293 2714 
C 1613 2714 1965 2429 1965 1885 
L 1965 1600 
C 1587 1600 1133 1549 774 1357 
C 371 1133 256 813 256 570 
C 256 77 832 -64 1171 -64 
C 1523 -64 1850 139 1990 511 
C 2003 233 2182 -18 2464 -18 
C 2598 -18 2938 70 2938 567 
L 2938 920 
L 2822 920 
L 2822 562 
C 2822 178 2650 128 2566 128 
C 2304 128 2304 458 2304 738 
L 2304 1653 
z
M 1965 870 
C 1965 317 1568 38 1216 38 
C 896 38 646 275 646 570 
C 646 761 730 1100 1101 1305 
C 1408 1478 1760 1504 1965 1504 
L 1965 870 
z
" id="CMR17-61" transform="scale(0.015625)"/>
      <path d="M 2496 2197 
C 2656 2586 2944 2586 3034 2586 
L 3034 2752 
C 2912 2752 2752 2752 2630 2752 
C 2496 2752 2285 2752 2157 2758 
L 2157 2592 
C 2400 2573 2406 2394 2406 2343 
C 2406 2280 2394 2248 2362 2171 
L 1664 449 
L 902 2306 
C 870 2382 870 2426 870 2433 
C 870 2573 1018 2586 1171 2586 
L 1171 2758 
C 1018 2752 742 2752 582 2752 
C 410 2752 205 2752 64 2758 
L 64 2586 
C 410 2586 448 2554 531 2350 
L 1485 15 
C 1197 -738 1030 -1178 627 -1178 
C 557 -1178 397 -1159 282 -1044 
C 429 -1031 493 -942 493 -833 
C 493 -725 416 -629 288 -629 
C 147 -629 77 -725 77 -840 
C 77 -1095 339 -1280 627 -1280 
C 998 -1280 1229 -922 1357 -604 
L 2496 2197 
z
" id="CMR17-79" transform="scale(0.015625)"/>
     </defs>
     <use transform="scale(0.996264)" xlink:href="#CMR17-55"/>
     <use transform="translate(69.07243 0)scale(0.996264)" xlink:href="#CMR17-6e"/>
     <use transform="translate(119.9678 0)scale(0.996264)" xlink:href="#CMR17-63"/>
     <use transform="translate(160.45346 0)scale(0.996264)" xlink:href="#CMR17-65"/>
     <use transform="translate(200.939121 0)scale(0.996264)" xlink:href="#CMR17-72"/>
     <use transform="translate(236.219888 0)scale(0.996264)" xlink:href="#CMR17-74"/>
     <use transform="translate(271.500656 0)scale(0.996264)" xlink:href="#CMR17-61"/>
     <use transform="translate(317.191133 0)scale(0.996264)" xlink:href="#CMR17-69"/>
     <use transform="translate(342.062192 0)scale(0.996264)" xlink:href="#CMR17-6e"/>
     <use transform="translate(390.355108 0)scale(0.996264)" xlink:href="#CMR17-74"/>
     <use transform="translate(423.033421 0)scale(0.996264)" xlink:href="#CMR17-79"/>
    </g>
   </g>
   <g id="legend_3">
    <g id="patch_19">
     <path d="M 767.10639 59.014008 
L 832.653483 59.014008 
Q 834.652203 59.014008 834.652203 57.015288 
L 834.652203 30.158145 
Q 834.652203 28.159425 832.653483 28.159425 
L 767.10639 28.159425 
Q 765.10767 28.159425 765.10767 30.158145 
L 765.10767 57.015288 
Q 765.10767 59.014008 767.10639 59.014008 
z
" style="fill:#ffffff;opacity:0.8;stroke:#cccccc;stroke-linejoin:miter;"/>
    </g>
    <g id="LineCollection_11">
     <path d="M 779.09871 40.651425 
L 779.09871 30.657825 
" style="fill:none;stroke:#0093ff;stroke-width:1.5;"/>
    </g>
    <g id="line2d_61">
     <path d="M 769.10511 35.654625 
L 789.09231 35.654625 
" style="fill:none;stroke:#0093ff;stroke-linecap:round;stroke-width:1.5;"/>
    </g>
    <g id="line2d_62">
     <g>
      <use style="fill:#0093ff;stroke:#0093ff;" x="779.09871" xlink:href="#m8909394e8f" y="35.654625"/>
     </g>
    </g>
    <g id="text_40">
     <!-- full -->
     <g style="fill:#262626;" transform="translate(797.08719 39.152385)scale(0.099936 -0.099936)">
      <use transform="scale(0.996264)" xlink:href="#CMR17-66"/>
      <use transform="translate(27.473512 0)scale(0.996264)" xlink:href="#CMR17-75"/>
      <use transform="translate(78.368882 0)scale(0.996264)" xlink:href="#CMR17-6c"/>
      <use transform="translate(103.239941 0)scale(0.996264)" xlink:href="#CMR17-6c"/>
     </g>
    </g>
    <g id="LineCollection_12">
     <path d="M 779.09871 54.579677 
L 779.09871 44.586077 
" style="fill:none;stroke:#77b900;stroke-width:1.5;"/>
    </g>
    <g id="line2d_63">
     <path d="M 769.10511 49.582877 
L 789.09231 49.582877 
" style="fill:none;stroke:#77b900;stroke-linecap:round;stroke-width:1.5;"/>
    </g>
    <g id="line2d_64">
     <g>
      <use style="fill:#77b900;stroke:#77b900;stroke-linejoin:miter;" x="779.09871" xlink:href="#m25d8d079ca" y="49.582877"/>
     </g>
    </g>
    <g id="text_41">
     <!-- profiled -->
     <g style="fill:#262626;" transform="translate(797.08719 53.080637)scale(0.099936 -0.099936)">
      <use transform="scale(0.996264)" xlink:href="#CMR17-70"/>
      <use transform="translate(50.89537 0)scale(0.996264)" xlink:href="#CMR17-72"/>
      <use transform="translate(86.176138 0)scale(0.996264)" xlink:href="#CMR17-6f"/>
      <use transform="translate(131.866615 0)scale(0.996264)" xlink:href="#CMR17-c"/>
      <use transform="translate(181.608838 0)scale(0.996264)" xlink:href="#CMR17-6c"/>
      <use transform="translate(206.479897 0)scale(0.996264)" xlink:href="#CMR17-65"/>
      <use transform="translate(246.965557 0)scale(0.996264)" xlink:href="#CMR17-64"/>
     </g>
    </g>
   </g>
  </g>
  <g id="axes_4">
   <g id="patch_20">
    <path d="M 921.684778 254.954392 
L 1128.096 254.954392 
L 1128.096 23.162625 
L 921.684778 23.162625 
z
" style="fill:none;"/>
   </g>
   <g id="matplotlib.axis_7">
    <g id="xtick_7">
     <g id="line2d_65">
      <g>
       <use style="fill:#262626;stroke:#262626;stroke-width:1.25;" x="931.067106" xlink:href="#m7d17c66e0a" y="254.954392"/>
      </g>
     </g>
     <g id="text_42">
      <!-- $\mathdefault{2^{12}}$ -->
      <g style="fill:#262626;" transform="translate(923.117448 273.586787)scale(0.132 -0.132)">
       <use transform="scale(0.996264)" xlink:href="#CMR17-32"/>
       <use transform="translate(45.690477 36.153639)scale(0.697382)" xlink:href="#CMR17-31"/>
       <use transform="translate(77.673659 36.153639)scale(0.697382)" xlink:href="#CMR17-32"/>
      </g>
     </g>
    </g>
    <g id="xtick_8">
     <g id="line2d_66">
      <g>
       <use style="fill:#262626;stroke:#262626;stroke-width:1.25;" x="1024.890389" xlink:href="#m7d17c66e0a" y="254.954392"/>
      </g>
     </g>
     <g id="text_43">
      <!-- $\mathdefault{2^{13}}$ -->
      <g style="fill:#262626;" transform="translate(1016.940731 273.586787)scale(0.132 -0.132)">
       <use transform="scale(0.996264)" xlink:href="#CMR17-32"/>
       <use transform="translate(45.690477 36.153639)scale(0.697382)" xlink:href="#CMR17-31"/>
       <use transform="translate(77.673659 36.153639)scale(0.697382)" xlink:href="#CMR17-33"/>
      </g>
     </g>
    </g>
    <g id="text_44">
     <!-- $n$ -->
     <g style="fill:#262626;" transform="translate(1020.697829 290.106473)scale(0.144 -0.144)">
      <use transform="scale(0.996264)" xlink:href="#CMMI12-6e"/>
     </g>
    </g>
   </g>
   <g id="matplotlib.axis_8">
    <g id="ytick_21">
     <g id="line2d_67">
      <path clip-path="url(#p005b2a16f0)" d="M 921.684778 245.047127 
L 1128.096 245.047127 
" style="fill:none;stroke:#cccccc;stroke-linecap:round;"/>
     </g>
     <g id="line2d_68">
      <g>
       <use style="fill:#262626;stroke:#262626;stroke-width:1.25;" x="921.684778" xlink:href="#mc52470ac74" y="245.047127"/>
      </g>
     </g>
     <g id="text_45">
      <!-- $\mathdefault{0}$ -->
      <g style="fill:#262626;" transform="translate(905.746504 249.613325)scale(0.132 -0.132)">
       <use transform="scale(0.996264)" xlink:href="#CMR17-30"/>
      </g>
     </g>
    </g>
    <g id="ytick_22">
     <g id="line2d_69">
      <path clip-path="url(#p005b2a16f0)" d="M 921.684778 192.227063 
L 1128.096 192.227063 
" style="fill:none;stroke:#cccccc;stroke-linecap:round;"/>
     </g>
     <g id="line2d_70">
      <g>
       <use style="fill:#262626;stroke:#262626;stroke-width:1.25;" x="921.684778" xlink:href="#mc52470ac74" y="192.227063"/>
      </g>
     </g>
     <g id="text_46">
      <!-- $\mathdefault{100}$ -->
      <g style="fill:#262626;" transform="translate(892.869956 196.793261)scale(0.132 -0.132)">
       <use transform="scale(0.996264)" xlink:href="#CMR17-31"/>
       <use transform="translate(45.690477 0)scale(0.996264)" xlink:href="#CMR17-30"/>
       <use transform="translate(91.380954 0)scale(0.996264)" xlink:href="#CMR17-30"/>
      </g>
     </g>
    </g>
    <g id="ytick_23">
     <g id="line2d_71">
      <path clip-path="url(#p005b2a16f0)" d="M 921.684778 139.406999 
L 1128.096 139.406999 
" style="fill:none;stroke:#cccccc;stroke-linecap:round;"/>
     </g>
     <g id="line2d_72">
      <g>
       <use style="fill:#262626;stroke:#262626;stroke-width:1.25;" x="921.684778" xlink:href="#mc52470ac74" y="139.406999"/>
      </g>
     </g>
     <g id="text_47">
      <!-- $\mathdefault{200}$ -->
      <g style="fill:#262626;" transform="translate(892.869956 143.973197)scale(0.132 -0.132)">
       <use transform="scale(0.996264)" xlink:href="#CMR17-32"/>
       <use transform="translate(45.690477 0)scale(0.996264)" xlink:href="#CMR17-30"/>
       <use transform="translate(91.380954 0)scale(0.996264)" xlink:href="#CMR17-30"/>
      </g>
     </g>
    </g>
    <g id="ytick_24">
     <g id="line2d_73">
      <path clip-path="url(#p005b2a16f0)" d="M 921.684778 86.586936 
L 1128.096 86.586936 
" style="fill:none;stroke:#cccccc;stroke-linecap:round;"/>
     </g>
     <g id="line2d_74">
      <g>
       <use style="fill:#262626;stroke:#262626;stroke-width:1.25;" x="921.684778" xlink:href="#mc52470ac74" y="86.586936"/>
      </g>
     </g>
     <g id="text_48">
      <!-- $\mathdefault{300}$ -->
      <g style="fill:#262626;" transform="translate(892.869956 91.153133)scale(0.132 -0.132)">
       <use transform="scale(0.996264)" xlink:href="#CMR17-33"/>
       <use transform="translate(45.690477 0)scale(0.996264)" xlink:href="#CMR17-30"/>
       <use transform="translate(91.380954 0)scale(0.996264)" xlink:href="#CMR17-30"/>
      </g>
     </g>
    </g>
    <g id="ytick_25">
     <g id="line2d_75">
      <path clip-path="url(#p005b2a16f0)" d="M 921.684778 33.766872 
L 1128.096 33.766872 
" style="fill:none;stroke:#cccccc;stroke-linecap:round;"/>
     </g>
     <g id="line2d_76">
      <g>
       <use style="fill:#262626;stroke:#262626;stroke-width:1.25;" x="921.684778" xlink:href="#mc52470ac74" y="33.766872"/>
      </g>
     </g>
     <g id="text_49">
      <!-- $\mathdefault{400}$ -->
      <g style="fill:#262626;" transform="translate(892.869956 38.333069)scale(0.132 -0.132)">
       <use transform="scale(0.996264)" xlink:href="#CMR17-34"/>
       <use transform="translate(45.690477 0)scale(0.996264)" xlink:href="#CMR17-30"/>
       <use transform="translate(91.380954 0)scale(0.996264)" xlink:href="#CMR17-30"/>
      </g>
     </g>
    </g>
    <g id="text_50">
     <!-- $\eta = \sigma_0^2 / \sigma^2$ -->
     <g style="fill:#262626;" transform="translate(885.283415 169.470001)rotate(-90)scale(0.144 -0.144)">
      <defs>
       <path d="M 3040 1768 
C 3072 1895 3091 1973 3091 2145 
C 3091 2528 2867 2815 2381 2815 
C 1811 2815 1510 2413 1395 2254 
C 1376 2618 1114 2815 832 2815 
C 646 2815 499 2726 378 2483 
C 262 2254 173 1864 173 1839 
C 173 1813 198 1781 243 1781 
C 294 1781 301 1788 339 1934 
C 435 2311 557 2688 813 2688 
C 960 2688 1011 2586 1011 2394 
C 1011 2254 947 2005 902 1807 
L 723 1118 
C 698 996 627 709 595 593 
C 550 428 480 127 480 96 
C 480 6 550 -64 646 -64 
C 723 -64 813 -25 864 70 
C 877 102 934 326 966 453 
L 1107 1028 
L 1318 1871 
C 1331 1909 1491 2228 1728 2432 
C 1894 2586 2112 2688 2362 2688 
C 2618 2688 2707 2496 2707 2241 
C 2707 2055 2682 1953 2650 1831 
L 1907 -1107 
C 1901 -1139 1888 -1177 1888 -1216 
C 1888 -1312 1965 -1376 2061 -1376 
C 2118 -1376 2253 -1350 2304 -1158 
L 3040 1768 
z
" id="CMMI12-11" transform="scale(0.015625)"/>
       <path d="M 2746 4562 
C 2746 4569 2784 4666 2784 4678 
C 2784 4755 2720 4800 2669 4800 
C 2637 4800 2579 4800 2528 4659 
L 384 -1363 
C 384 -1370 346 -1465 346 -1478 
C 346 -1555 410 -1600 461 -1600 
C 499 -1600 557 -1593 602 -1459 
L 2746 4562 
z
" id="CMMI12-3d" transform="scale(0.015625)"/>
      </defs>
      <use transform="scale(0.996264)" xlink:href="#CMMI12-11"/>
      <use transform="translate(79.377824 0)scale(0.996264)" xlink:href="#CMR17-3d"/>
      <use transform="translate(178.766622 0)scale(0.996264)" xlink:href="#CMMI12-1b"/>
      <use transform="translate(237.786675 36.153639)scale(0.697382)" xlink:href="#CMR17-32"/>
      <use transform="translate(234.212082 -24.62935)scale(0.697382)" xlink:href="#CMR17-30"/>
      <use transform="translate(270.267989 0)scale(0.996264)" xlink:href="#CMMI12-3d"/>
      <use transform="translate(319.042908 0)scale(0.996264)" xlink:href="#CMMI12-1b"/>
      <use transform="translate(378.062962 36.153639)scale(0.697382)" xlink:href="#CMR17-32"/>
     </g>
    </g>
   </g>
   <g id="LineCollection_13">
    <path clip-path="url(#p005b2a16f0)" d="M 931.067106 150.215265 
L 931.067106 64.53888 
" style="fill:none;stroke:#0093ff;stroke-width:1.5;"/>
    <path clip-path="url(#p005b2a16f0)" d="M 959.166639 230.41467 
L 959.166639 218.914537 
" style="fill:none;stroke:#0093ff;stroke-width:1.5;"/>
    <path clip-path="url(#p005b2a16f0)" d="M 991.475808 242.802669 
L 991.475808 242.395601 
" style="fill:none;stroke:#0093ff;stroke-width:1.5;"/>
    <path clip-path="url(#p005b2a16f0)" d="M 1023.361651 138.999196 
L 1023.361651 35.893109 
" style="fill:none;stroke:#0093ff;stroke-width:1.5;"/>
    <path clip-path="url(#p005b2a16f0)" d="M 1054.57823 34.806469 
L 1054.57823 34.778564 
" style="fill:none;stroke:#0093ff;stroke-width:1.5;"/>
    <path clip-path="url(#p005b2a16f0)" d="M 1087.356057 33.88745 
L 1087.356057 33.698614 
" style="fill:none;stroke:#0093ff;stroke-width:1.5;"/>
    <path clip-path="url(#p005b2a16f0)" d="M 1118.713672 235.041433 
L 1118.713672 229.548699 
" style="fill:none;stroke:#0093ff;stroke-width:1.5;"/>
   </g>
   <g id="LineCollection_14">
    <path clip-path="url(#p005b2a16f0)" d="M 931.067106 244.418402 
L 931.067106 244.343672 
" style="fill:none;stroke:#77b900;stroke-width:1.5;"/>
    <path clip-path="url(#p005b2a16f0)" d="M 959.166639 244.06507 
L 959.166639 243.934139 
" style="fill:none;stroke:#77b900;stroke-width:1.5;"/>
    <path clip-path="url(#p005b2a16f0)" d="M 991.475808 243.813043 
L 991.475808 243.813043 
" style="fill:none;stroke:#77b900;stroke-width:1.5;"/>
    <path clip-path="url(#p005b2a16f0)" d="M 1023.361651 241.651494 
L 1023.361651 241.62206 
" style="fill:none;stroke:#77b900;stroke-width:1.5;"/>
    <path clip-path="url(#p005b2a16f0)" d="M 1054.57823 242.723301 
L 1054.57823 242.706189 
" style="fill:none;stroke:#77b900;stroke-width:1.5;"/>
    <path clip-path="url(#p005b2a16f0)" d="M 1087.356057 242.275044 
L 1087.356057 242.177442 
" style="fill:none;stroke:#77b900;stroke-width:1.5;"/>
    <path clip-path="url(#p005b2a16f0)" d="M 1118.713672 240.707213 
L 1118.713672 240.538871 
" style="fill:none;stroke:#77b900;stroke-width:1.5;"/>
   </g>
   <g id="line2d_77">
    <path clip-path="url(#p005b2a16f0)" d="M 931.067106 150.215265 
L 959.166639 230.41467 
L 991.475808 242.802669 
L 1023.361651 138.999196 
L 1054.57823 34.806469 
L 1087.356057 33.88745 
L 1118.713672 235.041433 
" style="fill:none;stroke:#0093ff;stroke-linecap:round;stroke-width:1.5;"/>
    <g clip-path="url(#p005b2a16f0)">
     <use style="fill:#0093ff;stroke:#0093ff;" x="931.067106" xlink:href="#m8909394e8f" y="150.215265"/>
     <use style="fill:#0093ff;stroke:#0093ff;" x="959.166639" xlink:href="#m8909394e8f" y="230.41467"/>
     <use style="fill:#0093ff;stroke:#0093ff;" x="991.475808" xlink:href="#m8909394e8f" y="242.802669"/>
     <use style="fill:#0093ff;stroke:#0093ff;" x="1023.361651" xlink:href="#m8909394e8f" y="138.999196"/>
     <use style="fill:#0093ff;stroke:#0093ff;" x="1054.57823" xlink:href="#m8909394e8f" y="34.806469"/>
     <use style="fill:#0093ff;stroke:#0093ff;" x="1087.356057" xlink:href="#m8909394e8f" y="33.88745"/>
     <use style="fill:#0093ff;stroke:#0093ff;" x="1118.713672" xlink:href="#m8909394e8f" y="235.041433"/>
    </g>
   </g>
   <g id="line2d_78">
    <path clip-path="url(#p005b2a16f0)" d="M 931.067106 244.418402 
L 959.166639 244.06507 
L 991.475808 243.813043 
L 1023.361651 241.651494 
L 1054.57823 242.723301 
L 1087.356057 242.275044 
L 1118.713672 240.707213 
" style="fill:none;stroke:#77b900;stroke-linecap:round;stroke-width:1.5;"/>
    <g clip-path="url(#p005b2a16f0)">
     <use style="fill:#77b900;stroke:#77b900;stroke-linejoin:miter;" x="931.067106" xlink:href="#m25d8d079ca" y="244.418402"/>
     <use style="fill:#77b900;stroke:#77b900;stroke-linejoin:miter;" x="959.166639" xlink:href="#m25d8d079ca" y="244.06507"/>
     <use style="fill:#77b900;stroke:#77b900;stroke-linejoin:miter;" x="991.475808" xlink:href="#m25d8d079ca" y="243.813043"/>
     <use style="fill:#77b900;stroke:#77b900;stroke-linejoin:miter;" x="1023.361651" xlink:href="#m25d8d079ca" y="241.651494"/>
     <use style="fill:#77b900;stroke:#77b900;stroke-linejoin:miter;" x="1054.57823" xlink:href="#m25d8d079ca" y="242.723301"/>
     <use style="fill:#77b900;stroke:#77b900;stroke-linejoin:miter;" x="1087.356057" xlink:href="#m25d8d079ca" y="242.275044"/>
     <use style="fill:#77b900;stroke:#77b900;stroke-linejoin:miter;" x="1118.713672" xlink:href="#m25d8d079ca" y="240.707213"/>
    </g>
   </g>
   <g id="patch_21">
    <path d="M 921.684778 254.954392 
L 921.684778 23.162625 
" style="fill:none;stroke:#262626;stroke-linecap:square;stroke-linejoin:miter;stroke-width:1.25;"/>
   </g>
   <g id="patch_22">
    <path d="M 1128.096 254.954392 
L 1128.096 23.162625 
" style="fill:none;stroke:#262626;stroke-linecap:square;stroke-linejoin:miter;stroke-width:1.25;"/>
   </g>
   <g id="patch_23">
    <path d="M 921.684778 254.954392 
L 1128.096 254.954392 
" style="fill:none;stroke:#262626;stroke-linecap:square;stroke-linejoin:miter;stroke-width:1.25;"/>
   </g>
   <g id="patch_24">
    <path d="M 921.684778 23.162625 
L 1128.096 23.162625 
" style="fill:none;stroke:#262626;stroke-linecap:square;stroke-linejoin:miter;stroke-width:1.25;"/>
   </g>
   <g id="text_51">
    <!-- Ratio of Noise to Misfit -->
    <g style="fill:#262626;" transform="translate(952.339191 17.162625)scale(0.144 -0.144)">
     <defs>
      <path d="M 2509 2146 
C 3117 2268 3629 2676 3629 3186 
C 3629 3785 2950 4326 2054 4326 
L 333 4326 
L 333 4160 
C 774 4160 845 4160 845 3873 
L 845 415 
C 845 128 774 128 333 128 
L 333 -26 
C 518 -26 851 -26 1050 -26 
C 1248 -26 1581 -26 1766 -26 
L 1766 128 
C 1325 128 1254 128 1254 417 
L 1254 2112 
L 2003 2112 
C 2368 2112 2573 1964 2662 1881 
C 2918 1632 2918 1459 2918 1024 
C 2918 595 2918 377 3110 160 
C 3354 -102 3680 -128 3821 -128 
C 4294 -128 4365 396 4365 503 
C 4365 540 4365 585 4307 585 
C 4256 585 4250 547 4250 522 
C 4218 112 4032 -26 3834 -26 
C 3482 -26 3443 375 3405 764 
C 3386 898 3373 993 3360 1133 
C 3322 1452 3270 1917 2509 2146 
z
M 1984 2214 
L 1254 2214 
L 1254 3913 
C 1254 4129 1267 4160 1523 4160 
L 1990 4160 
C 2522 4160 3142 3977 3142 3190 
C 3142 2372 2464 2214 1984 2214 
z
" id="CMR17-52" transform="scale(0.015625)"/>
     </defs>
     <use transform="scale(0.996264)" xlink:href="#CMR17-52"/>
     <use transform="translate(67.791102 0)scale(0.996264)" xlink:href="#CMR17-61"/>
     <use transform="translate(113.481579 0)scale(0.996264)" xlink:href="#CMR17-74"/>
     <use transform="translate(148.762347 0)scale(0.996264)" xlink:href="#CMR17-69"/>
     <use transform="translate(173.633405 0)scale(0.996264)" xlink:href="#CMR17-6f"/>
     <use transform="translate(249.399849 0)scale(0.996264)" xlink:href="#CMR17-6f"/>
     <use transform="translate(295.090326 0)scale(0.996264)" xlink:href="#CMR17-66"/>
     <use transform="translate(352.639805 0)scale(0.996264)" xlink:href="#CMR17-4e"/>
     <use transform="translate(421.712235 0)scale(0.996264)" xlink:href="#CMR17-6f"/>
     <use transform="translate(467.402712 0)scale(0.996264)" xlink:href="#CMR17-69"/>
     <use transform="translate(492.27377 0)scale(0.996264)" xlink:href="#CMR17-73"/>
     <use transform="translate(528.075108 0)scale(0.996264)" xlink:href="#CMR17-65"/>
     <use transform="translate(598.636735 0)scale(0.996264)" xlink:href="#CMR17-74"/>
     <use transform="translate(633.917502 0)scale(0.996264)" xlink:href="#CMR17-6f"/>
     <use transform="translate(709.683946 0)scale(0.996264)" xlink:href="#CMR17-4d"/>
     <use transform="translate(794.370886 0)scale(0.996264)" xlink:href="#CMR17-69"/>
     <use transform="translate(819.241945 0)scale(0.996264)" xlink:href="#CMR17-73"/>
     <use transform="translate(855.043283 0)scale(0.996264)" xlink:href="#CMR17-c"/>
     <use transform="translate(904.785506 0)scale(0.996264)" xlink:href="#CMR17-74"/>
    </g>
   </g>
   <g id="legend_4">
    <g id="patch_25">
     <path d="M 928.680298 59.014008 
L 994.227391 59.014008 
Q 996.226111 59.014008 996.226111 57.015288 
L 996.226111 30.158145 
Q 996.226111 28.159425 994.227391 28.159425 
L 928.680298 28.159425 
Q 926.681578 28.159425 926.681578 30.158145 
L 926.681578 57.015288 
Q 926.681578 59.014008 928.680298 59.014008 
z
" style="fill:#ffffff;opacity:0.8;stroke:#cccccc;stroke-linejoin:miter;"/>
    </g>
    <g id="LineCollection_15">
     <path d="M 940.672618 40.651425 
L 940.672618 30.657825 
" style="fill:none;stroke:#0093ff;stroke-width:1.5;"/>
    </g>
    <g id="line2d_79">
     <path d="M 930.679018 35.654625 
L 950.666218 35.654625 
" style="fill:none;stroke:#0093ff;stroke-linecap:round;stroke-width:1.5;"/>
    </g>
    <g id="line2d_80">
     <g>
      <use style="fill:#0093ff;stroke:#0093ff;" x="940.672618" xlink:href="#m8909394e8f" y="35.654625"/>
     </g>
    </g>
    <g id="text_52">
     <!-- full -->
     <g style="fill:#262626;" transform="translate(958.661098 39.152385)scale(0.099936 -0.099936)">
      <use transform="scale(0.996264)" xlink:href="#CMR17-66"/>
      <use transform="translate(27.473512 0)scale(0.996264)" xlink:href="#CMR17-75"/>
      <use transform="translate(78.368882 0)scale(0.996264)" xlink:href="#CMR17-6c"/>
      <use transform="translate(103.239941 0)scale(0.996264)" xlink:href="#CMR17-6c"/>
     </g>
    </g>
    <g id="LineCollection_16">
     <path d="M 940.672618 54.579677 
L 940.672618 44.586077 
" style="fill:none;stroke:#77b900;stroke-width:1.5;"/>
    </g>
    <g id="line2d_81">
     <path d="M 930.679018 49.582877 
L 950.666218 49.582877 
" style="fill:none;stroke:#77b900;stroke-linecap:round;stroke-width:1.5;"/>
    </g>
    <g id="line2d_82">
     <g>
      <use style="fill:#77b900;stroke:#77b900;stroke-linejoin:miter;" x="940.672618" xlink:href="#m25d8d079ca" y="49.582877"/>
     </g>
    </g>
    <g id="text_53">
     <!-- profiled -->
     <g style="fill:#262626;" transform="translate(958.661098 53.080637)scale(0.099936 -0.099936)">
      <use transform="scale(0.996264)" xlink:href="#CMR17-70"/>
      <use transform="translate(50.89537 0)scale(0.996264)" xlink:href="#CMR17-72"/>
      <use transform="translate(86.176138 0)scale(0.996264)" xlink:href="#CMR17-6f"/>
      <use transform="translate(131.866615 0)scale(0.996264)" xlink:href="#CMR17-c"/>
      <use transform="translate(181.608838 0)scale(0.996264)" xlink:href="#CMR17-6c"/>
      <use transform="translate(206.479897 0)scale(0.996264)" xlink:href="#CMR17-65"/>
      <use transform="translate(246.965557 0)scale(0.996264)" xlink:href="#CMR17-64"/>
     </g>
    </g>
   </g>
  </g>
 </g>
 <defs>
  <clipPath id="p009b1ec04b">
   <rect height="231.791767" width="206.411222" x="56.343786" y="23.162625"/>
  </clipPath>
  <clipPath id="pd358eeff82">
   <rect height="231.791767" width="206.411222" x="344.790784" y="23.162625"/>
  </clipPath>
  <clipPath id="p7e0d89491c">
   <rect height="231.791767" width="206.411222" x="633.237781" y="23.162625"/>
  </clipPath>
  <clipPath id="p005b2a16f0">
   <rect height="231.791767" width="206.411222" x="921.684778" y="23.162625"/>
  </clipPath>
 </defs>
</svg>
