<?xml version="1.0" encoding="utf-8" standalone="no"?>
<!DOCTYPE svg PUBLIC "-//W3C//DTD SVG 1.1//EN"
  "http://www.w3.org/Graphics/SVG/1.1/DTD/svg11.dtd">
<svg height="285.696pt" version="1.1" viewBox="0 0 844.925778 285.696" width="844.925778pt" xmlns="http://www.w3.org/2000/svg" xmlns:xlink="http://www.w3.org/1999/xlink">
 <metadata>
  <rdf:RDF xmlns:cc="http://creativecommons.org/ns#" xmlns:dc="http://purl.org/dc/elements/1.1/" xmlns:rdf="http://www.w3.org/1999/02/22-rdf-syntax-ns#">
   <cc:Work>
    <dc:type rdf:resource="http://purl.org/dc/dcmitype/StillImage"/>
    <dc:date>2021-12-18T21:53:33.022947</dc:date>
    <dc:format>image/svg+xml</dc:format>
    <dc:creator>
     <cc:Agent>
      <dc:title>Matplotlib v3.4.2, https://matplotlib.org/</dc:title>
     </cc:Agent>
    </dc:creator>
   </cc:Work>
  </rdf:RDF>
 </metadata>
 <defs>
  <style type="text/css">*{stroke-linecap:butt;stroke-linejoin:round;}</style>
 </defs>
 <g id="figure_1">
  <g id="patch_1">
   <path d="M 0 285.696 
L 844.925778 285.696 
L 844.925778 0 
L 0 0 
z
" style="fill:none;"/>
  </g>
  <g id="axes_1">
   <g id="patch_2">
    <path d="M 78.829097 240.443312 
L 289.611876 240.443312 
L 289.611876 23.162625 
L 78.829097 23.162625 
z
" style="fill:none;"/>
   </g>
   <g id="matplotlib.axis_1">
    <g id="xtick_1">
     <g id="line2d_1">
      <defs>
       <path d="M 0 0 
L 0 6 
" id="ma677c4252b" style="stroke:#262626;stroke-width:1.25;"/>
      </defs>
      <g>
       <use style="fill:#262626;stroke:#262626;stroke-width:1.25;" x="88.410132" xlink:href="#ma677c4252b" y="240.443312"/>
      </g>
     </g>
     <g id="text_1">
      <!-- $\mathdefault{2^{12}}$ -->
      <g style="fill:#262626;" transform="translate(80.460474 259.075707)scale(0.132 -0.132)">
       <defs>
        <path d="M 2669 989 
L 2554 989 
C 2490 536 2438 459 2413 420 
C 2381 369 1920 369 1830 369 
L 602 369 
C 832 619 1280 1072 1824 1597 
C 2214 1967 2669 2402 2669 3035 
C 2669 3790 2067 4224 1395 4224 
C 691 4224 262 3604 262 3030 
C 262 2780 448 2748 525 2748 
C 589 2748 781 2787 781 3010 
C 781 3207 614 3264 525 3264 
C 486 3264 448 3258 422 3245 
C 544 3790 915 4058 1306 4058 
C 1862 4058 2227 3617 2227 3035 
C 2227 2479 1901 2000 1536 1584 
L 262 146 
L 262 0 
L 2515 0 
L 2669 989 
z
" id="CMR17-32" transform="scale(0.015625)"/>
        <path d="M 1702 4058 
C 1702 4192 1696 4192 1606 4192 
C 1357 3916 979 3827 621 3827 
C 602 3827 570 3827 563 3808 
C 557 3795 557 3782 557 3648 
C 755 3648 1088 3686 1344 3839 
L 1344 461 
C 1344 236 1331 160 781 160 
L 589 160 
L 589 0 
C 896 0 1216 0 1523 0 
C 1830 0 2150 0 2458 0 
L 2458 160 
L 2266 160 
C 1715 160 1702 230 1702 458 
L 1702 4058 
z
" id="CMR17-31" transform="scale(0.015625)"/>
       </defs>
       <use transform="scale(0.996264)" xlink:href="#CMR17-32"/>
       <use transform="translate(45.690477 36.153639)scale(0.697382)" xlink:href="#CMR17-31"/>
       <use transform="translate(77.673659 36.153639)scale(0.697382)" xlink:href="#CMR17-32"/>
      </g>
     </g>
    </g>
    <g id="xtick_2">
     <g id="line2d_2">
      <g>
       <use style="fill:#262626;stroke:#262626;stroke-width:1.25;" x="114.535149" xlink:href="#ma677c4252b" y="240.443312"/>
      </g>
     </g>
     <g id="text_2">
      <!-- $\mathdefault{1.30103\times2^{12}}$ -->
      <g style="fill:#262626;" transform="translate(77.445765 259.186787)scale(0.132 -0.132)">
       <defs>
        <path d="M 1178 307 
C 1178 492 1024 619 870 619 
C 685 619 557 466 557 313 
C 557 128 710 0 864 0 
C 1050 0 1178 153 1178 307 
z
" id="CMMI12-3a" transform="scale(0.015625)"/>
        <path d="M 1414 2157 
C 1984 2157 2234 1662 2234 1090 
C 2234 320 1824 25 1453 25 
C 1114 25 563 194 390 693 
C 422 680 454 680 486 680 
C 640 680 755 782 755 948 
C 755 1133 614 1216 486 1216 
C 378 1216 211 1165 211 926 
C 211 335 787 -128 1466 -128 
C 2176 -128 2720 430 2720 1085 
C 2720 1707 2208 2157 1600 2227 
C 2086 2328 2554 2756 2554 3329 
C 2554 3820 2048 4179 1472 4179 
C 890 4179 378 3829 378 3329 
C 378 3110 544 3072 627 3072 
C 762 3072 877 3155 877 3321 
C 877 3486 762 3569 627 3569 
C 602 3569 570 3569 544 3557 
C 730 3959 1235 4032 1459 4032 
C 1683 4032 2106 3925 2106 3320 
C 2106 3143 2080 2828 1862 2550 
C 1670 2304 1453 2304 1242 2284 
C 1210 2284 1062 2269 1037 2269 
C 992 2263 966 2257 966 2208 
C 966 2163 973 2157 1101 2157 
L 1414 2157 
z
" id="CMR17-33" transform="scale(0.015625)"/>
        <path d="M 2688 2025 
C 2688 2416 2682 3080 2413 3591 
C 2176 4039 1798 4198 1466 4198 
C 1158 4198 768 4058 525 3597 
C 269 3118 243 2524 243 2025 
C 243 1661 250 1106 448 619 
C 723 -39 1216 -128 1466 -128 
C 1760 -128 2208 -7 2470 600 
C 2662 1042 2688 1559 2688 2025 
z
M 1466 -26 
C 1056 -26 813 325 723 812 
C 653 1188 653 1738 653 2096 
C 653 2588 653 2997 736 3387 
C 858 3929 1216 4096 1466 4096 
C 1728 4096 2067 3923 2189 3400 
C 2272 3036 2278 2607 2278 2096 
C 2278 1680 2278 1169 2202 792 
C 2067 95 1690 -26 1466 -26 
z
" id="CMR17-30" transform="scale(0.015625)"/>
        <path d="M 2490 1785 
L 1210 3059 
C 1133 3136 1120 3148 1069 3148 
C 1005 3148 941 3091 941 3020 
C 941 2976 954 2963 1024 2892 
L 2304 1606 
L 1024 320 
C 954 249 941 236 941 192 
C 941 121 1005 64 1069 64 
C 1120 64 1133 76 1210 153 
L 2483 1427 
L 3808 102 
C 3821 96 3866 64 3904 64 
C 3981 64 4032 121 4032 192 
C 4032 204 4032 230 4013 262 
C 4006 275 2989 1280 2669 1606 
L 3840 2777 
C 3872 2816 3968 2899 4000 2937 
C 4006 2950 4032 2976 4032 3020 
C 4032 3091 3981 3148 3904 3148 
C 3853 3148 3827 3123 3757 3052 
L 2490 1785 
z
" id="CMSY10-2" transform="scale(0.015625)"/>
       </defs>
       <use transform="scale(0.996264)" xlink:href="#CMR17-31"/>
       <use transform="translate(45.690477 0)scale(0.996264)" xlink:href="#CMMI12-3a"/>
       <use transform="translate(72.787654 0)scale(0.996264)" xlink:href="#CMR17-33"/>
       <use transform="translate(118.478131 0)scale(0.996264)" xlink:href="#CMR17-30"/>
       <use transform="translate(164.168608 0)scale(0.996264)" xlink:href="#CMR17-31"/>
       <use transform="translate(209.859086 0)scale(0.996264)" xlink:href="#CMR17-30"/>
       <use transform="translate(255.549563 0)scale(0.996264)" xlink:href="#CMR17-33"/>
       <use transform="translate(323.379247 0)scale(0.996264)" xlink:href="#CMSY10-2"/>
       <use transform="translate(423.005921 0)scale(0.996264)" xlink:href="#CMR17-32"/>
       <use transform="translate(468.696399 36.153639)scale(0.697382)" xlink:href="#CMR17-31"/>
       <use transform="translate(500.67958 36.153639)scale(0.697382)" xlink:href="#CMR17-32"/>
      </g>
     </g>
    </g>
    <g id="xtick_3">
     <g id="line2d_3">
      <g>
       <use style="fill:#262626;stroke:#262626;stroke-width:1.25;" x="142.403669" xlink:href="#ma677c4252b" y="240.443312"/>
      </g>
     </g>
    </g>
    <g id="xtick_4">
     <g id="line2d_4">
      <g>
       <use style="fill:#262626;stroke:#262626;stroke-width:1.25;" x="170.97444" xlink:href="#ma677c4252b" y="240.443312"/>
      </g>
     </g>
     <g id="text_3">
      <!-- $\mathdefault{1.14856\times2^{13}}$ -->
      <g style="fill:#262626;" transform="translate(133.885055 259.186787)scale(0.132 -0.132)">
       <defs>
        <path d="M 2150 4122 
C 2150 4256 2144 4256 2029 4256 
L 128 1254 
L 128 1088 
L 1779 1088 
L 1779 457 
C 1779 224 1766 160 1318 160 
L 1197 160 
L 1197 0 
C 1402 0 1747 0 1965 0 
C 2182 0 2528 0 2733 0 
L 2733 160 
L 2611 160 
C 2163 160 2150 224 2150 457 
L 2150 1088 
L 2803 1088 
L 2803 1254 
L 2150 1254 
L 2150 4122 
z
M 1798 3703 
L 1798 1254 
L 256 1254 
L 1798 3703 
z
" id="CMR17-34" transform="scale(0.015625)"/>
        <path d="M 1741 2264 
C 2144 2467 2554 2773 2554 3263 
C 2554 3841 1990 4179 1472 4179 
C 890 4179 378 3759 378 3180 
C 378 3021 416 2747 666 2505 
C 730 2442 998 2251 1171 2130 
C 883 1983 211 1634 211 934 
C 211 279 838 -128 1459 -128 
C 2144 -128 2720 362 2720 1010 
C 2720 1590 2330 1857 2074 2029 
L 1741 2264 
z
M 902 2822 
C 851 2854 595 3051 595 3351 
C 595 3739 998 4032 1459 4032 
C 1965 4032 2336 3676 2336 3262 
C 2336 2669 1670 2331 1638 2331 
C 1632 2331 1626 2331 1574 2370 
L 902 2822 
z
M 2080 1519 
C 2176 1449 2483 1240 2483 851 
C 2483 381 2010 25 1472 25 
C 890 25 448 438 448 940 
C 448 1443 838 1862 1280 2060 
L 2080 1519 
z
" id="CMR17-38" transform="scale(0.015625)"/>
        <path d="M 730 3692 
C 794 3666 1056 3584 1325 3584 
C 1920 3584 2246 3911 2432 4100 
C 2432 4157 2432 4192 2394 4192 
C 2387 4192 2374 4192 2323 4163 
C 2099 4058 1837 3973 1517 3973 
C 1325 3973 1037 3999 723 4139 
C 653 4171 640 4171 634 4171 
C 602 4171 595 4164 595 4037 
L 595 2203 
C 595 2089 595 2057 659 2057 
C 691 2057 704 2070 736 2114 
C 941 2401 1222 2522 1542 2522 
C 1766 2522 2246 2382 2246 1289 
C 2246 1085 2246 715 2054 421 
C 1894 159 1645 25 1370 25 
C 947 25 518 320 403 814 
C 429 807 480 795 506 795 
C 589 795 749 840 749 1038 
C 749 1210 627 1280 506 1280 
C 358 1280 262 1190 262 1011 
C 262 454 704 -128 1382 -128 
C 2042 -128 2669 440 2669 1264 
C 2669 2030 2170 2624 1549 2624 
C 1222 2624 947 2503 730 2274 
L 730 3692 
z
" id="CMR17-35" transform="scale(0.015625)"/>
        <path d="M 678 2176 
C 678 3690 1395 4032 1811 4032 
C 1946 4032 2272 4009 2400 3776 
C 2298 3776 2106 3776 2106 3553 
C 2106 3381 2246 3323 2336 3323 
C 2394 3323 2566 3348 2566 3560 
C 2566 3954 2246 4179 1805 4179 
C 1043 4179 243 3390 243 1984 
C 243 253 966 -128 1478 -128 
C 2099 -128 2688 427 2688 1283 
C 2688 2081 2170 2662 1517 2662 
C 1126 2662 838 2407 678 1960 
L 678 2176 
z
M 1478 25 
C 691 25 691 1200 691 1436 
C 691 1896 909 2560 1504 2560 
C 1613 2560 1926 2560 2138 2120 
C 2253 1870 2253 1609 2253 1289 
C 2253 944 2253 690 2118 434 
C 1978 171 1773 25 1478 25 
z
" id="CMR17-36" transform="scale(0.015625)"/>
       </defs>
       <use transform="scale(0.996264)" xlink:href="#CMR17-31"/>
       <use transform="translate(45.690477 0)scale(0.996264)" xlink:href="#CMMI12-3a"/>
       <use transform="translate(72.787654 0)scale(0.996264)" xlink:href="#CMR17-31"/>
       <use transform="translate(118.478131 0)scale(0.996264)" xlink:href="#CMR17-34"/>
       <use transform="translate(164.168608 0)scale(0.996264)" xlink:href="#CMR17-38"/>
       <use transform="translate(209.859086 0)scale(0.996264)" xlink:href="#CMR17-35"/>
       <use transform="translate(255.549563 0)scale(0.996264)" xlink:href="#CMR17-36"/>
       <use transform="translate(323.379247 0)scale(0.996264)" xlink:href="#CMSY10-2"/>
       <use transform="translate(423.005921 0)scale(0.996264)" xlink:href="#CMR17-32"/>
       <use transform="translate(468.696399 36.153639)scale(0.697382)" xlink:href="#CMR17-31"/>
       <use transform="translate(500.67958 36.153639)scale(0.697382)" xlink:href="#CMR17-33"/>
      </g>
     </g>
    </g>
    <g id="xtick_5">
     <g id="line2d_5">
      <g>
       <use style="fill:#262626;stroke:#262626;stroke-width:1.25;" x="197.743341" xlink:href="#ma677c4252b" y="240.443312"/>
      </g>
     </g>
    </g>
    <g id="xtick_6">
     <g id="line2d_6">
      <g>
       <use style="fill:#262626;stroke:#262626;stroke-width:1.25;" x="226.037304" xlink:href="#ma677c4252b" y="240.443312"/>
      </g>
     </g>
     <g id="text_4">
      <!-- $\mathdefault{2^{14}}$ -->
      <g style="fill:#262626;" transform="translate(218.087646 259.075707)scale(0.132 -0.132)">
       <use transform="scale(0.996264)" xlink:href="#CMR17-32"/>
       <use transform="translate(45.690477 36.153639)scale(0.697382)" xlink:href="#CMR17-31"/>
       <use transform="translate(77.673659 36.153639)scale(0.697382)" xlink:href="#CMR17-34"/>
      </g>
     </g>
    </g>
    <g id="xtick_7">
     <g id="line2d_7">
      <g>
       <use style="fill:#262626;stroke:#262626;stroke-width:1.25;" x="253.517644" xlink:href="#ma677c4252b" y="240.443312"/>
      </g>
     </g>
     <g id="text_5">
      <!-- $\mathdefault{1.31891\times2^{14}}$ -->
      <g style="fill:#262626;" transform="translate(216.428259 259.186787)scale(0.132 -0.132)">
       <defs>
        <path d="M 2253 1864 
C 2253 464 1670 31 1190 31 
C 1043 31 685 31 538 294 
C 704 268 826 357 826 518 
C 826 692 685 749 595 749 
C 538 749 365 723 365 506 
C 365 71 742 -128 1203 -128 
C 1939 -128 2688 674 2688 2073 
C 2688 3817 1971 4179 1485 4179 
C 851 4179 243 3628 243 2778 
C 243 1991 762 1408 1414 1408 
C 1952 1408 2189 1903 2253 2112 
L 2253 1864 
z
M 1427 1510 
C 1254 1510 1011 1542 813 1922 
C 678 2169 678 2461 678 2771 
C 678 3146 678 3405 858 3684 
C 947 3817 1114 4032 1485 4032 
C 2240 4032 2240 2885 2240 2632 
C 2240 2182 2035 1510 1427 1510 
z
" id="CMR17-39" transform="scale(0.015625)"/>
       </defs>
       <use transform="scale(0.996264)" xlink:href="#CMR17-31"/>
       <use transform="translate(45.690477 0)scale(0.996264)" xlink:href="#CMMI12-3a"/>
       <use transform="translate(72.787654 0)scale(0.996264)" xlink:href="#CMR17-33"/>
       <use transform="translate(118.478131 0)scale(0.996264)" xlink:href="#CMR17-31"/>
       <use transform="translate(164.168608 0)scale(0.996264)" xlink:href="#CMR17-38"/>
       <use transform="translate(209.859086 0)scale(0.996264)" xlink:href="#CMR17-39"/>
       <use transform="translate(255.549563 0)scale(0.996264)" xlink:href="#CMR17-31"/>
       <use transform="translate(323.379247 0)scale(0.996264)" xlink:href="#CMSY10-2"/>
       <use transform="translate(423.005921 0)scale(0.996264)" xlink:href="#CMR17-32"/>
       <use transform="translate(468.696399 36.153639)scale(0.697382)" xlink:href="#CMR17-31"/>
       <use transform="translate(500.67958 36.153639)scale(0.697382)" xlink:href="#CMR17-34"/>
      </g>
     </g>
    </g>
    <g id="xtick_8">
     <g id="line2d_8">
      <g>
       <use style="fill:#262626;stroke:#262626;stroke-width:1.25;" x="280.030841" xlink:href="#ma677c4252b" y="240.443312"/>
      </g>
     </g>
    </g>
    <g id="text_6">
     <!-- $n$ -->
     <g style="fill:#262626;" transform="translate(180.027926 275.706473)scale(0.144 -0.144)">
      <defs>
       <path d="M 1318 1871 
C 1331 1910 1491 2229 1728 2433 
C 1894 2586 2112 2689 2362 2689 
C 2618 2689 2707 2497 2707 2242 
C 2707 1878 2445 1150 2317 805 
C 2259 651 2227 568 2227 453 
C 2227 166 2426 -64 2733 -64 
C 3328 -64 3552 875 3552 913 
C 3552 945 3526 971 3488 971 
C 3430 971 3424 952 3392 843 
C 3245 319 3002 64 2752 64 
C 2688 64 2586 64 2586 269 
C 2586 429 2656 621 2694 710 
C 2822 1063 3091 1780 3091 2145 
C 3091 2528 2867 2816 2381 2816 
C 1811 2816 1510 2415 1395 2255 
C 1376 2618 1114 2816 832 2816 
C 627 2816 486 2695 378 2478 
C 262 2248 173 1865 173 1839 
C 173 1814 198 1782 243 1782 
C 294 1782 301 1788 339 1935 
C 442 2325 557 2689 813 2689 
C 960 2689 1011 2586 1011 2395 
C 1011 2254 947 2005 902 1807 
L 723 1118 
C 698 996 627 709 595 594 
C 550 428 480 128 480 96 
C 480 6 550 -64 646 -64 
C 723 -64 813 -26 864 70 
C 877 102 934 326 966 453 
L 1107 1028 
L 1318 1871 
z
" id="CMMI12-6e" transform="scale(0.015625)"/>
      </defs>
      <use transform="scale(0.996264)" xlink:href="#CMMI12-6e"/>
     </g>
    </g>
   </g>
   <g id="matplotlib.axis_2">
    <g id="ytick_1">
     <g id="line2d_9">
      <path clip-path="url(#p3edd6bdb41)" d="M 78.829097 114.189269 
L 289.611876 114.189269 
" style="fill:none;stroke:#cccccc;stroke-linecap:round;"/>
     </g>
     <g id="line2d_10">
      <defs>
       <path d="M 0 0 
L -6 0 
" id="m8a087e252d" style="stroke:#262626;stroke-width:1.25;"/>
      </defs>
      <g>
       <use style="fill:#262626;stroke:#262626;stroke-width:1.25;" x="78.829097" xlink:href="#m8a087e252d" y="114.189269"/>
      </g>
     </g>
     <g id="text_7">
      <!-- $\mathdefault{10^{-3}}$ -->
      <g style="fill:#262626;" transform="translate(44.363423 118.755467)scale(0.132 -0.132)">
       <defs>
        <path d="M 4218 1472 
C 4326 1472 4442 1472 4442 1600 
C 4442 1728 4326 1728 4218 1728 
L 755 1728 
C 646 1728 531 1728 531 1600 
C 531 1472 646 1472 755 1472 
L 4218 1472 
z
" id="CMSY10-0" transform="scale(0.015625)"/>
       </defs>
       <use transform="scale(0.996264)" xlink:href="#CMR17-31"/>
       <use transform="translate(45.690477 0)scale(0.996264)" xlink:href="#CMR17-30"/>
       <use transform="translate(91.380954 36.153639)scale(0.697382)" xlink:href="#CMSY10-0"/>
       <use transform="translate(145.621947 36.153639)scale(0.697382)" xlink:href="#CMR17-33"/>
      </g>
     </g>
    </g>
    <g id="ytick_2">
     <g id="line2d_11">
      <defs>
       <path d="M 0 0 
L -4 0 
" id="m346d935493" style="stroke:#262626;"/>
      </defs>
      <g>
       <use style="fill:#262626;stroke:#262626;" x="78.829097" xlink:href="#m346d935493" y="193.817084"/>
      </g>
     </g>
     <g id="text_8">
      <!-- $\mathdefault{8\times10^{-4}}$ -->
      <g style="fill:#262626;" transform="translate(23.952152 198.438821)scale(0.132 -0.132)">
       <use transform="scale(0.996264)" xlink:href="#CMR17-38"/>
       <use transform="translate(67.829684 0)scale(0.996264)" xlink:href="#CMSY10-2"/>
       <use transform="translate(167.456359 0)scale(0.996264)" xlink:href="#CMR17-31"/>
       <use transform="translate(213.146836 0)scale(0.996264)" xlink:href="#CMR17-30"/>
       <use transform="translate(258.837313 36.153639)scale(0.697382)" xlink:href="#CMSY10-0"/>
       <use transform="translate(313.078306 36.153639)scale(0.697382)" xlink:href="#CMR17-34"/>
      </g>
     </g>
    </g>
    <g id="ytick_3">
     <g id="line2d_12">
      <g>
       <use style="fill:#262626;stroke:#262626;" x="78.829097" xlink:href="#m346d935493" y="151.786715"/>
      </g>
     </g>
     <g id="text_9">
      <!-- $\mathdefault{9\times10^{-4}}$ -->
      <g style="fill:#262626;" transform="translate(23.952152 156.408453)scale(0.132 -0.132)">
       <use transform="scale(0.996264)" xlink:href="#CMR17-39"/>
       <use transform="translate(67.829684 0)scale(0.996264)" xlink:href="#CMSY10-2"/>
       <use transform="translate(167.456359 0)scale(0.996264)" xlink:href="#CMR17-31"/>
       <use transform="translate(213.146836 0)scale(0.996264)" xlink:href="#CMR17-30"/>
       <use transform="translate(258.837313 36.153639)scale(0.697382)" xlink:href="#CMSY10-0"/>
       <use transform="translate(313.078306 36.153639)scale(0.697382)" xlink:href="#CMR17-34"/>
      </g>
     </g>
    </g>
    <g id="text_10">
     <!-- density -->
     <g style="fill:#262626;" transform="translate(17.162625 153.693102)rotate(-90)scale(0.144 -0.144)">
      <defs>
       <path d="M 1869 4326 
L 1869 4160 
C 2246 4160 2304 4122 2304 3820 
L 2304 2345 
C 2278 2377 2016 2790 1498 2790 
C 845 2790 211 2208 211 1364 
C 211 525 806 -64 1434 -64 
C 1978 -64 2259 337 2291 380 
L 2291 -63 
L 3066 -63 
L 3066 128 
C 2688 128 2630 166 2630 473 
L 2630 4396 
L 1869 4326 
z
M 2291 755 
C 2291 563 2176 390 2029 262 
C 1811 70 1594 38 1472 38 
C 1286 38 621 134 621 1356 
C 621 2612 1363 2688 1530 2688 
C 1824 2688 2061 2522 2208 2291 
C 2291 2157 2291 2138 2291 2023 
L 2291 755 
z
" id="CMR17-64" transform="scale(0.015625)"/>
       <path d="M 2438 1472 
C 2464 1498 2464 1511 2464 1576 
C 2464 2238 2118 2816 1389 2816 
C 710 2816 173 2169 173 1383 
C 173 551 781 -64 1459 -64 
C 2176 -64 2458 607 2458 740 
C 2458 784 2419 784 2406 784 
C 2362 784 2355 771 2330 696 
C 2189 265 1837 51 1504 51 
C 1229 51 954 203 781 480 
C 582 803 582 1176 582 1472 
L 2438 1472 
z
M 589 1568 
C 634 2505 1126 2714 1382 2714 
C 1818 2714 2112 2297 2118 1568 
L 589 1568 
z
" id="CMR17-65" transform="scale(0.015625)"/>
       <path d="M 2656 1933 
C 2656 2259 2592 2790 1837 2790 
C 1331 2790 1069 2400 973 2144 
L 966 2144 
L 966 2790 
L 211 2720 
L 211 2554 
C 589 2554 646 2515 646 2208 
L 646 428 
C 646 184 621 153 211 153 
L 211 -13 
C 365 0 646 0 813 0 
C 979 0 1267 0 1421 -13 
L 1421 153 
C 1011 153 986 178 986 428 
L 986 1658 
C 986 2247 1344 2688 1792 2688 
C 2266 2688 2317 2266 2317 1958 
L 2317 428 
C 2317 184 2291 153 1882 153 
L 1882 -13 
C 2035 0 2317 0 2483 0 
C 2650 0 2938 0 3091 -13 
L 3091 153 
C 2682 153 2656 178 2656 428 
L 2656 1933 
z
" id="CMR17-6e" transform="scale(0.015625)"/>
       <path d="M 1978 2697 
C 1978 2813 1971 2819 1933 2819 
C 1907 2819 1901 2813 1824 2717 
C 1805 2691 1747 2626 1728 2601 
C 1523 2819 1235 2819 1126 2819 
C 416 2819 160 2447 160 2076 
C 160 1498 813 1365 998 1325 
C 1402 1243 1542 1217 1677 1101 
C 1760 1025 1901 884 1901 654 
C 1901 384 1747 38 1158 38 
C 602 38 403 460 288 1021 
C 269 1110 269 1117 218 1117 
C 166 1117 160 1110 160 983 
L 160 63 
C 160 -51 166 -58 205 -58 
C 237 -58 243 -51 275 0 
C 314 57 410 211 448 276 
C 576 103 800 -64 1158 -64 
C 1792 -64 2131 283 2131 784 
C 2131 1112 1958 1285 1875 1362 
C 1683 1561 1459 1606 1190 1657 
C 838 1735 390 1825 390 2217 
C 390 2383 480 2737 1126 2737 
C 1811 2737 1850 2094 1862 1888 
C 1869 1856 1901 1849 1920 1849 
C 1978 1849 1978 1869 1978 1978 
L 1978 2697 
z
" id="CMR17-73" transform="scale(0.015625)"/>
       <path d="M 992 3909 
C 992 4049 877 4170 730 4170 
C 589 4170 467 4056 467 3909 
C 467 3769 582 3648 730 3648 
C 870 3648 992 3763 992 3909 
z
M 243 2706 
L 243 2541 
C 602 2541 653 2502 653 2197 
L 653 427 
C 653 184 627 153 218 153 
L 218 -13 
C 371 0 646 0 806 0 
C 960 0 1222 0 1370 -13 
L 1370 153 
C 992 153 979 191 979 420 
L 979 2776 
L 243 2706 
z
" id="CMR17-69" transform="scale(0.015625)"/>
       <path d="M 966 2560 
L 1862 2560 
L 1862 2725 
L 966 2725 
L 966 3904 
L 851 3904 
C 838 3245 614 2668 70 2668 
L 70 2560 
L 627 2560 
L 627 771 
C 627 650 627 -64 1370 -64 
C 1747 -64 1965 306 1965 777 
L 1965 1140 
L 1850 1140 
L 1850 783 
C 1850 344 1677 51 1408 51 
C 1222 51 966 178 966 758 
L 966 2560 
z
" id="CMR17-74" transform="scale(0.015625)"/>
       <path d="M 2496 2197 
C 2656 2586 2944 2586 3034 2586 
L 3034 2752 
C 2912 2752 2752 2752 2630 2752 
C 2496 2752 2285 2752 2157 2758 
L 2157 2592 
C 2400 2573 2406 2394 2406 2343 
C 2406 2280 2394 2248 2362 2171 
L 1664 449 
L 902 2306 
C 870 2382 870 2426 870 2433 
C 870 2573 1018 2586 1171 2586 
L 1171 2758 
C 1018 2752 742 2752 582 2752 
C 410 2752 205 2752 64 2758 
L 64 2586 
C 410 2586 448 2554 531 2350 
L 1485 15 
C 1197 -738 1030 -1178 627 -1178 
C 557 -1178 397 -1159 282 -1044 
C 429 -1031 493 -942 493 -833 
C 493 -725 416 -629 288 -629 
C 147 -629 77 -725 77 -840 
C 77 -1095 339 -1280 627 -1280 
C 998 -1280 1229 -922 1357 -604 
L 2496 2197 
z
" id="CMR17-79" transform="scale(0.015625)"/>
      </defs>
      <use transform="scale(0.996264)" xlink:href="#CMR17-64"/>
      <use transform="translate(50.89537 0)scale(0.996264)" xlink:href="#CMR17-65"/>
      <use transform="translate(91.38103 0)scale(0.996264)" xlink:href="#CMR17-6e"/>
      <use transform="translate(142.2764 0)scale(0.996264)" xlink:href="#CMR17-73"/>
      <use transform="translate(178.077738 0)scale(0.996264)" xlink:href="#CMR17-69"/>
      <use transform="translate(202.948796 0)scale(0.996264)" xlink:href="#CMR17-74"/>
      <use transform="translate(235.62711 0)scale(0.996264)" xlink:href="#CMR17-79"/>
     </g>
    </g>
   </g>
   <g id="LineCollection_1">
    <path clip-path="url(#p3edd6bdb41)" d="M 88.410132 47.513279 
L 88.410132 47.513279 
" style="fill:none;stroke:#0093ff;stroke-width:1.5;"/>
    <path clip-path="url(#p3edd6bdb41)" d="M 114.535149 140.861731 
L 114.535149 140.861731 
" style="fill:none;stroke:#0093ff;stroke-width:1.5;"/>
    <path clip-path="url(#p3edd6bdb41)" d="M 142.403669 33.03902 
L 142.403669 33.03902 
" style="fill:none;stroke:#0093ff;stroke-width:1.5;"/>
    <path clip-path="url(#p3edd6bdb41)" d="M 170.97444 134.970271 
L 170.97444 134.970271 
" style="fill:none;stroke:#0093ff;stroke-width:1.5;"/>
    <path clip-path="url(#p3edd6bdb41)" d="M 197.743341 230.566918 
L 197.743341 230.566918 
" style="fill:none;stroke:#0093ff;stroke-width:1.5;"/>
    <path clip-path="url(#p3edd6bdb41)" d="M 226.037304 201.055834 
L 226.037304 201.055834 
" style="fill:none;stroke:#0093ff;stroke-width:1.5;"/>
    <path clip-path="url(#p3edd6bdb41)" d="M 253.517644 129.497458 
L 253.517644 129.497458 
" style="fill:none;stroke:#0093ff;stroke-width:1.5;"/>
    <path clip-path="url(#p3edd6bdb41)" d="M 280.030841 162.589619 
L 280.030841 162.589619 
" style="fill:none;stroke:#0093ff;stroke-width:1.5;"/>
   </g>
   <g id="LineCollection_2">
    <path clip-path="url(#p3edd6bdb41)" d="M 88.410132 47.513279 
L 88.410132 47.513279 
" style="fill:none;stroke:#77b900;stroke-width:1.5;"/>
    <path clip-path="url(#p3edd6bdb41)" d="M 114.535149 140.861731 
L 114.535149 140.861731 
" style="fill:none;stroke:#77b900;stroke-width:1.5;"/>
    <path clip-path="url(#p3edd6bdb41)" d="M 142.403669 33.03902 
L 142.403669 33.03902 
" style="fill:none;stroke:#77b900;stroke-width:1.5;"/>
    <path clip-path="url(#p3edd6bdb41)" d="M 170.97444 134.970271 
L 170.97444 134.970271 
" style="fill:none;stroke:#77b900;stroke-width:1.5;"/>
    <path clip-path="url(#p3edd6bdb41)" d="M 197.743341 230.566918 
L 197.743341 230.566918 
" style="fill:none;stroke:#77b900;stroke-width:1.5;"/>
    <path clip-path="url(#p3edd6bdb41)" d="M 226.037304 201.055834 
L 226.037304 201.055834 
" style="fill:none;stroke:#77b900;stroke-width:1.5;"/>
    <path clip-path="url(#p3edd6bdb41)" d="M 253.517644 129.497458 
L 253.517644 129.497458 
" style="fill:none;stroke:#77b900;stroke-width:1.5;"/>
    <path clip-path="url(#p3edd6bdb41)" d="M 280.030841 162.589619 
L 280.030841 162.589619 
" style="fill:none;stroke:#77b900;stroke-width:1.5;"/>
   </g>
   <g id="line2d_13">
    <path clip-path="url(#p3edd6bdb41)" d="M 88.410132 47.513279 
L 114.535149 140.861731 
L 142.403669 33.03902 
L 170.97444 134.970271 
L 197.743341 230.566918 
L 226.037304 201.055834 
L 253.517644 129.497458 
L 280.030841 162.589619 
" style="fill:none;stroke:#0093ff;stroke-linecap:round;stroke-width:1.5;"/>
    <defs>
     <path d="M 0 3 
C 0.795609 3 1.55874 2.683901 2.12132 2.12132 
C 2.683901 1.55874 3 0.795609 3 0 
C 3 -0.795609 2.683901 -1.55874 2.12132 -2.12132 
C 1.55874 -2.683901 0.795609 -3 0 -3 
C -0.795609 -3 -1.55874 -2.683901 -2.12132 -2.12132 
C -2.683901 -1.55874 -3 -0.795609 -3 0 
C -3 0.795609 -2.683901 1.55874 -2.12132 2.12132 
C -1.55874 2.683901 -0.795609 3 0 3 
z
" id="m388a927242" style="stroke:#0093ff;"/>
    </defs>
    <g clip-path="url(#p3edd6bdb41)">
     <use style="fill:#0093ff;stroke:#0093ff;" x="88.410132" xlink:href="#m388a927242" y="47.513279"/>
     <use style="fill:#0093ff;stroke:#0093ff;" x="114.535149" xlink:href="#m388a927242" y="140.861731"/>
     <use style="fill:#0093ff;stroke:#0093ff;" x="142.403669" xlink:href="#m388a927242" y="33.03902"/>
     <use style="fill:#0093ff;stroke:#0093ff;" x="170.97444" xlink:href="#m388a927242" y="134.970271"/>
     <use style="fill:#0093ff;stroke:#0093ff;" x="197.743341" xlink:href="#m388a927242" y="230.566918"/>
     <use style="fill:#0093ff;stroke:#0093ff;" x="226.037304" xlink:href="#m388a927242" y="201.055834"/>
     <use style="fill:#0093ff;stroke:#0093ff;" x="253.517644" xlink:href="#m388a927242" y="129.497458"/>
     <use style="fill:#0093ff;stroke:#0093ff;" x="280.030841" xlink:href="#m388a927242" y="162.589619"/>
    </g>
   </g>
   <g id="line2d_14">
    <path clip-path="url(#p3edd6bdb41)" d="M 88.410132 47.513279 
L 114.535149 140.861731 
L 142.403669 33.03902 
L 170.97444 134.970271 
L 197.743341 230.566918 
L 226.037304 201.055834 
L 253.517644 129.497458 
L 280.030841 162.589619 
" style="fill:none;stroke:#77b900;stroke-linecap:round;stroke-width:1.5;"/>
    <defs>
     <path d="M -3 3 
L 3 3 
L 3 -3 
L -3 -3 
z
" id="m08ef0e825d" style="stroke:#77b900;stroke-linejoin:miter;"/>
    </defs>
    <g clip-path="url(#p3edd6bdb41)">
     <use style="fill:#77b900;stroke:#77b900;stroke-linejoin:miter;" x="88.410132" xlink:href="#m08ef0e825d" y="47.513279"/>
     <use style="fill:#77b900;stroke:#77b900;stroke-linejoin:miter;" x="114.535149" xlink:href="#m08ef0e825d" y="140.861731"/>
     <use style="fill:#77b900;stroke:#77b900;stroke-linejoin:miter;" x="142.403669" xlink:href="#m08ef0e825d" y="33.03902"/>
     <use style="fill:#77b900;stroke:#77b900;stroke-linejoin:miter;" x="170.97444" xlink:href="#m08ef0e825d" y="134.970271"/>
     <use style="fill:#77b900;stroke:#77b900;stroke-linejoin:miter;" x="197.743341" xlink:href="#m08ef0e825d" y="230.566918"/>
     <use style="fill:#77b900;stroke:#77b900;stroke-linejoin:miter;" x="226.037304" xlink:href="#m08ef0e825d" y="201.055834"/>
     <use style="fill:#77b900;stroke:#77b900;stroke-linejoin:miter;" x="253.517644" xlink:href="#m08ef0e825d" y="129.497458"/>
     <use style="fill:#77b900;stroke:#77b900;stroke-linejoin:miter;" x="280.030841" xlink:href="#m08ef0e825d" y="162.589619"/>
    </g>
   </g>
   <g id="patch_3">
    <path d="M 78.829097 240.443312 
L 78.829097 23.162625 
" style="fill:none;stroke:#262626;stroke-linecap:square;stroke-linejoin:miter;stroke-width:1.25;"/>
   </g>
   <g id="patch_4">
    <path d="M 289.611876 240.443312 
L 289.611876 23.162625 
" style="fill:none;stroke:#262626;stroke-linecap:square;stroke-linejoin:miter;stroke-width:1.25;"/>
   </g>
   <g id="patch_5">
    <path d="M 78.829097 240.443312 
L 289.611876 240.443312 
" style="fill:none;stroke:#262626;stroke-linecap:square;stroke-linejoin:miter;stroke-width:1.25;"/>
   </g>
   <g id="patch_6">
    <path d="M 78.829097 23.162625 
L 289.611876 23.162625 
" style="fill:none;stroke:#262626;stroke-linecap:square;stroke-linejoin:miter;stroke-width:1.25;"/>
   </g>
   <g id="text_11">
    <!-- Sparse Density -->
    <g style="fill:#262626;" transform="translate(138.588012 17.162625)scale(0.144 -0.144)">
     <defs>
      <path d="M 2803 4290 
C 2803 4404 2797 4411 2758 4411 
C 2720 4411 2707 4385 2682 4328 
L 2490 3907 
C 2246 4257 1875 4416 1472 4416 
C 819 4416 294 3901 294 3253 
C 294 3056 339 2776 557 2510 
C 794 2218 1018 2167 1530 2033 
C 1722 1982 2042 1899 2106 1874 
C 2470 1722 2662 1341 2662 985 
C 2662 527 2336 38 1779 38 
C 1094 38 454 419 410 1311 
C 403 1413 397 1419 352 1419 
C 301 1419 294 1413 294 1285 
L 294 -1 
C 294 -115 301 -122 339 -122 
C 384 -122 397 -90 486 108 
C 493 127 493 140 614 381 
C 934 -39 1472 -128 1779 -128 
C 2477 -128 2970 451 2970 1124 
C 2970 1454 2848 1708 2778 1823 
C 2509 2230 2221 2306 1914 2382 
C 1869 2402 1856 2402 1498 2490 
C 1152 2579 1005 2624 845 2796 
C 666 2992 602 3196 602 3399 
C 602 3812 934 4263 1478 4263 
C 2157 4263 2579 3786 2675 2993 
C 2694 2878 2701 2872 2746 2872 
C 2803 2872 2803 2891 2803 2999 
L 2803 4290 
z
" id="CMR17-53" transform="scale(0.015625)"/>
      <path d="M 1408 -1063 
C 998 -1063 973 -1037 973 -789 
L 973 402 
C 1158 134 1427 -38 1766 -38 
C 2406 -38 3053 523 3053 1388 
C 3053 2191 2496 2802 1837 2802 
C 1453 2802 1139 2592 960 2338 
L 960 2802 
L 198 2732 
L 198 2567 
C 576 2567 634 2528 634 2223 
L 634 -789 
C 634 -1031 608 -1063 198 -1063 
L 198 -1228 
C 352 -1216 634 -1216 800 -1216 
C 966 -1216 1254 -1216 1408 -1228 
L 1408 -1063 
z
M 973 2012 
C 973 2102 973 2235 1222 2471 
C 1254 2497 1472 2688 1792 2688 
C 2259 2688 2643 2108 2643 1382 
C 2643 656 2234 64 1728 64 
C 1498 64 1248 172 1056 472 
C 973 612 973 650 973 752 
L 973 2012 
z
" id="CMR17-70" transform="scale(0.015625)"/>
      <path d="M 2304 1653 
C 2304 2072 2304 2294 2035 2543 
C 1798 2752 1523 2816 1306 2816 
C 800 2816 435 2407 435 1971 
C 435 1728 627 1728 666 1728 
C 749 1728 896 1778 896 1954 
C 896 2112 774 2181 666 2181 
C 640 2181 608 2174 589 2168 
C 723 2592 1069 2714 1293 2714 
C 1613 2714 1965 2429 1965 1885 
L 1965 1600 
C 1587 1600 1133 1549 774 1357 
C 371 1133 256 813 256 570 
C 256 77 832 -64 1171 -64 
C 1523 -64 1850 139 1990 511 
C 2003 233 2182 -18 2464 -18 
C 2598 -18 2938 70 2938 567 
L 2938 920 
L 2822 920 
L 2822 562 
C 2822 178 2650 128 2566 128 
C 2304 128 2304 458 2304 738 
L 2304 1653 
z
M 1965 870 
C 1965 317 1568 38 1216 38 
C 896 38 646 275 646 570 
C 646 761 730 1100 1101 1305 
C 1408 1478 1760 1504 1965 1504 
L 1965 870 
z
" id="CMR17-61" transform="scale(0.015625)"/>
      <path d="M 960 1497 
C 960 2112 1222 2688 1702 2688 
C 1747 2688 1792 2682 1837 2662 
C 1837 2662 1696 2617 1696 2452 
C 1696 2298 1818 2234 1914 2234 
C 1990 2234 2131 2279 2131 2458 
C 2131 2663 1926 2790 1709 2790 
C 1222 2790 1011 2317 947 2093 
L 941 2093 
L 941 2790 
L 198 2720 
L 198 2554 
C 576 2554 634 2515 634 2208 
L 634 428 
C 634 184 608 153 198 153 
L 198 -13 
C 352 0 646 0 813 0 
C 998 0 1325 0 1498 -13 
L 1498 153 
C 1037 153 960 153 960 440 
L 960 1497 
z
" id="CMR17-72" transform="scale(0.015625)"/>
      <path d="M 333 4352 
L 333 4186 
C 774 4186 845 4186 845 3900 
L 845 452 
C 845 166 774 166 333 166 
L 333 0 
L 2368 0 
C 3398 0 4224 943 4224 2141 
C 4224 3346 3411 4352 2368 4352 
L 333 4352 
z
M 1523 166 
C 1267 166 1254 197 1254 414 
L 1254 3938 
C 1254 4155 1267 4186 1523 4186 
L 2240 4186 
C 2771 4186 3750 3874 3750 2141 
C 3750 1242 3488 879 3366 707 
C 3213 510 2848 166 2240 166 
L 1523 166 
z
" id="CMR17-44" transform="scale(0.015625)"/>
     </defs>
     <use transform="scale(0.996264)" xlink:href="#CMR17-53"/>
     <use transform="translate(50.89537 0)scale(0.996264)" xlink:href="#CMR17-70"/>
     <use transform="translate(101.79074 0)scale(0.996264)" xlink:href="#CMR17-61"/>
     <use transform="translate(147.481217 0)scale(0.996264)" xlink:href="#CMR17-72"/>
     <use transform="translate(182.761984 0)scale(0.996264)" xlink:href="#CMR17-73"/>
     <use transform="translate(218.563322 0)scale(0.996264)" xlink:href="#CMR17-65"/>
     <use transform="translate(289.124949 0)scale(0.996264)" xlink:href="#CMR17-44"/>
     <use transform="translate(359.518505 0)scale(0.996264)" xlink:href="#CMR17-65"/>
     <use transform="translate(400.004165 0)scale(0.996264)" xlink:href="#CMR17-6e"/>
     <use transform="translate(450.899535 0)scale(0.996264)" xlink:href="#CMR17-73"/>
     <use transform="translate(486.700873 0)scale(0.996264)" xlink:href="#CMR17-69"/>
     <use transform="translate(511.571931 0)scale(0.996264)" xlink:href="#CMR17-74"/>
     <use transform="translate(544.250245 0)scale(0.996264)" xlink:href="#CMR17-79"/>
    </g>
   </g>
   <g id="legend_1">
    <g id="patch_7">
     <path d="M 217.069264 59.014008 
L 282.616356 59.014008 
Q 284.615076 59.014008 284.615076 57.015288 
L 284.615076 30.158145 
Q 284.615076 28.159425 282.616356 28.159425 
L 217.069264 28.159425 
Q 215.070544 28.159425 215.070544 30.158145 
L 215.070544 57.015288 
Q 215.070544 59.014008 217.069264 59.014008 
z
" style="fill:#ffffff;opacity:0.8;stroke:#cccccc;stroke-linejoin:miter;"/>
    </g>
    <g id="LineCollection_3">
     <path d="M 229.061584 40.651425 
L 229.061584 30.657825 
" style="fill:none;stroke:#0093ff;stroke-width:1.5;"/>
    </g>
    <g id="line2d_15">
     <path d="M 219.067984 35.654625 
L 239.055184 35.654625 
" style="fill:none;stroke:#0093ff;stroke-linecap:round;stroke-width:1.5;"/>
    </g>
    <g id="line2d_16">
     <g>
      <use style="fill:#0093ff;stroke:#0093ff;" x="229.061584" xlink:href="#m388a927242" y="35.654625"/>
     </g>
    </g>
    <g id="text_12">
     <!-- full -->
     <g style="fill:#262626;" transform="translate(247.050064 39.152385)scale(0.099936 -0.099936)">
      <defs>
       <path d="M 979 2560 
L 1709 2560 
L 1709 2725 
L 966 2725 
L 966 3494 
C 966 4022 1235 4352 1510 4352 
C 1594 4352 1690 4327 1754 4282 
C 1702 4269 1568 4225 1568 4067 
C 1568 3901 1696 3850 1786 3850 
C 1875 3850 2003 3901 2003 4067 
C 2003 4308 1773 4454 1517 4454 
C 1152 4454 653 4156 653 3481 
L 653 2725 
L 141 2725 
L 141 2560 
L 653 2560 
L 653 427 
C 653 184 627 153 218 153 
L 218 -13 
C 371 0 666 0 832 0 
C 1018 0 1344 0 1517 -13 
L 1517 153 
C 1056 153 979 153 979 439 
L 979 2560 
z
" id="CMR17-66" transform="scale(0.015625)"/>
       <path d="M 1882 2693 
L 1882 2528 
C 2259 2528 2317 2489 2317 2186 
L 2317 1032 
C 2317 500 2029 38 1555 38 
C 1030 38 986 348 986 678 
L 986 2763 
L 211 2693 
L 211 2528 
C 467 2528 640 2528 646 2274 
L 646 1058 
C 646 633 646 361 813 183 
C 896 101 1056 -64 1517 -64 
C 2061 -64 2272 377 2323 506 
L 2330 506 
L 2330 -63 
L 3091 -63 
L 3091 128 
C 2714 128 2656 166 2656 473 
L 2656 2763 
L 1882 2693 
z
" id="CMR17-75" transform="scale(0.015625)"/>
       <path d="M 979 4396 
L 218 4326 
L 218 4160 
C 595 4160 653 4122 653 3817 
L 653 426 
C 653 184 627 153 218 153 
L 218 -13 
C 371 0 653 0 813 0 
C 979 0 1261 0 1414 -13 
L 1414 153 
C 1005 153 979 178 979 426 
L 979 4396 
z
" id="CMR17-6c" transform="scale(0.015625)"/>
      </defs>
      <use transform="scale(0.996264)" xlink:href="#CMR17-66"/>
      <use transform="translate(27.473512 0)scale(0.996264)" xlink:href="#CMR17-75"/>
      <use transform="translate(78.368882 0)scale(0.996264)" xlink:href="#CMR17-6c"/>
      <use transform="translate(103.239941 0)scale(0.996264)" xlink:href="#CMR17-6c"/>
     </g>
    </g>
    <g id="LineCollection_4">
     <path d="M 229.061584 54.579677 
L 229.061584 44.586077 
" style="fill:none;stroke:#77b900;stroke-width:1.5;"/>
    </g>
    <g id="line2d_17">
     <path d="M 219.067984 49.582877 
L 239.055184 49.582877 
" style="fill:none;stroke:#77b900;stroke-linecap:round;stroke-width:1.5;"/>
    </g>
    <g id="line2d_18">
     <g>
      <use style="fill:#77b900;stroke:#77b900;stroke-linejoin:miter;" x="229.061584" xlink:href="#m08ef0e825d" y="49.582877"/>
     </g>
    </g>
    <g id="text_13">
     <!-- profiled -->
     <g style="fill:#262626;" transform="translate(247.050064 53.080637)scale(0.099936 -0.099936)">
      <defs>
       <path d="M 2758 1356 
C 2758 2176 2163 2816 1466 2816 
C 768 2816 173 2176 173 1356 
C 173 551 768 -64 1466 -64 
C 2163 -64 2758 551 2758 1356 
z
M 1466 51 
C 1165 51 909 230 762 480 
C 602 767 582 1126 582 1408 
C 582 1677 595 2010 762 2298 
C 890 2509 1139 2714 1466 2714 
C 1754 2714 1997 2554 2150 2330 
C 2349 2029 2349 1607 2349 1408 
C 2349 1158 2336 775 2163 467 
C 1984 173 1709 51 1466 51 
z
" id="CMR17-6f" transform="scale(0.015625)"/>
       <path d="M 2554 2764 
C 2400 2764 1926 2764 1805 2739 
C 1766 2725 1754 2725 1677 2725 
L 947 2725 
L 947 3469 
C 947 4073 1434 4352 1818 4352 
C 1939 4352 2214 4320 2355 4101 
C 2291 4101 2086 4101 2086 3878 
C 2086 3725 2189 3648 2317 3648 
C 2432 3648 2547 3712 2547 3885 
C 2547 4205 2240 4454 1843 4454 
C 1338 4454 634 4168 634 3469 
L 634 2725 
L 122 2725 
L 122 2560 
L 634 2560 
L 634 427 
C 634 184 608 153 198 153 
L 198 -13 
C 352 0 634 0 794 0 
C 960 0 1242 0 1395 -13 
L 1395 153 
C 986 153 960 178 960 427 
L 960 2560 
L 1901 2560 
C 2176 2560 2227 2502 2227 2222 
L 2227 427 
C 2227 184 2202 153 1792 153 
L 1792 -13 
C 1946 0 2227 0 2387 0 
C 2554 0 2835 0 2989 -13 
L 2989 153 
C 2579 153 2554 178 2554 427 
L 2554 2764 
z
" id="CMR17-c" transform="scale(0.015625)"/>
      </defs>
      <use transform="scale(0.996264)" xlink:href="#CMR17-70"/>
      <use transform="translate(50.89537 0)scale(0.996264)" xlink:href="#CMR17-72"/>
      <use transform="translate(86.176138 0)scale(0.996264)" xlink:href="#CMR17-6f"/>
      <use transform="translate(131.866615 0)scale(0.996264)" xlink:href="#CMR17-c"/>
      <use transform="translate(181.608838 0)scale(0.996264)" xlink:href="#CMR17-6c"/>
      <use transform="translate(206.479897 0)scale(0.996264)" xlink:href="#CMR17-65"/>
      <use transform="translate(246.965557 0)scale(0.996264)" xlink:href="#CMR17-64"/>
     </g>
    </g>
   </g>
  </g>
  <g id="axes_2">
   <g id="patch_8">
    <path d="M 352.388472 240.443312 
L 563.171251 240.443312 
L 563.171251 23.162625 
L 352.388472 23.162625 
z
" style="fill:none;"/>
   </g>
   <g id="matplotlib.axis_3">
    <g id="xtick_9">
     <g id="line2d_19">
      <g>
       <use style="fill:#262626;stroke:#262626;stroke-width:1.25;" x="361.969507" xlink:href="#ma677c4252b" y="240.443312"/>
      </g>
     </g>
     <g id="text_14">
      <!-- $\mathdefault{2^{12}}$ -->
      <g style="fill:#262626;" transform="translate(354.019849 259.075707)scale(0.132 -0.132)">
       <use transform="scale(0.996264)" xlink:href="#CMR17-32"/>
       <use transform="translate(45.690477 36.153639)scale(0.697382)" xlink:href="#CMR17-31"/>
       <use transform="translate(77.673659 36.153639)scale(0.697382)" xlink:href="#CMR17-32"/>
      </g>
     </g>
    </g>
    <g id="xtick_10">
     <g id="line2d_20">
      <g>
       <use style="fill:#262626;stroke:#262626;stroke-width:1.25;" x="388.094524" xlink:href="#ma677c4252b" y="240.443312"/>
      </g>
     </g>
     <g id="text_15">
      <!-- $\mathdefault{1.30103\times2^{12}}$ -->
      <g style="fill:#262626;" transform="translate(351.00514 259.186787)scale(0.132 -0.132)">
       <use transform="scale(0.996264)" xlink:href="#CMR17-31"/>
       <use transform="translate(45.690477 0)scale(0.996264)" xlink:href="#CMMI12-3a"/>
       <use transform="translate(72.787654 0)scale(0.996264)" xlink:href="#CMR17-33"/>
       <use transform="translate(118.478131 0)scale(0.996264)" xlink:href="#CMR17-30"/>
       <use transform="translate(164.168608 0)scale(0.996264)" xlink:href="#CMR17-31"/>
       <use transform="translate(209.859086 0)scale(0.996264)" xlink:href="#CMR17-30"/>
       <use transform="translate(255.549563 0)scale(0.996264)" xlink:href="#CMR17-33"/>
       <use transform="translate(323.379247 0)scale(0.996264)" xlink:href="#CMSY10-2"/>
       <use transform="translate(423.005921 0)scale(0.996264)" xlink:href="#CMR17-32"/>
       <use transform="translate(468.696399 36.153639)scale(0.697382)" xlink:href="#CMR17-31"/>
       <use transform="translate(500.67958 36.153639)scale(0.697382)" xlink:href="#CMR17-32"/>
      </g>
     </g>
    </g>
    <g id="xtick_11">
     <g id="line2d_21">
      <g>
       <use style="fill:#262626;stroke:#262626;stroke-width:1.25;" x="415.963044" xlink:href="#ma677c4252b" y="240.443312"/>
      </g>
     </g>
    </g>
    <g id="xtick_12">
     <g id="line2d_22">
      <g>
       <use style="fill:#262626;stroke:#262626;stroke-width:1.25;" x="444.533815" xlink:href="#ma677c4252b" y="240.443312"/>
      </g>
     </g>
     <g id="text_16">
      <!-- $\mathdefault{1.14856\times2^{13}}$ -->
      <g style="fill:#262626;" transform="translate(407.44443 259.186787)scale(0.132 -0.132)">
       <use transform="scale(0.996264)" xlink:href="#CMR17-31"/>
       <use transform="translate(45.690477 0)scale(0.996264)" xlink:href="#CMMI12-3a"/>
       <use transform="translate(72.787654 0)scale(0.996264)" xlink:href="#CMR17-31"/>
       <use transform="translate(118.478131 0)scale(0.996264)" xlink:href="#CMR17-34"/>
       <use transform="translate(164.168608 0)scale(0.996264)" xlink:href="#CMR17-38"/>
       <use transform="translate(209.859086 0)scale(0.996264)" xlink:href="#CMR17-35"/>
       <use transform="translate(255.549563 0)scale(0.996264)" xlink:href="#CMR17-36"/>
       <use transform="translate(323.379247 0)scale(0.996264)" xlink:href="#CMSY10-2"/>
       <use transform="translate(423.005921 0)scale(0.996264)" xlink:href="#CMR17-32"/>
       <use transform="translate(468.696399 36.153639)scale(0.697382)" xlink:href="#CMR17-31"/>
       <use transform="translate(500.67958 36.153639)scale(0.697382)" xlink:href="#CMR17-33"/>
      </g>
     </g>
    </g>
    <g id="xtick_13">
     <g id="line2d_23">
      <g>
       <use style="fill:#262626;stroke:#262626;stroke-width:1.25;" x="471.302716" xlink:href="#ma677c4252b" y="240.443312"/>
      </g>
     </g>
    </g>
    <g id="xtick_14">
     <g id="line2d_24">
      <g>
       <use style="fill:#262626;stroke:#262626;stroke-width:1.25;" x="499.596678" xlink:href="#ma677c4252b" y="240.443312"/>
      </g>
     </g>
     <g id="text_17">
      <!-- $\mathdefault{2^{14}}$ -->
      <g style="fill:#262626;" transform="translate(491.64702 259.075707)scale(0.132 -0.132)">
       <use transform="scale(0.996264)" xlink:href="#CMR17-32"/>
       <use transform="translate(45.690477 36.153639)scale(0.697382)" xlink:href="#CMR17-31"/>
       <use transform="translate(77.673659 36.153639)scale(0.697382)" xlink:href="#CMR17-34"/>
      </g>
     </g>
    </g>
    <g id="xtick_15">
     <g id="line2d_25">
      <g>
       <use style="fill:#262626;stroke:#262626;stroke-width:1.25;" x="527.077018" xlink:href="#ma677c4252b" y="240.443312"/>
      </g>
     </g>
     <g id="text_18">
      <!-- $\mathdefault{1.31891\times2^{14}}$ -->
      <g style="fill:#262626;" transform="translate(489.987634 259.186787)scale(0.132 -0.132)">
       <use transform="scale(0.996264)" xlink:href="#CMR17-31"/>
       <use transform="translate(45.690477 0)scale(0.996264)" xlink:href="#CMMI12-3a"/>
       <use transform="translate(72.787654 0)scale(0.996264)" xlink:href="#CMR17-33"/>
       <use transform="translate(118.478131 0)scale(0.996264)" xlink:href="#CMR17-31"/>
       <use transform="translate(164.168608 0)scale(0.996264)" xlink:href="#CMR17-38"/>
       <use transform="translate(209.859086 0)scale(0.996264)" xlink:href="#CMR17-39"/>
       <use transform="translate(255.549563 0)scale(0.996264)" xlink:href="#CMR17-31"/>
       <use transform="translate(323.379247 0)scale(0.996264)" xlink:href="#CMSY10-2"/>
       <use transform="translate(423.005921 0)scale(0.996264)" xlink:href="#CMR17-32"/>
       <use transform="translate(468.696399 36.153639)scale(0.697382)" xlink:href="#CMR17-31"/>
       <use transform="translate(500.67958 36.153639)scale(0.697382)" xlink:href="#CMR17-34"/>
      </g>
     </g>
    </g>
    <g id="xtick_16">
     <g id="line2d_26">
      <g>
       <use style="fill:#262626;stroke:#262626;stroke-width:1.25;" x="553.590216" xlink:href="#ma677c4252b" y="240.443312"/>
      </g>
     </g>
    </g>
    <g id="text_19">
     <!-- $n$ -->
     <g style="fill:#262626;" transform="translate(453.587301 275.706473)scale(0.144 -0.144)">
      <use transform="scale(0.996264)" xlink:href="#CMMI12-6e"/>
     </g>
    </g>
   </g>
   <g id="matplotlib.axis_4">
    <g id="ytick_4">
     <g id="line2d_27">
      <path clip-path="url(#p4f49639b62)" d="M 352.388472 141.329208 
L 563.171251 141.329208 
" style="fill:none;stroke:#cccccc;stroke-linecap:round;"/>
     </g>
     <g id="line2d_28">
      <g>
       <use style="fill:#262626;stroke:#262626;stroke-width:1.25;" x="352.388472" xlink:href="#m8a087e252d" y="141.329208"/>
      </g>
     </g>
     <g id="text_20">
      <!-- $\mathdefault{10^{5}}$ -->
      <g style="fill:#262626;" transform="translate(325.281402 145.895406)scale(0.132 -0.132)">
       <use transform="scale(0.996264)" xlink:href="#CMR17-31"/>
       <use transform="translate(45.690477 0)scale(0.996264)" xlink:href="#CMR17-30"/>
       <use transform="translate(91.380954 36.153639)scale(0.697382)" xlink:href="#CMR17-35"/>
      </g>
     </g>
    </g>
    <g id="ytick_5">
     <g id="line2d_29">
      <g>
       <use style="fill:#262626;stroke:#262626;" x="352.388472" xlink:href="#m346d935493" y="231.18877"/>
      </g>
     </g>
    </g>
    <g id="ytick_6">
     <g id="line2d_30">
      <g>
       <use style="fill:#262626;stroke:#262626;" x="352.388472" xlink:href="#m346d935493" y="208.550483"/>
      </g>
     </g>
    </g>
    <g id="ytick_7">
     <g id="line2d_31">
      <g>
       <use style="fill:#262626;stroke:#262626;" x="352.388472" xlink:href="#m346d935493" y="192.488363"/>
      </g>
     </g>
    </g>
    <g id="ytick_8">
     <g id="line2d_32">
      <g>
       <use style="fill:#262626;stroke:#262626;" x="352.388472" xlink:href="#m346d935493" y="180.029615"/>
      </g>
     </g>
    </g>
    <g id="ytick_9">
     <g id="line2d_33">
      <g>
       <use style="fill:#262626;stroke:#262626;" x="352.388472" xlink:href="#m346d935493" y="169.850076"/>
      </g>
     </g>
    </g>
    <g id="ytick_10">
     <g id="line2d_34">
      <g>
       <use style="fill:#262626;stroke:#262626;" x="352.388472" xlink:href="#m346d935493" y="161.243399"/>
      </g>
     </g>
    </g>
    <g id="ytick_11">
     <g id="line2d_35">
      <g>
       <use style="fill:#262626;stroke:#262626;" x="352.388472" xlink:href="#m346d935493" y="153.787956"/>
      </g>
     </g>
    </g>
    <g id="ytick_12">
     <g id="line2d_36">
      <g>
       <use style="fill:#262626;stroke:#262626;" x="352.388472" xlink:href="#m346d935493" y="147.21179"/>
      </g>
     </g>
    </g>
    <g id="ytick_13">
     <g id="line2d_37">
      <g>
       <use style="fill:#262626;stroke:#262626;" x="352.388472" xlink:href="#m346d935493" y="102.628801"/>
      </g>
     </g>
    </g>
    <g id="ytick_14">
     <g id="line2d_38">
      <g>
       <use style="fill:#262626;stroke:#262626;" x="352.388472" xlink:href="#m346d935493" y="79.990515"/>
      </g>
     </g>
    </g>
    <g id="ytick_15">
     <g id="line2d_39">
      <g>
       <use style="fill:#262626;stroke:#262626;" x="352.388472" xlink:href="#m346d935493" y="63.928395"/>
      </g>
     </g>
    </g>
    <g id="ytick_16">
     <g id="line2d_40">
      <g>
       <use style="fill:#262626;stroke:#262626;" x="352.388472" xlink:href="#m346d935493" y="51.469646"/>
      </g>
     </g>
    </g>
    <g id="ytick_17">
     <g id="line2d_41">
      <g>
       <use style="fill:#262626;stroke:#262626;" x="352.388472" xlink:href="#m346d935493" y="41.290108"/>
      </g>
     </g>
    </g>
    <g id="ytick_18">
     <g id="line2d_42">
      <g>
       <use style="fill:#262626;stroke:#262626;" x="352.388472" xlink:href="#m346d935493" y="32.683431"/>
      </g>
     </g>
    </g>
    <g id="ytick_19">
     <g id="line2d_43">
      <g>
       <use style="fill:#262626;stroke:#262626;" x="352.388472" xlink:href="#m346d935493" y="25.227988"/>
      </g>
     </g>
    </g>
    <g id="text_21">
     <!-- nnz -->
     <g style="fill:#262626;" transform="translate(318.491875 142.728528)rotate(-90)scale(0.144 -0.144)">
      <defs>
       <path d="M 2310 2605 
C 2362 2670 2362 2682 2362 2695 
C 2362 2752 2336 2752 2221 2752 
L 275 2752 
L 211 1760 
L 326 1760 
C 371 2381 442 2650 1178 2650 
L 1958 2650 
L 128 96 
C 128 0 134 0 269 0 
L 2291 0 
L 2381 1152 
L 2266 1152 
C 2214 442 2131 115 1350 115 
L 531 115 
L 2310 2605 
z
" id="CMR17-7a" transform="scale(0.015625)"/>
      </defs>
      <use transform="scale(0.996264)" xlink:href="#CMR17-6e"/>
      <use transform="translate(50.89537 0)scale(0.996264)" xlink:href="#CMR17-6e"/>
      <use transform="translate(101.79074 0)scale(0.996264)" xlink:href="#CMR17-7a"/>
     </g>
    </g>
   </g>
   <g id="LineCollection_5">
    <path clip-path="url(#p4f49639b62)" d="M 361.969507 230.566918 
L 361.969507 230.566918 
" style="fill:none;stroke:#0093ff;stroke-width:1.5;"/>
    <path clip-path="url(#p4f49639b62)" d="M 388.094524 215.787277 
L 388.094524 215.787277 
" style="fill:none;stroke:#0093ff;stroke-width:1.5;"/>
    <path clip-path="url(#p4f49639b62)" d="M 415.963044 167.570867 
L 415.963044 167.570867 
" style="fill:none;stroke:#0093ff;stroke-width:1.5;"/>
    <path clip-path="url(#p4f49639b62)" d="M 444.533815 151.383152 
L 444.533815 151.383152 
" style="fill:none;stroke:#0093ff;stroke-width:1.5;"/>
    <path clip-path="url(#p4f49639b62)" d="M 471.302716 136.231036 
L 471.302716 136.231036 
" style="fill:none;stroke:#0093ff;stroke-width:1.5;"/>
    <path clip-path="url(#p4f49639b62)" d="M 499.596678 99.788906 
L 499.596678 99.788906 
" style="fill:none;stroke:#0093ff;stroke-width:1.5;"/>
    <path clip-path="url(#p4f49639b62)" d="M 527.077018 57.683117 
L 527.077018 57.683117 
" style="fill:none;stroke:#0093ff;stroke-width:1.5;"/>
    <path clip-path="url(#p4f49639b62)" d="M 553.590216 33.03902 
L 553.590216 33.03902 
" style="fill:none;stroke:#0093ff;stroke-width:1.5;"/>
   </g>
   <g id="LineCollection_6">
    <path clip-path="url(#p4f49639b62)" d="M 361.969507 230.566918 
L 361.969507 230.566918 
" style="fill:none;stroke:#77b900;stroke-width:1.5;"/>
    <path clip-path="url(#p4f49639b62)" d="M 388.094524 215.787277 
L 388.094524 215.787277 
" style="fill:none;stroke:#77b900;stroke-width:1.5;"/>
    <path clip-path="url(#p4f49639b62)" d="M 415.963044 167.570867 
L 415.963044 167.570867 
" style="fill:none;stroke:#77b900;stroke-width:1.5;"/>
    <path clip-path="url(#p4f49639b62)" d="M 444.533815 151.383152 
L 444.533815 151.383152 
" style="fill:none;stroke:#77b900;stroke-width:1.5;"/>
    <path clip-path="url(#p4f49639b62)" d="M 471.302716 136.231036 
L 471.302716 136.231036 
" style="fill:none;stroke:#77b900;stroke-width:1.5;"/>
    <path clip-path="url(#p4f49639b62)" d="M 499.596678 99.788906 
L 499.596678 99.788906 
" style="fill:none;stroke:#77b900;stroke-width:1.5;"/>
    <path clip-path="url(#p4f49639b62)" d="M 527.077018 57.683117 
L 527.077018 57.683117 
" style="fill:none;stroke:#77b900;stroke-width:1.5;"/>
    <path clip-path="url(#p4f49639b62)" d="M 553.590216 33.03902 
L 553.590216 33.03902 
" style="fill:none;stroke:#77b900;stroke-width:1.5;"/>
   </g>
   <g id="line2d_44">
    <path clip-path="url(#p4f49639b62)" d="M 361.969507 230.566918 
L 388.094524 215.787277 
L 415.963044 167.570867 
L 444.533815 151.383152 
L 471.302716 136.231036 
L 499.596678 99.788906 
L 527.077018 57.683117 
L 553.590216 33.03902 
" style="fill:none;stroke:#0093ff;stroke-linecap:round;stroke-width:1.5;"/>
    <g clip-path="url(#p4f49639b62)">
     <use style="fill:#0093ff;stroke:#0093ff;" x="361.969507" xlink:href="#m388a927242" y="230.566918"/>
     <use style="fill:#0093ff;stroke:#0093ff;" x="388.094524" xlink:href="#m388a927242" y="215.787277"/>
     <use style="fill:#0093ff;stroke:#0093ff;" x="415.963044" xlink:href="#m388a927242" y="167.570867"/>
     <use style="fill:#0093ff;stroke:#0093ff;" x="444.533815" xlink:href="#m388a927242" y="151.383152"/>
     <use style="fill:#0093ff;stroke:#0093ff;" x="471.302716" xlink:href="#m388a927242" y="136.231036"/>
     <use style="fill:#0093ff;stroke:#0093ff;" x="499.596678" xlink:href="#m388a927242" y="99.788906"/>
     <use style="fill:#0093ff;stroke:#0093ff;" x="527.077018" xlink:href="#m388a927242" y="57.683117"/>
     <use style="fill:#0093ff;stroke:#0093ff;" x="553.590216" xlink:href="#m388a927242" y="33.03902"/>
    </g>
   </g>
   <g id="line2d_45">
    <path clip-path="url(#p4f49639b62)" d="M 361.969507 230.566918 
L 388.094524 215.787277 
L 415.963044 167.570867 
L 444.533815 151.383152 
L 471.302716 136.231036 
L 499.596678 99.788906 
L 527.077018 57.683117 
L 553.590216 33.03902 
" style="fill:none;stroke:#77b900;stroke-linecap:round;stroke-width:1.5;"/>
    <g clip-path="url(#p4f49639b62)">
     <use style="fill:#77b900;stroke:#77b900;stroke-linejoin:miter;" x="361.969507" xlink:href="#m08ef0e825d" y="230.566918"/>
     <use style="fill:#77b900;stroke:#77b900;stroke-linejoin:miter;" x="388.094524" xlink:href="#m08ef0e825d" y="215.787277"/>
     <use style="fill:#77b900;stroke:#77b900;stroke-linejoin:miter;" x="415.963044" xlink:href="#m08ef0e825d" y="167.570867"/>
     <use style="fill:#77b900;stroke:#77b900;stroke-linejoin:miter;" x="444.533815" xlink:href="#m08ef0e825d" y="151.383152"/>
     <use style="fill:#77b900;stroke:#77b900;stroke-linejoin:miter;" x="471.302716" xlink:href="#m08ef0e825d" y="136.231036"/>
     <use style="fill:#77b900;stroke:#77b900;stroke-linejoin:miter;" x="499.596678" xlink:href="#m08ef0e825d" y="99.788906"/>
     <use style="fill:#77b900;stroke:#77b900;stroke-linejoin:miter;" x="527.077018" xlink:href="#m08ef0e825d" y="57.683117"/>
     <use style="fill:#77b900;stroke:#77b900;stroke-linejoin:miter;" x="553.590216" xlink:href="#m08ef0e825d" y="33.03902"/>
    </g>
   </g>
   <g id="patch_9">
    <path d="M 352.388472 240.443312 
L 352.388472 23.162625 
" style="fill:none;stroke:#262626;stroke-linecap:square;stroke-linejoin:miter;stroke-width:1.25;"/>
   </g>
   <g id="patch_10">
    <path d="M 563.171251 240.443312 
L 563.171251 23.162625 
" style="fill:none;stroke:#262626;stroke-linecap:square;stroke-linejoin:miter;stroke-width:1.25;"/>
   </g>
   <g id="patch_11">
    <path d="M 352.388472 240.443312 
L 563.171251 240.443312 
" style="fill:none;stroke:#262626;stroke-linecap:square;stroke-linejoin:miter;stroke-width:1.25;"/>
   </g>
   <g id="patch_12">
    <path d="M 352.388472 23.162625 
L 563.171251 23.162625 
" style="fill:none;stroke:#262626;stroke-linecap:square;stroke-linejoin:miter;stroke-width:1.25;"/>
   </g>
   <g id="text_22">
    <!-- Number of Non-Zeros -->
    <g style="fill:#262626;" transform="translate(391.216957 17.162625)scale(0.144 -0.144)">
     <defs>
      <path d="M 1312 4250 
C 1267 4320 1261 4320 1139 4320 
L 326 4320 
L 326 4160 
L 448 4160 
C 704 4160 819 4129 838 4122 
L 838 610 
C 838 451 838 153 326 153 
L 326 -13 
C 474 0 742 0 902 0 
C 1062 0 1331 0 1478 -13 
L 1478 153 
C 966 153 966 451 966 610 
L 966 4033 
C 1011 3995 1011 3982 1056 3919 
L 3430 76 
C 3475 0 3494 0 3526 0 
C 3590 0 3590 19 3590 139 
L 3590 3705 
C 3590 3863 3590 4160 4102 4160 
L 4102 4326 
C 3955 4320 3686 4320 3526 4320 
C 3366 4320 3098 4320 2950 4326 
L 2950 4160 
C 3462 4160 3462 3862 3462 3703 
L 3462 763 
L 1312 4250 
z
" id="CMR17-4e" transform="scale(0.015625)"/>
      <path d="M 4326 1933 
C 4326 2252 4269 2790 3507 2790 
C 3072 2790 2771 2496 2656 2151 
L 2650 2151 
C 2573 2676 2195 2790 1837 2790 
C 1331 2790 1069 2400 973 2144 
L 966 2144 
L 966 2790 
L 211 2720 
L 211 2554 
C 589 2554 646 2515 646 2208 
L 646 428 
C 646 184 621 153 211 153 
L 211 -13 
C 365 0 646 0 813 0 
C 979 0 1267 0 1421 -13 
L 1421 153 
C 1011 153 986 178 986 428 
L 986 1658 
C 986 2247 1344 2688 1792 2688 
C 2266 2688 2317 2266 2317 1958 
L 2317 428 
C 2317 184 2291 153 1882 153 
L 1882 -13 
C 2035 0 2317 0 2483 0 
C 2650 0 2938 0 3091 -13 
L 3091 153 
C 2682 153 2656 178 2656 428 
L 2656 1658 
C 2656 2247 3014 2688 3462 2688 
C 3936 2688 3987 2266 3987 1958 
L 3987 428 
C 3987 184 3962 153 3552 153 
L 3552 -13 
C 3706 0 3987 0 4154 0 
C 4320 0 4608 0 4762 -13 
L 4762 153 
C 4352 153 4326 178 4326 428 
L 4326 1933 
z
" id="CMR17-6d" transform="scale(0.015625)"/>
      <path d="M 960 4396 
L 198 4326 
L 198 4160 
C 576 4160 634 4122 634 3817 
L 634 -13 
L 749 -13 
L 934 441 
C 1120 141 1395 -64 1766 -64 
C 2406 -64 3053 500 3053 1370 
C 3053 2188 2477 2790 1830 2790 
C 1434 2790 1152 2579 960 2330 
L 960 4396 
z
M 973 2004 
C 973 2118 973 2138 1062 2272 
C 1312 2657 1670 2688 1792 2688 
C 1984 2688 2643 2585 2643 1376 
C 2643 108 1888 38 1734 38 
C 1536 38 1248 114 1043 486 
C 973 608 973 621 973 735 
L 973 2004 
z
" id="CMR17-62" transform="scale(0.015625)"/>
      <path d="M 1632 1216 
L 1632 1496 
L 26 1496 
L 26 1216 
L 1632 1216 
z
" id="CMR17-2d" transform="scale(0.015625)"/>
      <path d="M 3302 4230 
C 3302 4352 3296 4352 3162 4352 
L 442 4352 
L 378 2948 
L 493 2948 
C 531 3675 723 4192 1760 4192 
L 2816 4192 
L 339 204 
C 294 134 294 127 294 83 
C 294 0 307 0 435 0 
L 3245 0 
L 3334 1666 
L 3219 1666 
C 3162 829 3117 178 1894 178 
L 781 178 
L 3302 4230 
z
" id="CMR17-5a" transform="scale(0.015625)"/>
     </defs>
     <use transform="scale(0.996264)" xlink:href="#CMR17-4e"/>
     <use transform="translate(69.07243 0)scale(0.996264)" xlink:href="#CMR17-75"/>
     <use transform="translate(119.9678 0)scale(0.996264)" xlink:href="#CMR17-6d"/>
     <use transform="translate(194.284936 0)scale(0.996264)" xlink:href="#CMR17-62"/>
     <use transform="translate(247.782744 0)scale(0.996264)" xlink:href="#CMR17-65"/>
     <use transform="translate(288.268404 0)scale(0.996264)" xlink:href="#CMR17-72"/>
     <use transform="translate(353.625139 0)scale(0.996264)" xlink:href="#CMR17-6f"/>
     <use transform="translate(399.315616 0)scale(0.996264)" xlink:href="#CMR17-66"/>
     <use transform="translate(456.865095 0)scale(0.996264)" xlink:href="#CMR17-4e"/>
     <use transform="translate(525.937524 0)scale(0.996264)" xlink:href="#CMR17-6f"/>
     <use transform="translate(571.628001 0)scale(0.996264)" xlink:href="#CMR17-6e"/>
     <use transform="translate(622.523371 0)scale(0.996264)" xlink:href="#CMR17-2d"/>
     <use transform="translate(652.599338 0)scale(0.996264)" xlink:href="#CMR17-5a"/>
     <use transform="translate(708.699509 0)scale(0.996264)" xlink:href="#CMR17-65"/>
     <use transform="translate(749.185169 0)scale(0.996264)" xlink:href="#CMR17-72"/>
     <use transform="translate(784.465937 0)scale(0.996264)" xlink:href="#CMR17-6f"/>
     <use transform="translate(830.156414 0)scale(0.996264)" xlink:href="#CMR17-73"/>
    </g>
   </g>
   <g id="legend_2">
    <g id="patch_13">
     <path d="M 359.383992 59.014008 
L 424.931084 59.014008 
Q 426.929804 59.014008 426.929804 57.015288 
L 426.929804 30.158145 
Q 426.929804 28.159425 424.931084 28.159425 
L 359.383992 28.159425 
Q 357.385272 28.159425 357.385272 30.158145 
L 357.385272 57.015288 
Q 357.385272 59.014008 359.383992 59.014008 
z
" style="fill:#ffffff;opacity:0.8;stroke:#cccccc;stroke-linejoin:miter;"/>
    </g>
    <g id="LineCollection_7">
     <path d="M 371.376312 40.651425 
L 371.376312 30.657825 
" style="fill:none;stroke:#0093ff;stroke-width:1.5;"/>
    </g>
    <g id="line2d_46">
     <path d="M 361.382712 35.654625 
L 381.369912 35.654625 
" style="fill:none;stroke:#0093ff;stroke-linecap:round;stroke-width:1.5;"/>
    </g>
    <g id="line2d_47">
     <g>
      <use style="fill:#0093ff;stroke:#0093ff;" x="371.376312" xlink:href="#m388a927242" y="35.654625"/>
     </g>
    </g>
    <g id="text_23">
     <!-- full -->
     <g style="fill:#262626;" transform="translate(389.364792 39.152385)scale(0.099936 -0.099936)">
      <use transform="scale(0.996264)" xlink:href="#CMR17-66"/>
      <use transform="translate(27.473512 0)scale(0.996264)" xlink:href="#CMR17-75"/>
      <use transform="translate(78.368882 0)scale(0.996264)" xlink:href="#CMR17-6c"/>
      <use transform="translate(103.239941 0)scale(0.996264)" xlink:href="#CMR17-6c"/>
     </g>
    </g>
    <g id="LineCollection_8">
     <path d="M 371.376312 54.579677 
L 371.376312 44.586077 
" style="fill:none;stroke:#77b900;stroke-width:1.5;"/>
    </g>
    <g id="line2d_48">
     <path d="M 361.382712 49.582877 
L 381.369912 49.582877 
" style="fill:none;stroke:#77b900;stroke-linecap:round;stroke-width:1.5;"/>
    </g>
    <g id="line2d_49">
     <g>
      <use style="fill:#77b900;stroke:#77b900;stroke-linejoin:miter;" x="371.376312" xlink:href="#m08ef0e825d" y="49.582877"/>
     </g>
    </g>
    <g id="text_24">
     <!-- profiled -->
     <g style="fill:#262626;" transform="translate(389.364792 53.080637)scale(0.099936 -0.099936)">
      <use transform="scale(0.996264)" xlink:href="#CMR17-70"/>
      <use transform="translate(50.89537 0)scale(0.996264)" xlink:href="#CMR17-72"/>
      <use transform="translate(86.176138 0)scale(0.996264)" xlink:href="#CMR17-6f"/>
      <use transform="translate(131.866615 0)scale(0.996264)" xlink:href="#CMR17-c"/>
      <use transform="translate(181.608838 0)scale(0.996264)" xlink:href="#CMR17-6c"/>
      <use transform="translate(206.479897 0)scale(0.996264)" xlink:href="#CMR17-65"/>
      <use transform="translate(246.965557 0)scale(0.996264)" xlink:href="#CMR17-64"/>
     </g>
    </g>
   </g>
  </g>
  <g id="axes_3">
   <g id="patch_14">
    <path d="M 625.947846 240.443312 
L 836.730626 240.443312 
L 836.730626 23.162625 
L 625.947846 23.162625 
z
" style="fill:none;"/>
   </g>
   <g id="matplotlib.axis_5">
    <g id="xtick_17">
     <g id="line2d_50">
      <g>
       <use style="fill:#262626;stroke:#262626;stroke-width:1.25;" x="635.528882" xlink:href="#ma677c4252b" y="240.443312"/>
      </g>
     </g>
     <g id="text_25">
      <!-- $\mathdefault{2^{12}}$ -->
      <g style="fill:#262626;" transform="translate(627.579224 259.075707)scale(0.132 -0.132)">
       <use transform="scale(0.996264)" xlink:href="#CMR17-32"/>
       <use transform="translate(45.690477 36.153639)scale(0.697382)" xlink:href="#CMR17-31"/>
       <use transform="translate(77.673659 36.153639)scale(0.697382)" xlink:href="#CMR17-32"/>
      </g>
     </g>
    </g>
    <g id="xtick_18">
     <g id="line2d_51">
      <g>
       <use style="fill:#262626;stroke:#262626;stroke-width:1.25;" x="661.653899" xlink:href="#ma677c4252b" y="240.443312"/>
      </g>
     </g>
     <g id="text_26">
      <!-- $\mathdefault{1.30103\times2^{12}}$ -->
      <g style="fill:#262626;" transform="translate(624.564514 259.186787)scale(0.132 -0.132)">
       <use transform="scale(0.996264)" xlink:href="#CMR17-31"/>
       <use transform="translate(45.690477 0)scale(0.996264)" xlink:href="#CMMI12-3a"/>
       <use transform="translate(72.787654 0)scale(0.996264)" xlink:href="#CMR17-33"/>
       <use transform="translate(118.478131 0)scale(0.996264)" xlink:href="#CMR17-30"/>
       <use transform="translate(164.168608 0)scale(0.996264)" xlink:href="#CMR17-31"/>
       <use transform="translate(209.859086 0)scale(0.996264)" xlink:href="#CMR17-30"/>
       <use transform="translate(255.549563 0)scale(0.996264)" xlink:href="#CMR17-33"/>
       <use transform="translate(323.379247 0)scale(0.996264)" xlink:href="#CMSY10-2"/>
       <use transform="translate(423.005921 0)scale(0.996264)" xlink:href="#CMR17-32"/>
       <use transform="translate(468.696399 36.153639)scale(0.697382)" xlink:href="#CMR17-31"/>
       <use transform="translate(500.67958 36.153639)scale(0.697382)" xlink:href="#CMR17-32"/>
      </g>
     </g>
    </g>
    <g id="xtick_19">
     <g id="line2d_52">
      <g>
       <use style="fill:#262626;stroke:#262626;stroke-width:1.25;" x="689.522419" xlink:href="#ma677c4252b" y="240.443312"/>
      </g>
     </g>
    </g>
    <g id="xtick_20">
     <g id="line2d_53">
      <g>
       <use style="fill:#262626;stroke:#262626;stroke-width:1.25;" x="718.093189" xlink:href="#ma677c4252b" y="240.443312"/>
      </g>
     </g>
     <g id="text_27">
      <!-- $\mathdefault{1.14856\times2^{13}}$ -->
      <g style="fill:#262626;" transform="translate(681.003805 259.186787)scale(0.132 -0.132)">
       <use transform="scale(0.996264)" xlink:href="#CMR17-31"/>
       <use transform="translate(45.690477 0)scale(0.996264)" xlink:href="#CMMI12-3a"/>
       <use transform="translate(72.787654 0)scale(0.996264)" xlink:href="#CMR17-31"/>
       <use transform="translate(118.478131 0)scale(0.996264)" xlink:href="#CMR17-34"/>
       <use transform="translate(164.168608 0)scale(0.996264)" xlink:href="#CMR17-38"/>
       <use transform="translate(209.859086 0)scale(0.996264)" xlink:href="#CMR17-35"/>
       <use transform="translate(255.549563 0)scale(0.996264)" xlink:href="#CMR17-36"/>
       <use transform="translate(323.379247 0)scale(0.996264)" xlink:href="#CMSY10-2"/>
       <use transform="translate(423.005921 0)scale(0.996264)" xlink:href="#CMR17-32"/>
       <use transform="translate(468.696399 36.153639)scale(0.697382)" xlink:href="#CMR17-31"/>
       <use transform="translate(500.67958 36.153639)scale(0.697382)" xlink:href="#CMR17-33"/>
      </g>
     </g>
    </g>
    <g id="xtick_21">
     <g id="line2d_54">
      <g>
       <use style="fill:#262626;stroke:#262626;stroke-width:1.25;" x="744.86209" xlink:href="#ma677c4252b" y="240.443312"/>
      </g>
     </g>
    </g>
    <g id="xtick_22">
     <g id="line2d_55">
      <g>
       <use style="fill:#262626;stroke:#262626;stroke-width:1.25;" x="773.156053" xlink:href="#ma677c4252b" y="240.443312"/>
      </g>
     </g>
     <g id="text_28">
      <!-- $\mathdefault{2^{14}}$ -->
      <g style="fill:#262626;" transform="translate(765.206395 259.075707)scale(0.132 -0.132)">
       <use transform="scale(0.996264)" xlink:href="#CMR17-32"/>
       <use transform="translate(45.690477 36.153639)scale(0.697382)" xlink:href="#CMR17-31"/>
       <use transform="translate(77.673659 36.153639)scale(0.697382)" xlink:href="#CMR17-34"/>
      </g>
     </g>
    </g>
    <g id="xtick_23">
     <g id="line2d_56">
      <g>
       <use style="fill:#262626;stroke:#262626;stroke-width:1.25;" x="800.636393" xlink:href="#ma677c4252b" y="240.443312"/>
      </g>
     </g>
     <g id="text_29">
      <!-- $\mathdefault{1.31891\times2^{14}}$ -->
      <g style="fill:#262626;" transform="translate(763.547008 259.186787)scale(0.132 -0.132)">
       <use transform="scale(0.996264)" xlink:href="#CMR17-31"/>
       <use transform="translate(45.690477 0)scale(0.996264)" xlink:href="#CMMI12-3a"/>
       <use transform="translate(72.787654 0)scale(0.996264)" xlink:href="#CMR17-33"/>
       <use transform="translate(118.478131 0)scale(0.996264)" xlink:href="#CMR17-31"/>
       <use transform="translate(164.168608 0)scale(0.996264)" xlink:href="#CMR17-38"/>
       <use transform="translate(209.859086 0)scale(0.996264)" xlink:href="#CMR17-39"/>
       <use transform="translate(255.549563 0)scale(0.996264)" xlink:href="#CMR17-31"/>
       <use transform="translate(323.379247 0)scale(0.996264)" xlink:href="#CMSY10-2"/>
       <use transform="translate(423.005921 0)scale(0.996264)" xlink:href="#CMR17-32"/>
       <use transform="translate(468.696399 36.153639)scale(0.697382)" xlink:href="#CMR17-31"/>
       <use transform="translate(500.67958 36.153639)scale(0.697382)" xlink:href="#CMR17-34"/>
      </g>
     </g>
    </g>
    <g id="xtick_24">
     <g id="line2d_57">
      <g>
       <use style="fill:#262626;stroke:#262626;stroke-width:1.25;" x="827.14959" xlink:href="#ma677c4252b" y="240.443312"/>
      </g>
     </g>
    </g>
    <g id="text_30">
     <!-- $n$ -->
     <g style="fill:#262626;" transform="translate(727.146676 275.706473)scale(0.144 -0.144)">
      <use transform="scale(0.996264)" xlink:href="#CMMI12-6e"/>
     </g>
    </g>
   </g>
   <g id="matplotlib.axis_6">
    <g id="ytick_20">
     <g id="line2d_58">
      <path clip-path="url(#p4dd9e136eb)" d="M 625.947846 229.940454 
L 836.730626 229.940454 
" style="fill:none;stroke:#cccccc;stroke-linecap:round;"/>
     </g>
     <g id="line2d_59">
      <g>
       <use style="fill:#262626;stroke:#262626;stroke-width:1.25;" x="625.947846" xlink:href="#m8a087e252d" y="229.940454"/>
      </g>
     </g>
     <g id="text_31">
      <!-- $\mathdefault{5}$ -->
      <g style="fill:#262626;" transform="translate(610.009572 234.506651)scale(0.132 -0.132)">
       <use transform="scale(0.996264)" xlink:href="#CMR17-35"/>
      </g>
     </g>
    </g>
    <g id="ytick_21">
     <g id="line2d_60">
      <path clip-path="url(#p4dd9e136eb)" d="M 625.947846 179.823343 
L 836.730626 179.823343 
" style="fill:none;stroke:#cccccc;stroke-linecap:round;"/>
     </g>
     <g id="line2d_61">
      <g>
       <use style="fill:#262626;stroke:#262626;stroke-width:1.25;" x="625.947846" xlink:href="#m8a087e252d" y="179.823343"/>
      </g>
     </g>
     <g id="text_32">
      <!-- $\mathdefault{10}$ -->
      <g style="fill:#262626;" transform="translate(603.571298 184.38954)scale(0.132 -0.132)">
       <use transform="scale(0.996264)" xlink:href="#CMR17-31"/>
       <use transform="translate(45.690477 0)scale(0.996264)" xlink:href="#CMR17-30"/>
      </g>
     </g>
    </g>
    <g id="ytick_22">
     <g id="line2d_62">
      <path clip-path="url(#p4dd9e136eb)" d="M 625.947846 129.706232 
L 836.730626 129.706232 
" style="fill:none;stroke:#cccccc;stroke-linecap:round;"/>
     </g>
     <g id="line2d_63">
      <g>
       <use style="fill:#262626;stroke:#262626;stroke-width:1.25;" x="625.947846" xlink:href="#m8a087e252d" y="129.706232"/>
      </g>
     </g>
     <g id="text_33">
      <!-- $\mathdefault{15}$ -->
      <g style="fill:#262626;" transform="translate(603.571298 134.27243)scale(0.132 -0.132)">
       <use transform="scale(0.996264)" xlink:href="#CMR17-31"/>
       <use transform="translate(45.690477 0)scale(0.996264)" xlink:href="#CMR17-35"/>
      </g>
     </g>
    </g>
    <g id="ytick_23">
     <g id="line2d_64">
      <path clip-path="url(#p4dd9e136eb)" d="M 625.947846 79.589122 
L 836.730626 79.589122 
" style="fill:none;stroke:#cccccc;stroke-linecap:round;"/>
     </g>
     <g id="line2d_65">
      <g>
       <use style="fill:#262626;stroke:#262626;stroke-width:1.25;" x="625.947846" xlink:href="#m8a087e252d" y="79.589122"/>
      </g>
     </g>
     <g id="text_34">
      <!-- $\mathdefault{20}$ -->
      <g style="fill:#262626;" transform="translate(603.571298 84.155319)scale(0.132 -0.132)">
       <use transform="scale(0.996264)" xlink:href="#CMR17-32"/>
       <use transform="translate(45.690477 0)scale(0.996264)" xlink:href="#CMR17-30"/>
      </g>
     </g>
    </g>
    <g id="ytick_24">
     <g id="line2d_66">
      <path clip-path="url(#p4dd9e136eb)" d="M 625.947846 29.472011 
L 836.730626 29.472011 
" style="fill:none;stroke:#cccccc;stroke-linecap:round;"/>
     </g>
     <g id="line2d_67">
      <g>
       <use style="fill:#262626;stroke:#262626;stroke-width:1.25;" x="625.947846" xlink:href="#m8a087e252d" y="29.472011"/>
      </g>
     </g>
     <g id="text_35">
      <!-- $\mathdefault{25}$ -->
      <g style="fill:#262626;" transform="translate(603.571298 34.038209)scale(0.132 -0.132)">
       <use transform="scale(0.996264)" xlink:href="#CMR17-32"/>
       <use transform="translate(45.690477 0)scale(0.996264)" xlink:href="#CMR17-35"/>
      </g>
     </g>
    </g>
    <g id="text_36">
     <!-- avg row nnz -->
     <g style="fill:#262626;" transform="translate(596.781771 169.066923)rotate(-90)scale(0.144 -0.144)">
      <defs>
       <path d="M 2502 2163 
C 2560 2304 2662 2560 3034 2560 
L 3034 2726 
C 2912 2726 2752 2726 2630 2726 
C 2496 2726 2285 2726 2157 2732 
L 2157 2566 
C 2317 2553 2406 2477 2406 2311 
C 2406 2253 2406 2240 2368 2151 
L 1664 377 
L 902 2286 
C 864 2369 864 2381 864 2407 
C 864 2560 1075 2560 1171 2560 
L 1171 2732 
C 1018 2726 736 2726 576 2726 
C 403 2726 205 2726 64 2732 
L 64 2560 
C 307 2560 442 2560 518 2362 
L 1446 44 
C 1485 -51 1491 -64 1549 -64 
C 1606 -64 1613 -51 1651 44 
L 2502 2163 
z
" id="CMR17-76" transform="scale(0.015625)"/>
       <path d="M 710 1164 
C 832 1068 1043 960 1299 960 
C 1805 960 2240 1357 2240 1888 
C 2240 2054 2189 2310 1997 2509 
C 2176 2692 2438 2752 2586 2752 
C 2611 2752 2650 2752 2682 2734 
C 2656 2728 2598 2703 2598 2605 
C 2598 2527 2656 2471 2739 2471 
C 2835 2471 2886 2533 2886 2614 
C 2886 2731 2790 2854 2586 2854 
C 2330 2854 2106 2738 1926 2580 
C 1734 2753 1504 2816 1299 2816 
C 794 2816 358 2419 358 1888 
C 358 1522 570 1292 634 1228 
C 442 1004 442 743 442 711 
C 442 545 506 302 723 168 
C 390 85 128 -169 128 -486 
C 128 -943 736 -1280 1466 -1280 
C 2170 -1280 2803 -956 2803 -479 
C 2803 384 1856 384 1363 384 
C 1216 384 954 384 922 391 
C 723 423 589 602 589 826 
C 589 883 589 1024 710 1164 
z
M 1299 1068 
C 736 1068 736 1760 736 1889 
C 736 2016 736 2708 1299 2708 
C 1862 2708 1862 2016 1862 1889 
C 1862 1760 1862 1068 1299 1068 
z
M 1466 -1171 
C 826 -1171 384 -835 384 -486 
C 384 -289 493 -105 634 -4 
C 794 104 858 104 1293 104 
C 1818 104 2547 104 2547 -486 
C 2547 -835 2106 -1171 1466 -1171 
z
" id="CMR17-67" transform="scale(0.015625)"/>
       <path d="M 3725 2183 
C 3853 2560 4109 2560 4205 2560 
L 4205 2732 
C 4077 2732 3949 2732 3821 2732 
C 3699 2732 3424 2732 3315 2738 
L 3315 2560 
C 3514 2560 3622 2445 3622 2286 
C 3622 2241 3610 2184 3597 2140 
L 2995 407 
L 2342 2275 
C 2330 2319 2310 2370 2310 2395 
C 2310 2560 2528 2560 2630 2560 
L 2630 2738 
C 2483 2732 2214 2732 2061 2732 
C 1901 2732 1734 2732 1587 2738 
L 1587 2560 
C 1939 2560 1939 2547 2074 2149 
L 1485 451 
L 851 2281 
C 819 2363 819 2376 819 2395 
C 819 2560 1037 2560 1139 2560 
L 1139 2738 
C 986 2732 717 2732 557 2732 
C 416 2732 198 2732 64 2738 
L 64 2560 
C 346 2560 416 2541 486 2331 
L 1274 49 
C 1299 -33 1318 -52 1370 -52 
C 1414 -52 1440 -39 1472 56 
L 2131 1980 
L 2797 56 
C 2829 -39 2854 -52 2899 -52 
C 2950 -52 2970 -33 2995 50 
L 3725 2183 
z
" id="CMR17-77" transform="scale(0.015625)"/>
      </defs>
      <use transform="scale(0.996264)" xlink:href="#CMR17-61"/>
      <use transform="translate(43.088023 0)scale(0.996264)" xlink:href="#CMR17-76"/>
      <use transform="translate(91.380939 0)scale(0.996264)" xlink:href="#CMR17-67"/>
      <use transform="translate(167.147382 0)scale(0.996264)" xlink:href="#CMR17-72"/>
      <use transform="translate(202.42815 0)scale(0.996264)" xlink:href="#CMR17-6f"/>
      <use transform="translate(245.516173 0)scale(0.996264)" xlink:href="#CMR17-77"/>
      <use transform="translate(342.10202 0)scale(0.996264)" xlink:href="#CMR17-6e"/>
      <use transform="translate(392.99739 0)scale(0.996264)" xlink:href="#CMR17-6e"/>
      <use transform="translate(443.89276 0)scale(0.996264)" xlink:href="#CMR17-7a"/>
     </g>
    </g>
   </g>
   <g id="LineCollection_9">
    <path clip-path="url(#p4dd9e136eb)" d="M 635.528882 230.566918 
L 635.528882 230.566918 
" style="fill:none;stroke:#0093ff;stroke-width:1.5;"/>
    <path clip-path="url(#p4dd9e136eb)" d="M 661.653899 230.489682 
L 661.653899 230.489682 
" style="fill:none;stroke:#0093ff;stroke-width:1.5;"/>
    <path clip-path="url(#p4dd9e136eb)" d="M 689.522419 191.273 
L 689.522419 191.273 
" style="fill:none;stroke:#0093ff;stroke-width:1.5;"/>
    <path clip-path="url(#p4dd9e136eb)" d="M 718.093189 191.082515 
L 718.093189 191.082515 
" style="fill:none;stroke:#0093ff;stroke-width:1.5;"/>
    <path clip-path="url(#p4dd9e136eb)" d="M 744.86209 190.927124 
L 744.86209 190.927124 
" style="fill:none;stroke:#0093ff;stroke-width:1.5;"/>
    <path clip-path="url(#p4dd9e136eb)" d="M 773.156053 151.316789 
L 773.156053 151.316789 
" style="fill:none;stroke:#0093ff;stroke-width:1.5;"/>
    <path clip-path="url(#p4dd9e136eb)" d="M 800.636393 72.556631 
L 800.636393 72.556631 
" style="fill:none;stroke:#0093ff;stroke-width:1.5;"/>
    <path clip-path="url(#p4dd9e136eb)" d="M 827.14959 33.03902 
L 827.14959 33.03902 
" style="fill:none;stroke:#0093ff;stroke-width:1.5;"/>
   </g>
   <g id="LineCollection_10">
    <path clip-path="url(#p4dd9e136eb)" d="M 635.528882 230.566918 
L 635.528882 230.566918 
" style="fill:none;stroke:#77b900;stroke-width:1.5;"/>
    <path clip-path="url(#p4dd9e136eb)" d="M 661.653899 230.489682 
L 661.653899 230.489682 
" style="fill:none;stroke:#77b900;stroke-width:1.5;"/>
    <path clip-path="url(#p4dd9e136eb)" d="M 689.522419 191.273 
L 689.522419 191.273 
" style="fill:none;stroke:#77b900;stroke-width:1.5;"/>
    <path clip-path="url(#p4dd9e136eb)" d="M 718.093189 191.082515 
L 718.093189 191.082515 
" style="fill:none;stroke:#77b900;stroke-width:1.5;"/>
    <path clip-path="url(#p4dd9e136eb)" d="M 744.86209 190.927124 
L 744.86209 190.927124 
" style="fill:none;stroke:#77b900;stroke-width:1.5;"/>
    <path clip-path="url(#p4dd9e136eb)" d="M 773.156053 151.316789 
L 773.156053 151.316789 
" style="fill:none;stroke:#77b900;stroke-width:1.5;"/>
    <path clip-path="url(#p4dd9e136eb)" d="M 800.636393 72.556631 
L 800.636393 72.556631 
" style="fill:none;stroke:#77b900;stroke-width:1.5;"/>
    <path clip-path="url(#p4dd9e136eb)" d="M 827.14959 33.03902 
L 827.14959 33.03902 
" style="fill:none;stroke:#77b900;stroke-width:1.5;"/>
   </g>
   <g id="line2d_68">
    <path clip-path="url(#p4dd9e136eb)" d="M 635.528882 230.566918 
L 661.653899 230.489682 
L 689.522419 191.273 
L 718.093189 191.082515 
L 744.86209 190.927124 
L 773.156053 151.316789 
L 800.636393 72.556631 
L 827.14959 33.03902 
" style="fill:none;stroke:#0093ff;stroke-linecap:round;stroke-width:1.5;"/>
    <g clip-path="url(#p4dd9e136eb)">
     <use style="fill:#0093ff;stroke:#0093ff;" x="635.528882" xlink:href="#m388a927242" y="230.566918"/>
     <use style="fill:#0093ff;stroke:#0093ff;" x="661.653899" xlink:href="#m388a927242" y="230.489682"/>
     <use style="fill:#0093ff;stroke:#0093ff;" x="689.522419" xlink:href="#m388a927242" y="191.273"/>
     <use style="fill:#0093ff;stroke:#0093ff;" x="718.093189" xlink:href="#m388a927242" y="191.082515"/>
     <use style="fill:#0093ff;stroke:#0093ff;" x="744.86209" xlink:href="#m388a927242" y="190.927124"/>
     <use style="fill:#0093ff;stroke:#0093ff;" x="773.156053" xlink:href="#m388a927242" y="151.316789"/>
     <use style="fill:#0093ff;stroke:#0093ff;" x="800.636393" xlink:href="#m388a927242" y="72.556631"/>
     <use style="fill:#0093ff;stroke:#0093ff;" x="827.14959" xlink:href="#m388a927242" y="33.03902"/>
    </g>
   </g>
   <g id="line2d_69">
    <path clip-path="url(#p4dd9e136eb)" d="M 635.528882 230.566918 
L 661.653899 230.489682 
L 689.522419 191.273 
L 718.093189 191.082515 
L 744.86209 190.927124 
L 773.156053 151.316789 
L 800.636393 72.556631 
L 827.14959 33.03902 
" style="fill:none;stroke:#77b900;stroke-linecap:round;stroke-width:1.5;"/>
    <g clip-path="url(#p4dd9e136eb)">
     <use style="fill:#77b900;stroke:#77b900;stroke-linejoin:miter;" x="635.528882" xlink:href="#m08ef0e825d" y="230.566918"/>
     <use style="fill:#77b900;stroke:#77b900;stroke-linejoin:miter;" x="661.653899" xlink:href="#m08ef0e825d" y="230.489682"/>
     <use style="fill:#77b900;stroke:#77b900;stroke-linejoin:miter;" x="689.522419" xlink:href="#m08ef0e825d" y="191.273"/>
     <use style="fill:#77b900;stroke:#77b900;stroke-linejoin:miter;" x="718.093189" xlink:href="#m08ef0e825d" y="191.082515"/>
     <use style="fill:#77b900;stroke:#77b900;stroke-linejoin:miter;" x="744.86209" xlink:href="#m08ef0e825d" y="190.927124"/>
     <use style="fill:#77b900;stroke:#77b900;stroke-linejoin:miter;" x="773.156053" xlink:href="#m08ef0e825d" y="151.316789"/>
     <use style="fill:#77b900;stroke:#77b900;stroke-linejoin:miter;" x="800.636393" xlink:href="#m08ef0e825d" y="72.556631"/>
     <use style="fill:#77b900;stroke:#77b900;stroke-linejoin:miter;" x="827.14959" xlink:href="#m08ef0e825d" y="33.03902"/>
    </g>
   </g>
   <g id="patch_15">
    <path d="M 625.947846 240.443312 
L 625.947846 23.162625 
" style="fill:none;stroke:#262626;stroke-linecap:square;stroke-linejoin:miter;stroke-width:1.25;"/>
   </g>
   <g id="patch_16">
    <path d="M 836.730626 240.443312 
L 836.730626 23.162625 
" style="fill:none;stroke:#262626;stroke-linecap:square;stroke-linejoin:miter;stroke-width:1.25;"/>
   </g>
   <g id="patch_17">
    <path d="M 625.947846 240.443312 
L 836.730626 240.443312 
" style="fill:none;stroke:#262626;stroke-linecap:square;stroke-linejoin:miter;stroke-width:1.25;"/>
   </g>
   <g id="patch_18">
    <path d="M 625.947846 23.162625 
L 836.730626 23.162625 
" style="fill:none;stroke:#262626;stroke-linecap:square;stroke-linejoin:miter;stroke-width:1.25;"/>
   </g>
   <g id="text_37">
    <!-- Average NNZ per Row -->
    <g style="fill:#262626;" transform="translate(661.209727 17.162625)scale(0.144 -0.144)">
     <defs>
      <path d="M 2323 4378 
C 2291 4461 2278 4480 2214 4480 
C 2150 4480 2138 4461 2106 4378 
L 749 566 
C 627 223 371 153 147 153 
L 147 -13 
C 262 0 518 0 640 0 
C 800 0 1056 0 1210 -13 
L 1210 153 
C 909 153 864 361 864 439 
C 864 497 877 530 890 569 
L 1229 1536 
L 2906 1536 
L 3290 442 
C 3322 365 3322 352 3322 327 
C 3322 153 3046 153 2925 153 
L 2925 0 
C 3110 0 3443 0 3642 0 
C 3808 0 4128 0 4282 -13 
L 4282 153 
C 3942 153 3827 153 3744 387 
L 2323 4378 
z
M 2067 3893 
L 2848 1702 
L 1286 1702 
L 2067 3893 
z
" id="CMR17-41" transform="scale(0.015625)"/>
      <path d="M 2509 2146 
C 3117 2268 3629 2676 3629 3186 
C 3629 3785 2950 4326 2054 4326 
L 333 4326 
L 333 4160 
C 774 4160 845 4160 845 3873 
L 845 415 
C 845 128 774 128 333 128 
L 333 -26 
C 518 -26 851 -26 1050 -26 
C 1248 -26 1581 -26 1766 -26 
L 1766 128 
C 1325 128 1254 128 1254 417 
L 1254 2112 
L 2003 2112 
C 2368 2112 2573 1964 2662 1881 
C 2918 1632 2918 1459 2918 1024 
C 2918 595 2918 377 3110 160 
C 3354 -102 3680 -128 3821 -128 
C 4294 -128 4365 396 4365 503 
C 4365 540 4365 585 4307 585 
C 4256 585 4250 547 4250 522 
C 4218 112 4032 -26 3834 -26 
C 3482 -26 3443 375 3405 764 
C 3386 898 3373 993 3360 1133 
C 3322 1452 3270 1917 2509 2146 
z
M 1984 2214 
L 1254 2214 
L 1254 3913 
C 1254 4129 1267 4160 1523 4160 
L 1990 4160 
C 2522 4160 3142 3977 3142 3190 
C 3142 2372 2464 2214 1984 2214 
z
" id="CMR17-52" transform="scale(0.015625)"/>
     </defs>
     <use transform="scale(0.996264)" xlink:href="#CMR17-41"/>
     <use transform="translate(69.07243 0)scale(0.996264)" xlink:href="#CMR17-76"/>
     <use transform="translate(114.762892 0)scale(0.996264)" xlink:href="#CMR17-65"/>
     <use transform="translate(155.248552 0)scale(0.996264)" xlink:href="#CMR17-72"/>
     <use transform="translate(190.52932 0)scale(0.996264)" xlink:href="#CMR17-61"/>
     <use transform="translate(236.219797 0)scale(0.996264)" xlink:href="#CMR17-67"/>
     <use transform="translate(281.910274 0)scale(0.996264)" xlink:href="#CMR17-65"/>
     <use transform="translate(352.471901 0)scale(0.996264)" xlink:href="#CMR17-4e"/>
     <use transform="translate(421.544331 0)scale(0.996264)" xlink:href="#CMR17-4e"/>
     <use transform="translate(490.616761 0)scale(0.996264)" xlink:href="#CMR17-5a"/>
     <use transform="translate(576.792898 0)scale(0.996264)" xlink:href="#CMR17-70"/>
     <use transform="translate(630.290707 0)scale(0.996264)" xlink:href="#CMR17-65"/>
     <use transform="translate(670.776367 0)scale(0.996264)" xlink:href="#CMR17-72"/>
     <use transform="translate(736.133101 0)scale(0.996264)" xlink:href="#CMR17-52"/>
     <use transform="translate(803.924203 0)scale(0.996264)" xlink:href="#CMR17-6f"/>
     <use transform="translate(847.012226 0)scale(0.996264)" xlink:href="#CMR17-77"/>
    </g>
   </g>
   <g id="legend_3">
    <g id="patch_19">
     <path d="M 632.943366 59.014008 
L 698.490459 59.014008 
Q 700.489179 59.014008 700.489179 57.015288 
L 700.489179 30.158145 
Q 700.489179 28.159425 698.490459 28.159425 
L 632.943366 28.159425 
Q 630.944646 28.159425 630.944646 30.158145 
L 630.944646 57.015288 
Q 630.944646 59.014008 632.943366 59.014008 
z
" style="fill:#ffffff;opacity:0.8;stroke:#cccccc;stroke-linejoin:miter;"/>
    </g>
    <g id="LineCollection_11">
     <path d="M 644.935686 40.651425 
L 644.935686 30.657825 
" style="fill:none;stroke:#0093ff;stroke-width:1.5;"/>
    </g>
    <g id="line2d_70">
     <path d="M 634.942086 35.654625 
L 654.929286 35.654625 
" style="fill:none;stroke:#0093ff;stroke-linecap:round;stroke-width:1.5;"/>
    </g>
    <g id="line2d_71">
     <g>
      <use style="fill:#0093ff;stroke:#0093ff;" x="644.935686" xlink:href="#m388a927242" y="35.654625"/>
     </g>
    </g>
    <g id="text_38">
     <!-- full -->
     <g style="fill:#262626;" transform="translate(662.924166 39.152385)scale(0.099936 -0.099936)">
      <use transform="scale(0.996264)" xlink:href="#CMR17-66"/>
      <use transform="translate(27.473512 0)scale(0.996264)" xlink:href="#CMR17-75"/>
      <use transform="translate(78.368882 0)scale(0.996264)" xlink:href="#CMR17-6c"/>
      <use transform="translate(103.239941 0)scale(0.996264)" xlink:href="#CMR17-6c"/>
     </g>
    </g>
    <g id="LineCollection_12">
     <path d="M 644.935686 54.579677 
L 644.935686 44.586077 
" style="fill:none;stroke:#77b900;stroke-width:1.5;"/>
    </g>
    <g id="line2d_72">
     <path d="M 634.942086 49.582877 
L 654.929286 49.582877 
" style="fill:none;stroke:#77b900;stroke-linecap:round;stroke-width:1.5;"/>
    </g>
    <g id="line2d_73">
     <g>
      <use style="fill:#77b900;stroke:#77b900;stroke-linejoin:miter;" x="644.935686" xlink:href="#m08ef0e825d" y="49.582877"/>
     </g>
    </g>
    <g id="text_39">
     <!-- profiled -->
     <g style="fill:#262626;" transform="translate(662.924166 53.080637)scale(0.099936 -0.099936)">
      <use transform="scale(0.996264)" xlink:href="#CMR17-70"/>
      <use transform="translate(50.89537 0)scale(0.996264)" xlink:href="#CMR17-72"/>
      <use transform="translate(86.176138 0)scale(0.996264)" xlink:href="#CMR17-6f"/>
      <use transform="translate(131.866615 0)scale(0.996264)" xlink:href="#CMR17-c"/>
      <use transform="translate(181.608838 0)scale(0.996264)" xlink:href="#CMR17-6c"/>
      <use transform="translate(206.479897 0)scale(0.996264)" xlink:href="#CMR17-65"/>
      <use transform="translate(246.965557 0)scale(0.996264)" xlink:href="#CMR17-64"/>
     </g>
    </g>
   </g>
  </g>
 </g>
 <defs>
  <clipPath id="p3edd6bdb41">
   <rect height="217.280688" width="210.782779" x="78.829097" y="23.162625"/>
  </clipPath>
  <clipPath id="p4f49639b62">
   <rect height="217.280688" width="210.782779" x="352.388472" y="23.162625"/>
  </clipPath>
  <clipPath id="p4dd9e136eb">
   <rect height="217.280688" width="210.782779" x="625.947846" y="23.162625"/>
  </clipPath>
 </defs>
</svg>
